<?xml version="1.0" encoding="UTF-8" standalone="no"?>
<svg
   xmlns:dc="http://purl.org/dc/elements/1.1/"
   xmlns:cc="http://creativecommons.org/ns#"
   xmlns:rdf="http://www.w3.org/1999/02/22-rdf-syntax-ns#"
   xmlns:svg="http://www.w3.org/2000/svg"
   xmlns="http://www.w3.org/2000/svg"
   xmlns:xlink="http://www.w3.org/1999/xlink"
   xmlns:sodipodi="http://sodipodi.sourceforge.net/DTD/sodipodi-0.dtd"
   xmlns:inkscape="http://www.inkscape.org/namespaces/inkscape"
   width="100%"
   height="100%"
   version="1.1"
   id="svg2"
   inkscape:version="0.48.2 r9819"
   sodipodi:docname="board-large.svg">
  <metadata
     id="metadata329">
    <rdf:RDF>
      <cc:Work
         rdf:about="">
        <dc:format>image/svg+xml</dc:format>
        <dc:type
           rdf:resource="http://purl.org/dc/dcmitype/StillImage" />
        <dc:title />
      </cc:Work>
    </rdf:RDF>
  </metadata>
  <sodipodi:namedview
     pagecolor="#ffffff"
     bordercolor="#666666"
     borderopacity="1"
     objecttolerance="10"
     gridtolerance="10"
     guidetolerance="10"
     inkscape:pageopacity="0"
     inkscape:pageshadow="2"
     inkscape:window-width="1366"
     inkscape:window-height="720"
     id="namedview327"
     showgrid="false"
     inkscape:zoom="0.89702957"
     inkscape:cx="360.89934"
     inkscape:cy="795.88014"
     inkscape:window-x="0"
     inkscape:window-y="0"
     inkscape:window-maximized="1"
     inkscape:current-layer="svg2" />
  <defs
     id="defs4">
    <path
       id="hex"
       fill-opacity="100"
       fill="yellow"
       stroke-width="0.1"
       stroke="black"
       d="M 2,0 L 1,1 -1,1 -2,0 -1,-1 1,-1 Z" />
    <path
       id="partl"
       fill-opacity="100"
       fill="brown"
       stroke-width="0.1"
       stroke="black"
       d="M -1,-1  L 1,-1 2,0 1,1 -1,1" />
    <path
       id="partul"
       fill-opacity="100"
       fill="brown"
       stroke-width="0.1"
       stroke="black"
       d="M 1,-1  L 2,0 1,1 -1,1 -2,0" />
    <path
       id="partur"
       fill-opacity="100"
       fill="brown"
       stroke-width="0.1"
       stroke="black"
       d="M 2,0  L 1,1 -1,1 -2,0 -1,-1" />
    <path
       id="cornerll"
       fill-opacity="100"
       fill="brown"
       stroke-width="0.1"
       stroke="black"
       d="M -1,-1  L 1,-1 2,0 1,1" />
    <path
       id="cornerul"
       fill-opacity="100"
       fill="brown"
       stroke-width="0.1"
       stroke="black"
       d="M 1,-1  L 2,0 1,1 -1,1" />
    <path
       id="corneru"
       fill-opacity="100"
       fill="brown"
       stroke-width="0.1"
       stroke="black"
       d="M 2,0  L 1,1 -1,1 -2,0" />
    <g
       id="cornerur">
      <use
         xlink:href="#cornerll"
         transform="rotate(180)"
         id="use14" />
    </g>
    <g
       id="cornerlr">
      <use
         xlink:href="#cornerul"
         transform="rotate(180)"
         id="use17" />
    </g>
    <g
       id="cornerl">
      <use
         xlink:href="#corneru"
         transform="rotate(180)"
         id="use20" />
    </g>
    <g
       id="partr">
      <use
         xlink:href="#partl"
         transform="rotate(180)"
         id="use23" />
    </g>
    <g
       id="partll">
      <use
         xlink:href="#partur"
         transform="rotate(180)"
         id="use26" />
    </g>
    <g
       id="partlr">
      <use
         xlink:href="#partul"
         transform="rotate(180)"
         id="use29" />
    </g>
  </defs>
  <use
     height="1052.3622"
     width="744.09448"
     y="0"
     x="0"
     id="use33"
     transform="matrix(0,10,-17.32,0,483.35838,120.79247)"
     xlink:href="#cornerul" />
  <use
     height="1052.3622"
     width="744.09448"
     y="0"
     x="0"
     id="use35"
     transform="matrix(0,10,-17.32,0,274.95419,120.49877)"
     xlink:href="#cornerll" />
  <use
     height="1052.3622"
     width="744.09448"
     y="0"
     x="0"
     id="use37"
     transform="matrix(0,10,-17.32,0,483.39233,480.95683)"
     xlink:href="#cornerur" />
  <use
     height="1052.3622"
     width="744.09448"
     y="0"
     x="0"
     id="use39"
     transform="matrix(0,10,-17.32,0,276.35604,481.51423)"
     xlink:href="#cornerlr" />
  <use
     height="1052.3622"
     width="744.09448"
     y="0"
     x="0"
     id="use41"
     transform="matrix(0,10,-17.32,0,587.31233,300.95683)"
     xlink:href="#corneru" />
  <use
     height="1052.3622"
     width="744.09448"
     y="0"
     x="0"
     id="use43"
     transform="matrix(0,10,-17.32,0,172.43604,301.51423)"
     xlink:href="#cornerl" />
  <use
     height="1052.3622"
     width="744.09448"
     y="0"
     x="0"
     id="use45"
     transform="matrix(0,10,-17.32,0,448.71838,120.79247)"
     xlink:href="#partl" />
  <use
     height="1052.3622"
     width="744.09448"
     y="0"
     x="0"
     id="use47"
     transform="matrix(0,10,-17.32,0,414.07838,120.79247)"
     xlink:href="#partl" />
  <use
     height="1052.3622"
     width="744.09448"
     y="0"
     x="0"
     id="use49"
     transform="matrix(0,10,-17.32,0,379.43838,120.79247)"
     xlink:href="#partl" />
  <use
     height="1052.3622"
     width="744.09448"
     y="0"
     x="0"
     id="use51"
     transform="matrix(0,10,-17.32,0,344.79838,120.79247)"
     xlink:href="#partl" />
  <use
     height="1052.3622"
     width="744.09448"
     y="0"
     x="0"
     id="use57"
     transform="matrix(0,10,-17.32,0,500.71233,150.95683)"
     xlink:href="#partul" />
  <use
     height="1052.3622"
     width="744.09448"
     y="0"
     x="0"
     id="use59"
     transform="matrix(0,10,-17.32,0,518.03233,180.95683)"
     xlink:href="#partul" />
  <use
     height="1052.3622"
     width="744.09448"
     y="0"
     x="0"
     id="use61"
     transform="matrix(0,10,-17.32,0,535.35233,210.95683)"
     xlink:href="#partul" />
  <use
     height="1052.3622"
     width="744.09448"
     y="0"
     x="0"
     id="use63"
     transform="matrix(0,10,-17.32,0,552.67233,240.95683)"
     xlink:href="#partul" />
  <use
     height="1052.3622"
     width="744.09448"
     y="0"
     x="0"
     id="use65"
     transform="matrix(0,10,-17.32,0,569.99233,270.95683)"
     xlink:href="#partul" />
  <use
     height="1052.3622"
     width="744.09448"
     y="0"
     x="0"
     id="use67"
     transform="matrix(0,10,-17.32,0,569.99233,330.95683)"
     xlink:href="#partur" />
  <use
     height="1052.3622"
     width="744.09448"
     y="0"
     x="0"
     id="use69"
     transform="matrix(0,10,-17.32,0,552.67233,360.95683)"
     xlink:href="#partur" />
  <use
     height="1052.3622"
     width="744.09448"
     y="0"
     x="0"
     id="use71"
     transform="matrix(0,10,-17.32,0,535.35233,390.95683)"
     xlink:href="#partur" />
  <use
     height="1052.3622"
     width="744.09448"
     y="0"
     x="0"
     id="use73"
     transform="matrix(0,10,-17.32,0,518.03233,420.95683)"
     xlink:href="#partur" />
  <use
     height="1052.3622"
     width="744.09448"
     y="0"
     x="0"
     id="use75"
     transform="matrix(0,10,-17.32,0,500.71233,450.95683)"
     xlink:href="#partur" />
  <use
     height="1052.3622"
     width="744.09448"
     y="0"
     x="0"
     id="use77"
     transform="matrix(0,10,-17.32,0,257.63419,150.49878)"
     xlink:href="#partll" />
  <use
     height="1052.3622"
     width="744.09448"
     y="0"
     x="0"
     id="use79"
     transform="matrix(0,10,-17.32,0,240.31419,180.49878)"
     xlink:href="#partll" />
  <use
     height="1052.3622"
     width="744.09448"
     y="0"
     x="0"
     id="use81"
     transform="matrix(0,10,-17.32,0,222.99419,210.49878)"
     xlink:href="#partll" />
  <use
     height="1052.3622"
     width="744.09448"
     y="0"
     x="0"
     id="use83"
     transform="matrix(0,10,-17.32,0,205.67419,240.49878)"
     xlink:href="#partll" />
  <use
     height="1052.3622"
     width="744.09448"
     y="0"
     x="0"
     id="use85"
     transform="matrix(0,10,-17.32,0,188.35419,270.49878)"
     xlink:href="#partll" />
  <use
     height="1052.3622"
     width="744.09448"
     y="0"
     x="0"
     id="use89"
     transform="matrix(0,10,-17.32,0,189.75604,331.51423)"
     xlink:href="#partlr" />
  <use
     height="1052.3622"
     width="744.09448"
     y="0"
     x="0"
     id="use91"
     transform="matrix(0,10,-17.32,0,207.07604,361.51423)"
     xlink:href="#partlr" />
  <use
     height="1052.3622"
     width="744.09448"
     y="0"
     x="0"
     id="use93"
     transform="matrix(0,10,-17.32,0,224.39604,391.51423)"
     xlink:href="#partlr" />
  <use
     height="1052.3622"
     width="744.09448"
     y="0"
     x="0"
     id="use95"
     transform="matrix(0,10,-17.32,0,241.71604,421.51423)"
     xlink:href="#partlr" />
  <use
     height="1052.3622"
     width="744.09448"
     y="0"
     x="0"
     id="use97"
     transform="matrix(0,10,-17.32,0,259.03604,451.51423)"
     xlink:href="#partlr" />
  <use
     height="1052.3622"
     width="744.09448"
     y="0"
     x="0"
     id="use99"
     transform="matrix(0,10,-17.32,0,448.75233,480.95683)"
     xlink:href="#partr" />
  <use
     height="1052.3622"
     width="744.09448"
     y="0"
     x="0"
     id="use101"
     transform="matrix(0,10,-17.32,0,414.11233,480.95683)"
     xlink:href="#partr" />
  <use
     height="1052.3622"
     width="744.09448"
     y="0"
     x="0"
     id="use103"
     transform="matrix(0,10,-17.32,0,379.47233,480.95683)"
     xlink:href="#partr" />
  <use
     height="1052.3622"
     width="744.09448"
     y="0"
     x="0"
     id="use105"
     transform="matrix(0,10,-17.32,0,344.83233,480.95683)"
     xlink:href="#partr" />
  <use
     height="1052.3622"
     width="744.09448"
     y="0"
     x="0"
     id="use107"
     transform="matrix(0,10,-17.32,0,310.19233,480.95683)"
     xlink:href="#partr" />
  <use
     height="1052.3622"
     width="744.09448"
     y="0"
     x="0"
     id="use123"
     transform="matrix(0,10,-17.32,0,466.07233,150.95683)"
     xlink:href="#hex" />
  <use
     height="1052.3622"
     width="744.09448"
     y="0"
     x="0"
     id="use125"
     transform="matrix(0,10,-17.32,0,431.43233,150.95683)"
     xlink:href="#hex" />
  <use
     height="1052.3622"
     width="744.09448"
     y="0"
     x="0"
     id="use127"
     transform="matrix(0,10,-17.32,0,396.79233,150.95683)"
     xlink:href="#hex" />
  <use
     height="1052.3622"
     width="744.09448"
     y="0"
     x="0"
     id="use129"
     transform="matrix(0,10,-17.32,0,362.15233,150.95683)"
     xlink:href="#hex" />
  <use
     height="1052.3622"
     width="744.09448"
     y="0"
     x="0"
     id="use131"
     transform="matrix(0,10,-17.32,0,327.51233,150.95683)"
     xlink:href="#hex" />
  <use
     height="1052.3622"
     width="744.09448"
     y="0"
     x="0"
     id="use133"
     transform="matrix(0,10,-17.32,0,292.87233,150.95683)"
     xlink:href="#hex" />
  <use
     height="1052.3622"
     width="744.09448"
     y="0"
     x="0"
     id="use137"
     transform="matrix(0,10,-17.32,0,483.39233,180.95683)"
     xlink:href="#hex" />
  <use
     height="1052.3622"
     width="744.09448"
     y="0"
     x="0"
     id="use139"
     transform="matrix(0,10,-17.32,0,448.75233,180.95683)"
     xlink:href="#hex" />
  <use
     height="1052.3622"
     width="744.09448"
     y="0"
     x="0"
     id="use141"
     transform="matrix(0,10,-17.32,0,414.11233,180.95683)"
     xlink:href="#hex" />
  <use
     height="1052.3622"
     width="744.09448"
     y="0"
     x="0"
     id="use143"
     transform="matrix(0,10,-17.32,0,379.47233,180.95683)"
     xlink:href="#hex" />
  <use
     height="1052.3622"
     width="744.09448"
     y="0"
     x="0"
     id="use145"
     transform="matrix(0,10,-17.32,0,344.83233,180.95683)"
     xlink:href="#hex" />
  <use
     height="1052.3622"
     width="744.09448"
     y="0"
     x="0"
     id="use147"
     transform="matrix(0,10,-17.32,0,310.19233,180.95683)"
     xlink:href="#hex" />
  <use
     height="1052.3622"
     width="744.09448"
     y="0"
     x="0"
     id="use149"
     transform="matrix(0,10,-17.32,0,275.55233,180.95683)"
     xlink:href="#hex" />
  <use
     height="1052.3622"
     width="744.09448"
     y="0"
     x="0"
     id="use153"
     transform="matrix(0,10,-17.32,0,500.71233,210.95683)"
     xlink:href="#hex" />
  <use
     height="1052.3622"
     width="744.09448"
     y="0"
     x="0"
     id="use155"
     transform="matrix(0,10,-17.32,0,466.07233,210.95683)"
     xlink:href="#hex" />
  <use
     height="1052.3622"
     width="744.09448"
     y="0"
     x="0"
     id="use157"
     transform="matrix(0,10,-17.32,0,431.43233,210.95683)"
     xlink:href="#hex" />
  <use
     height="1052.3622"
     width="744.09448"
     y="0"
     x="0"
     id="use159"
     transform="matrix(0,10,-17.32,0,396.79233,210.95683)"
     xlink:href="#hex" />
  <use
     height="1052.3622"
     width="744.09448"
     y="0"
     x="0"
     id="use161"
     transform="matrix(0,10,-17.32,0,362.15233,210.95683)"
     xlink:href="#hex" />
  <use
     height="1052.3622"
     width="744.09448"
     y="0"
     x="0"
     id="use163"
     transform="matrix(0,10,-17.32,0,327.51233,210.95683)"
     xlink:href="#hex" />
  <use
     height="1052.3622"
     width="744.09448"
     y="0"
     x="0"
     id="use165"
     transform="matrix(0,10,-17.32,0,292.87233,210.95683)"
     xlink:href="#hex" />
  <use
     height="1052.3622"
     width="744.09448"
     y="0"
     x="0"
     id="use167"
     transform="matrix(0,10,-17.32,0,258.23233,210.95683)"
     xlink:href="#hex" />
  <use
     height="1052.3622"
     width="744.09448"
     y="0"
     x="0"
     id="use171"
     transform="matrix(0,10,-17.32,0,518.03233,240.95683)"
     xlink:href="#hex" />
  <use
     height="1052.3622"
     width="744.09448"
     y="0"
     x="0"
     id="use173"
     transform="matrix(0,10,-17.32,0,483.39233,240.95683)"
     xlink:href="#hex" />
  <use
     height="1052.3622"
     width="744.09448"
     y="0"
     x="0"
     id="use175"
     transform="matrix(0,10,-17.32,0,448.75233,240.95683)"
     xlink:href="#hex" />
  <use
     height="1052.3622"
     width="744.09448"
     y="0"
     x="0"
     id="use177"
     transform="matrix(0,10,-17.32,0,414.11233,240.95683)"
     xlink:href="#hex" />
  <use
     height="1052.3622"
     width="744.09448"
     y="0"
     x="0"
     id="use179"
     transform="matrix(0,10,-17.32,0,379.47233,240.95683)"
     xlink:href="#hex" />
  <use
     height="1052.3622"
     width="744.09448"
     y="0"
     x="0"
     id="use181"
     transform="matrix(0,10,-17.32,0,344.83233,240.95683)"
     xlink:href="#hex" />
  <use
     height="1052.3622"
     width="744.09448"
     y="0"
     x="0"
     id="use183"
     transform="matrix(0,10,-17.32,0,310.19233,240.95683)"
     xlink:href="#hex" />
  <use
     height="1052.3622"
     width="744.09448"
     y="0"
     x="0"
     id="use185"
     transform="matrix(0,10,-17.32,0,275.55233,240.95683)"
     xlink:href="#hex" />
  <use
     height="1052.3622"
     width="744.09448"
     y="0"
     x="0"
     id="use187"
     transform="matrix(0,10,-17.32,0,240.91233,240.95683)"
     xlink:href="#hex" />
  <use
     height="1052.3622"
     width="744.09448"
     y="0"
     x="0"
     id="use191"
     transform="matrix(0,10,-17.32,0,535.35233,270.95683)"
     xlink:href="#hex" />
  <use
     height="1052.3622"
     width="744.09448"
     y="0"
     x="0"
     id="use193"
     transform="matrix(0,10,-17.32,0,500.71233,270.95683)"
     xlink:href="#hex" />
  <use
     height="1052.3622"
     width="744.09448"
     y="0"
     x="0"
     id="use195"
     transform="matrix(0,10,-17.32,0,466.07233,270.95683)"
     xlink:href="#hex" />
  <use
     height="1052.3622"
     width="744.09448"
     y="0"
     x="0"
     id="use197"
     transform="matrix(0,10,-17.32,0,431.43233,270.95683)"
     xlink:href="#hex" />
  <use
     height="1052.3622"
     width="744.09448"
     y="0"
     x="0"
     id="use199"
     transform="matrix(0,10,-17.32,0,396.79233,270.95683)"
     xlink:href="#hex" />
  <use
     height="1052.3622"
     width="744.09448"
     y="0"
     x="0"
     id="use201"
     transform="matrix(0,10,-17.32,0,362.15233,270.95683)"
     xlink:href="#hex" />
  <use
     height="1052.3622"
     width="744.09448"
     y="0"
     x="0"
     id="use203"
     transform="matrix(0,10,-17.32,0,327.51233,270.95683)"
     xlink:href="#hex" />
  <use
     height="1052.3622"
     width="744.09448"
     y="0"
     x="0"
     id="use205"
     transform="matrix(0,10,-17.32,0,292.87233,270.95683)"
     xlink:href="#hex" />
  <use
     height="1052.3622"
     width="744.09448"
     y="0"
     x="0"
     id="use207"
     transform="matrix(0,10,-17.32,0,258.23233,270.95683)"
     xlink:href="#hex" />
  <use
     height="1052.3622"
     width="744.09448"
     y="0"
     x="0"
     id="use209"
     transform="matrix(0,10,-17.32,0,223.59233,270.95683)"
     xlink:href="#hex" />
  <use
     height="1052.3622"
     width="744.09448"
     y="0"
     x="0"
     id="use213"
     transform="matrix(0,10,-17.32,0,552.67233,300.95683)"
     xlink:href="#hex" />
  <use
     height="1052.3622"
     width="744.09448"
     y="0"
     x="0"
     id="use215"
     transform="matrix(0,10,-17.32,0,518.03233,300.95683)"
     xlink:href="#hex" />
  <use
     height="1052.3622"
     width="744.09448"
     y="0"
     x="0"
     id="use217"
     transform="matrix(0,10,-17.32,0,483.39233,300.95683)"
     xlink:href="#hex" />
  <use
     height="1052.3622"
     width="744.09448"
     y="0"
     x="0"
     id="use219"
     transform="matrix(0,10,-17.32,0,448.75233,300.95683)"
     xlink:href="#hex" />
  <use
     height="1052.3622"
     width="744.09448"
     y="0"
     x="0"
     id="use221"
     transform="matrix(0,10,-17.32,0,414.11233,300.95683)"
     xlink:href="#hex" />
  <use
     height="1052.3622"
     width="744.09448"
     y="0"
     x="0"
     id="use223"
     transform="matrix(0,10,-17.32,0,379.47233,300.95683)"
     xlink:href="#hex" />
  <use
     height="1052.3622"
     width="744.09448"
     y="0"
     x="0"
     id="use225"
     transform="matrix(0,10,-17.32,0,344.83233,300.95683)"
     xlink:href="#hex" />
  <use
     height="1052.3622"
     width="744.09448"
     y="0"
     x="0"
     id="use227"
     transform="matrix(0,10,-17.32,0,310.19233,300.95683)"
     xlink:href="#hex" />
  <use
     height="1052.3622"
     width="744.09448"
     y="0"
     x="0"
     id="use229"
     transform="matrix(0,10,-17.32,0,275.55233,300.95683)"
     xlink:href="#hex" />
  <use
     height="1052.3622"
     width="744.09448"
     y="0"
     x="0"
     id="use231"
     transform="matrix(0,10,-17.32,0,240.91233,300.95683)"
     xlink:href="#hex" />
  <use
     height="1052.3622"
     width="744.09448"
     y="0"
     x="0"
     id="use233"
     transform="matrix(0,10,-17.32,0,206.27233,300.95683)"
     xlink:href="#hex" />
  <use
     height="1052.3622"
     width="744.09448"
     y="0"
     x="0"
     id="use237"
     transform="matrix(0,10,-17.32,0,535.35233,330.95683)"
     xlink:href="#hex" />
  <use
     height="1052.3622"
     width="744.09448"
     y="0"
     x="0"
     id="use239"
     transform="matrix(0,10,-17.32,0,500.71233,330.95683)"
     xlink:href="#hex" />
  <use
     height="1052.3622"
     width="744.09448"
     y="0"
     x="0"
     id="use241"
     transform="matrix(0,10,-17.32,0,466.07233,330.95683)"
     xlink:href="#hex" />
  <use
     height="1052.3622"
     width="744.09448"
     y="0"
     x="0"
     id="use243"
     transform="matrix(0,10,-17.32,0,431.43233,330.95683)"
     xlink:href="#hex" />
  <use
     height="1052.3622"
     width="744.09448"
     y="0"
     x="0"
     id="use245"
     transform="matrix(0,10,-17.32,0,396.79233,330.95683)"
     xlink:href="#hex" />
  <use
     height="1052.3622"
     width="744.09448"
     y="0"
     x="0"
     id="use247"
     transform="matrix(0,10,-17.32,0,362.15233,330.95683)"
     xlink:href="#hex" />
  <use
     height="1052.3622"
     width="744.09448"
     y="0"
     x="0"
     id="use249"
     transform="matrix(0,10,-17.32,0,327.51233,330.95683)"
     xlink:href="#hex" />
  <use
     height="1052.3622"
     width="744.09448"
     y="0"
     x="0"
     id="use251"
     transform="matrix(0,10,-17.32,0,292.87233,330.95683)"
     xlink:href="#hex" />
  <use
     height="1052.3622"
     width="744.09448"
     y="0"
     x="0"
     id="use253"
     transform="matrix(0,10,-17.32,0,258.23233,330.95683)"
     xlink:href="#hex" />
  <use
     height="1052.3622"
     width="744.09448"
     y="0"
     x="0"
     id="use255"
     transform="matrix(0,10,-17.32,0,223.59233,330.95683)"
     xlink:href="#hex" />
  <use
     height="1052.3622"
     width="744.09448"
     y="0"
     x="0"
     id="use259"
     transform="matrix(0,10,-17.32,0,518.03233,360.95683)"
     xlink:href="#hex" />
  <use
     height="1052.3622"
     width="744.09448"
     y="0"
     x="0"
     id="use261"
     transform="matrix(0,10,-17.32,0,483.39233,360.95683)"
     xlink:href="#hex" />
  <use
     height="1052.3622"
     width="744.09448"
     y="0"
     x="0"
     id="use263"
     transform="matrix(0,10,-17.32,0,448.75233,360.95683)"
     xlink:href="#hex" />
  <use
     height="1052.3622"
     width="744.09448"
     y="0"
     x="0"
     id="use265"
     transform="matrix(0,10,-17.32,0,414.11233,360.95683)"
     xlink:href="#hex" />
  <use
     height="1052.3622"
     width="744.09448"
     y="0"
     x="0"
     id="use267"
     transform="matrix(0,10,-17.32,0,379.47233,360.95683)"
     xlink:href="#hex" />
  <use
     height="1052.3622"
     width="744.09448"
     y="0"
     x="0"
     id="use269"
     transform="matrix(0,10,-17.32,0,344.83233,360.95683)"
     xlink:href="#hex" />
  <use
     height="1052.3622"
     width="744.09448"
     y="0"
     x="0"
     id="use271"
     transform="matrix(0,10,-17.32,0,310.19233,360.95683)"
     xlink:href="#hex" />
  <use
     height="1052.3622"
     width="744.09448"
     y="0"
     x="0"
     id="use273"
     transform="matrix(0,10,-17.32,0,275.55233,360.95683)"
     xlink:href="#hex" />
  <use
     height="1052.3622"
     width="744.09448"
     y="0"
     x="0"
     id="use275"
     transform="matrix(0,10,-17.32,0,240.91233,360.95683)"
     xlink:href="#hex" />
  <use
     height="1052.3622"
     width="744.09448"
     y="0"
     x="0"
     id="use279"
     transform="matrix(0,10,-17.32,0,500.71233,390.95683)"
     xlink:href="#hex" />
  <use
     height="1052.3622"
     width="744.09448"
     y="0"
     x="0"
     id="use281"
     transform="matrix(0,10,-17.32,0,466.07233,390.95683)"
     xlink:href="#hex" />
  <use
     height="1052.3622"
     width="744.09448"
     y="0"
     x="0"
     id="use283"
     transform="matrix(0,10,-17.32,0,431.43233,390.95683)"
     xlink:href="#hex" />
  <use
     height="1052.3622"
     width="744.09448"
     y="0"
     x="0"
     id="use285"
     transform="matrix(0,10,-17.32,0,396.79233,390.95683)"
     xlink:href="#hex" />
  <use
     height="1052.3622"
     width="744.09448"
     y="0"
     x="0"
     id="use287"
     transform="matrix(0,10,-17.32,0,362.15233,390.95683)"
     xlink:href="#hex" />
  <use
     height="1052.3622"
     width="744.09448"
     y="0"
     x="0"
     id="use289"
     transform="matrix(0,10,-17.32,0,327.51233,390.95683)"
     xlink:href="#hex" />
  <use
     height="1052.3622"
     width="744.09448"
     y="0"
     x="0"
     id="use291"
     transform="matrix(0,10,-17.32,0,292.87233,390.95683)"
     xlink:href="#hex" />
  <use
     height="1052.3622"
     width="744.09448"
     y="0"
     x="0"
     id="use293"
     transform="matrix(0,10,-17.32,0,258.23233,390.95683)"
     xlink:href="#hex" />
  <use
     height="1052.3622"
     width="744.09448"
     y="0"
     x="0"
     id="use297"
     transform="matrix(0,10,-17.32,0,483.39233,420.95683)"
     xlink:href="#hex" />
  <use
     height="1052.3622"
     width="744.09448"
     y="0"
     x="0"
     id="use299"
     transform="matrix(0,10,-17.32,0,448.75233,420.95683)"
     xlink:href="#hex" />
  <use
     height="1052.3622"
     width="744.09448"
     y="0"
     x="0"
     id="use301"
     transform="matrix(0,10,-17.32,0,414.11233,420.95683)"
     xlink:href="#hex" />
  <use
     height="1052.3622"
     width="744.09448"
     y="0"
     x="0"
     id="use303"
     transform="matrix(0,10,-17.32,0,379.47233,420.95683)"
     xlink:href="#hex" />
  <use
     height="1052.3622"
     width="744.09448"
     y="0"
     x="0"
     id="use305"
     transform="matrix(0,10,-17.32,0,344.83233,420.95683)"
     xlink:href="#hex" />
  <use
     height="1052.3622"
     width="744.09448"
     y="0"
     x="0"
     id="use307"
     transform="matrix(0,10,-17.32,0,310.19233,420.95683)"
     xlink:href="#hex" />
  <use
     height="1052.3622"
     width="744.09448"
     y="0"
     x="0"
     id="use309"
     transform="matrix(0,10,-17.32,0,275.55233,420.95683)"
     xlink:href="#hex" />
  <use
     height="1052.3622"
     width="744.09448"
     y="0"
     x="0"
     id="use313"
     transform="matrix(0,10,-17.32,0,466.07233,450.95683)"
     xlink:href="#hex" />
  <use
     height="1052.3622"
     width="744.09448"
     y="0"
     x="0"
     id="use315"
     transform="matrix(0,10,-17.32,0,431.43233,450.95683)"
     xlink:href="#hex" />
  <use
     height="1052.3622"
     width="744.09448"
     y="0"
     x="0"
     id="use317"
     transform="matrix(0,10,-17.32,0,396.79233,450.95683)"
     xlink:href="#hex" />
  <use
     height="1052.3622"
     width="744.09448"
     y="0"
     x="0"
     id="use319"
     transform="matrix(0,10,-17.32,0,362.15233,450.95683)"
     xlink:href="#hex" />
  <use
     height="1052.3622"
     width="744.09448"
     y="0"
     x="0"
     id="use321"
     transform="matrix(0,10,-17.32,0,327.51233,450.95683)"
     xlink:href="#hex" />
  <use
     height="1052.3622"
     width="744.09448"
     y="0"
     x="0"
     id="use323"
     transform="matrix(0,10,-17.32,0,292.87233,450.95683)"
     xlink:href="#hex" />
  <use
     xlink:href="#partl"
     transform="matrix(0,10,-17.32,0,309.96118,120.79247)"
     id="use3442"
     x="0"
     y="0"
     width="744.09448"
     height="1052.3622" />
</svg>
