<?xml version="1.0" encoding="UTF-8" standalone="no"?>
<svg
   xmlns:dc="http://purl.org/dc/elements/1.1/"
   xmlns:cc="http://creativecommons.org/ns#"
   xmlns:rdf="http://www.w3.org/1999/02/22-rdf-syntax-ns#"
   xmlns:svg="http://www.w3.org/2000/svg"
   xmlns="http://www.w3.org/2000/svg"
   xmlns:xlink="http://www.w3.org/1999/xlink"
   xmlns:sodipodi="http://sodipodi.sourceforge.net/DTD/sodipodi-0.dtd"
   xmlns:inkscape="http://www.inkscape.org/namespaces/inkscape"
   width="100%"
   height="100%"
   version="1.1"
   id="svg2"
   inkscape:version="0.48.2 r9819"
   sodipodi:docname="board-small.svg">
  <metadata
     id="metadata329">
    <rdf:RDF>
      <cc:Work
         rdf:about="">
        <dc:format>image/svg+xml</dc:format>
        <dc:type
           rdf:resource="http://purl.org/dc/dcmitype/StillImage" />
        <dc:title></dc:title>
      </cc:Work>
    </rdf:RDF>
  </metadata>
  <sodipodi:namedview
     pagecolor="#ffffff"
     bordercolor="#666666"
     borderopacity="1"
     objecttolerance="10"
     gridtolerance="10"
     guidetolerance="10"
     inkscape:pageopacity="0"
     inkscape:pageshadow="2"
     inkscape:window-width="1366"
     inkscape:window-height="720"
     id="namedview327"
     showgrid="false"
     inkscape:zoom="1.2685914"
     inkscape:cx="432.38019"
     inkscape:cy="711.50451"
     inkscape:window-x="0"
     inkscape:window-y="0"
     inkscape:window-maximized="1"
     inkscape:current-layer="svg2" />
  <defs
     id="defs4">
    <path
       id="hex"
       fill-opacity="100"
       fill="yellow"
       stroke-width="0.1"
       stroke="black"
       d="M 2,0 L 1,1 -1,1 -2,0 -1,-1 1,-1 Z" />
    <path
       id="partl"
       fill-opacity="100"
       fill="brown"
       stroke-width="0.1"
       stroke="black"
       d="M -1,-1  L 1,-1 2,0 1,1 -1,1" />
    <path
       id="partul"
       fill-opacity="100"
       fill="brown"
       stroke-width="0.1"
       stroke="black"
       d="M 1,-1  L 2,0 1,1 -1,1 -2,0" />
    <path
       id="partur"
       fill-opacity="100"
       fill="brown"
       stroke-width="0.1"
       stroke="black"
       d="M 2,0  L 1,1 -1,1 -2,0 -1,-1" />
    <path
       id="cornerll"
       fill-opacity="100"
       fill="brown"
       stroke-width="0.1"
       stroke="black"
       d="M -1,-1  L 1,-1 2,0 1,1" />
    <path
       id="cornerul"
       fill-opacity="100"
       fill="brown"
       stroke-width="0.1"
       stroke="black"
       d="M 1,-1  L 2,0 1,1 -1,1" />
    <path
       id="corneru"
       fill-opacity="100"
       fill="brown"
       stroke-width="0.1"
       stroke="black"
       d="M 2,0  L 1,1 -1,1 -2,0" />
    <g
       id="cornerur">
      <use
         xlink:href="#cornerll"
         transform="rotate(180)"
         id="use14" />
    </g>
    <g
       id="cornerlr">
      <use
         xlink:href="#cornerul"
         transform="rotate(180)"
         id="use17" />
    </g>
    <g
       id="cornerl">
      <use
         xlink:href="#corneru"
         transform="rotate(180)"
         id="use20" />
    </g>
    <g
       id="partr">
      <use
         xlink:href="#partl"
         transform="rotate(180)"
         id="use23" />
    </g>
    <g
       id="partll">
      <use
         xlink:href="#partur"
         transform="rotate(180)"
         id="use26" />
    </g>
    <g
       id="partlr">
      <use
         xlink:href="#partul"
         transform="rotate(180)"
         id="use29" />
    </g>
  </defs>
  <use
     height="1052.3622"
     width="744.09448"
     y="0"
     x="0"
     id="use33"
     transform="matrix(0,10,-17.32,0,466.89752,151.14109)"
     xlink:href="#cornerul" />
  <use
     height="1052.3622"
     width="744.09448"
     y="0"
     x="0"
     id="use35"
     transform="matrix(0,10,-17.32,0,292.49333,150.84739)"
     xlink:href="#cornerll" />
  <use
     height="1052.3622"
     width="744.09448"
     y="0"
     x="0"
     id="use37"
     transform="matrix(0,10,-17.32,0,466.05026,451.19942)"
     xlink:href="#cornerur" />
  <use
     height="1052.3622"
     width="744.09448"
     y="0"
     x="0"
     id="use39"
     transform="matrix(0,10,-17.32,0,293.43822,450.98694)"
     xlink:href="#cornerlr" />
  <use
     height="1052.3622"
     width="744.09448"
     y="0"
     x="0"
     id="use41"
     transform="matrix(0,10,-17.32,0,551.41647,301.74511)"
     xlink:href="#corneru" />
  <use
     height="1052.3622"
     width="744.09448"
     y="0"
     x="0"
     id="use43"
     transform="matrix(0,10,-17.32,0,207.78282,302.07163)"
     xlink:href="#cornerl" />
  <use
     height="1052.3622"
     width="744.09448"
     y="0"
     x="0"
     id="use47"
     transform="matrix(0,10,-17.32,0,431.61752,151.14109)"
     xlink:href="#partl" />
  <use
     height="1052.3622"
     width="744.09448"
     y="0"
     x="0"
     id="use49"
     transform="matrix(0,10,-17.32,0,396.97752,151.14109)"
     xlink:href="#partl" />
  <use
     height="1052.3622"
     width="744.09448"
     y="0"
     x="0"
     id="use51"
     transform="matrix(0,10,-17.32,0,362.33752,151.14109)"
     xlink:href="#partl" />
  <use
     height="1052.3622"
     width="744.09448"
     y="0"
     x="0"
     id="use59"
     transform="matrix(0,10,-17.32,0,500.29612,211.69959)"
     xlink:href="#partul" />
  <use
     height="1052.3622"
     width="744.09448"
     y="0"
     x="0"
     id="use61"
     transform="matrix(0,10,-17.32,0,517.61612,241.69959)"
     xlink:href="#partul" />
  <use
     height="1052.3622"
     width="744.09448"
     y="0"
     x="0"
     id="use63"
     transform="matrix(0,10,-17.32,0,534.93612,271.69959)"
     xlink:href="#partul" />
  <use
     height="1052.3622"
     width="744.09448"
     y="0"
     x="0"
     id="use67"
     transform="matrix(0,10,-17.32,0,534.09647,331.74511)"
     xlink:href="#partur" />
  <use
     height="1052.3622"
     width="744.09448"
     y="0"
     x="0"
     id="use69"
     transform="matrix(0,10,-17.32,0,516.77647,361.74511)"
     xlink:href="#partur" />
  <use
     height="1052.3622"
     width="744.09448"
     y="0"
     x="0"
     id="use71"
     transform="matrix(0,10,-17.32,0,499.45647,391.74511)"
     xlink:href="#partur" />
  <use
     height="1052.3622"
     width="744.09448"
     y="0"
     x="0"
     id="use73"
     transform="matrix(0,10,-17.32,0,482.13647,421.74511)"
     xlink:href="#partur" />
  <use
     height="1052.3622"
     width="744.09448"
     y="0"
     x="0"
     id="use79"
     transform="matrix(0,10,-17.32,0,275.66097,181.05618)"
     xlink:href="#partll" />
  <use
     height="1052.3622"
     width="744.09448"
     y="0"
     x="0"
     id="use81"
     transform="matrix(0,10,-17.32,0,258.34097,211.05618)"
     xlink:href="#partll" />
  <use
     height="1052.3622"
     width="744.09448"
     y="0"
     x="0"
     id="use83"
     transform="matrix(0,10,-17.32,0,241.02097,241.05618)"
     xlink:href="#partll" />
  <use
     height="1052.3622"
     width="744.09448"
     y="0"
     x="0"
     id="use85"
     transform="matrix(0,10,-17.32,0,223.70097,271.05618)"
     xlink:href="#partll" />
  <use
     height="1052.3622"
     width="744.09448"
     y="0"
     x="0"
     id="use91"
     transform="matrix(0,10,-17.32,0,224.15822,330.98694)"
     xlink:href="#partlr" />
  <use
     height="1052.3622"
     width="744.09448"
     y="0"
     x="0"
     id="use93"
     transform="matrix(0,10,-17.32,0,241.47822,360.98694)"
     xlink:href="#partlr" />
  <use
     height="1052.3622"
     width="744.09448"
     y="0"
     x="0"
     id="use95"
     transform="matrix(0,10,-17.32,0,258.79822,390.98694)"
     xlink:href="#partlr" />
  <use
     height="1052.3622"
     width="744.09448"
     y="0"
     x="0"
     id="use97"
     transform="matrix(0,10,-17.32,0,276.11822,420.98694)"
     xlink:href="#partlr" />
  <use
     height="1052.3622"
     width="744.09448"
     y="0"
     x="0"
     id="use99"
     transform="matrix(0,10,-17.32,0,431.41026,451.19942)"
     xlink:href="#partr" />
  <use
     height="1052.3622"
     width="744.09448"
     y="0"
     x="0"
     id="use101"
     transform="matrix(0,10,-17.32,0,396.77026,451.19942)"
     xlink:href="#partr" />
  <use
     height="1052.3622"
     width="744.09448"
     y="0"
     x="0"
     id="use103"
     transform="matrix(0,10,-17.32,0,362.13026,451.19942)"
     xlink:href="#partr" />
  <use
     height="1052.3622"
     width="744.09448"
     y="0"
     x="0"
     id="use105"
     transform="matrix(0,10,-17.32,0,327.49026,451.19942)"
     xlink:href="#partr" />
  <use
     height="1052.3622"
     width="744.09448"
     y="0"
     x="0"
     id="use139"
     transform="matrix(0,10,-17.32,0,448.75233,180.95683)"
     xlink:href="#hex" />
  <use
     height="1052.3622"
     width="744.09448"
     y="0"
     x="0"
     id="use141"
     transform="matrix(0,10,-17.32,0,414.11233,180.95683)"
     xlink:href="#hex" />
  <use
     height="1052.3622"
     width="744.09448"
     y="0"
     x="0"
     id="use143"
     transform="matrix(0,10,-17.32,0,379.47233,180.95683)"
     xlink:href="#hex" />
  <use
     height="1052.3622"
     width="744.09448"
     y="0"
     x="0"
     id="use145"
     transform="matrix(0,10,-17.32,0,344.83233,180.95683)"
     xlink:href="#hex" />
  <use
     height="1052.3622"
     width="744.09448"
     y="0"
     x="0"
     id="use147"
     transform="matrix(0,10,-17.32,0,310.19233,180.95683)"
     xlink:href="#hex" />
  <use
     height="1052.3622"
     width="744.09448"
     y="0"
     x="0"
     id="use155"
     transform="matrix(0,10,-17.32,0,466.07233,210.95683)"
     xlink:href="#hex" />
  <use
     height="1052.3622"
     width="744.09448"
     y="0"
     x="0"
     id="use157"
     transform="matrix(0,10,-17.32,0,431.43233,210.95683)"
     xlink:href="#hex" />
  <use
     height="1052.3622"
     width="744.09448"
     y="0"
     x="0"
     id="use159"
     transform="matrix(0,10,-17.32,0,396.79233,210.95683)"
     xlink:href="#hex" />
  <use
     height="1052.3622"
     width="744.09448"
     y="0"
     x="0"
     id="use161"
     transform="matrix(0,10,-17.32,0,362.15233,210.95683)"
     xlink:href="#hex" />
  <use
     height="1052.3622"
     width="744.09448"
     y="0"
     x="0"
     id="use163"
     transform="matrix(0,10,-17.32,0,327.51233,210.95683)"
     xlink:href="#hex" />
  <use
     height="1052.3622"
     width="744.09448"
     y="0"
     x="0"
     id="use165"
     transform="matrix(0,10,-17.32,0,292.87233,210.95683)"
     xlink:href="#hex" />
  <use
     height="1052.3622"
     width="744.09448"
     y="0"
     x="0"
     id="use173"
     transform="matrix(0,10,-17.32,0,483.39233,240.95683)"
     xlink:href="#hex" />
  <use
     height="1052.3622"
     width="744.09448"
     y="0"
     x="0"
     id="use175"
     transform="matrix(0,10,-17.32,0,448.75233,240.95683)"
     xlink:href="#hex" />
  <use
     height="1052.3622"
     width="744.09448"
     y="0"
     x="0"
     id="use177"
     transform="matrix(0,10,-17.32,0,414.11233,240.95683)"
     xlink:href="#hex" />
  <use
     height="1052.3622"
     width="744.09448"
     y="0"
     x="0"
     id="use179"
     transform="matrix(0,10,-17.32,0,379.47233,240.95683)"
     xlink:href="#hex" />
  <use
     height="1052.3622"
     width="744.09448"
     y="0"
     x="0"
     id="use181"
     transform="matrix(0,10,-17.32,0,344.83233,240.95683)"
     xlink:href="#hex" />
  <use
     height="1052.3622"
     width="744.09448"
     y="0"
     x="0"
     id="use183"
     transform="matrix(0,10,-17.32,0,310.19233,240.95683)"
     xlink:href="#hex" />
  <use
     height="1052.3622"
     width="744.09448"
     y="0"
     x="0"
     id="use185"
     transform="matrix(0,10,-17.32,0,275.55233,240.95683)"
     xlink:href="#hex" />
  <use
     height="1052.3622"
     width="744.09448"
     y="0"
     x="0"
     id="use193"
     transform="matrix(0,10,-17.32,0,500.71233,270.95683)"
     xlink:href="#hex" />
  <use
     height="1052.3622"
     width="744.09448"
     y="0"
     x="0"
     id="use195"
     transform="matrix(0,10,-17.32,0,466.07233,270.95683)"
     xlink:href="#hex" />
  <use
     height="1052.3622"
     width="744.09448"
     y="0"
     x="0"
     id="use197"
     transform="matrix(0,10,-17.32,0,431.43233,270.95683)"
     xlink:href="#hex" />
  <use
     height="1052.3622"
     width="744.09448"
     y="0"
     x="0"
     id="use199"
     transform="matrix(0,10,-17.32,0,396.79233,270.95683)"
     xlink:href="#hex" />
  <use
     height="1052.3622"
     width="744.09448"
     y="0"
     x="0"
     id="use201"
     transform="matrix(0,10,-17.32,0,362.15233,270.95683)"
     xlink:href="#hex" />
  <use
     height="1052.3622"
     width="744.09448"
     y="0"
     x="0"
     id="use203"
     transform="matrix(0,10,-17.32,0,327.51233,270.95683)"
     xlink:href="#hex" />
  <use
     height="1052.3622"
     width="744.09448"
     y="0"
     x="0"
     id="use205"
     transform="matrix(0,10,-17.32,0,292.87233,270.95683)"
     xlink:href="#hex" />
  <use
     height="1052.3622"
     width="744.09448"
     y="0"
     x="0"
     id="use207"
     transform="matrix(0,10,-17.32,0,258.23233,270.95683)"
     xlink:href="#hex" />
  <use
     height="1052.3622"
     width="744.09448"
     y="0"
     x="0"
     id="use215"
     transform="matrix(0,10,-17.32,0,518.03233,300.95683)"
     xlink:href="#hex" />
  <use
     height="1052.3622"
     width="744.09448"
     y="0"
     x="0"
     id="use217"
     transform="matrix(0,10,-17.32,0,483.39233,300.95683)"
     xlink:href="#hex" />
  <use
     height="1052.3622"
     width="744.09448"
     y="0"
     x="0"
     id="use219"
     transform="matrix(0,10,-17.32,0,448.75233,300.95683)"
     xlink:href="#hex" />
  <use
     height="1052.3622"
     width="744.09448"
     y="0"
     x="0"
     id="use221"
     transform="matrix(0,10,-17.32,0,414.11233,300.95683)"
     xlink:href="#hex" />
  <use
     height="1052.3622"
     width="744.09448"
     y="0"
     x="0"
     id="use223"
     transform="matrix(0,10,-17.32,0,379.47233,300.95683)"
     xlink:href="#hex" />
  <use
     height="1052.3622"
     width="744.09448"
     y="0"
     x="0"
     id="use225"
     transform="matrix(0,10,-17.32,0,344.83233,300.95683)"
     xlink:href="#hex" />
  <use
     height="1052.3622"
     width="744.09448"
     y="0"
     x="0"
     id="use227"
     transform="matrix(0,10,-17.32,0,310.19233,300.95683)"
     xlink:href="#hex" />
  <use
     height="1052.3622"
     width="744.09448"
     y="0"
     x="0"
     id="use229"
     transform="matrix(0,10,-17.32,0,275.55233,300.95683)"
     xlink:href="#hex" />
  <use
     height="1052.3622"
     width="744.09448"
     y="0"
     x="0"
     id="use231"
     transform="matrix(0,10,-17.32,0,240.91233,300.95683)"
     xlink:href="#hex" />
  <use
     height="1052.3622"
     width="744.09448"
     y="0"
     x="0"
     id="use239"
     transform="matrix(0,10,-17.32,0,500.71233,330.95683)"
     xlink:href="#hex" />
  <use
     height="1052.3622"
     width="744.09448"
     y="0"
     x="0"
     id="use241"
     transform="matrix(0,10,-17.32,0,466.07233,330.95683)"
     xlink:href="#hex" />
  <use
     height="1052.3622"
     width="744.09448"
     y="0"
     x="0"
     id="use243"
     transform="matrix(0,10,-17.32,0,431.43233,330.95683)"
     xlink:href="#hex" />
  <use
     height="1052.3622"
     width="744.09448"
     y="0"
     x="0"
     id="use245"
     transform="matrix(0,10,-17.32,0,396.79233,330.95683)"
     xlink:href="#hex" />
  <use
     height="1052.3622"
     width="744.09448"
     y="0"
     x="0"
     id="use247"
     transform="matrix(0,10,-17.32,0,362.15233,330.95683)"
     xlink:href="#hex" />
  <use
     height="1052.3622"
     width="744.09448"
     y="0"
     x="0"
     id="use249"
     transform="matrix(0,10,-17.32,0,327.51233,330.95683)"
     xlink:href="#hex" />
  <use
     height="1052.3622"
     width="744.09448"
     y="0"
     x="0"
     id="use251"
     transform="matrix(0,10,-17.32,0,292.87233,330.95683)"
     xlink:href="#hex" />
  <use
     height="1052.3622"
     width="744.09448"
     y="0"
     x="0"
     id="use253"
     transform="matrix(0,10,-17.32,0,258.23233,330.95683)"
     xlink:href="#hex" />
  <use
     height="1052.3622"
     width="744.09448"
     y="0"
     x="0"
     id="use261"
     transform="matrix(0,10,-17.32,0,483.39233,360.95683)"
     xlink:href="#hex" />
  <use
     height="1052.3622"
     width="744.09448"
     y="0"
     x="0"
     id="use263"
     transform="matrix(0,10,-17.32,0,448.75233,360.95683)"
     xlink:href="#hex" />
  <use
     height="1052.3622"
     width="744.09448"
     y="0"
     x="0"
     id="use265"
     transform="matrix(0,10,-17.32,0,414.11233,360.95683)"
     xlink:href="#hex" />
  <use
     height="1052.3622"
     width="744.09448"
     y="0"
     x="0"
     id="use267"
     transform="matrix(0,10,-17.32,0,379.47233,360.95683)"
     xlink:href="#hex" />
  <use
     height="1052.3622"
     width="744.09448"
     y="0"
     x="0"
     id="use269"
     transform="matrix(0,10,-17.32,0,344.83233,360.95683)"
     xlink:href="#hex" />
  <use
     height="1052.3622"
     width="744.09448"
     y="0"
     x="0"
     id="use271"
     transform="matrix(0,10,-17.32,0,310.19233,360.95683)"
     xlink:href="#hex" />
  <use
     height="1052.3622"
     width="744.09448"
     y="0"
     x="0"
     id="use273"
     transform="matrix(0,10,-17.32,0,275.55233,360.95683)"
     xlink:href="#hex" />
  <use
     height="1052.3622"
     width="744.09448"
     y="0"
     x="0"
     id="use281"
     transform="matrix(0,10,-17.32,0,466.07233,390.95683)"
     xlink:href="#hex" />
  <use
     height="1052.3622"
     width="744.09448"
     y="0"
     x="0"
     id="use283"
     transform="matrix(0,10,-17.32,0,431.43233,390.95683)"
     xlink:href="#hex" />
  <use
     height="1052.3622"
     width="744.09448"
     y="0"
     x="0"
     id="use285"
     transform="matrix(0,10,-17.32,0,396.79233,390.95683)"
     xlink:href="#hex" />
  <use
     height="1052.3622"
     width="744.09448"
     y="0"
     x="0"
     id="use287"
     transform="matrix(0,10,-17.32,0,362.15233,390.95683)"
     xlink:href="#hex" />
  <use
     height="1052.3622"
     width="744.09448"
     y="0"
     x="0"
     id="use289"
     transform="matrix(0,10,-17.32,0,327.51233,390.95683)"
     xlink:href="#hex" />
  <use
     height="1052.3622"
     width="744.09448"
     y="0"
     x="0"
     id="use291"
     transform="matrix(0,10,-17.32,0,292.87233,390.95683)"
     xlink:href="#hex" />
  <use
     height="1052.3622"
     width="744.09448"
     y="0"
     x="0"
     id="use299"
     transform="matrix(0,10,-17.32,0,448.75233,420.95683)"
     xlink:href="#hex" />
  <use
     height="1052.3622"
     width="744.09448"
     y="0"
     x="0"
     id="use301"
     transform="matrix(0,10,-17.32,0,414.11233,420.95683)"
     xlink:href="#hex" />
  <use
     height="1052.3622"
     width="744.09448"
     y="0"
     x="0"
     id="use303"
     transform="matrix(0,10,-17.32,0,379.47233,420.95683)"
     xlink:href="#hex" />
  <use
     height="1052.3622"
     width="744.09448"
     y="0"
     x="0"
     id="use305"
     transform="matrix(0,10,-17.32,0,344.83233,420.95683)"
     xlink:href="#hex" />
  <use
     height="1052.3622"
     width="744.09448"
     y="0"
     x="0"
     id="use307"
     transform="matrix(0,10,-17.32,0,310.19233,420.95683)"
     xlink:href="#hex" />
  <use
     xlink:href="#partl"
     transform="matrix(0,10,-17.32,0,327.50032,151.14109)"
     id="use3442"
     x="0"
     y="0"
     width="744.09448"
     height="1052.3622" />
  <use
     xlink:href="#partul"
     transform="matrix(0,10,-17.32,0,483.74233,181.35097)"
     id="use3463"
     x="0"
     y="0"
     width="744.09448"
     height="1052.3622" />
</svg>
