<?xml version="1.0" encoding="UTF-8" standalone="no"?>
<svg
   xmlns:dc="http://purl.org/dc/elements/1.1/"
   xmlns:cc="http://creativecommons.org/ns#"
   xmlns:rdf="http://www.w3.org/1999/02/22-rdf-syntax-ns#"
   xmlns:svg="http://www.w3.org/2000/svg"
   xmlns="http://www.w3.org/2000/svg"
   xmlns:xlink="http://www.w3.org/1999/xlink"
   xmlns:sodipodi="http://sodipodi.sourceforge.net/DTD/sodipodi-0.dtd"
   xmlns:inkscape="http://www.inkscape.org/namespaces/inkscape"
   width="100%"
   height="100%"
   version="1.1"
   id="svg2"
   inkscape:version="0.48.2 r9819"
   sodipodi:docname="6x7_star_board.svg">
  <metadata
     id="metadata329">
    <rdf:RDF>
      <cc:Work
         rdf:about="">
        <dc:format>image/svg+xml</dc:format>
        <dc:type
           rdf:resource="http://purl.org/dc/dcmitype/StillImage" />
        <dc:title></dc:title>
      </cc:Work>
    </rdf:RDF>
  </metadata>
  <sodipodi:namedview
     pagecolor="#ffffff"
     bordercolor="#666666"
     borderopacity="1"
     objecttolerance="10"
     gridtolerance="10"
     guidetolerance="10"
     inkscape:pageopacity="0"
     inkscape:pageshadow="2"
     inkscape:window-width="1366"
     inkscape:window-height="720"
     id="namedview327"
     showgrid="false"
     inkscape:zoom="0.89702957"
     inkscape:cx="372.04724"
     inkscape:cy="749.13918"
     inkscape:window-x="0"
     inkscape:window-y="0"
     inkscape:window-maximized="1"
     inkscape:current-layer="svg2" />
  <defs
     id="defs4">
    <path
       id="hex"
       fill-opacity="100"
       fill="yellow"
       stroke-width="0.1"
       stroke="black"
       d="M 2,0 L 1,1 -1,1 -2,0 -1,-1 1,-1 Z" />
    <path
       id="partl"
       fill-opacity="100"
       fill="brown"
       stroke-width="0.1"
       stroke="black"
       d="M -1,-1  L 1,-1 2,0 1,1 -1,1" />
    <path
       id="partul"
       fill-opacity="100"
       fill="brown"
       stroke-width="0.1"
       stroke="black"
       d="M 1,-1  L 2,0 1,1 -1,1 -2,0" />
    <path
       id="partur"
       fill-opacity="100"
       fill="brown"
       stroke-width="0.1"
       stroke="black"
       d="M 2,0  L 1,1 -1,1 -2,0 -1,-1" />
    <path
       id="cornerll"
       fill-opacity="100"
       fill="brown"
       stroke-width="0.1"
       stroke="black"
       d="M -1,-1  L 1,-1 2,0 1,1" />
    <path
       id="cornerul"
       fill-opacity="100"
       fill="brown"
       stroke-width="0.1"
       stroke="black"
       d="M 1,-1  L 2,0 1,1 -1,1" />
    <path
       id="corneru"
       fill-opacity="100"
       fill="brown"
       stroke-width="0.1"
       stroke="black"
       d="M 2,0  L 1,1 -1,1 -2,0" />
    <g
       id="cornerur">
      <use
         xlink:href="#cornerll"
         transform="rotate(180)"
         id="use14" />
    </g>
    <g
       id="cornerlr">
      <use
         xlink:href="#cornerul"
         transform="rotate(180)"
         id="use17" />
    </g>
    <g
       id="cornerl">
      <use
         xlink:href="#corneru"
         transform="rotate(180)"
         id="use20" />
    </g>
    <g
       id="partr">
      <use
         xlink:href="#partl"
         transform="rotate(180)"
         id="use23" />
    </g>
    <g
       id="partll">
      <use
         xlink:href="#partur"
         transform="rotate(180)"
         id="use26" />
    </g>
    <g
       id="partlr">
      <use
         xlink:href="#partul"
         transform="rotate(180)"
         id="use29" />
    </g>
  </defs>
  <g
     id="g3453"
     transform="matrix(0,1,-1,0,604.63233,70.956827)">
    <use
       xlink:href="#cornerul"
       transform="matrix(10,0,0,17.32,20,138.56)"
       id="use33"
       x="0"
       y="0"
       width="744.09448"
       height="1052.3622" />
    <use
       xlink:href="#cornerll"
       transform="matrix(10,0,0,17.32,20,346.4)"
       id="use35"
       x="0"
       y="0"
       width="744.09448"
       height="1052.3622" />
    <use
       xlink:href="#cornerur"
       transform="matrix(10,0,0,17.32,410,121.24)"
       id="use37"
       x="0"
       y="0"
       width="744.09448"
       height="1052.3622" />
    <use
       xlink:href="#cornerlr"
       transform="matrix(10,0,0,17.32,410,363.72)"
       id="use39"
       x="0"
       y="0"
       width="744.09448"
       height="1052.3622" />
    <use
       xlink:href="#corneru"
       transform="matrix(10,0,0,17.32,230,17.32)"
       id="use41"
       x="0"
       y="0"
       width="744.09448"
       height="1052.3622" />
    <use
       xlink:href="#cornerl"
       transform="matrix(10,0,0,17.32,230,467.64)"
       id="use43"
       x="0"
       y="0"
       width="744.09448"
       height="1052.3622" />
    <use
       xlink:href="#partl"
       transform="matrix(10,0,0,17.32,20,173.2)"
       id="use45"
       x="0"
       y="0"
       width="744.09448"
       height="1052.3622" />
    <use
       xlink:href="#partl"
       transform="matrix(10,0,0,17.32,20,207.84)"
       id="use47"
       x="0"
       y="0"
       width="744.09448"
       height="1052.3622" />
    <use
       xlink:href="#partl"
       transform="matrix(10,0,0,17.32,20,242.48)"
       id="use49"
       x="0"
       y="0"
       width="744.09448"
       height="1052.3622" />
    <use
       xlink:href="#partl"
       transform="matrix(10,0,0,17.32,20,277.12)"
       id="use51"
       x="0"
       y="0"
       width="744.09448"
       height="1052.3622" />
    <use
       xlink:href="#partl"
       transform="matrix(10,0,0,17.32,20,311.76)"
       id="use53"
       x="0"
       y="0"
       width="744.09448"
       height="1052.3622" />
    <use
       xlink:href="#partul"
       transform="matrix(10,0,0,17.32,50,121.24)"
       id="use55"
       x="0"
       y="0"
       width="744.09448"
       height="1052.3622" />
    <use
       xlink:href="#partul"
       transform="matrix(10,0,0,17.32,80,103.92)"
       id="use57"
       x="0"
       y="0"
       width="744.09448"
       height="1052.3622" />
    <use
       xlink:href="#partul"
       transform="matrix(10,0,0,17.32,110,86.6)"
       id="use59"
       x="0"
       y="0"
       width="744.09448"
       height="1052.3622" />
    <use
       xlink:href="#partul"
       transform="matrix(10,0,0,17.32,140,69.28)"
       id="use61"
       x="0"
       y="0"
       width="744.09448"
       height="1052.3622" />
    <use
       xlink:href="#partul"
       transform="matrix(10,0,0,17.32,170,51.96)"
       id="use63"
       x="0"
       y="0"
       width="744.09448"
       height="1052.3622" />
    <use
       xlink:href="#partul"
       transform="matrix(10,0,0,17.32,200,34.64)"
       id="use65"
       x="0"
       y="0"
       width="744.09448"
       height="1052.3622" />
    <use
       xlink:href="#partur"
       transform="matrix(10,0,0,17.32,260,34.64)"
       id="use67"
       x="0"
       y="0"
       width="744.09448"
       height="1052.3622" />
    <use
       xlink:href="#partur"
       transform="matrix(10,0,0,17.32,290,51.96)"
       id="use69"
       x="0"
       y="0"
       width="744.09448"
       height="1052.3622" />
    <use
       xlink:href="#partur"
       transform="matrix(10,0,0,17.32,320,69.28)"
       id="use71"
       x="0"
       y="0"
       width="744.09448"
       height="1052.3622" />
    <use
       xlink:href="#partur"
       transform="matrix(10,0,0,17.32,350,86.6)"
       id="use73"
       x="0"
       y="0"
       width="744.09448"
       height="1052.3622" />
    <use
       xlink:href="#partur"
       transform="matrix(10,0,0,17.32,380,103.92)"
       id="use75"
       x="0"
       y="0"
       width="744.09448"
       height="1052.3622" />
    <use
       xlink:href="#partll"
       transform="matrix(10,0,0,17.32,50,363.72)"
       id="use77"
       x="0"
       y="0"
       width="744.09448"
       height="1052.3622" />
    <use
       xlink:href="#partll"
       transform="matrix(10,0,0,17.32,80,381.04)"
       id="use79"
       x="0"
       y="0"
       width="744.09448"
       height="1052.3622" />
    <use
       xlink:href="#partll"
       transform="matrix(10,0,0,17.32,110,398.36)"
       id="use81"
       x="0"
       y="0"
       width="744.09448"
       height="1052.3622" />
    <use
       xlink:href="#partll"
       transform="matrix(10,0,0,17.32,140,415.68)"
       id="use83"
       x="0"
       y="0"
       width="744.09448"
       height="1052.3622" />
    <use
       xlink:href="#partll"
       transform="matrix(10,0,0,17.32,170,433)"
       id="use85"
       x="0"
       y="0"
       width="744.09448"
       height="1052.3622" />
    <use
       xlink:href="#partll"
       transform="matrix(10,0,0,17.32,200,450.32)"
       id="use87"
       x="0"
       y="0"
       width="744.09448"
       height="1052.3622" />
    <use
       xlink:href="#partlr"
       transform="matrix(10,0,0,17.32,260,450.32)"
       id="use89"
       x="0"
       y="0"
       width="744.09448"
       height="1052.3622" />
    <use
       xlink:href="#partlr"
       transform="matrix(10,0,0,17.32,290,433)"
       id="use91"
       x="0"
       y="0"
       width="744.09448"
       height="1052.3622" />
    <use
       xlink:href="#partlr"
       transform="matrix(10,0,0,17.32,320,415.68)"
       id="use93"
       x="0"
       y="0"
       width="744.09448"
       height="1052.3622" />
    <use
       xlink:href="#partlr"
       transform="matrix(10,0,0,17.32,350,398.36)"
       id="use95"
       x="0"
       y="0"
       width="744.09448"
       height="1052.3622" />
    <use
       xlink:href="#partlr"
       transform="matrix(10,0,0,17.32,380,381.04)"
       id="use97"
       x="0"
       y="0"
       width="744.09448"
       height="1052.3622" />
    <use
       xlink:href="#partr"
       transform="matrix(10,0,0,17.32,410,155.88)"
       id="use99"
       x="0"
       y="0"
       width="744.09448"
       height="1052.3622" />
    <use
       xlink:href="#partr"
       transform="matrix(10,0,0,17.32,410,190.52)"
       id="use101"
       x="0"
       y="0"
       width="744.09448"
       height="1052.3622" />
    <use
       xlink:href="#partr"
       transform="matrix(10,0,0,17.32,410,225.16)"
       id="use103"
       x="0"
       y="0"
       width="744.09448"
       height="1052.3622" />
    <use
       xlink:href="#partr"
       transform="matrix(10,0,0,17.32,410,259.8)"
       id="use105"
       x="0"
       y="0"
       width="744.09448"
       height="1052.3622" />
    <use
       xlink:href="#partr"
       transform="matrix(10,0,0,17.32,410,294.44)"
       id="use107"
       x="0"
       y="0"
       width="744.09448"
       height="1052.3622" />
    <use
       xlink:href="#partr"
       transform="matrix(10,0,0,17.32,410,329.08)"
       id="use109"
       x="0"
       y="0"
       width="744.09448"
       height="1052.3622" />
    <use
       xlink:href="#hex"
       transform="matrix(10,0,0,17.32,50,155.88)"
       id="use111"
       x="0"
       y="0"
       width="744.09448"
       height="1052.3622" />
    <use
       xlink:href="#hex"
       transform="matrix(10,0,0,17.32,50,190.52)"
       id="use113"
       x="0"
       y="0"
       width="744.09448"
       height="1052.3622" />
    <use
       xlink:href="#hex"
       transform="matrix(10,0,0,17.32,50,225.16)"
       id="use115"
       x="0"
       y="0"
       width="744.09448"
       height="1052.3622" />
    <use
       xlink:href="#hex"
       transform="matrix(10,0,0,17.32,50,259.8)"
       id="use117"
       x="0"
       y="0"
       width="744.09448"
       height="1052.3622" />
    <use
       xlink:href="#hex"
       transform="matrix(10,0,0,17.32,50,294.44)"
       id="use119"
       x="0"
       y="0"
       width="744.09448"
       height="1052.3622" />
    <use
       xlink:href="#hex"
       transform="matrix(10,0,0,17.32,50,329.08)"
       id="use121"
       x="0"
       y="0"
       width="744.09448"
       height="1052.3622" />
    <use
       xlink:href="#hex"
       transform="matrix(10,0,0,17.32,80,138.56)"
       id="use123"
       x="0"
       y="0"
       width="744.09448"
       height="1052.3622" />
    <use
       xlink:href="#hex"
       transform="matrix(10,0,0,17.32,80,173.2)"
       id="use125"
       x="0"
       y="0"
       width="744.09448"
       height="1052.3622" />
    <use
       xlink:href="#hex"
       transform="matrix(10,0,0,17.32,80,207.84)"
       id="use127"
       x="0"
       y="0"
       width="744.09448"
       height="1052.3622" />
    <use
       xlink:href="#hex"
       transform="matrix(10,0,0,17.32,80,242.48)"
       id="use129"
       x="0"
       y="0"
       width="744.09448"
       height="1052.3622" />
    <use
       xlink:href="#hex"
       transform="matrix(10,0,0,17.32,80,277.12)"
       id="use131"
       x="0"
       y="0"
       width="744.09448"
       height="1052.3622" />
    <use
       xlink:href="#hex"
       transform="matrix(10,0,0,17.32,80,311.76)"
       id="use133"
       x="0"
       y="0"
       width="744.09448"
       height="1052.3622" />
    <use
       xlink:href="#hex"
       transform="matrix(10,0,0,17.32,80,346.4)"
       id="use135"
       x="0"
       y="0"
       width="744.09448"
       height="1052.3622" />
    <use
       xlink:href="#hex"
       transform="matrix(10,0,0,17.32,110,121.24)"
       id="use137"
       x="0"
       y="0"
       width="744.09448"
       height="1052.3622" />
    <use
       xlink:href="#hex"
       transform="matrix(10,0,0,17.32,110,155.88)"
       id="use139"
       x="0"
       y="0"
       width="744.09448"
       height="1052.3622" />
    <use
       xlink:href="#hex"
       transform="matrix(10,0,0,17.32,110,190.52)"
       id="use141"
       x="0"
       y="0"
       width="744.09448"
       height="1052.3622" />
    <use
       xlink:href="#hex"
       transform="matrix(10,0,0,17.32,110,225.16)"
       id="use143"
       x="0"
       y="0"
       width="744.09448"
       height="1052.3622" />
    <use
       xlink:href="#hex"
       transform="matrix(10,0,0,17.32,110,259.8)"
       id="use145"
       x="0"
       y="0"
       width="744.09448"
       height="1052.3622" />
    <use
       xlink:href="#hex"
       transform="matrix(10,0,0,17.32,110,294.44)"
       id="use147"
       x="0"
       y="0"
       width="744.09448"
       height="1052.3622" />
    <use
       xlink:href="#hex"
       transform="matrix(10,0,0,17.32,110,329.08)"
       id="use149"
       x="0"
       y="0"
       width="744.09448"
       height="1052.3622" />
    <use
       xlink:href="#hex"
       transform="matrix(10,0,0,17.32,110,363.72)"
       id="use151"
       x="0"
       y="0"
       width="744.09448"
       height="1052.3622" />
    <use
       xlink:href="#hex"
       transform="matrix(10,0,0,17.32,140,103.92)"
       id="use153"
       x="0"
       y="0"
       width="744.09448"
       height="1052.3622" />
    <use
       xlink:href="#hex"
       transform="matrix(10,0,0,17.32,140,138.56)"
       id="use155"
       x="0"
       y="0"
       width="744.09448"
       height="1052.3622" />
    <use
       xlink:href="#hex"
       transform="matrix(10,0,0,17.32,140,173.2)"
       id="use157"
       x="0"
       y="0"
       width="744.09448"
       height="1052.3622" />
    <use
       xlink:href="#hex"
       transform="matrix(10,0,0,17.32,140,207.84)"
       id="use159"
       x="0"
       y="0"
       width="744.09448"
       height="1052.3622" />
    <use
       xlink:href="#hex"
       transform="matrix(10,0,0,17.32,140,242.48)"
       id="use161"
       x="0"
       y="0"
       width="744.09448"
       height="1052.3622" />
    <use
       xlink:href="#hex"
       transform="matrix(10,0,0,17.32,140,277.12)"
       id="use163"
       x="0"
       y="0"
       width="744.09448"
       height="1052.3622" />
    <use
       xlink:href="#hex"
       transform="matrix(10,0,0,17.32,140,311.76)"
       id="use165"
       x="0"
       y="0"
       width="744.09448"
       height="1052.3622" />
    <use
       xlink:href="#hex"
       transform="matrix(10,0,0,17.32,140,346.4)"
       id="use167"
       x="0"
       y="0"
       width="744.09448"
       height="1052.3622" />
    <use
       xlink:href="#hex"
       transform="matrix(10,0,0,17.32,140,381.04)"
       id="use169"
       x="0"
       y="0"
       width="744.09448"
       height="1052.3622" />
    <use
       xlink:href="#hex"
       transform="matrix(10,0,0,17.32,170,86.6)"
       id="use171"
       x="0"
       y="0"
       width="744.09448"
       height="1052.3622" />
    <use
       xlink:href="#hex"
       transform="matrix(10,0,0,17.32,170,121.24)"
       id="use173"
       x="0"
       y="0"
       width="744.09448"
       height="1052.3622" />
    <use
       xlink:href="#hex"
       transform="matrix(10,0,0,17.32,170,155.88)"
       id="use175"
       x="0"
       y="0"
       width="744.09448"
       height="1052.3622" />
    <use
       xlink:href="#hex"
       transform="matrix(10,0,0,17.32,170,190.52)"
       id="use177"
       x="0"
       y="0"
       width="744.09448"
       height="1052.3622" />
    <use
       xlink:href="#hex"
       transform="matrix(10,0,0,17.32,170,225.16)"
       id="use179"
       x="0"
       y="0"
       width="744.09448"
       height="1052.3622" />
    <use
       xlink:href="#hex"
       transform="matrix(10,0,0,17.32,170,259.8)"
       id="use181"
       x="0"
       y="0"
       width="744.09448"
       height="1052.3622" />
    <use
       xlink:href="#hex"
       transform="matrix(10,0,0,17.32,170,294.44)"
       id="use183"
       x="0"
       y="0"
       width="744.09448"
       height="1052.3622" />
    <use
       xlink:href="#hex"
       transform="matrix(10,0,0,17.32,170,329.08)"
       id="use185"
       x="0"
       y="0"
       width="744.09448"
       height="1052.3622" />
    <use
       xlink:href="#hex"
       transform="matrix(10,0,0,17.32,170,363.72)"
       id="use187"
       x="0"
       y="0"
       width="744.09448"
       height="1052.3622" />
    <use
       xlink:href="#hex"
       transform="matrix(10,0,0,17.32,170,398.36)"
       id="use189"
       x="0"
       y="0"
       width="744.09448"
       height="1052.3622" />
    <use
       xlink:href="#hex"
       transform="matrix(10,0,0,17.32,200,69.28)"
       id="use191"
       x="0"
       y="0"
       width="744.09448"
       height="1052.3622" />
    <use
       xlink:href="#hex"
       transform="matrix(10,0,0,17.32,200,103.92)"
       id="use193"
       x="0"
       y="0"
       width="744.09448"
       height="1052.3622" />
    <use
       xlink:href="#hex"
       transform="matrix(10,0,0,17.32,200,138.56)"
       id="use195"
       x="0"
       y="0"
       width="744.09448"
       height="1052.3622" />
    <use
       xlink:href="#hex"
       transform="matrix(10,0,0,17.32,200,173.2)"
       id="use197"
       x="0"
       y="0"
       width="744.09448"
       height="1052.3622" />
    <use
       xlink:href="#hex"
       transform="matrix(10,0,0,17.32,200,207.84)"
       id="use199"
       x="0"
       y="0"
       width="744.09448"
       height="1052.3622" />
    <use
       xlink:href="#hex"
       transform="matrix(10,0,0,17.32,200,242.48)"
       id="use201"
       x="0"
       y="0"
       width="744.09448"
       height="1052.3622" />
    <use
       xlink:href="#hex"
       transform="matrix(10,0,0,17.32,200,277.12)"
       id="use203"
       x="0"
       y="0"
       width="744.09448"
       height="1052.3622" />
    <use
       xlink:href="#hex"
       transform="matrix(10,0,0,17.32,200,311.76)"
       id="use205"
       x="0"
       y="0"
       width="744.09448"
       height="1052.3622" />
    <use
       xlink:href="#hex"
       transform="matrix(10,0,0,17.32,200,346.4)"
       id="use207"
       x="0"
       y="0"
       width="744.09448"
       height="1052.3622" />
    <use
       xlink:href="#hex"
       transform="matrix(10,0,0,17.32,200,381.04)"
       id="use209"
       x="0"
       y="0"
       width="744.09448"
       height="1052.3622" />
    <use
       xlink:href="#hex"
       transform="matrix(10,0,0,17.32,200,415.68)"
       id="use211"
       x="0"
       y="0"
       width="744.09448"
       height="1052.3622" />
    <use
       xlink:href="#hex"
       transform="matrix(10,0,0,17.32,230,51.96)"
       id="use213"
       x="0"
       y="0"
       width="744.09448"
       height="1052.3622" />
    <use
       xlink:href="#hex"
       transform="matrix(10,0,0,17.32,230,86.6)"
       id="use215"
       x="0"
       y="0"
       width="744.09448"
       height="1052.3622" />
    <use
       xlink:href="#hex"
       transform="matrix(10,0,0,17.32,230,121.24)"
       id="use217"
       x="0"
       y="0"
       width="744.09448"
       height="1052.3622" />
    <use
       xlink:href="#hex"
       transform="matrix(10,0,0,17.32,230,155.88)"
       id="use219"
       x="0"
       y="0"
       width="744.09448"
       height="1052.3622" />
    <use
       xlink:href="#hex"
       transform="matrix(10,0,0,17.32,230,190.52)"
       id="use221"
       x="0"
       y="0"
       width="744.09448"
       height="1052.3622" />
    <use
       xlink:href="#hex"
       transform="matrix(10,0,0,17.32,230,225.16)"
       id="use223"
       x="0"
       y="0"
       width="744.09448"
       height="1052.3622" />
    <use
       xlink:href="#hex"
       transform="matrix(10,0,0,17.32,230,259.8)"
       id="use225"
       x="0"
       y="0"
       width="744.09448"
       height="1052.3622" />
    <use
       xlink:href="#hex"
       transform="matrix(10,0,0,17.32,230,294.44)"
       id="use227"
       x="0"
       y="0"
       width="744.09448"
       height="1052.3622" />
    <use
       xlink:href="#hex"
       transform="matrix(10,0,0,17.32,230,329.08)"
       id="use229"
       x="0"
       y="0"
       width="744.09448"
       height="1052.3622" />
    <use
       xlink:href="#hex"
       transform="matrix(10,0,0,17.32,230,363.72)"
       id="use231"
       x="0"
       y="0"
       width="744.09448"
       height="1052.3622" />
    <use
       xlink:href="#hex"
       transform="matrix(10,0,0,17.32,230,398.36)"
       id="use233"
       x="0"
       y="0"
       width="744.09448"
       height="1052.3622" />
    <use
       xlink:href="#hex"
       transform="matrix(10,0,0,17.32,230,433)"
       id="use235"
       x="0"
       y="0"
       width="744.09448"
       height="1052.3622" />
    <use
       xlink:href="#hex"
       transform="matrix(10,0,0,17.32,260,69.28)"
       id="use237"
       x="0"
       y="0"
       width="744.09448"
       height="1052.3622" />
    <use
       xlink:href="#hex"
       transform="matrix(10,0,0,17.32,260,103.92)"
       id="use239"
       x="0"
       y="0"
       width="744.09448"
       height="1052.3622" />
    <use
       xlink:href="#hex"
       transform="matrix(10,0,0,17.32,260,138.56)"
       id="use241"
       x="0"
       y="0"
       width="744.09448"
       height="1052.3622" />
    <use
       xlink:href="#hex"
       transform="matrix(10,0,0,17.32,260,173.2)"
       id="use243"
       x="0"
       y="0"
       width="744.09448"
       height="1052.3622" />
    <use
       xlink:href="#hex"
       transform="matrix(10,0,0,17.32,260,207.84)"
       id="use245"
       x="0"
       y="0"
       width="744.09448"
       height="1052.3622" />
    <use
       xlink:href="#hex"
       transform="matrix(10,0,0,17.32,260,242.48)"
       id="use247"
       x="0"
       y="0"
       width="744.09448"
       height="1052.3622" />
    <use
       xlink:href="#hex"
       transform="matrix(10,0,0,17.32,260,277.12)"
       id="use249"
       x="0"
       y="0"
       width="744.09448"
       height="1052.3622" />
    <use
       xlink:href="#hex"
       transform="matrix(10,0,0,17.32,260,311.76)"
       id="use251"
       x="0"
       y="0"
       width="744.09448"
       height="1052.3622" />
    <use
       xlink:href="#hex"
       transform="matrix(10,0,0,17.32,260,346.4)"
       id="use253"
       x="0"
       y="0"
       width="744.09448"
       height="1052.3622" />
    <use
       xlink:href="#hex"
       transform="matrix(10,0,0,17.32,260,381.04)"
       id="use255"
       x="0"
       y="0"
       width="744.09448"
       height="1052.3622" />
    <use
       xlink:href="#hex"
       transform="matrix(10,0,0,17.32,260,415.68)"
       id="use257"
       x="0"
       y="0"
       width="744.09448"
       height="1052.3622" />
    <use
       xlink:href="#hex"
       transform="matrix(10,0,0,17.32,290,86.6)"
       id="use259"
       x="0"
       y="0"
       width="744.09448"
       height="1052.3622" />
    <use
       xlink:href="#hex"
       transform="matrix(10,0,0,17.32,290,121.24)"
       id="use261"
       x="0"
       y="0"
       width="744.09448"
       height="1052.3622" />
    <use
       xlink:href="#hex"
       transform="matrix(10,0,0,17.32,290,155.88)"
       id="use263"
       x="0"
       y="0"
       width="744.09448"
       height="1052.3622" />
    <use
       xlink:href="#hex"
       transform="matrix(10,0,0,17.32,290,190.52)"
       id="use265"
       x="0"
       y="0"
       width="744.09448"
       height="1052.3622" />
    <use
       xlink:href="#hex"
       transform="matrix(10,0,0,17.32,290,225.16)"
       id="use267"
       x="0"
       y="0"
       width="744.09448"
       height="1052.3622" />
    <use
       xlink:href="#hex"
       transform="matrix(10,0,0,17.32,290,259.8)"
       id="use269"
       x="0"
       y="0"
       width="744.09448"
       height="1052.3622" />
    <use
       xlink:href="#hex"
       transform="matrix(10,0,0,17.32,290,294.44)"
       id="use271"
       x="0"
       y="0"
       width="744.09448"
       height="1052.3622" />
    <use
       xlink:href="#hex"
       transform="matrix(10,0,0,17.32,290,329.08)"
       id="use273"
       x="0"
       y="0"
       width="744.09448"
       height="1052.3622" />
    <use
       xlink:href="#hex"
       transform="matrix(10,0,0,17.32,290,363.72)"
       id="use275"
       x="0"
       y="0"
       width="744.09448"
       height="1052.3622" />
    <use
       xlink:href="#hex"
       transform="matrix(10,0,0,17.32,290,398.36)"
       id="use277"
       x="0"
       y="0"
       width="744.09448"
       height="1052.3622" />
    <use
       xlink:href="#hex"
       transform="matrix(10,0,0,17.32,320,103.92)"
       id="use279"
       x="0"
       y="0"
       width="744.09448"
       height="1052.3622" />
    <use
       xlink:href="#hex"
       transform="matrix(10,0,0,17.32,320,138.56)"
       id="use281"
       x="0"
       y="0"
       width="744.09448"
       height="1052.3622" />
    <use
       xlink:href="#hex"
       transform="matrix(10,0,0,17.32,320,173.2)"
       id="use283"
       x="0"
       y="0"
       width="744.09448"
       height="1052.3622" />
    <use
       xlink:href="#hex"
       transform="matrix(10,0,0,17.32,320,207.84)"
       id="use285"
       x="0"
       y="0"
       width="744.09448"
       height="1052.3622" />
    <use
       xlink:href="#hex"
       transform="matrix(10,0,0,17.32,320,242.48)"
       id="use287"
       x="0"
       y="0"
       width="744.09448"
       height="1052.3622" />
    <use
       xlink:href="#hex"
       transform="matrix(10,0,0,17.32,320,277.12)"
       id="use289"
       x="0"
       y="0"
       width="744.09448"
       height="1052.3622" />
    <use
       xlink:href="#hex"
       transform="matrix(10,0,0,17.32,320,311.76)"
       id="use291"
       x="0"
       y="0"
       width="744.09448"
       height="1052.3622" />
    <use
       xlink:href="#hex"
       transform="matrix(10,0,0,17.32,320,346.4)"
       id="use293"
       x="0"
       y="0"
       width="744.09448"
       height="1052.3622" />
    <use
       xlink:href="#hex"
       transform="matrix(10,0,0,17.32,320,381.04)"
       id="use295"
       x="0"
       y="0"
       width="744.09448"
       height="1052.3622" />
    <use
       xlink:href="#hex"
       transform="matrix(10,0,0,17.32,350,121.24)"
       id="use297"
       x="0"
       y="0"
       width="744.09448"
       height="1052.3622" />
    <use
       xlink:href="#hex"
       transform="matrix(10,0,0,17.32,350,155.88)"
       id="use299"
       x="0"
       y="0"
       width="744.09448"
       height="1052.3622" />
    <use
       xlink:href="#hex"
       transform="matrix(10,0,0,17.32,350,190.52)"
       id="use301"
       x="0"
       y="0"
       width="744.09448"
       height="1052.3622" />
    <use
       xlink:href="#hex"
       transform="matrix(10,0,0,17.32,350,225.16)"
       id="use303"
       x="0"
       y="0"
       width="744.09448"
       height="1052.3622" />
    <use
       xlink:href="#hex"
       transform="matrix(10,0,0,17.32,350,259.8)"
       id="use305"
       x="0"
       y="0"
       width="744.09448"
       height="1052.3622" />
    <use
       xlink:href="#hex"
       transform="matrix(10,0,0,17.32,350,294.44)"
       id="use307"
       x="0"
       y="0"
       width="744.09448"
       height="1052.3622" />
    <use
       xlink:href="#hex"
       transform="matrix(10,0,0,17.32,350,329.08)"
       id="use309"
       x="0"
       y="0"
       width="744.09448"
       height="1052.3622" />
    <use
       xlink:href="#hex"
       transform="matrix(10,0,0,17.32,350,363.72)"
       id="use311"
       x="0"
       y="0"
       width="744.09448"
       height="1052.3622" />
    <use
       xlink:href="#hex"
       transform="matrix(10,0,0,17.32,380,138.56)"
       id="use313"
       x="0"
       y="0"
       width="744.09448"
       height="1052.3622" />
    <use
       xlink:href="#hex"
       transform="matrix(10,0,0,17.32,380,173.2)"
       id="use315"
       x="0"
       y="0"
       width="744.09448"
       height="1052.3622" />
    <use
       xlink:href="#hex"
       transform="matrix(10,0,0,17.32,380,207.84)"
       id="use317"
       x="0"
       y="0"
       width="744.09448"
       height="1052.3622" />
    <use
       xlink:href="#hex"
       transform="matrix(10,0,0,17.32,380,242.48)"
       id="use319"
       x="0"
       y="0"
       width="744.09448"
       height="1052.3622" />
    <use
       xlink:href="#hex"
       transform="matrix(10,0,0,17.32,380,277.12)"
       id="use321"
       x="0"
       y="0"
       width="744.09448"
       height="1052.3622" />
    <use
       xlink:href="#hex"
       transform="matrix(10,0,0,17.32,380,311.76)"
       id="use323"
       x="0"
       y="0"
       width="744.09448"
       height="1052.3622" />
    <use
       xlink:href="#hex"
       transform="matrix(10,0,0,17.32,380,346.4)"
       id="use325"
       x="0"
       y="0"
       width="744.09448"
       height="1052.3622" />
  </g>
</svg>
