<?xml version="1.0" encoding="UTF-8" standalone="no"?>
<!-- Created with Inkscape (http://www.inkscape.org/) -->

<svg
   xmlns:dc="http://purl.org/dc/elements/1.1/"
   xmlns:cc="http://creativecommons.org/ns#"
   xmlns:rdf="http://www.w3.org/1999/02/22-rdf-syntax-ns#"
   xmlns:svg="http://www.w3.org/2000/svg"
   xmlns="http://www.w3.org/2000/svg"
   xmlns:sodipodi="http://sodipodi.sourceforge.net/DTD/sodipodi-0.dtd"
   xmlns:inkscape="http://www.inkscape.org/namespaces/inkscape"
   width="382.33563"
   height="359.43039"
   id="svg2"
   version="1.1"
   inkscape:version="0.48.0 r9654"
   sodipodi:docname="digital_dice.svg">
  <sodipodi:namedview
     id="base"
     pagecolor="#ffffff"
     bordercolor="#666666"
     borderopacity="1.0"
     inkscape:pageopacity="0.0"
     inkscape:pageshadow="2"
     inkscape:zoom="1"
     inkscape:cx="325.03026"
     inkscape:cy="173.56563"
     inkscape:document-units="px"
     inkscape:current-layer="svg2"
     showgrid="true"
     showguides="true"
     inkscape:guide-bbox="true"
     inkscape:window-width="1280"
     inkscape:window-height="723"
     inkscape:window-x="0"
     inkscape:window-y="24"
     inkscape:window-maximized="1"
     fit-margin-top="20"
     fit-margin-left="20"
     fit-margin-right="20"
     fit-margin-bottom="20">
    <inkscape:grid
       id="grid3771"
       type="xygrid"
       empspacing="5"
       visible="true"
       enabled="true"
       snapvisiblegridlinesonly="true" />
  </sodipodi:namedview>
  <defs
     id="defs4" />
  <metadata
     id="metadata7">
    <rdf:RDF>
      <cc:Work
         rdf:about="">
        <dc:format>image/svg+xml</dc:format>
        <dc:type
           rdf:resource="http://purl.org/dc/dcmitype/StillImage" />
        <dc:title></dc:title>
      </cc:Work>
    </rdf:RDF>
  </metadata>
  <path
     style="fill:#000000;fill-opacity:1;stroke:none"
     d="m 313.05576,103.86632 c -2.10139,0.19029 -4.09376,0.74206 -5.92756,1.59232 L 292.29391,79.776008 c 6.22352,-3.316234 13.27352,-5.284042 20.76185,-5.537177 z m 24.0492,-24.090312 -14.83427,25.682632 c -1.8338,-0.85026 -3.82617,-1.40203 -5.92756,-1.59232 l 0,-29.627489 c 7.48834,0.253135 14.53833,2.220943 20.76183,5.537177 z m -32.82239,27.336602 c -1.68166,1.1908 -3.1547,2.65357 -4.3455,4.33522 L 274.25442,96.62382 c 3.8428,-6.146927 9.04718,-11.350689 15.19386,-15.19385 z m 50.86191,-10.48879 -25.68265,14.82401 c -1.19081,-1.68165 -2.66385,-3.14442 -4.3455,-4.33522 l 14.83429,-25.68264 c 6.14667,3.843161 11.35105,9.046923 15.19386,15.19385 z m -56.8511,17.66965 c -0.85058,1.83445 -1.4125,3.83561 -1.6026,5.93784 l -29.6275,0 c 0.25309,-7.48795 2.23158,-14.53857 5.54746,-20.761854 z m 64.04224,5.93784 -29.62752,0 c -0.19008,-2.10223 -0.75199,-4.10339 -1.6026,-5.93784 l 25.68267,-14.824014 c 3.31588,6.223284 5.29436,13.273904 5.54745,20.761854 z m -32.84298,1.64369 c 0,8.18953 -6.60367,14.7932 -14.79319,14.7932 -8.18954,0 -14.7932,-6.60367 -14.7932,-14.7932 0,-8.18955 6.60366,-14.79321 14.7932,-14.79321 8.18952,0 14.79319,6.60366 14.79319,14.79321 z m -32.79159,1.64369 c 0.19103,2.0982 0.74323,4.0963 1.59233,5.92755 l -25.68264,14.82403 c -3.31488,-6.22142 -5.29341,-13.26617 -5.54746,-20.75158 z m 65.63457,0 c -0.25404,7.48541 -2.23259,14.53016 -5.54745,20.75158 L 331.1055,129.44624 c 0.84909,-1.83125 1.40131,-3.82935 1.59234,-5.92755 z m -58.06333,13.10842 -14.82401,25.68264 c -6.14668,-3.84316 -11.35106,-9.04692 -15.19386,-15.19385 l 25.68265,-14.82402 c 1.18857,1.67851 2.65751,3.14561 4.33522,4.33523 z m 50.87219,10.48879 c -3.84281,6.14693 -9.04719,11.35069 -15.19386,15.19385 l -14.82403,-25.68264 c 1.67772,-1.18962 3.14666,-2.65672 4.33524,-4.33523 z m -42.08872,-7.2425 0,29.63776 c -7.48522,-0.25299 -14.52994,-2.23375 -20.75158,-5.54745 l 14.82402,-25.68264 c 1.8338,0.85027 3.82617,1.40204 5.92756,1.59233 z m 24.03894,24.09031 c -6.22162,3.3137 -13.26635,5.29446 -20.75157,5.54745 l 0,-29.63776 c 2.10139,-0.19029 4.09376,-0.74206 5.92756,-1.59233 z"
     id="rect8812"
     inkscape:connector-curvature="0"
     sodipodi:nodetypes="ccccccccccccccccccccccccccccccssssscccccccccccccccccccccccccccccc" />
  <g
     id="layer1"
     inkscape:groupmode="layer"
     inkscape:label="Layer 1"
     transform="translate(9.9062445,9.5128028)" />
  <g
     id="g9252"
     transform="matrix(0.32873778,0,0,0.32873778,-113.20044,16.552449)">
    <path
       inkscape:connector-curvature="0"
       id="path8884"
       d="m 555,102.58093 c -6.39229,0.57884 -12.45296,2.25728 -18.03125,4.84375 l -45.125,-78.124984 C 510.77531,19.211916 532.22095,13.225966 555,12.455946 z"
       style="fill:#000000;fill-opacity:1;stroke:none" />
    <path
       inkscape:connector-curvature="0"
       id="path8882"
       d="m 628.15625,29.299696 -45.125,78.124984 C 577.45296,104.83821 571.39229,103.15977 565,102.58093 l 0,-90.124984 c 22.77905,0.77002 44.22469,6.75597 63.15625,16.84375 z"
       style="fill:#000000;fill-opacity:1;stroke:none" />
    <path
       inkscape:connector-curvature="0"
       id="path8880"
       d="m 528.3125,112.45593 c -5.11548,3.62236 -9.5964,8.07203 -13.21875,13.18751 l -78.125,-45.093747 C 448.65829,61.851126 464.4897,46.021606 483.1875,34.330946 z"
       style="fill:#000000;fill-opacity:1;stroke:none" />
    <path
       inkscape:connector-curvature="0"
       id="path8878"
       d="m 683.03125,80.549693 -78.125,45.093747 c -3.62235,-5.11548 -8.10327,-9.56515 -13.21875,-13.18751 l 45.125,-78.124984 c 18.6978,11.69066 34.52921,27.52018 46.21875,46.218747 z"
       style="fill:#000000;fill-opacity:1;stroke:none" />
    <path
       inkscape:connector-curvature="0"
       id="path8876"
       d="m 510.09375,134.29969 c -2.58741,5.5803 -4.29674,11.66768 -4.875,18.0625 l -90.125,0 c 0.76986,-22.77784 6.7883,-44.2254 16.875,-63.156257 z"
       style="fill:#000000;fill-opacity:1;stroke:none" />
    <path
       inkscape:connector-curvature="0"
       id="path8874"
       d="m 704.90625,152.36219 -90.125,0 c -0.57826,-6.39482 -2.28759,-12.4822 -4.875,-18.0625 l 78.125,-45.093757 c 10.0867,18.930857 16.10514,40.378417 16.875,63.156257 z"
       style="fill:#000000;fill-opacity:1;stroke:none" />
    <path
       inkscape:connector-curvature="0"
       id="path8872"
       d="m 605,157.36219 c 0,24.91203 -20.08796,44.99999 -45,44.99999 -24.91204,0 -45,-20.08796 -45,-44.99999 0,-24.91204 20.08796,-45.00001 45,-45.00001 24.91204,0 45,20.08797 45,45.00001 z"
       style="fill:#000000;fill-opacity:0.19491523;stroke:none" />
    <path
       inkscape:connector-curvature="0"
       id="path8870"
       d="m 505.25,162.36219 c 0.58108,6.38258 2.26086,12.46069 4.84375,18.03125 l -78.125,45.09374 c -10.08366,-18.92516 -16.10221,-40.35483 -16.875,-63.12499 z"
       style="fill:#000000;fill-opacity:1;stroke:none" />
    <path
       inkscape:connector-curvature="0"
       id="path8868"
       d="m 704.90625,162.36219 c -0.77279,22.77016 -6.79134,44.19983 -16.875,63.12499 l -78.125,-45.09374 c 2.58289,-5.57056 4.26267,-11.64867 4.84375,-18.03125 z"
       style="fill:#000000;fill-opacity:1;stroke:none" />
    <path
       inkscape:connector-curvature="0"
       id="path8866"
       d="m 528.28125,202.23718 -45.09375,78.125 C 464.4897,268.67152 448.65829,252.842 436.96875,234.14343 l 78.125,-45.09375 c 3.61557,5.1059 8.084,9.56875 13.1875,13.1875 z"
       style="fill:#000000;fill-opacity:1;stroke:none" />
    <path
       inkscape:connector-curvature="0"
       id="path8864"
       d="M 683.03125,234.14343 C 671.34171,252.842 655.5103,268.67152 636.8125,280.36218 l -45.09375,-78.125 c 5.1035,-3.61875 9.57193,-8.0816 13.1875,-13.1875 z"
       style="fill:#000000;fill-opacity:1;stroke:none" />
    <path
       inkscape:connector-curvature="0"
       id="path8862"
       d="m 555,212.11218 0,90.15625 c -22.76956,-0.76958 -44.19919,-6.79493 -63.125,-16.875 l 45.09375,-78.125 c 5.57829,2.58647 11.63896,4.26491 18.03125,4.84375 z"
       style="fill:#000000;fill-opacity:1;stroke:none" />
    <path
       inkscape:connector-curvature="0"
       id="rect8812-1"
       d="m 628.125,285.39343 c -18.92581,10.08007 -40.35544,16.10542 -63.125,16.875 l 0,-90.15625 c 6.39229,-0.57884 12.45296,-2.25728 18.03125,-4.84375 z"
       style="fill:#000000;fill-opacity:1;stroke:none" />
  </g>
  <g
     id="g9267"
     transform="matrix(0.32873778,0,0,0.32873778,138.91062,-94.221894)">
    <path
       inkscape:connector-curvature="0"
       id="path8884-1"
       d="m 160,437.58092 c -6.39229,0.57884 -12.45296,2.25728 -18.03125,4.84375 l -45.125,-78.12498 C 115.77531,354.21191 137.22095,348.22596 160,347.45594 z"
       style="fill:#000000;fill-opacity:1;stroke:none" />
    <path
       inkscape:connector-curvature="0"
       id="path8882-6"
       d="m 233.15625,364.29969 -45.125,78.12498 C 182.45296,439.8382 176.39229,438.15976 170,437.58092 l 0,-90.12498 c 22.77905,0.77002 44.22469,6.75597 63.15625,16.84375 z"
       style="fill:#000000;fill-opacity:1;stroke:none" />
    <path
       inkscape:connector-curvature="0"
       id="path8880-0"
       d="m 133.3125,447.45592 c -5.11548,3.62236 -9.5964,8.07203 -13.21875,13.18751 l -78.125,-45.09375 C 53.65829,396.85112 69.4897,381.0216 88.1875,369.33094 z"
       style="fill:#000000;fill-opacity:0.19491523;stroke:none" />
    <path
       inkscape:connector-curvature="0"
       id="path8878-7"
       d="m 288.03125,415.54968 -78.125,45.09375 c -3.62235,-5.11548 -8.10327,-9.56515 -13.21875,-13.18751 l 45.125,-78.12498 c 18.6978,11.69066 34.52921,27.52018 46.21875,46.21874 z"
       style="fill:#000000;fill-opacity:0.19491523;stroke:none" />
    <path
       inkscape:connector-curvature="0"
       id="path8876-9"
       d="m 115.09375,469.29968 c -2.58741,5.5803 -4.29674,11.66768 -4.875,18.0625 l -90.125,0 c 0.76986,-22.77784 6.7883,-44.2254 16.875,-63.15626 z"
       style="fill:#000000;fill-opacity:1;stroke:none" />
    <path
       inkscape:connector-curvature="0"
       id="path8874-6"
       d="m 309.90625,487.36218 -90.125,0 c -0.57826,-6.39482 -2.28759,-12.4822 -4.875,-18.0625 l 78.125,-45.09376 c 10.0867,18.93086 16.10514,40.37842 16.875,63.15626 z"
       style="fill:#000000;fill-opacity:1;stroke:none" />
    <path
       inkscape:connector-curvature="0"
       id="path8872-6"
       d="m 210,492.36218 c 0,24.91203 -20.08796,44.99999 -45,44.99999 -24.91204,0 -45,-20.08796 -45,-44.99999 0,-24.91204 20.08796,-45.00001 45,-45.00001 24.91204,0 45,20.08797 45,45.00001 z"
       style="fill:#000000;fill-opacity:1;stroke:none" />
    <path
       inkscape:connector-curvature="0"
       id="path8870-7"
       d="m 110.25,497.36218 c 0.58108,6.38258 2.26086,12.46069 4.84375,18.03125 l -78.125,45.09374 C 26.88509,541.56201 20.86654,520.13234 20.09375,497.36218 z"
       style="fill:#000000;fill-opacity:1;stroke:none" />
    <path
       inkscape:connector-curvature="0"
       id="path8868-7"
       d="m 309.90625,497.36218 c -0.77279,22.77016 -6.79134,44.19983 -16.875,63.12499 l -78.125,-45.09374 c 2.58289,-5.57056 4.26267,-11.64867 4.84375,-18.03125 z"
       style="fill:#000000;fill-opacity:1;stroke:none" />
    <path
       inkscape:connector-curvature="0"
       id="path8866-7"
       d="m 133.28125,537.23717 -45.09375,78.125 C 69.4897,603.67151 53.65829,587.84199 41.96875,569.14342 l 78.125,-45.09375 c 3.61557,5.1059 8.084,9.56875 13.1875,13.1875 z"
       style="fill:#000000;fill-opacity:0.19491523;stroke:none" />
    <path
       inkscape:connector-curvature="0"
       id="path8864-0"
       d="m 288.03125,569.14342 c -11.68954,18.69857 -27.52095,34.52809 -46.21875,46.21875 l -45.09375,-78.125 c 5.1035,-3.61875 9.57193,-8.0816 13.1875,-13.1875 z"
       style="fill:#000000;fill-opacity:0.19491523;stroke:none" />
    <path
       inkscape:connector-curvature="0"
       id="path8862-9"
       d="m 160,547.11217 0,90.15625 c -22.76956,-0.76958 -44.19919,-6.79493 -63.125,-16.875 l 45.09375,-78.125 c 5.57829,2.58647 11.63896,4.26491 18.03125,4.84375 z"
       style="fill:#000000;fill-opacity:1;stroke:none" />
    <path
       inkscape:connector-curvature="0"
       id="rect8812-1-4"
       d="m 233.125,620.39342 c -18.92581,10.08007 -40.35544,16.10542 -63.125,16.875 l 0,-90.15625 c 6.39229,-0.57884 12.45296,-2.25728 18.03125,-4.84375 z"
       style="fill:#000000;fill-opacity:1;stroke:none" />
  </g>
  <g
     id="g9282"
     transform="matrix(0.32873778,0,0,0.32873778,-109.88224,14.90876)">
    <path
       inkscape:connector-curvature="0"
       id="path8884-1-9"
       d="m 535,442.58093 c -6.39229,0.57884 -12.45296,2.25728 -18.03125,4.84375 l -45.125,-78.12498 C 490.77531,359.21192 512.22095,353.22597 535,352.45595 z"
       style="fill:#000000;fill-opacity:1;stroke:none" />
    <path
       inkscape:connector-curvature="0"
       id="path8882-6-4"
       d="m 608.15625,369.2997 -45.125,78.12498 C 557.45296,444.83821 551.39229,443.15977 545,442.58093 l 0,-90.12498 c 22.77905,0.77002 44.22469,6.75597 63.15625,16.84375 z"
       style="fill:#000000;fill-opacity:1;stroke:none" />
    <path
       inkscape:connector-curvature="0"
       id="path8880-0-3"
       d="m 508.3125,452.45593 c -5.11548,3.62236 -9.5964,8.07203 -13.21875,13.18751 l -78.125,-45.09375 c 11.68954,-18.69856 27.52095,-34.52808 46.21875,-46.21874 z"
       style="fill:#000000;fill-opacity:0.19491523;stroke:none" />
    <path
       inkscape:connector-curvature="0"
       id="path8878-7-8"
       d="m 663.03125,420.54969 -78.125,45.09375 c -3.62235,-5.11548 -8.10327,-9.56515 -13.21875,-13.18751 l 45.125,-78.12498 c 18.6978,11.69066 34.52921,27.52018 46.21875,46.21874 z"
       style="fill:#000000;fill-opacity:0.19491523;stroke:none" />
    <path
       inkscape:connector-curvature="0"
       id="path8876-9-4"
       d="m 490.09375,474.29969 c -2.58741,5.5803 -4.29674,11.66768 -4.875,18.0625 l -90.125,0 c 0.76986,-22.77784 6.7883,-44.2254 16.875,-63.15626 z"
       style="fill:#000000;fill-opacity:1;stroke:none" />
    <path
       inkscape:connector-curvature="0"
       id="path8874-6-9"
       d="m 684.90625,492.36219 -90.125,0 c -0.57826,-6.39482 -2.28759,-12.4822 -4.875,-18.0625 l 78.125,-45.09376 c 10.0867,18.93086 16.10514,40.37842 16.875,63.15626 z"
       style="fill:#000000;fill-opacity:1;stroke:none" />
    <path
       inkscape:connector-curvature="0"
       id="path8872-6-2"
       d="m 585,497.36219 c 0,24.91203 -20.08796,44.99999 -45,44.99999 -24.91204,0 -45,-20.08796 -45,-44.99999 0,-24.91204 20.08796,-45.00001 45,-45.00001 24.91204,0 45,20.08797 45,45.00001 z"
       style="fill:#000000;fill-opacity:0.19491523;stroke:none" />
    <path
       inkscape:connector-curvature="0"
       id="path8870-7-6"
       d="m 485.25,502.36219 c 0.58108,6.38258 2.26086,12.46069 4.84375,18.03125 l -78.125,45.09374 c -10.08366,-18.92516 -16.10221,-40.35483 -16.875,-63.12499 z"
       style="fill:#000000;fill-opacity:1;stroke:none" />
    <path
       inkscape:connector-curvature="0"
       id="path8868-7-1"
       d="m 684.90625,502.36219 c -0.77279,22.77016 -6.79134,44.19983 -16.875,63.12499 l -78.125,-45.09374 c 2.58289,-5.57056 4.26267,-11.64867 4.84375,-18.03125 z"
       style="fill:#000000;fill-opacity:1;stroke:none" />
    <path
       inkscape:connector-curvature="0"
       id="path8866-7-9"
       d="m 508.28125,542.23718 -45.09375,78.125 C 444.4897,608.67152 428.65829,592.842 416.96875,574.14343 l 78.125,-45.09375 c 3.61557,5.1059 8.084,9.56875 13.1875,13.1875 z"
       style="fill:#000000;fill-opacity:0.19491523;stroke:none" />
    <path
       inkscape:connector-curvature="0"
       id="path8864-0-2"
       d="M 663.03125,574.14343 C 651.34171,592.842 635.5103,608.67152 616.8125,620.36218 l -45.09375,-78.125 c 5.1035,-3.61875 9.57193,-8.0816 13.1875,-13.1875 z"
       style="fill:#000000;fill-opacity:0.19491523;stroke:none" />
    <path
       inkscape:connector-curvature="0"
       id="path8862-9-1"
       d="m 535,552.11218 0,90.15625 c -22.76956,-0.76958 -44.19919,-6.79493 -63.125,-16.875 l 45.09375,-78.125 c 5.57829,2.58647 11.63896,4.26491 18.03125,4.84375 z"
       style="fill:#000000;fill-opacity:1;stroke:none" />
    <path
       inkscape:connector-curvature="0"
       id="rect8812-1-4-6"
       d="m 608.125,625.39343 c -18.92581,10.08007 -40.35544,16.10542 -63.125,16.875 l 0,-90.15625 c 6.39229,-0.57884 12.45296,-2.25728 18.03125,-4.84375 z"
       style="fill:#000000;fill-opacity:1;stroke:none" />
  </g>
  <g
     id="g9297"
     transform="matrix(0.32873778,0,0,0.32873778,139.95847,-96.862084)">
    <path
       inkscape:connector-curvature="0"
       id="path8884-8"
       d="m 155,782.58097 c -6.39229,0.57884 -12.45296,2.25728 -18.03125,4.84375 l -45.125,-78.12499 C 110.77531,699.21195 132.22095,693.226 155,692.45598 z"
       style="fill:#000000;fill-opacity:1;stroke:none" />
    <path
       inkscape:connector-curvature="0"
       id="path8882-1"
       d="m 228.15625,709.29973 -45.125,78.12499 C 177.45296,784.83825 171.39229,783.15981 165,782.58097 l 0,-90.12499 c 22.77905,0.77002 44.22469,6.75597 63.15625,16.84375 z"
       style="fill:#000000;fill-opacity:1;stroke:none" />
    <path
       inkscape:connector-curvature="0"
       id="path8880-4"
       d="m 128.3125,792.45597 c -5.11548,3.62235 -9.5964,8.07202 -13.21875,13.1875 l -78.125,-45.09374 C 48.65829,741.85116 64.4897,726.02164 83.1875,714.33098 z"
       style="fill:#000000;fill-opacity:0.19491523;stroke:none" />
    <path
       inkscape:connector-curvature="0"
       id="path8878-6"
       d="m 283.03125,760.54973 -78.125,45.09374 c -3.62235,-5.11548 -8.10327,-9.56515 -13.21875,-13.1875 l 45.125,-78.12499 c 18.6978,11.69066 34.52921,27.52018 46.21875,46.21875 z"
       style="fill:#000000;fill-opacity:0.19491523;stroke:none" />
    <path
       inkscape:connector-curvature="0"
       id="path8876-0"
       d="m 110.09375,814.29972 c -2.58741,5.5803 -4.29674,11.66768 -4.875,18.0625 l -90.125,0 c 0.76986,-22.77784 6.7883,-44.22539 16.875,-63.15625 z"
       style="fill:#000000;fill-opacity:0.19491523;stroke:none" />
    <path
       inkscape:connector-curvature="0"
       id="path8874-69"
       d="m 304.90625,832.36222 -90.125,0 c -0.57826,-6.39482 -2.28759,-12.4822 -4.875,-18.0625 l 78.125,-45.09375 c 10.0867,18.93086 16.10514,40.37841 16.875,63.15625 z"
       style="fill:#000000;fill-opacity:0.19491523;stroke:none" />
    <path
       inkscape:connector-curvature="0"
       id="path8872-2"
       d="m 205,837.36222 c 0,24.91203 -20.08796,44.99999 -45,44.99999 -24.91204,0 -45,-20.08796 -45,-44.99999 0,-24.91204 20.08796,-45 45,-45 24.91204,0 45,20.08796 45,45 z"
       style="fill:#000000;fill-opacity:0.19491523;stroke:none" />
    <path
       inkscape:connector-curvature="0"
       id="path8870-1"
       d="m 105.25,842.36222 c 0.58108,6.38258 2.26086,12.46069 4.84375,18.03125 l -78.125,45.09374 C 21.88509,886.56205 15.86654,865.13238 15.09375,842.36222 z"
       style="fill:#000000;fill-opacity:1;stroke:none" />
    <path
       inkscape:connector-curvature="0"
       id="path8868-2"
       d="m 304.90625,842.36222 c -0.77279,22.77016 -6.79134,44.19983 -16.875,63.12499 l -78.125,-45.09374 c 2.58289,-5.57056 4.26267,-11.64867 4.84375,-18.03125 z"
       style="fill:#000000;fill-opacity:1;stroke:none" />
    <path
       inkscape:connector-curvature="0"
       id="path8866-5"
       d="m 128.28125,882.23721 -45.09375,78.125 C 64.4897,948.67155 48.65829,932.84203 36.96875,914.14346 l 78.125,-45.09375 c 3.61557,5.1059 8.084,9.56875 13.1875,13.1875 z"
       style="fill:#000000;fill-opacity:1;stroke:none" />
    <path
       inkscape:connector-curvature="0"
       id="path8864-5"
       d="m 283.03125,914.14346 c -11.68954,18.69857 -27.52095,34.52809 -46.21875,46.21875 l -45.09375,-78.125 c 5.1035,-3.61875 9.57193,-8.0816 13.1875,-13.1875 z"
       style="fill:#000000;fill-opacity:1;stroke:none" />
    <path
       inkscape:connector-curvature="0"
       id="path8862-2"
       d="m 155,892.11221 0,90.15625 c -22.76956,-0.76958 -44.19919,-6.79493 -63.125,-16.875 l 45.09375,-78.125 c 5.57829,2.58647 11.63896,4.26491 18.03125,4.84375 z"
       style="fill:#000000;fill-opacity:0.19491523;stroke:none" />
    <path
       inkscape:connector-curvature="0"
       id="rect8812-1-8"
       d="m 228.125,965.39346 c -18.92581,10.08007 -40.35544,16.10542 -63.125,16.875 l 0,-90.15625 c 6.39229,-0.57884 12.45296,-2.25728 18.03125,-4.84375 z"
       style="fill:#000000;fill-opacity:0.19491523;stroke:none" />
  </g>
  <g
     id="g9312"
     transform="matrix(0.32873778,0,0,0.32873778,-96.732731,16.521617)">
    <path
       inkscape:connector-curvature="0"
       id="path8884-4"
       d="m 495,782.58097 c -6.39229,0.57884 -12.45296,2.25728 -18.03125,4.84375 l -45.125,-78.12499 C 450.77531,699.21195 472.22095,693.226 495,692.45598 z"
       style="fill:#000000;fill-opacity:1;stroke:none" />
    <path
       inkscape:connector-curvature="0"
       id="path8882-8"
       d="m 568.15625,709.29973 -45.125,78.12499 C 517.45296,784.83825 511.39229,783.15981 505,782.58097 l 0,-90.12499 c 22.77905,0.77002 44.22469,6.75597 63.15625,16.84375 z"
       style="fill:#000000;fill-opacity:1;stroke:none" />
    <path
       inkscape:connector-curvature="0"
       id="path8880-3"
       d="m 468.3125,792.45597 c -5.11548,3.62235 -9.5964,8.07202 -13.21875,13.1875 l -78.125,-45.09374 c 11.68954,-18.69857 27.52095,-34.52809 46.21875,-46.21875 z"
       style="fill:#000000;fill-opacity:0.19491523;stroke:none" />
    <path
       inkscape:connector-curvature="0"
       id="path8878-5"
       d="m 623.03125,760.54973 -78.125,45.09374 c -3.62235,-5.11548 -8.10327,-9.56515 -13.21875,-13.1875 l 45.125,-78.12499 c 18.6978,11.69066 34.52921,27.52018 46.21875,46.21875 z"
       style="fill:#000000;fill-opacity:0.19491523;stroke:none" />
    <path
       inkscape:connector-curvature="0"
       id="path8876-4"
       d="m 450.09375,814.29972 c -2.58741,5.5803 -4.29674,11.66768 -4.875,18.0625 l -90.125,0 c 0.76986,-22.77784 6.7883,-44.22539 16.875,-63.15625 z"
       style="fill:#000000;fill-opacity:0.19491523;stroke:none" />
    <path
       inkscape:connector-curvature="0"
       id="path8874-4"
       d="m 644.90625,832.36222 -90.125,0 c -0.57826,-6.39482 -2.28759,-12.4822 -4.875,-18.0625 l 78.125,-45.09375 c 10.0867,18.93086 16.10514,40.37841 16.875,63.15625 z"
       style="fill:#000000;fill-opacity:0.19491523;stroke:none" />
    <path
       inkscape:connector-curvature="0"
       id="path8872-0"
       d="m 545,837.36222 c 0,24.91203 -20.08796,44.99999 -45,44.99999 -24.91204,0 -45,-20.08796 -45,-44.99999 0,-24.91204 20.08796,-45 45,-45 24.91204,0 45,20.08796 45,45 z"
       style="fill:#000000;fill-opacity:0.19491523;stroke:none" />
    <path
       inkscape:connector-curvature="0"
       id="path8870-10"
       d="m 445.25,842.36222 c 0.58108,6.38258 2.26086,12.46069 4.84375,18.03125 l -78.125,45.09374 c -10.08366,-18.92516 -16.10221,-40.35483 -16.875,-63.12499 z"
       style="fill:#000000;fill-opacity:0.19491523;stroke:none" />
    <path
       inkscape:connector-curvature="0"
       id="path8868-5"
       d="m 644.90625,842.36222 c -0.77279,22.77016 -6.79134,44.19983 -16.875,63.12499 l -78.125,-45.09374 c 2.58289,-5.57056 4.26267,-11.64867 4.84375,-18.03125 z"
       style="fill:#000000;fill-opacity:0.19491523;stroke:none" />
    <path
       inkscape:connector-curvature="0"
       id="path8866-6"
       d="m 468.28125,882.23721 -45.09375,78.125 c -18.6978,-11.69066 -34.52921,-27.52018 -46.21875,-46.21875 l 78.125,-45.09375 c 3.61557,5.1059 8.084,9.56875 13.1875,13.1875 z"
       style="fill:#000000;fill-opacity:0.19491523;stroke:none" />
    <path
       inkscape:connector-curvature="0"
       id="path8864-1"
       d="m 623.03125,914.14346 c -11.68954,18.69857 -27.52095,34.52809 -46.21875,46.21875 l -45.09375,-78.125 c 5.1035,-3.61875 9.57193,-8.0816 13.1875,-13.1875 z"
       style="fill:#000000;fill-opacity:0.19491523;stroke:none" />
    <path
       inkscape:connector-curvature="0"
       id="path8862-1"
       d="m 495,892.11221 0,90.15625 c -22.76956,-0.76958 -44.19919,-6.79493 -63.125,-16.875 l 45.09375,-78.125 c 5.57829,2.58647 11.63896,4.26491 18.03125,4.84375 z"
       style="fill:#000000;fill-opacity:1;stroke:none" />
    <path
       inkscape:connector-curvature="0"
       id="rect8812-1-3"
       d="m 568.125,965.39346 c -18.92581,10.08007 -40.35544,16.10542 -63.125,16.875 l 0,-90.15625 c 6.39229,-0.57884 12.45296,-2.25728 18.03125,-4.84375 z"
       style="fill:#000000;fill-opacity:1;stroke:none" />
  </g>
  <g
     id="g9327"
     transform="matrix(0.32873778,0,0,0.32873778,-123.03175,9.94686)">
    <path
       inkscape:connector-curvature="0"
       id="path8884-4-7"
       d="m 955,802.58097 c -6.39229,0.57884 -12.45296,2.25728 -18.03125,4.84375 l -45.125,-78.12499 C 910.77531,719.21195 932.22095,713.226 955,712.45598 z"
       style="fill:#000000;fill-opacity:0.19491523;stroke:none" />
    <path
       inkscape:connector-curvature="0"
       id="path8882-8-5"
       d="m 1028.1563,729.29973 -45.12505,78.12499 C 977.45296,804.83825 971.39229,803.15981 965,802.58097 l 0,-90.12499 c 22.77905,0.77002 44.2247,6.75597 63.1563,16.84375 z"
       style="fill:#000000;fill-opacity:0.19491523;stroke:none" />
    <path
       inkscape:connector-curvature="0"
       id="path8880-3-9"
       d="m 928.3125,812.45597 c -5.11548,3.62235 -9.5964,8.07202 -13.21875,13.1875 l -78.125,-45.09374 c 11.68954,-18.69857 27.52095,-34.52809 46.21875,-46.21875 z"
       style="fill:#000000;fill-opacity:0.19491523;stroke:none" />
    <path
       inkscape:connector-curvature="0"
       id="path8878-5-8"
       d="m 1083.0313,780.54973 -78.1251,45.09374 c -3.6223,-5.11548 -8.10322,-9.56515 -13.2187,-13.1875 l 45.125,-78.12499 c 18.6978,11.69066 34.5292,27.52018 46.2188,46.21875 z"
       style="fill:#000000;fill-opacity:0.19491523;stroke:none" />
    <path
       inkscape:connector-curvature="0"
       id="path8876-4-9"
       d="m 910.09375,834.29972 c -2.58741,5.5803 -4.29674,11.66768 -4.875,18.0625 l -90.125,0 c 0.76986,-22.77784 6.7883,-44.22539 16.875,-63.15625 z"
       style="fill:#000000;fill-opacity:0.19491523;stroke:none" />
    <path
       inkscape:connector-curvature="0"
       id="path8874-4-5"
       d="m 1104.9063,852.36222 -90.1251,0 c -0.5782,-6.39482 -2.2875,-12.4822 -4.875,-18.0625 l 78.1251,-45.09375 c 10.0867,18.93086 16.1051,40.37841 16.875,63.15625 z"
       style="fill:#000000;fill-opacity:0.19491523;stroke:none" />
    <path
       inkscape:connector-curvature="0"
       id="path8872-0-7"
       d="m 1005,857.36222 c 0,24.91203 -20.08796,44.99999 -45,44.99999 -24.91204,0 -45,-20.08796 -45,-44.99999 0,-24.91204 20.08796,-45 45,-45 24.91204,0 45,20.08796 45,45 z"
       style="fill:#000000;fill-opacity:1;stroke:none" />
    <path
       inkscape:connector-curvature="0"
       id="path8870-10-6"
       d="m 905.25,862.36222 c 0.58108,6.38258 2.26086,12.46069 4.84375,18.03125 l -78.125,45.09374 c -10.08366,-18.92516 -16.10221,-40.35483 -16.875,-63.12499 z"
       style="fill:#000000;fill-opacity:0.19491523;stroke:none" />
    <path
       inkscape:connector-curvature="0"
       id="path8868-5-6"
       d="m 1104.9063,862.36222 c -0.7728,22.77016 -6.7914,44.19983 -16.875,63.12499 l -78.1251,-45.09374 c 2.5829,-5.57056 4.2627,-11.64867 4.8438,-18.03125 z"
       style="fill:#000000;fill-opacity:0.19491523;stroke:none" />
    <path
       inkscape:connector-curvature="0"
       id="path8866-6-0"
       d="m 928.28125,902.23721 -45.09375,78.125 c -18.6978,-11.69066 -34.52921,-27.52018 -46.21875,-46.21875 l 78.125,-45.09375 c 3.61557,5.1059 8.084,9.56875 13.1875,13.1875 z"
       style="fill:#000000;fill-opacity:0.19491523;stroke:none" />
    <path
       inkscape:connector-curvature="0"
       id="path8864-1-1"
       d="m 1083.0313,934.14346 c -11.6896,18.69857 -27.521,34.52809 -46.2188,46.21875 l -45.09375,-78.125 c 5.1035,-3.61875 9.57195,-8.0816 13.18745,-13.1875 z"
       style="fill:#000000;fill-opacity:0.19491523;stroke:none" />
    <path
       inkscape:connector-curvature="0"
       id="path8862-1-4"
       d="m 955,912.11221 0,90.15629 c -22.76956,-0.7696 -44.19919,-6.79497 -63.125,-16.87504 l 45.09375,-78.125 c 5.57829,2.58647 11.63896,4.26491 18.03125,4.84375 z"
       style="fill:#000000;fill-opacity:0.19491523;stroke:none" />
    <path
       inkscape:connector-curvature="0"
       id="rect8812-1-3-7"
       d="m 1028.125,985.39346 c -18.9258,10.08007 -40.35544,16.10544 -63.125,16.87504 l 0,-90.15629 c 6.39229,-0.57884 12.45296,-2.25728 18.03125,-4.84375 z"
       style="fill:#000000;fill-opacity:0.19491523;stroke:none" />
  </g>
  <path
     id="rect8812-1-3-7-0"
     style="fill:#000000;fill-opacity:0.19491523;stroke:none"
     d="m 337.09471,283.9637 c -6.22163,3.3137 -13.26636,5.29447 -20.75158,5.54747 l 0,-29.63778 c 2.10139,-0.19029 4.09376,-0.74206 5.92756,-1.59233 z m -24.03895,-24.09031 0,29.63778 c -7.48522,-0.253 -14.52995,-2.23377 -20.75158,-5.54747 l 14.82402,-25.68264 c 1.8338,0.85027 3.82617,1.40204 5.92756,1.59233 z m 42.08872,7.2425 c -3.84281,6.14693 -9.04719,11.35069 -15.19387,15.19385 L 325.1266,256.6271 c 1.67771,-1.18962 3.14666,-2.65673 4.33521,-4.33522 z m -50.87219,-10.48879 -14.82402,25.68264 c -6.14667,-3.84316 -11.35105,-9.04692 -15.19385,-15.19385 l 25.68264,-14.82401 c 1.18857,1.67849 2.65752,3.1456 4.33523,4.33522 z m 58.06333,-13.10841 c -0.25405,7.48541 -2.23259,14.53015 -5.54745,20.75157 L 331.1055,249.44624 c 0.84909,-1.83126 1.40131,-3.82936 1.59234,-5.92755 z m -65.63457,0 c 0.19103,2.09819 0.74323,4.09629 1.59233,5.92755 l -25.68265,14.82402 c -3.31487,-6.22142 -5.2934,-13.26616 -5.54745,-20.75157 z m 32.79159,-1.64369 c 0,8.18952 -6.60367,14.79319 -14.7932,14.79319 -8.18952,0 -14.79319,-6.60367 -14.79319,-14.79319 0,-8.18953 6.60367,-14.7932 14.79319,-14.7932 8.18953,0 14.7932,6.60367 14.7932,14.7932 z m 32.84298,-1.64369 -29.62753,0 c -0.19007,-2.10222 -0.75198,-4.10337 -1.60259,-5.93783 l 25.68267,-14.82401 c 3.31588,6.22328 5.29436,13.2739 5.54745,20.76184 z m -64.04224,-5.93783 c -0.85058,1.83446 -1.4125,3.83561 -1.6026,5.93783 l -29.6275,0 c 0.25309,-7.48794 2.23157,-14.53856 5.54745,-20.76184 z m 56.8511,-17.66965 -25.68267,14.82401 c -1.19079,-1.68165 -2.66383,-3.14442 -4.34548,-4.33522 l 14.83428,-25.68264 c 6.14668,3.84316 11.35106,9.04692 15.19387,15.19385 z m -50.86192,10.48879 c -1.68165,1.1908 -3.15469,2.65357 -4.3455,4.33522 l -25.68264,-14.82401 c 3.8428,-6.14693 9.04718,-11.35069 15.19385,-15.19385 z m 32.82244,-27.3366 -14.83431,25.68263 c -1.8338,-0.85027 -3.82617,-1.40203 -5.92756,-1.59232 l 0,-29.62749 c 7.48833,0.25313 14.53833,2.22095 20.76187,5.53718 z m -24.04924,24.09031 c -2.10139,0.19029 -4.09376,0.74205 -5.92756,1.59232 l -14.83429,-25.68263 c 6.22352,-3.31623 13.27351,-5.28405 20.76185,-5.53718 z"
     inkscape:connector-curvature="0" />
</svg>
