<?xml version="1.0"?><svg width="640" height="480" xmlns="http://www.w3.org/2000/svg">
 <title>bowl w</title>
 <g>
  <title>Layer 1</title>
  <path fill="#000000" fill-rule="evenodd" stroke-width="1px" id="path2105" d="m-1.61752,167.789001l34.663819,162.154999c33.755299,58.252991 69.303692,123.595001 241.379696,122.324005c128.929993,0.743988 214.921997,-40.097992 254.615997,-96.77002c27.109985,-43.550995 40.776001,-193.467987 40.776001,-193.467987c0,0 -56.46698,118.615997 -295.819,118.615997c-239.351082,0 -275.616483,-112.856995 -275.616483,-112.856995l-0.00002,0l-0.00001,0z"/>
  <path transform="rotate(0.17678 284.657 310.551)" fill="#bf8f5b" fill-rule="evenodd" stroke-width="1px" id="path1295" d="m2.60613,182.404205l34.125983,147.490417c33.231464,55.101349 68.228817,116.908325 237.635197,115.705658c126.929138,0.704193 211.58667,-37.927643 250.664917,-91.533539c26.690002,-41.195435 41.676392,-178.58284 41.676392,-178.58284c0,0 -57.124481,110.725876 -292.76181,110.725876c-235.637878,0 -271.340678,-103.805573 -271.340678,-103.805573l-0.00002,0l0.00002,0z"/>
  <path fill="#331902" fill-rule="evenodd" stroke-width="1px" id="path2056" d="m233.785995,68.935303c-212.455196,5.3209 -235.198686,99.012695 -235.198655,99.012695c0,0 -5.96948,-7.763 11.91776,23.234009c17.8873,30.996994 101.399899,95.484985 258.409908,89.227997c200.734985,11.678986 300.067963,-93.124008 300.067963,-118.309006c0,-25.18399 -35.733948,-85.185699 -290.130981,-92.934898c-15.899994,-0.484299 -30.902985,-0.585602 -45.065994,-0.230797l0,0zm1.341003,5.769997c13.772003,-0.335297 28.344986,-0.303802 43.804001,0.1539c247.347992,7.321899 282.159027,64.061806 282.159027,87.857796c-9.937012,37.746002 -118.235016,115.173996 -290.109039,115.986008c-175.8489,-9.153015 -235.507278,-65.212006 -248.924088,-80.548996c-13.41672,-13.345001 -15.57698,-29.975006 -15.57698,-29.975006c0.00002,0 22.07888,-88.446198 228.647079,-93.473701z"/>
 </g>
</svg>