<?xml version="1.0" encoding="UTF-8" standalone="no"?>
<svg
   xmlns:dc="http://purl.org/dc/elements/1.1/"
   xmlns:cc="http://creativecommons.org/ns#"
   xmlns:rdf="http://www.w3.org/1999/02/22-rdf-syntax-ns#"
   xmlns:svg="http://www.w3.org/2000/svg"
   xmlns="http://www.w3.org/2000/svg"
   xmlns:sodipodi="http://sodipodi.sourceforge.net/DTD/sodipodi-0.dtd"
   xmlns:inkscape="http://www.inkscape.org/namespaces/inkscape"
   width="280"
   height="280"
   id="svg2"
   version="1.1"
   inkscape:version="0.48.2 r9819"
   sodipodi:docname="5x5.svg">
  <metadata
     id="metadata110">
    <rdf:RDF>
      <cc:Work
         rdf:about="">
        <dc:format>image/svg+xml</dc:format>
        <dc:type
           rdf:resource="http://purl.org/dc/dcmitype/StillImage" />
      </cc:Work>
    </rdf:RDF>
  </metadata>
  <defs
     id="defs108" />
  <sodipodi:namedview
     pagecolor="#ffffff"
     bordercolor="#666666"
     borderopacity="1"
     objecttolerance="10"
     gridtolerance="10"
     guidetolerance="10"
     inkscape:pageopacity="0"
     inkscape:pageshadow="2"
     inkscape:window-width="2165"
     inkscape:window-height="1270"
     id="namedview106"
     showgrid="false"
     inkscape:zoom="2.38396"
     inkscape:cx="65.753788"
     inkscape:cy="140"
     inkscape:window-x="0"
     inkscape:window-y="0"
     inkscape:window-maximized="0"
     inkscape:current-layer="svg2" />
  <rect
     x="0"
     y="0"
     width="280"
     height="280"
     fill="#e8e8e8"
     id="rect4" />
  <rect
     x="5"
     y="5"
     width="50"
     height="50"
     fill="black"
     id="rect6" />
  <rect
     x="6"
     y="6"
     width="48"
     height="48"
     fill="white"
     id="rect8" />
  <rect
     x="60"
     y="5"
     width="50"
     height="50"
     fill="black"
     id="rect10" />
  <rect
     x="61"
     y="6"
     width="48"
     height="48"
     fill="white"
     id="rect12" />
  <rect
     x="115"
     y="5"
     width="50"
     height="50"
     fill="black"
     id="rect14" />
  <rect
     x="116"
     y="6"
     width="48"
     height="48"
     fill="white"
     id="rect16" />
  <rect
     x="170"
     y="5"
     width="50"
     height="50"
     fill="black"
     id="rect18" />
  <rect
     x="171"
     y="6"
     width="48"
     height="48"
     fill="white"
     id="rect20" />
  <rect
     x="225"
     y="5"
     width="50"
     height="50"
     fill="black"
     id="rect22" />
  <rect
     x="226"
     y="6"
     width="48"
     height="48"
     fill="white"
     id="rect24" />
  <rect
     x="5"
     y="60"
     width="50"
     height="50"
     fill="black"
     id="rect26" />
  <rect
     x="6"
     y="61"
     width="48"
     height="48"
     fill="white"
     id="rect28" />
  <rect
     x="60"
     y="60"
     width="50"
     height="50"
     fill="black"
     id="rect30" />
  <rect
     x="61"
     y="61"
     width="48"
     height="48"
     fill="white"
     id="rect32" />
  <rect
     x="115"
     y="60"
     width="50"
     height="50"
     fill="black"
     id="rect34" />
  <rect
     x="116"
     y="61"
     width="48"
     height="48"
     fill="white"
     id="rect36" />
  <rect
     x="170"
     y="60"
     width="50"
     height="50"
     fill="black"
     id="rect38" />
  <rect
     x="171"
     y="61"
     width="48"
     height="48"
     fill="white"
     id="rect40" />
  <rect
     x="225"
     y="60"
     width="50"
     height="50"
     fill="black"
     id="rect42" />
  <rect
     x="226"
     y="61"
     width="48"
     height="48"
     fill="white"
     id="rect44" />
  <rect
     x="5"
     y="115"
     width="50"
     height="50"
     fill="black"
     id="rect46" />
  <rect
     x="6"
     y="116"
     width="48"
     height="48"
     fill="white"
     id="rect48" />
  <rect
     x="60"
     y="115"
     width="50"
     height="50"
     fill="black"
     id="rect50" />
  <rect
     x="61"
     y="116"
     width="48"
     height="48"
     fill="white"
     id="rect52" />
  <rect
     x="115"
     y="115"
     width="50"
     height="50"
     fill="black"
     id="rect54" />
  <rect
     x="116"
     y="116"
     width="48"
     height="48"
     fill="white"
     id="rect56"
     style="fill:#000000;fill-opacity:1" />
  <rect
     x="170"
     y="115"
     width="50"
     height="50"
     fill="black"
     id="rect58" />
  <rect
     x="171"
     y="116"
     width="48"
     height="48"
     fill="white"
     id="rect60" />
  <rect
     x="225"
     y="115"
     width="50"
     height="50"
     fill="black"
     id="rect62" />
  <rect
     x="226"
     y="116"
     width="48"
     height="48"
     fill="white"
     id="rect64" />
  <rect
     x="5"
     y="170"
     width="50"
     height="50"
     fill="black"
     id="rect66" />
  <rect
     x="6"
     y="171"
     width="48"
     height="48"
     fill="white"
     id="rect68" />
  <rect
     x="60"
     y="170"
     width="50"
     height="50"
     fill="black"
     id="rect70" />
  <rect
     x="61"
     y="171"
     width="48"
     height="48"
     fill="white"
     id="rect72" />
  <rect
     x="115"
     y="170"
     width="50"
     height="50"
     fill="black"
     id="rect74" />
  <rect
     x="116"
     y="171"
     width="48"
     height="48"
     fill="white"
     id="rect76" />
  <rect
     x="170"
     y="170"
     width="50"
     height="50"
     fill="black"
     id="rect78" />
  <rect
     x="171"
     y="171"
     width="48"
     height="48"
     fill="white"
     id="rect80" />
  <rect
     x="225"
     y="170"
     width="50"
     height="50"
     fill="black"
     id="rect82" />
  <rect
     x="226"
     y="171"
     width="48"
     height="48"
     fill="white"
     id="rect84" />
  <rect
     x="5"
     y="225"
     width="50"
     height="50"
     fill="black"
     id="rect86" />
  <rect
     x="6"
     y="226"
     width="48"
     height="48"
     fill="white"
     id="rect88" />
  <rect
     x="60"
     y="225"
     width="50"
     height="50"
     fill="black"
     id="rect90" />
  <rect
     x="61"
     y="226"
     width="48"
     height="48"
     fill="white"
     id="rect92" />
  <rect
     x="115"
     y="225"
     width="50"
     height="50"
     fill="black"
     id="rect94" />
  <rect
     x="116"
     y="226"
     width="48"
     height="48"
     fill="white"
     id="rect96" />
  <rect
     x="170"
     y="225"
     width="50"
     height="50"
     fill="black"
     id="rect98" />
  <rect
     x="171"
     y="226"
     width="48"
     height="48"
     fill="white"
     id="rect100" />
  <rect
     x="225"
     y="225"
     width="50"
     height="50"
     fill="black"
     id="rect102" />
  <rect
     x="226"
     y="226"
     width="48"
     height="48"
     fill="white"
     id="rect104" />
</svg>
