<?xml version="1.0"?><svg width="793.7007874015749" height="1122.5196850393702" xmlns="http://www.w3.org/2000/svg">
 <title>sun</title>
 <g>
  <title>Layer 1</title>
  <path d="m392.006805,865.657043c-12.18335,-13.618408 -18.127258,-21.991272 -23.743347,-33.445862c-4.612549,-9.407654 -7.064087,-18.757141 -8.721252,-33.261047c-1.785919,-15.630981 -1.114014,-26.16333 3.748718,-58.761169c2.227203,-14.93042 2.708862,-30.96698 1.154449,-38.435059c-1.071381,-5.147034 -7.084839,-23.867126 -8.191437,-25.500183c-0.89447,-1.319946 -1.68573,-0.488525 -8.485626,8.916626c-6.400177,8.852478 -14.915527,17.045776 -28.912048,27.818665c-6.760437,5.203369 -14.014771,10.791138 -16.120728,12.417236c-32.908691,25.409973 -47.546387,45.534058 -52.883499,72.70459c-0.428391,2.180786 -0.961746,12.15918 -1.185226,22.174072c-0.422623,18.938049 -0.696487,22.20282 -1.768951,21.087524c-0.88121,-0.916321 -6.9935,-19.341858 -8.801086,-26.530884c-3.802032,-15.121155 -4.551407,-25.830444 -2.65126,-37.888611c2.759811,-17.513245 12.271698,-41.799622 22.727158,-58.028503c1.511017,-2.345337 2.747314,-4.420837 2.747314,-4.612061c0,-0.191162 1.413635,-2.611389 3.141327,-5.378174c11.246094,-18.009705 15.494812,-28.052734 17.867218,-42.23468c1.139771,-6.813232 1.628296,-22.967651 0.69455,-22.967651c-0.259033,0 -2.836761,1.561768 -5.728302,3.470764c-12.649078,8.350647 -21.145142,11.715881 -48.273178,19.120667c-29.730072,8.11499 -40.74556,11.884827 -53.071671,18.162659c-20.286774,10.332458 -33.676361,23.803406 -42.142258,42.398499c-1.480652,3.252258 -3.624985,7.908813 -4.765182,10.347961c-1.140228,2.439209 -3.492104,7.500244 -5.226372,11.246948c-1.734299,3.746704 -3.436058,6.63739 -3.781647,6.423828c-1.012665,-0.625854 -0.724686,-7.934265 0.8274,-20.996826c1.940544,-16.332031 4.240166,-25.122314 9.184784,-35.109009c9.516098,-19.219788 24.418625,-35.131775 52.555496,-56.115784c24.598953,-18.345337 32.024551,-26.131897 40.239288,-42.195068c3.256866,-6.368408 5.693237,-12.699585 5.111115,-13.281738c-0.366302,-0.366211 -4.766266,0.277832 -12.700073,1.859253c-6.069626,1.209717 -24.378265,0.822327 -36.346008,-0.769165c-33.316559,-4.430481 -36.779587,-4.73877 -53.587296,-4.769775c-13.365005,-0.02478 -17.904808,0.235291 -23.12014,1.324585c-12.292664,2.567322 -21.822609,6.207336 -30.663116,11.711731c-5.75869,3.585632 -6.814407,4.477783 -22.948982,19.393066c-6.631882,6.130798 -12.369427,11.25769 -12.750076,11.39325c-2.285202,0.813477 0.174633,-4.9823 8.869488,-20.897949c7.886463,-14.435974 18.585548,-26.712341 29.982105,-34.402283c14.828812,-10.005859 34.74881,-18.165466 57.753906,-23.657043c12.771042,-3.048584 28.13443,-7.284607 31.311829,-8.633179c8.12236,-3.447388 13.330353,-6.433777 19.55658,-11.214233c6.472366,-4.969421 16.069504,-14.308655 15.393005,-14.979248c-0.318909,-0.316223 -3.190979,-1.113037 -6.382431,-1.770721c-12.986664,-2.676605 -26.079544,-8.171112 -42.853775,-17.983795c-3.589157,-2.099579 -6.631821,-3.817413 -6.761459,-3.817413c-0.129654,0 -2.514847,-1.389221 -5.30043,-3.087036c-9.23243,-5.627258 -32.283691,-16.713623 -40.912743,-19.676666c-12.853249,-4.413605 -20.079033,-5.693024 -32.152367,-5.693024c-13.872707,0 -18.428555,0.994781 -37.326317,8.150909c-17.02789,6.448029 -20.957119,7.798492 -22.065744,7.584076c-1.672356,-0.323486 13.23633,-13.421967 23.993942,-21.080658c13.010553,-9.262604 25.51156,-14.106903 42.503054,-16.470398c18.381424,-2.556824 32.144577,-1.9104 63.112885,2.964447c12.835632,2.020477 29.654083,2.705627 37.111206,1.511719c5.740768,-0.919067 22.070313,-5.532379 23.489624,-6.636139c0.411041,-0.319641 1.662033,-0.799652 2.779968,-1.066711c1.11795,-0.267059 2.032639,-0.946777 2.032639,-1.510529c0,-0.563721 -3.242966,-3.342804 -7.206589,-6.175812c-10.044479,-7.179291 -19.118149,-16.447357 -29.825363,-30.46463c-15.426392,-20.195251 -25.216766,-31.75473 -34.765526,-41.047516c-10.570435,-10.287018 -15.635796,-14.077759 -26.93528,-20.157288c-6.732765,-3.622498 -18.327141,-7.154907 -27.091171,-8.253845c-3.34008,-0.418823 -12.401199,-0.800842 -20.135845,-0.848907c-14.399269,-0.089539 -18.497749,-0.481201 -18.497749,-1.76767c0,-0.402557 4.6469,-2.277863 10.326424,-4.167419c24.121944,-8.025208 39.775715,-9.820221 56.870358,-6.521301c7.016678,1.354065 23.341713,6.428619 28.829788,8.961578c11.056976,5.10318 23.236725,11.550873 29.455933,15.593201c2.345398,1.524475 4.390213,2.771729 4.544052,2.771729c0.153809,0 2.441132,1.313141 5.082886,2.91806c6.597015,4.007843 18.520203,10.100555 23.173111,11.841461c6.313187,2.362061 18.487244,4.482056 28.533798,4.968842c11.006195,0.533295 10.925766,0.609131 6.421432,-6.054352c-4.507156,-6.667664 -10.545761,-19.085236 -13.119446,-26.978424c-1.259262,-3.862 -4.16008,-14.006622 -6.446274,-22.54361c-4.365173,-16.300262 -10.639648,-36.382477 -12.932343,-41.391541c-0.744278,-1.626099 -2.224014,-4.952209 -3.288315,-7.391388c-7.853638,-17.998856 -23.439529,-35.127441 -39.207336,-43.088058c-2.42952,-1.226578 -7.909714,-3.783905 -12.178207,-5.682938c-7.887131,-3.508942 -17.97937,-8.155792 -19.912674,-9.168533c-4.34111,-2.274033 3.83091,-2.427002 20.651794,-0.386612c20.724152,2.51387 31.217072,5.964722 44.775101,14.725372c15.131332,9.777267 28.877243,23.66713 44.607864,45.075043c16.971664,23.096863 22.355453,28.926178 33.531281,36.306244c5.571564,3.67923 20.816101,11.371948 22.535583,11.371948c1.194733,0 1.227417,0.476196 -0.933594,-13.609589c-1.519928,-9.907104 -1.409302,-20.060211 0.363098,-33.32547c4.502167,-33.695679 5.2789,-43.028549 4.951935,-59.500351c-0.416443,-20.983856 -2.200378,-29.187653 -9.60202,-44.157242c-4.521454,-9.144562 -8.414612,-14.161041 -22.232361,-28.647522c-10.304184,-10.802887 -13.204361,-14.413132 -11.578232,-14.413132c0.425903,0 5.842529,2.536224 12.036942,5.636047c19.802979,9.909866 30.897369,18.254333 39.775513,29.916595c5.264069,6.914856 7.055603,9.906738 12.126831,20.252045c6.232422,12.714081 9.722809,22.829788 15.173492,43.975067c7.627747,29.590683 9.447571,34.426117 17.233612,45.790878c3.740234,5.459351 15.621948,18.517273 16.849304,18.517273c0.34082,0 0.821472,-0.914642 1.068085,-2.032593c4.024292,-18.242065 7.781281,-28.186569 15.676422,-41.494766c1.835388,-3.093781 4.069946,-6.955521 4.965607,-8.581619c0.89566,-1.626099 2.883698,-5.118515 4.417908,-7.76091c19.174957,-33.026459 26.267578,-53.166412 26.253693,-74.5495c-0.003113,-4.73175 -0.348999,-10.719589 -0.768768,-13.30632c-0.746765,-4.602516 -4.338715,-16.764755 -6.251221,-21.166565c-2.092773,-4.816833 -9.235413,-24.338028 -9.235413,-25.240891c0,-1.820854 13.255157,12.852768 20.463989,22.653908c13.562042,18.438896 18.710175,36.478386 18.710175,65.56176c0,11.179657 -0.376404,16.524246 -1.867188,26.514008c-1.026978,6.8815 -2.202087,15.006393 -2.611389,18.055344c-0.409271,3.04892 -1.055542,7.871765 -1.436066,10.717438c-1.098877,8.216888 -0.851715,17.467697 0.677521,25.35643c1.645599,8.488968 6.371918,23.208115 8.161987,25.418747c1.207581,1.491241 1.348328,1.365448 6.4646,-5.777435c6.766174,-9.446198 16.273132,-19.099121 26.458557,-26.8647c22.398315,-17.076859 32.791901,-25.660126 42.008789,-34.691742c15.944397,-15.623734 23.224915,-26.642365 28.862183,-43.680771c2.408569,-7.279999 3.320618,-15.378082 3.71167,-32.952972c0.217773,-9.790405 0.704102,-18.604576 1.08075,-19.587067l0.684814,-1.786377l0.838501,2.141808c3.743469,9.562447 8.205322,24.978432 10.076416,34.814919c4.86322,25.566971 -3.297058,55.458374 -24.718384,90.544022c-15.186707,24.873978 -18.61261,32.585403 -21.015442,47.304611c-1.600708,9.805206 -2.354065,22.598175 -1.366882,23.208374c0.430481,0.266022 3.123962,-1.017151 5.985474,-2.85141c6.932373,-4.443451 20.070435,-10.98645 25.964905,-12.930878c2.616394,-0.863129 10.411621,-3.08313 17.322571,-4.933258c22.052795,-5.903931 39.124939,-10.984528 40.652405,-12.098053c0.406494,-0.296356 1.662903,-0.759613 2.791931,-1.02948c1.12915,-0.269867 3.7901,-1.286865 5.913147,-2.26001c2.123108,-0.973083 5.356934,-2.447662 7.186279,-3.276733c7.195801,-3.261139 15.533264,-8.747681 23.085083,-15.191193c10.127136,-8.64093 16.85614,-18.762527 25.340271,-38.116013c4.715027,-10.755829 8.079285,-17.270538 9.081299,-17.585617c0.768555,-0.241684 0.870056,1.241882 0.502563,7.347916c-0.920593,15.296692 -3.205566,29.213959 -6.405884,39.01413c-6.485107,19.860062 -24.617126,41.560745 -51.362976,61.472214c-17.351624,12.917725 -27.402344,20.926392 -30.396912,24.220917c-6.754028,7.430542 -13.011963,17.032379 -17.164246,26.335632c-1.270142,2.845673 -2.644897,5.795227 -3.055054,6.554565c-0.417358,0.772552 -0.465393,1.661102 -0.108948,2.017487c0.356323,0.356323 4.53363,-0.035828 9.484619,-0.890411c7.518005,-1.297638 10.847412,-1.469177 22.152222,-1.141235c7.317505,0.21225 16.630615,0.899506 20.695801,1.527252c8.092773,1.249603 22.597839,2.962219 35.848022,4.232574c23.167297,2.221069 44.671997,-0.867981 61.289063,-8.803894c9.514709,-4.544067 16.1427,-9.858246 34.506592,-27.666504c6.645935,-6.444855 9.900635,-8.606354 9.900635,-6.574951c0,1.134888 -6.607117,13.585388 -14.703308,27.70694c-8.400513,14.652374 -23.538513,27.700348 -42.210083,36.382416c-7.373169,3.428467 -8.46228,3.900604 -12.565247,5.447083c-2.235901,0.842773 -4.730469,1.841614 -5.543518,2.219666c-2.44574,1.137238 -13.171387,4.145813 -29.109802,8.165405c-24.534119,6.187408 -29.272705,7.98822 -40.710327,15.471161c-6.715088,4.39328 -20.427063,16.921936 -19.461243,17.781769c0.321838,0.28656 3.70575,1.247406 7.519714,2.135223c6.336304,1.474945 13.720093,3.680084 17.456909,5.21344c3.591187,1.473602 14.409668,6.841705 18.252869,9.057098c2.315247,1.334473 6.472839,3.731262 9.239258,5.326111c15.570435,8.976532 20.448608,11.669891 27.573486,15.223633c3.861877,1.926392 9.183716,4.416748 11.826111,5.534119c2.642395,1.117462 5.929688,2.524841 7.305237,3.12735c5.768005,2.52713 22.480408,6.11264 30.645874,6.575043c11.137512,0.630737 24.403931,-1.229034 31.830444,-4.461975c3.507996,-1.527191 14.344788,-5.615143 14.88501,-5.615143c0.264099,0 1.528137,-0.466217 2.809204,-1.036102c5.973938,-2.657318 12.960999,-5.001831 14.197021,-4.763763c1.017639,0.195923 -0.599792,1.966461 -6.360291,6.96286c-24.046265,20.855896 -37.487305,27.568634 -62.051392,30.98996c-15.792786,2.199707 -31.335266,1.346191 -61.348206,-3.368774c-5.488159,-0.862274 -15.300049,-1.734802 -21.804504,-1.938965c-13.024048,-0.408936 -18.417236,0.410492 -31.875916,4.842957c-9.349792,3.079407 -12.122192,4.376343 -11.658203,5.453552c0.218872,0.507996 2.453552,2.250671 4.965881,3.872559c11.22937,7.249146 20.696777,16.674011 32.305481,32.160095c16.963989,22.630127 31.202332,39.046448 40.779297,47.017334c11.870483,9.879761 20.605042,15.000427 31.811462,18.649353c10.906921,3.55127 13.870728,3.936157 34.332886,4.457825c10.645813,0.271423 19.576416,0.713867 19.845825,0.983276c1.159851,1.159851 -1.159424,2.250977 -12.899353,6.068665c-15.343018,4.989258 -22.911621,6.490051 -34.802551,6.901184c-10.068054,0.348083 -16.589905,-0.415955 -27.226318,-3.189453c-6.014099,-1.568298 -21.610291,-7.273132 -25.138855,-9.195313c-0.672119,-0.366211 -3.550415,-1.805054 -6.396118,-3.197327c-6.566467,-3.212769 -9.629028,-4.914856 -19.4245,-10.795471c-4.35791,-2.616211 -10.251709,-6.149963 -13.097351,-7.852844c-16.042236,-9.599609 -28.018555,-13.229919 -46.582214,-14.120239c-8.289856,-0.397583 -9.961426,-0.303467 -9.960144,0.560852c0.000732,0.571106 1.495422,3.311218 3.32135,6.089111c3.636841,5.532837 9.730103,17.749268 12.043091,24.145081c0.808533,2.235962 3.032776,9.885986 4.942505,17.000183c12.968201,48.307068 19.282227,63.372803 33.695801,80.399231c9.138,10.794617 17.565857,16.459473 39.126709,26.299561c14.661926,6.691467 18.478394,8.57605 18.478394,9.124451c0,1.25531 -18.980225,-0.16925 -32.781738,-2.460205c-28.897583,-4.796997 -51.43988,-21.627563 -79.86554,-59.629089c-18.516968,-24.754944 -23.566956,-29.83429 -38.13623,-38.358582c-6.721313,-3.932434 -16.847137,-8.383484 -17.526428,-7.704102c-0.271637,0.271606 0.058411,4.061584 0.733368,8.42218c2.514862,16.247009 2.405243,24.987183 -0.576965,45.993896c-1.553101,10.939331 -3.840332,32.884033 -4.429779,42.500244c-1.140594,18.606262 2.565155,38.713013 9.808105,53.21759c4.166809,8.344604 7.377197,12.484375 21.49408,27.71759c11.637024,12.557129 14.60498,16.260986 13.029846,16.260986c-0.448486,0 -16.029175,-7.914856 -21.550781,-10.947571c-24.819855,-13.632263 -38.212769,-30.501465 -50.870697,-64.074524c-1.072937,-2.845703 -4.096558,-13.588745 -6.719299,-23.873474c-7.86322,-30.834778 -10.751526,-38.362732 -18.847198,-49.122253c-5.06839,-6.736084 -14.731567,-16.928101 -15.733215,-16.594238c-0.445129,0.148376 -1.085938,1.740662 -1.42395,3.53833c-2.390137,12.71051 -8.149353,27.545654 -15.903015,40.964417c-1.1745,2.032593 -3.390228,5.857544 -4.923889,8.5c-3.11908,5.373962 -4.395325,7.638733 -9.996338,17.739258c-5.97644,10.777527 -7.129486,12.982361 -7.981598,15.261719c-0.43335,1.159363 -1.844543,4.602478 -3.135956,7.651428c-3.471069,8.194824 -6.476135,17.983093 -7.828644,25.500122c-1.594574,8.862366 -1.557892,22.655273 0.081696,30.674011c1.064453,5.206299 6.211945,20.649658 9.361816,28.087158c0.978271,2.309937 5.807648,15.597778 5.807648,15.979614c0,1.16803 -1.99585,-0.532593 -6.392273,-5.446899z" id="path2881" stroke="#ffffff" fill="#000000" stroke-miterlimit="4" stroke-width="2.2"/>
 </g>
</svg>