<?xml version="1.0" encoding="UTF-8" standalone="no"?>
<svg
   xmlns:dc="http://purl.org/dc/elements/1.1/"
   xmlns:cc="http://creativecommons.org/ns#"
   xmlns:rdf="http://www.w3.org/1999/02/22-rdf-syntax-ns#"
   xmlns:svg="http://www.w3.org/2000/svg"
   xmlns="http://www.w3.org/2000/svg"
   xmlns:sodipodi="http://sodipodi.sourceforge.net/DTD/sodipodi-0.dtd"
   xmlns:inkscape="http://www.inkscape.org/namespaces/inkscape"
   height="1000"
   width="970"
   id="svg2"
   version="1.1"
   inkscape:version="0.48.2 r9819"
   sodipodi:docname="3x4-grid.svg">
  <metadata
     id="metadata10">
    <rdf:RDF>
      <cc:Work
         rdf:about="">
        <dc:format>image/svg+xml</dc:format>
        <dc:type
           rdf:resource="http://purl.org/dc/dcmitype/StillImage" />
      </cc:Work>
    </rdf:RDF>
  </metadata>
  <defs
     id="defs8" />
  <sodipodi:namedview
     pagecolor="#ffffff"
     bordercolor="#666666"
     borderopacity="1"
     objecttolerance="10"
     gridtolerance="10"
     guidetolerance="10"
     inkscape:pageopacity="0"
     inkscape:pageshadow="2"
     inkscape:window-width="997"
     inkscape:window-height="629"
     id="namedview6"
     showgrid="false"
     inkscape:zoom="0.472"
     inkscape:cx="485"
     inkscape:cy="491.11653"
     inkscape:window-x="0"
     inkscape:window-y="0"
     inkscape:window-maximized="0"
     inkscape:current-layer="svg2" />
  <path
     d="m 113.125,14.875 743.75,0 0,970 -743.75,0 0,-970 z m 451.25,518.75 -158.75,0 0,158.75 158.75,0 0,-158.75 z m -383.75,0 0,158.75 157.5,0 0,-158.75 -157.5,0 z m 608.75,158.75 0,-158.75 -157.5,0 0,158.75 157.5,0 z m -383.75,225 158.75,0 0,-157.5 -158.75,0 0,157.5 z m -225,-157.5 0,157.5 157.5,0 0,-157.5 -157.5,0 z m 451.25,157.5 157.5,0 0,-157.5 -157.5,0 0,157.5 z m -67.5,-835 -158.75,0 0,158.75 158.75,0 0,-158.75 z m -383.75,0 0,158.75 157.5,0 0,-158.75 -157.5,0 z m 608.75,158.75 0,-158.75 -157.5,0 0,158.75 157.5,0 z m -383.75,225 158.75,0 0,-157.5 -158.75,0 0,157.5 z m -225,-157.5 0,157.5 157.5,0 0,-157.5 -157.5,0 z m 451.25,157.5 157.5,0 0,-157.5 -157.5,0 0,157.5 z"
     id="path4"
     inkscape:connector-curvature="0" />
</svg>
