<?xml version="1.0" encoding="UTF-8" standalone="no"?>
<!-- Created with Inkscape (http://www.inkscape.org/) -->

<svg
   xmlns:dc="http://purl.org/dc/elements/1.1/"
   xmlns:cc="http://creativecommons.org/ns#"
   xmlns:rdf="http://www.w3.org/1999/02/22-rdf-syntax-ns#"
   xmlns:svg="http://www.w3.org/2000/svg"
   xmlns="http://www.w3.org/2000/svg"
   xmlns:sodipodi="http://sodipodi.sourceforge.net/DTD/sodipodi-0.dtd"
   xmlns:inkscape="http://www.inkscape.org/namespaces/inkscape"
   width="161.86687"
   height="202.99998"
   id="svg3999"
   version="1.1"
   inkscape:version="0.47 r22583"
   sodipodi:docname="pyramid_1pip.svg">
  <title
     id="title2822">Icehouse Pyramid Small</title>
  <defs
     id="defs4001">
    <inkscape:perspective
       sodipodi:type="inkscape:persp3d"
       inkscape:vp_x="0 : 526.18109 : 1"
       inkscape:vp_y="0 : 1000 : 0"
       inkscape:vp_z="744.09448 : 526.18109 : 1"
       inkscape:persp3d-origin="372.04724 : 350.78739 : 1"
       id="perspective4007" />
    <inkscape:perspective
       id="perspective3988"
       inkscape:persp3d-origin="0.5 : 0.33333333 : 1"
       inkscape:vp_z="1 : 0.5 : 1"
       inkscape:vp_y="0 : 1000 : 0"
       inkscape:vp_x="0 : 0.5 : 1"
       sodipodi:type="inkscape:persp3d" />
  </defs>
  <sodipodi:namedview
     id="base"
     pagecolor="#ffffff"
     bordercolor="#666666"
     borderopacity="1.0"
     inkscape:pageopacity="0.0"
     inkscape:pageshadow="2"
     inkscape:zoom="0.98994949"
     inkscape:cx="179.5329"
     inkscape:cy="62.358921"
     inkscape:document-units="px"
     inkscape:current-layer="layer1"
     showgrid="false"
     showborder="false"
     inkscape:showpageshadow="false"
     inkscape:window-width="1366"
     inkscape:window-height="746"
     inkscape:window-x="-8"
     inkscape:window-y="-8"
     inkscape:window-maximized="1" />
  <metadata
     id="metadata4004">
    <rdf:RDF>
      <cc:Work
         rdf:about="">
        <dc:format>image/svg+xml</dc:format>
        <dc:type
           rdf:resource="http://purl.org/dc/dcmitype/StillImage" />
        <dc:title>Icehouse Pyramid Small</dc:title>
        <dc:subject>
          <rdf:Bag>
            <rdf:li>game</rdf:li>
            <rdf:li>game piece</rdf:li>
            <rdf:li>public_domain</rdf:li>
            <rdf:li>media</rdf:li>
            <rdf:li>clip_art</rdf:li>
            <rdf:li>svg</rdf:li>
            <rdf:li>pyramid</rdf:li>
            <rdf:li>icehouse</rdf:li>
            <rdf:li>1pip</rdf:li>
            <rdf:li>small</rdf:li>
          </rdf:Bag>
        </dc:subject>
        <dc:date>2010-06-18</dc:date>
        <dc:creator>
          <cc:Agent>
            <dc:title>Jason Spears</dc:title>
          </cc:Agent>
        </dc:creator>
        <cc:license
           rdf:resource="http://creativecommons.org/licenses/publicdomain/" />
        <dc:publisher>
          <cc:Agent>
            <dc:title>openclipart.org</dc:title>
          </cc:Agent>
        </dc:publisher>
        <dc:identifier></dc:identifier>
        <dc:source></dc:source>
      </cc:Work>
      <cc:License
         rdf:about="http://creativecommons.org/licenses/publicdomain/">
        <cc:permits
           rdf:resource="http://creativecommons.org/ns#Reproduction" />
        <cc:permits
           rdf:resource="http://creativecommons.org/ns#Distribution" />
        <cc:permits
           rdf:resource="http://creativecommons.org/ns#DerivativeWorks" />
      </cc:License>
    </rdf:RDF>
  </metadata>
  <g
     inkscape:label="Layer 1"
     inkscape:groupmode="layer"
     id="layer1"
     transform="translate(0.00227062,-849.35994)">
    <g
       id="g3104"
       transform="matrix(1,0,0,1.0045464,-841.12947,573.21265)">
      <g
         id="g3084"
         transform="matrix(0.55965729,0,0,0.55965729,204.89019,-8.7001016)">
        <path
           style="fill:#cccccc;stroke:none"
           d="m 1283.1849,511.30677 -143.3303,272.39286 143.8084,80.96183 139.2617,-82.79647 -139.7398,-270.55822 z"
           id="path3086"
           sodipodi:nodetypes="ccccc" />
        <path
           sodipodi:nodetypes="cccc"
           id="path3088"
           d="m 1283.1849,511.30677 -143.3303,272.39286 143.8084,80.96183 -0.4781,-353.35469 z"
           style="fill:#b3b3b3;stroke:none" />
      </g>
      <path
         sodipodi:nodetypes="cssssc"
         style="fill:#cccccc;fill-opacity:1;stroke:none"
         d="m 895.92547,390.12573 c -4.7285,0.20329 -10.2203,7.72232 -12.8438,18 -2.8948,11.34089 -1.1856,21.75105 3.8125,23.25 4.9982,1.49895 11.3864,-6.47161 14.2813,-17.8125 2.89489,-11.34089 1.1857,-21.75105 -3.8125,-23.25 -0.4686,-0.14053 -0.9484,-0.20853 -1.4375,-0.1875 z"
         id="path3102" />
      <path
         id="path3092"
         d="m 949.23956,391.33484 c -0.3221,0.0211 -0.6251,0.0938 -0.9375,0.1875 -4.9982,1.49895 -6.7074,11.90911 -3.8125,23.25 2.8949,11.34089 9.2831,19.31145 14.2812,17.8125 4.9982,-1.49895 6.7074,-11.90911 3.8125,-23.25 -2.7139,-10.63209 -8.5118,-18.31702 -13.3437,-18 z"
         style="fill:#b3b3b3;fill-opacity:1;stroke:none"
         sodipodi:nodetypes="cssssc" />
      <path
         d="m 945.01069,415.16486 c 3.06212,11.21978 9.22171,19.17268 13.75785,17.76331 4.53614,-1.40937 5.73107,-11.64731 2.66895,-22.86709 -3.06211,-11.21978 -9.22172,-19.17269 -13.75786,-17.76332 -4.53614,1.40937 -5.73106,11.64732 -2.66894,22.8671 z m -44.68739,-2.27285 c -3.06212,11.21978 -9.22171,19.17268 -13.75785,17.76331 -4.53614,-1.40937 -5.73107,-11.64731 -2.66896,-22.86709 3.06212,-11.21978 9.22173,-19.17269 13.75786,-17.76332 4.53614,1.40937 5.73107,11.64732 2.66895,22.8671 z m 23.21081,62.5876 -0.4834,-198.35665 m 0.0413,-1.22773 -80.96254,154.1898 81.47822,45.89597 78.38411,-46.92733 -78.89979,-153.15844 z"
         style="fill:none;stroke:#000000;stroke-width:2"
         id="path2979" />
    </g>
  </g>
</svg>
