<?xml version="1.0" encoding="UTF-8" standalone="no"?>
<!-- Created with Inkscape (http://www.inkscape.org/) -->

<svg
   xmlns:dc="http://purl.org/dc/elements/1.1/"
   xmlns:cc="http://creativecommons.org/ns#"
   xmlns:rdf="http://www.w3.org/1999/02/22-rdf-syntax-ns#"
   xmlns:svg="http://www.w3.org/2000/svg"
   xmlns="http://www.w3.org/2000/svg"
   xmlns:sodipodi="http://sodipodi.sourceforge.net/DTD/sodipodi-0.dtd"
   xmlns:inkscape="http://www.inkscape.org/namespaces/inkscape"
   width="223.43167"
   height="280"
   id="svg3930"
   version="1.1"
   inkscape:version="0.47 r22583"
   sodipodi:docname="pyramid_2pip.svg">
  <title
     id="title2891">Icehouse Pyramid Medium</title>
  <defs
     id="defs3932">
    <inkscape:perspective
       sodipodi:type="inkscape:persp3d"
       inkscape:vp_x="0 : 526.18109 : 1"
       inkscape:vp_y="0 : 1000 : 0"
       inkscape:vp_z="744.09448 : 526.18109 : 1"
       inkscape:persp3d-origin="372.04724 : 350.78739 : 1"
       id="perspective3938" />
    <inkscape:perspective
       id="perspective3948"
       inkscape:persp3d-origin="0.5 : 0.33333333 : 1"
       inkscape:vp_z="1 : 0.5 : 1"
       inkscape:vp_y="0 : 1000 : 0"
       inkscape:vp_x="0 : 0.5 : 1"
       sodipodi:type="inkscape:persp3d" />
  </defs>
  <sodipodi:namedview
     id="base"
     pagecolor="#ffffff"
     bordercolor="#666666"
     borderopacity="1.0"
     inkscape:pageopacity="0.0"
     inkscape:pageshadow="2"
     inkscape:zoom="0.35"
     inkscape:cx="-154.99846"
     inkscape:cy="85.712767"
     inkscape:document-units="px"
     inkscape:current-layer="layer1"
     showgrid="false"
     showborder="false"
     inkscape:showpageshadow="false"
     inkscape:window-width="1366"
     inkscape:window-height="746"
     inkscape:window-x="-8"
     inkscape:window-y="-8"
     inkscape:window-maximized="1" />
  <metadata
     id="metadata3935">
    <rdf:RDF>
      <cc:Work
         rdf:about="">
        <dc:format>image/svg+xml</dc:format>
        <dc:type
           rdf:resource="http://purl.org/dc/dcmitype/StillImage" />
        <dc:title>Icehouse Pyramid Medium</dc:title>
        <cc:license
           rdf:resource="http://creativecommons.org/licenses/publicdomain/" />
        <dc:date>2010-06-18</dc:date>
        <dc:creator>
          <cc:Agent>
            <dc:title>Jason Spears</dc:title>
          </cc:Agent>
        </dc:creator>
        <dc:publisher>
          <cc:Agent>
            <dc:title>openclipart.org</dc:title>
          </cc:Agent>
        </dc:publisher>
        <dc:subject>
          <rdf:Bag>
            <rdf:li>game</rdf:li>
            <rdf:li>game piece</rdf:li>
            <rdf:li>public_domain</rdf:li>
            <rdf:li>media</rdf:li>
            <rdf:li>clip_art</rdf:li>
            <rdf:li>svg</rdf:li>
            <rdf:li>pyramid</rdf:li>
            <rdf:li>icehouse</rdf:li>
            <rdf:li>2pip</rdf:li>
            <rdf:li>medium</rdf:li>
          </rdf:Bag>
        </dc:subject>
      </cc:Work>
      <cc:License
         rdf:about="http://creativecommons.org/licenses/publicdomain/">
        <cc:permits
           rdf:resource="http://creativecommons.org/ns#Reproduction" />
        <cc:permits
           rdf:resource="http://creativecommons.org/ns#Distribution" />
        <cc:permits
           rdf:resource="http://creativecommons.org/ns#DerivativeWorks" />
      </cc:License>
    </rdf:RDF>
  </metadata>
  <g
     inkscape:label="Layer 1"
     inkscape:groupmode="layer"
     id="layer1"
     transform="translate(0.00153961,-772.36067)">
    <g
       transform="matrix(1,0,0,1.0030816,-988.28571,487.98044)"
       id="g3009">
      <g
         id="g3011"
         transform="matrix(0.78089824,0,0,0.78089824,99.432345,-113.2358)">
        <path
           style="fill:#cccccc;stroke:none"
           d="m 1283.1849,511.30677 -143.3303,272.39286 143.8084,80.96183 139.2617,-82.79647 -139.7398,-270.55822 z"
           id="path3013"
           sodipodi:nodetypes="ccccc" />
        <path
           sodipodi:nodetypes="cccc"
           id="path3015"
           d="m 1283.1849,511.30677 -143.3303,272.39286 143.8084,80.96183 -0.4781,-353.35469 z"
           style="fill:#b3b3b3;stroke:none" />
      </g>
      <path
         id="path3018"
         d="m 1038.357,452.75518 c -4.7285,0.20329 -10.2203,7.72232 -12.8438,18 -2.8948,11.34089 -1.1856,21.75105 3.8125,23.25 4.9982,1.49895 11.3864,-6.47161 14.2813,-17.8125 2.8949,-11.34089 1.1857,-21.75105 -3.8125,-23.25 -0.4686,-0.14053 -0.9484,-0.20853 -1.4375,-0.1875 z m 21.4375,10.71875 c -4.7285,0.20329 -10.2203,7.72232 -12.8438,18 -2.8948,11.34089 -1.1856,21.75105 3.8125,23.25 4.9982,1.49895 11.3864,-6.50286 14.2813,-17.84375 2.8949,-11.34089 1.1857,-21.7198 -3.8125,-23.21875 -0.4686,-0.14053 -0.9484,-0.20853 -1.4375,-0.1875 z"
         style="fill:#cccccc;fill-opacity:1;stroke:none"
         sodipodi:nodetypes="cssssccssssc" />
      <path
         id="path3020"
         d="m 1144.9284,466.85786 c -0.3221,0.0211 -0.6564,0.0938 -0.9688,0.1875 -4.9981,1.49895 -6.7073,11.90911 -3.8125,23.25 2.8949,11.34089 9.3144,19.31145 14.3125,17.8125 4.9982,-1.49895 6.7074,-11.90911 3.8125,-23.25 -2.7139,-10.63209 -8.5118,-18.31702 -13.3437,-18 z m -21.4375,10.71875 c -0.3221,0.0211 -0.6251,0.0938 -0.9375,0.1875 -4.9982,1.49895 -6.7074,11.90911 -3.8125,23.25 2.8949,11.34089 9.2831,19.31145 14.2812,17.8125 4.9982,-1.49895 6.7074,-11.90911 3.8125,-23.25 -2.7139,-10.63209 -8.5118,-18.31702 -13.3437,-18 z"
         style="fill:#b3b3b3;fill-opacity:1;stroke:none"
         sodipodi:nodetypes="cssssccssssc" />
      <path
         id="path3022"
         style="fill:none;stroke:#000000;stroke-width:2"
         d="m 1140.8813,489.99813 c 3.0621,11.21978 9.2217,19.17268 13.7579,17.76331 4.5361,-1.40937 5.7311,-11.64731 2.6689,-22.86709 -3.0621,-11.21978 -9.2217,-19.17269 -13.7578,-17.76332 -4.5362,1.40937 -5.7311,11.64732 -2.669,22.8671 z m -21.2132,10.85915 c 3.0621,11.21977 9.2217,19.17268 13.7579,17.7633 4.5361,-1.40936 5.7311,-11.64731 2.6689,-22.86709 -3.0621,-11.21977 -9.2217,-19.17268 -13.7578,-17.76331 -4.5362,1.40937 -5.7311,11.64732 -2.669,22.8671 z m -76.5072,-24.74874 c -3.0621,11.21977 -9.2217,19.17268 -13.7579,17.76331 -4.5361,-1.40937 -5.731,-11.64732 -2.6689,-22.8671 3.0621,-11.21978 9.2217,-19.17268 13.7579,-17.76331 4.5361,1.40937 5.731,11.64732 2.6689,22.8671 z m 21.2132,10.85913 c -3.0621,11.21978 -9.2217,19.17268 -13.7579,17.76331 -4.5361,-1.40937 -5.731,-11.64731 -2.6689,-22.86708 3.0621,-11.21978 9.2217,-19.1727 13.7579,-17.76333 4.5361,1.40938 5.731,11.64733 2.6689,22.8671 z m 37.5009,74.50165 -0.5727,-276.39236 m 0.1263,-0.57192 -112.14289,213.57143 112.85709,63.57144 108.5715,-65.00001 -109.2857,-212.14286 z" />
    </g>
  </g>
</svg>
