<?xml version="1.0" encoding="UTF-8" standalone="no"?>
<!-- Created with Inkscape (http://www.inkscape.org/) -->
<svg
   xmlns:svg="http://www.w3.org/2000/svg"
   xmlns="http://www.w3.org/2000/svg"
   xmlns:inkscape="http://www.inkscape.org/namespaces/inkscape"
   version="1.0"
   width="354.02411"
   height="249.06351"
   id="svg2"
   style="display:inline">
 <g
     transform="translate(-80.480181,-472.56249)"
     id="layer10"
     style="display:inline">
    <path
       d="M 208.19445,472.5625 C 207.70522,472.56073 207.40491,472.85179 207.46498,473.39618 C 207.5029,473.74029 207.42617,473.83437 207.04814,473.95197 C 206.79842,474.02966 206.2918,474.20887 205.90182,474.36881 C 205.51185,474.52874 204.8821,474.68143 204.51235,474.68144 C 204.09943,474.68144 203.75968,474.75043 203.64394,474.88986 C 203.54035,475.01471 203.28311,475.13301 203.08815,475.13302 C 202.55391,475.13302 201.72001,475.95441 201.66394,476.52249 C 201.6264,476.90355 201.45056,477.1114 200.79552,477.56459 C 199.90516,478.18057 198.05131,479.93543 198.05132,480.16985 C 198.05132,480.25013 197.90706,480.47696 197.73869,480.65616 C 197.57038,480.83538 197.23722,481.35211 197.00922,481.80247 C 196.69105,482.43096 196.50847,482.60141 196.24501,482.60142 C 195.81803,482.60142 195.63025,482.93064 195.72396,483.4351 C 195.76881,483.67644 195.65859,484.04134 195.44607,484.37299 C 195.14254,484.84662 194.66965,486.04761 194.26502,487.32561 C 194.05581,487.98637 193.00053,489.06245 192.56292,489.06245 C 192.36447,489.06245 192.05355,489.17387 191.90292,489.34034 C 191.67149,489.59611 191.45717,489.65299 190.40924,489.65297 C 189.24784,489.65297 189.12231,489.67903 188.49872,490.13929 C 187.85463,490.61472 187.76183,490.65618 185.85873,490.76455 C 182.1564,490.97537 181.75552,491.01372 180.99559,491.42455 C 180.60071,491.63801 180.09207,491.90299 179.88401,492.01507 C 179.61002,492.16266 178.80389,492.22279 176.96612,492.22349 C 174.62467,492.22435 174.36747,492.26415 173.52719,492.6056 C 172.72294,492.93239 172.27781,492.96311 169.81036,493.05717 C 167.75403,493.13555 166.98259,493.21935 166.85773,493.3698 C 166.76442,493.48221 166.58192,493.57823 166.47563,493.57823 C 166.36934,493.57823 165.94608,493.87055 165.503,494.20349 L 164.66932,494.79401 L 162.61985,494.79401 C 160.71919,494.79401 160.5111,494.82759 160.08407,495.14138 C 158.0428,496.64116 156.21419,498.2288 155.98514,498.68453 C 155.86971,498.91419 155.47354,499.47088 155.11672,499.90031 C 154.75989,500.32973 154.45672,500.73866 154.45672,500.8382 C 154.45672,500.93776 154.2827,501.25092 154.07462,501.4982 C 153.4973,502.18433 153.57577,503.01775 154.31777,504.5203 C 154.65069,505.19449 154.9083,505.8221 154.9083,505.9445 C 154.9083,506.06694 155.16315,506.48036 155.46408,506.84766 C 155.76503,507.21492 156.09719,507.723 156.19356,507.99397 C 156.59001,509.10868 158.96272,512.03135 159.84091,512.47501 C 160.09058,512.60114 160.58273,513.03041 160.95249,513.44764 C 161.70493,514.29664 162.32456,514.6287 163.21038,514.62869 C 164.10562,514.62869 164.28722,514.88603 164.28722,516.22658 C 164.28722,517.38161 164.24082,517.5583 163.55774,518.62341 C 162.9051,519.64107 162.79496,520.20415 162.68933,522.79182 L 162.58512,525.29286 L 161.54301,526.40444 L 160.46617,527.51602 L 160.57038,529.1139 L 160.6746,530.71179 L 159.70197,531.64969 C 159.16502,532.15642 158.68,532.69142 158.59039,532.86547 C 158.26411,533.49925 157.93255,534.53158 157.93039,535.01915 C 157.92729,535.72138 157.56576,536.36407 156.9925,536.65178 C 156.21491,537.04204 154.76935,538.53203 154.76935,538.9444 C 154.76935,539.31431 154.47165,539.67483 153.13672,540.78545 C 152.67848,541.16671 152.18239,541.76228 151.95567,542.20965 C 151.74174,542.63184 151.23699,543.36892 150.8441,543.87702 C 150.45126,544.38514 149.99722,545.04466 149.83673,545.33596 C 149.67623,545.62729 149.45184,545.9727 149.35042,546.10017 C 149.24903,546.22764 148.99235,546.67733 148.7599,547.10753 C 148.52744,547.53779 147.68873,548.6301 146.91885,549.50437 L 145.52938,551.06752 L 145.52938,551.93594 C 145.52938,552.77536 145.52302,552.80606 144.59149,553.77699 C 144.07129,554.31917 143.37533,554.92806 143.02833,555.13172 C 142.36851,555.51896 139.5187,558.32959 139.06835,559.05697 C 138.92503,559.28846 138.60688,559.73831 138.33887,560.0296 C 138.07091,560.32091 137.80457,560.76864 137.74835,561.03696 C 137.64257,561.54184 137.27414,561.97686 134.69152,564.78853 C 133.18243,566.43144 132.65615,567.29573 132.46837,568.33168 C 132.41556,568.62297 132.29307,569.17293 132.22521,569.54746 C 132.11222,570.17095 131.48544,571.63773 130.93995,572.56956 C 130.81815,572.77765 130.65526,573.35541 130.55785,573.85482 C 130.46045,574.35419 130.3176,575.05032 130.24522,575.38324 C 129.72147,577.79156 129.30872,579.83093 129.23785,580.38533 C 129.01586,582.12204 128.77224,583.04963 128.3347,583.859 C 128.06473,584.35837 127.80251,585.01975 127.74417,585.35268 C 127.68588,585.6856 127.53861,586.15198 127.43154,586.36004 C 127.19038,586.82875 126.84102,595.37329 126.84102,600.67158 C 126.84102,603.21699 126.79001,604.37885 126.66733,604.52736 C 126.57066,604.64442 126.41705,605.1674 126.31996,605.70841 C 126.22288,606.24942 126.09037,606.92909 126.00733,607.20208 C 125.92428,607.47515 125.84566,608.56109 125.86839,609.63366 L 125.93786,611.61365 L 124.51365,613.07259 C 122.40518,615.2781 122.15894,615.76067 121.94314,618.2831 C 121.88902,618.91565 121.76546,619.55202 121.66524,619.67257 C 121.565,619.7931 121.48144,620.43547 121.45682,621.09678 C 121.41347,622.26155 121.39213,622.30772 121.00524,622.38204 C 120.50622,622.4779 119.64634,623.18793 117.39262,625.40413 C 116.41926,626.36129 115.35701,627.32564 115.03053,627.55781 C 114.19321,628.15325 112.15761,629.89995 110.3758,631.58727 C 108.68331,633.19001 107.84002,634.37534 107.84002,635.09568 C 107.84002,635.46175 107.65116,635.7396 107.00634,636.41568 C 106.54856,636.89558 106.17266,637.36764 106.17266,637.45778 C 106.17266,637.5479 106.00718,637.82558 105.79055,638.08304 C 105.57389,638.34051 105.31631,638.87771 105.20003,639.26409 C 105.08374,639.6505 104.69925,640.31681 104.36635,640.75777 C 104.03341,641.1987 103.77582,641.6515 103.77582,641.7304 C 103.77582,641.80931 103.54607,642.14591 103.25477,642.49461 C 102.96346,642.84329 102.69898,643.21421 102.69898,643.32829 C 102.69898,643.44236 102.51102,643.78442 102.28214,644.05776 C 101.52424,644.96308 101.20953,645.51328 101.20531,645.86407 C 101.20303,646.05473 100.88093,646.67087 100.51057,647.25354 C 100.14025,647.83615 99.642286,648.70632 99.398995,649.16406 C 99.155738,649.62183 98.758238,650.17174 98.530577,650.37985 C 98.302926,650.58791 97.968497,651.10958 97.766369,651.5609 C 97.546788,652.0512 96.991934,652.83141 96.376899,653.47142 C 95.520308,654.36287 95.315256,654.65299 95.230587,655.20825 C 95.174641,655.57516 95.027769,656.03462 94.917956,656.25035 C 94.808124,656.46601 94.519712,657.09884 94.257958,657.63982 C 93.423184,659.36514 92.935138,660.19506 92.521122,660.62718 C 92.299286,660.85868 92.104282,661.18215 92.104281,661.32192 C 92.104281,661.46164 91.630846,662.11671 91.027442,662.78086 C 90.163108,663.73219 89.832803,663.99231 89.499026,663.99665 C 88.872452,664.00476 88.351974,664.32671 87.345348,665.35138 C 86.848556,665.85709 86.365637,666.2545 86.268509,666.25453 C 86.171384,666.25453 85.916396,666.17044 85.677985,666.04611 C 84.975932,665.67997 83.988134,665.74552 83.28115,666.2198 C 82.034887,667.05584 81.231679,667.81057 81.231683,668.13032 C 81.231683,668.30535 81.032925,668.68402 80.814842,668.99874 C 80.43175,669.55153 80.438817,669.61944 80.536948,671.0482 C 80.592831,671.86161 80.61327,672.84145 80.606422,673.23662 C 80.59474,673.90938 80.691674,674.21558 81.405366,675.56398 C 82.265241,677.18855 82.617842,678.08344 82.725362,678.96818 C 82.878351,680.22686 83.086523,680.68444 83.732728,681.39975 C 84.329664,682.06046 84.31867,682.12143 84.010622,682.85869 C 83.704369,683.59167 83.743714,683.74001 84.184305,684.31764 C 84.392387,684.59042 84.563768,684.9301 84.566409,685.04711 C 84.569074,685.1641 84.65264,685.37185 84.77483,685.53342 C 84.897035,685.69497 85.017989,685.90991 85.017987,686.01974 C 85.017987,686.12959 85.352335,686.79296 85.782195,687.47868 C 86.212054,688.16443 86.72749,689.10858 86.928507,689.56288 C 87.292932,690.38654 87.467472,690.62107 88.977975,692.4113 C 90.006072,693.62976 92.409824,695.76829 94.362169,697.20496 C 95.7408,698.21941 96.298933,698.49022 97.00216,698.49022 C 97.613305,698.49022 97.771926,698.4018 98.322156,697.83023 C 98.662743,697.47656 98.969916,697.03095 99.016891,696.82286 C 99.174657,696.12414 99.408232,695.63844 99.711626,695.36392 C 100.1571,694.96076 100.4411,694.1602 100.4411,693.31445 C 100.4411,692.46378 100.3088,692.11908 99.607415,691.33446 C 98.663688,690.27879 98.56329,690.03695 98.426366,688.3471 C 98.181086,685.31978 98.134822,685.47357 98.982154,684.31764 C 99.091378,684.16861 98.999373,683.99974 98.634787,683.69237 L 98.148473,683.27553 L 98.322156,681.01765 C 98.408192,679.76918 98.459825,678.49988 98.461103,678.20397 C 98.463215,677.71702 98.593136,677.55889 99.642152,676.71029 C 100.2946,676.18248 100.94419,675.77241 101.13583,675.7724 C 101.32305,675.7724 101.81072,675.61689 102.24741,675.3903 C 102.87099,675.06678 103.13618,674.81713 103.35898,674.31346 C 103.71877,673.50008 103.61247,673.0894 102.83793,672.19452 C 102.26067,671.52753 102.22166,671.46747 102.28214,670.63136 C 102.33932,669.84089 102.40814,669.68105 103.04635,668.99874 C 103.43338,668.58502 103.79283,668.05377 103.8453,667.81769 C 104.02692,667.00071 104.26597,666.34336 104.47056,666.04611 C 104.58357,665.88193 104.67898,665.43281 104.67898,665.07348 C 104.67898,664.34629 104.97236,663.75778 105.96424,662.39876 C 106.32875,661.89938 106.90875,661.02923 107.28423,660.48824 C 107.65972,659.94724 108.89279,658.53406 110.02844,657.32719 C 111.16405,656.12036 112.35379,654.7907 112.63369,654.37457 C 112.91359,653.95839 113.71843,653.03257 114.44,652.3251 C 115.16157,651.61762 115.92405,650.78221 116.1421,650.44932 C 116.63747,649.69303 117.25368,648.44215 117.25368,648.1567 C 117.25368,648.03827 117.48834,647.64018 117.80946,647.28828 C 118.13064,646.9364 118.57133,646.37069 118.78209,646.03775 C 118.99286,645.70485 119.85128,644.81369 120.69261,644.02302 C 121.53398,643.23234 122.98673,641.85137 123.92313,640.96619 C 125.5481,639.43012 126.34526,638.84724 126.84102,638.84725 C 126.96506,638.84725 127.5674,638.38779 128.19575,637.80515 C 129.13834,636.93116 129.4442,636.76302 129.86311,636.76305 C 130.17535,636.76305 130.46202,636.63304 130.62732,636.45042 C 130.93763,636.10754 131.53621,635.89497 132.60731,635.75568 C 133.02348,635.70157 133.60125,635.53008 133.89257,635.37358 C 134.18386,635.21706 134.61552,635.00965 134.8652,634.88726 C 135.11491,634.76492 135.79332,634.24585 136.35888,633.74095 C 136.92448,633.23607 137.55647,632.71186 137.78309,632.59464 C 138.62982,632.15679 140.24635,629.99933 140.45782,629.01675 C 140.93077,626.81906 141.35886,625.57213 141.74307,625.33466 C 141.8334,625.27884 142.09492,624.86081 142.29886,624.43151 C 142.91154,623.14173 143.60349,621.98145 144.52201,620.71467 C 145.02093,620.0266 145.39043,619.3652 145.39043,619.15152 C 145.39043,618.94654 145.52473,618.57928 145.70306,618.35258 C 145.88136,618.12585 146.11659,617.57326 146.22411,617.10205 C 146.48596,615.95471 146.91517,614.80442 147.54411,613.52417 C 147.83031,612.94156 148.08837,612.17553 148.13463,611.82207 C 148.23841,611.02905 148.94246,609.52716 149.69779,608.45261 C 150.18218,607.76342 150.25084,607.56078 150.1841,607.06314 C 150.0916,606.37334 150.49341,605.68882 150.77463,606.05577 C 150.925,606.25201 151.34147,607.36267 151.85146,608.97366 C 152.08072,609.69779 152.3419,610.37384 152.96304,611.71786 C 153.11943,612.05626 153.24093,612.42 153.24093,612.51681 C 153.24093,612.77094 153.91024,614.70363 154.45672,616.02522 C 154.71484,616.64944 155.08765,617.6032 155.25566,618.14416 C 155.42368,618.68515 155.65193,619.437 155.77672,619.81152 C 155.9015,620.18605 156.09517,620.81956 156.19356,621.23573 C 156.29194,621.65189 156.45023,622.11138 156.54092,622.27783 C 156.94142,623.01297 157.37101,624.81171 157.47882,626.06413 C 157.59751,627.44304 157.85423,628.5428 158.3125,629.78096 C 158.4511,630.15551 158.6696,630.78899 158.79881,631.20517 C 158.92801,631.62131 159.07683,632.05781 159.14618,632.14306 C 159.21554,632.22835 159.38876,632.63214 159.52828,633.04622 C 159.66782,633.46032 160.11488,634.16276 160.50091,634.60937 C 161.52179,635.79044 162.65736,637.50738 162.82827,638.11778 C 162.90985,638.40909 163.15165,638.86048 163.38406,639.12514 C 163.73716,639.52731 163.8477,639.80912 163.93985,640.79251 C 164.07786,642.26549 163.90986,644.79217 163.62722,645.69039 C 163.50937,646.06492 163.32919,646.69843 163.24511,647.11459 C 162.90525,648.79642 162.52134,650.48885 162.20301,651.49142 C 161.39131,654.04793 161.1176,657.02538 161.29986,661.56507 C 161.40377,664.15339 161.38032,665.90519 161.26512,667.33137 C 161.09684,669.41491 160.8555,673.88477 160.53565,680.11449 C 160.43736,682.0288 160.27474,683.87361 160.18828,684.24816 C 160.10183,684.62271 159.971,685.47691 159.91039,686.12395 C 159.84976,686.77098 159.7304,687.38079 159.63249,687.47868 C 159.53462,687.57658 159.45881,687.8566 159.45881,688.10394 C 159.45881,688.70228 158.32977,689.78533 157.47882,690.01446 C 157.13531,690.10697 156.6878,690.40204 156.43671,690.67446 C 156.19059,690.94145 155.2106,691.96835 154.28304,692.96708 C 152.54232,694.84141 152.50503,694.91678 152.19883,696.05865 C 152.09841,696.43321 151.93302,696.91459 151.81673,697.13549 C 151.54716,697.64752 151.51497,698.62472 151.78199,699.01127 C 151.97541,699.2914 152.09354,699.66729 152.30304,700.88706 C 152.36516,701.24872 152.50245,701.4386 152.78936,701.54706 C 153.00847,701.62969 153.94308,702.42929 154.87356,703.31863 C 155.80404,704.20817 156.83185,705.1461 157.16618,705.43757 C 157.50057,705.72885 158.14901,706.29373 158.59039,706.68809 C 159.04523,707.09457 159.5416,707.41666 159.7367,707.41756 C 159.95416,707.41848 160.10598,707.54842 160.18828,707.76493 C 160.25996,707.95344 160.6329,708.37114 161.02196,708.70282 C 161.41101,709.03452 162.71118,710.21905 163.90511,711.34282 C 167.19881,714.44254 171.46662,718.15123 171.72088,718.15122 C 171.79065,718.15122 172.11167,718.3894 172.45035,718.67227 C 173.32366,719.40198 174.94973,720.27432 175.61139,720.37437 C 175.92059,720.42099 176.34121,720.60839 176.54928,720.79121 C 176.75739,720.97405 177.25159,721.23911 177.62612,721.347 C 178.00067,721.4547 178.37656,721.53042 178.4598,721.55542 C 178.54302,721.58028 179.38973,721.61832 180.37032,721.62489 C 182.25905,721.63769 182.50686,721.54722 182.17663,720.93015 C 182.07163,720.73397 182.09981,720.53439 182.24611,720.27016 C 182.63055,719.57554 182.49218,717.37676 181.96821,715.65017 C 181.71423,714.81312 180.96534,713.9166 180.50927,713.91333 C 179.83423,713.90822 177.904,711.67676 177.90402,710.89124 C 177.90402,710.11599 177.46525,708.74306 177.07033,708.32072 C 176.33583,707.53559 176.17012,705.66342 176.7577,704.91652 C 177.1284,704.44514 177.61842,703.15232 177.62612,702.6239 C 177.62882,702.43739 177.36169,701.96341 177.07033,701.58179 C 176.77902,701.2002 176.52784,700.7311 176.47981,700.53969 C 176.41149,700.26743 176.45433,696.82277 176.54928,695.60707 C 176.55903,695.48222 176.53749,695.06612 176.47981,694.66918 C 176.38423,694.01132 176.26648,693.86257 175.40297,693.1755 C 174.62422,692.55581 174.37055,692.44605 173.87455,692.44603 C 172.89727,692.44603 172.86085,692.24992 172.9714,686.92289 C 173.03912,683.66003 173.1227,682.11805 173.28403,681.46922 C 173.40819,680.96985 173.52393,680.19014 173.52719,679.73239 C 173.53117,679.17543 173.63767,678.74396 173.83982,678.41239 C 174.00599,678.13988 174.15245,677.6851 174.15245,677.43976 C 174.15245,677.19445 174.3211,676.60072 174.53455,676.11977 C 174.75514,675.62274 174.97807,674.74419 175.0556,674.0703 C 175.18193,672.9722 175.33592,672.33441 175.68086,671.43031 C 175.75561,671.23431 175.83996,670.6565 175.88929,670.14505 C 175.93862,669.63356 176.08615,669.04538 176.20192,668.85979 C 176.31769,668.6742 176.61738,667.70744 176.86191,666.70611 C 177.10644,665.70475 177.35585,664.79149 177.4177,664.69138 C 177.47956,664.59129 177.56814,664.26311 177.62612,663.92717 C 177.68409,663.5912 177.89971,662.49437 178.11244,661.4956 C 178.72949,658.5987 178.93684,656.99126 179.1198,653.92299 C 179.28582,651.13887 179.31774,651.01148 179.88401,649.54616 C 180.20562,648.71387 180.56121,647.5819 180.68295,647.04512 C 180.91208,646.03541 181.22317,645.6904 181.79453,645.69039 C 182.46754,645.69039 182.67997,645.17131 182.76716,643.4325 C 182.83332,642.11388 182.90375,641.73189 183.184,641.27882 C 183.46937,640.81742 183.52366,640.53726 183.49663,639.61146 C 183.46636,638.57498 183.51438,638.41096 184.01768,637.59673 L 184.53873,636.72831 L 184.46926,634.50516 C 184.42936,633.27895 184.30929,631.89894 184.19136,631.41359 C 184.07349,630.92831 183.98293,630.23634 183.98294,629.88517 C 183.98294,629.53403 183.8928,629.16981 183.80926,629.08623 C 183.60755,628.88457 183.28465,627.50548 183.14926,626.37676 C 183.08937,625.87739 182.90087,625.21598 182.73242,624.88308 C 182.38848,624.20337 182.32213,622.59106 182.59347,620.85362 C 182.83855,619.28422 182.82842,616.01523 182.55874,612.62102 C 182.23661,608.5657 182.08515,607.03333 181.864,606.09051 C 181.76636,605.67435 181.59323,604.60922 181.51664,603.69367 C 181.06217,598.25835 181.06575,598.26406 180.37032,596.22528 C 179.94237,594.97039 179.88041,594.54592 179.95348,593.96739 C 180.00315,593.57344 180.07927,592.83414 180.12717,592.33476 L 180.19664,591.43161 L 178.70296,589.90319 L 177.17454,588.40951 L 177.17454,587.61057 C 177.17454,586.95757 177.25015,586.73183 177.6956,586.11689 C 178.62495,584.83366 178.66284,584.63051 178.56401,582.539 L 178.49454,580.66322 L 178.94612,580.10743 C 179.2077,579.80951 179.43244,579.48203 179.43243,579.34322 C 179.43243,579.20442 179.5392,578.84539 179.67559,578.57902 C 180.03358,577.87969 182.59859,575.32094 183.28821,574.96639 C 183.81075,574.69772 185.54639,573.47219 187.42188,572.08325 C 188.24635,571.47262 190.07043,569.48365 190.44398,568.78326 C 190.5975,568.49535 190.91619,567.95305 191.13871,567.56747 C 191.36132,567.18189 191.72791,566.3616 191.93766,565.76116 C 192.14743,565.16069 192.41343,564.5509 192.52818,564.37169 C 192.64288,564.19248 192.85085,563.62053 193.0145,563.12117 C 193.17804,562.62179 193.47763,561.93889 193.67449,561.59275 C 194.36755,560.37435 194.92012,559.49849 195.34186,558.95276 C 195.57627,558.64944 195.7587,558.30376 195.7587,558.18855 C 195.7587,558.07331 196.01371,557.45568 196.31449,556.83382 C 196.61523,556.21194 197.02374,555.27718 197.21764,554.74962 C 197.41155,554.22205 197.69246,553.60868 197.8429,553.39488 C 198.87798,551.92343 199.9047,550.28176 200.23974,549.57384 C 200.45646,549.11606 200.78222,548.53828 200.96921,548.28858 C 201.15625,548.03889 201.53096,547.48896 201.76815,547.0728 C 202.0054,546.65665 202.83386,545.69535 203.6092,544.91912 C 204.38462,544.14287 204.99866,543.43394 204.99867,543.35597 C 204.99867,543.27797 205.6471,542.54057 206.42287,541.6886 C 207.19861,540.83661 207.99225,539.86852 208.19445,539.56966 C 209.10896,538.21791 215.57216,531.17892 216.01021,531.05916 C 216.15278,531.02019 216.55085,530.94105 216.87863,530.88548 C 217.20644,530.82989 217.85624,530.60743 218.33757,530.36443 C 218.8189,530.12146 219.45421,529.91654 219.72704,529.91285 C 219.99988,529.9092 220.47097,529.78962 220.80388,529.66969 C 221.13682,529.54975 221.53698,529.46251 221.6723,529.46127 C 221.80757,529.46002 222.31436,529.28679 222.78388,529.07917 C 223.25334,528.87154 224.12707,528.60662 224.72913,528.48864 C 225.33116,528.37068 225.98007,528.25252 226.18808,528.21075 C 226.39619,528.169 227.29416,527.8442 228.16807,527.51602 C 229.04201,527.18783 230.16973,526.87587 230.66912,526.82128 C 231.16854,526.76668 231.94817,526.60413 232.40595,526.47391 C 232.86375,526.34367 233.67124,526.14006 234.21226,525.9876 C 234.75322,525.83515 235.58872,525.66041 236.08805,525.60549 C 238.36728,525.35499 239.65976,525.16238 242.23645,524.70234 C 245.96626,524.03644 247.02665,523.82436 247.44696,523.6255 C 247.6966,523.50738 248.56684,523.32793 249.35748,523.2434 C 250.14819,523.15891 251.1855,523.01582 251.68484,522.93077 C 252.18424,522.84572 252.96387,522.72973 253.42168,522.65287 C 253.87938,522.576 254.63124,522.42245 255.08904,522.34024 C 255.54674,522.25803 256.41701,522.14654 256.99956,522.06235 C 257.58219,521.97815 258.42744,521.80792 258.91008,521.68024 C 259.39267,521.5526 260.09476,521.43708 260.4385,521.43709 C 260.78226,521.43709 261.25974,521.37541 261.51534,521.29814 C 261.77098,521.22086 262.51683,521.03844 263.1827,520.91604 C 263.84857,520.7936 264.7744,520.5608 265.23217,520.39498 C 265.68996,520.22917 266.46966,519.98021 266.969,519.8392 C 267.4684,519.69819 268.65186,519.28564 269.609,518.9013 C 270.69069,518.46695 271.74174,518.16915 272.3532,518.10236 C 272.89417,518.04326 273.49989,517.93708 273.70793,517.89394 C 273.91604,517.85077 274.78619,517.69012 275.61845,517.54657 C 276.47631,517.39859 277.26313,517.17714 277.4595,517.02552 C 277.66349,516.86801 278.21614,516.70552 278.81423,516.64342 C 279.37279,516.58543 279.92866,516.48132 280.03002,516.40026 C 280.2272,516.24245 282.60651,515.57376 283.6079,515.39289 C 283.94075,515.33275 284.80756,515.04078 285.51842,514.7329 L 286.80368,514.17711 L 291.42366,514.21185 C 295.2662,514.24914 296.18056,514.30581 296.91207,514.52448 C 297.39472,514.66875 297.99239,514.76764 298.23206,514.76763 C 298.7754,514.76763 299.12645,515.14101 299.13522,515.67079 C 299.13983,515.95048 299.42962,516.33817 300.03838,516.99078 C 300.52359,517.51096 300.9822,517.96342 301.08048,517.96341 C 301.17875,517.96341 301.74425,518.16529 302.331,518.41499 C 303.59644,518.95348 303.82824,518.9722 304.20678,518.55394 C 304.53034,518.19638 306.02184,517.30099 306.56888,517.12973 C 307.36618,516.88013 309.09918,515.23123 310.07729,513.795 C 310.30511,513.46051 310.72478,512.88429 311.01518,512.50975 C 311.20579,512.26384 311.26866,512.14474 311.36255,511.98869 C 385.25457,534.78542 418.42776,547.45947 434.01796,553.46436 C 434.40676,551.30847 433.87162,554.20743 434.50428,552.59594 C 412.21972,543.84261 315.73192,510.67527 312.57834,509.59186 C 312.59484,509.43578 312.61307,509.25953 312.61307,509.03607 C 312.61307,508.51902 312.66634,507.98046 312.75202,507.82029 C 312.86394,507.61114 312.84883,507.24612 312.68255,506.6045 C 312.55519,506.1131 312.43939,505.3485 312.43939,504.86766 C 312.43939,503.92988 312.18731,503.40871 311.67518,503.40872 C 311.31367,503.40872 310.18151,502.41521 310.1815,502.08873 C 310.1815,501.95048 310.07884,501.66404 309.93834,501.46346 C 309.79785,501.2629 309.63884,500.85686 309.59098,500.56031 C 309.47488,499.84196 309.03371,499.77181 308.44466,500.38663 C 308.04689,500.80183 307.8984,500.83821 307.0552,500.8382 C 306.3094,500.8382 306.03926,500.91966 305.59625,501.22031 C 304.27725,502.11538 304.33247,502.11407 301.39311,501.91504 C 299.91349,501.81488 298.50033,501.76068 298.2668,501.81083 C 297.31912,502.01445 292.09646,502.36159 289.82578,502.36662 C 288.16921,502.37031 287.11144,502.45238 286.49105,502.60978 C 285.99171,502.73651 285.22464,502.91782 284.78895,503.02662 C 284.35319,503.13543 283.90807,503.30373 283.78158,503.40872 C 283.62799,503.5362 282.8015,503.64532 281.31528,503.68662 C 279.55218,503.73565 279.02582,503.77301 278.81423,503.96451 C 278.61313,504.14652 278.00909,504.2472 276.38266,504.34661 C 275.19456,504.41923 274.05495,504.53546 273.84688,504.58977 C 273.42984,504.69864 273.57367,504.69169 268.11532,504.93714 C 265.99292,505.03259 264.02974,505.08586 263.73849,505.07608 C 263.19614,505.05782 260.85897,505.39377 259.63955,505.66661 C 258.20215,505.98823 258.05361,506.05804 257.76377,506.25713 C 257.59802,506.37091 257.06362,506.46554 256.58272,506.46555 C 255.9493,506.46555 255.53981,506.53631 255.01957,506.81292 C 254.62827,507.02101 254.18023,507.19585 254.04694,507.19503 C 253.68474,507.19282 251.54076,507.93567 250.08695,508.54976 C 249.70024,508.71307 249.15848,508.87636 248.9059,508.93186 C 248.65324,508.98737 248.37976,509.125 248.28064,509.24449 C 248.02315,509.55473 247.77274,509.52627 247.37749,509.10555 L 247.03012,508.75818 L 242.79224,508.6887 C 239.34034,508.64961 238.44421,508.59474 238.13751,508.41081 C 237.42984,507.98634 235.32162,507.79974 231.60701,507.82029 C 229.17985,507.83368 228.0285,507.79274 227.95965,507.68134 C 227.90385,507.59106 227.96034,507.2649 228.0986,506.95187 C 228.23679,506.6388 228.45645,506.13161 228.58491,505.84029 C 228.7134,505.54899 228.90019,505.14522 229.00175,504.93714 C 229.10338,504.72908 229.28109,504.17911 229.38386,503.72135 C 229.48654,503.26359 229.64205,502.77622 229.73122,502.60978 C 230.15856,501.8117 230.25594,501.47039 230.42596,500.69926 C 230.52687,500.24148 230.70209,499.69157 230.80806,499.48347 C 230.99306,499.12025 231.34627,497.98308 231.64174,496.70453 C 231.94934,495.37368 232.22997,494.26241 232.37122,493.89086 C 232.45309,493.67555 232.64098,492.50299 232.78806,491.2856 L 233.06595,489.06245 L 232.71858,487.4993 C 232.52937,486.64336 232.30204,485.67851 232.23227,485.34562 C 232.05458,484.49859 231.60585,483.28834 231.29438,482.84457 C 231.14993,482.63878 231.05122,482.43132 231.05122,482.35826 C 231.05122,482.1202 229.01255,479.94943 228.41123,479.54458 C 227.44725,478.89564 226.30916,478.29978 225.97966,478.29406 C 225.80956,478.29112 225.49303,478.20459 225.28492,478.08564 C 225.07685,477.96669 224.76956,477.84543 224.59019,477.84248 C 224.4108,477.83954 223.9662,477.61277 223.61756,477.32143 C 223.26886,477.03015 222.97048,476.77446 222.95756,476.76565 C 222.94464,476.75682 222.2615,476.72314 221.42914,476.66144 C 220.42703,476.58713 219.61822,476.43475 219.06705,476.20986 C 217.32828,475.50044 216.83062,475.30847 216.11442,475.20249 C 215.70854,475.14242 215.12048,474.97326 214.82916,474.82039 C 214.53785,474.66751 214.01196,474.51421 213.64812,474.47302 C 213.28424,474.43178 212.63763,474.20134 212.22391,473.98671 C 211.81025,473.77206 211.32665,473.60588 211.14707,473.6046 C 210.69602,473.60145 209.8893,473.31584 209.23655,472.90987 C 208.86439,472.67845 208.48798,472.56357 208.19445,472.5625 z"
       id="path2227"
       style="fill:#000000" />
  </g>
</svg>
