<?xml version="1.0" encoding="UTF-8" standalone="no"?>
<svg
   xmlns:dc="http://purl.org/dc/elements/1.1/"
   xmlns:cc="http://creativecommons.org/ns#"
   xmlns:rdf="http://www.w3.org/1999/02/22-rdf-syntax-ns#"
   xmlns:svg="http://www.w3.org/2000/svg"
   xmlns="http://www.w3.org/2000/svg"
   xmlns:sodipodi="http://sodipodi.sourceforge.net/DTD/sodipodi-0.dtd"
   xmlns:inkscape="http://www.inkscape.org/namespaces/inkscape"
   width="280"
   height="280"
   id="svg2"
   version="1.1"
   inkscape:version="0.48.2 r9819"
   sodipodi:docname="5x5-grid.svg">
  <metadata
     id="metadata110">
    <rdf:RDF>
      <cc:Work
         rdf:about="">
        <dc:format>image/svg+xml</dc:format>
        <dc:type
           rdf:resource="http://purl.org/dc/dcmitype/StillImage" />
        <dc:title></dc:title>
      </cc:Work>
    </rdf:RDF>
  </metadata>
  <defs
     id="defs108" />
  <sodipodi:namedview
     pagecolor="#ffffff"
     bordercolor="#666666"
     borderopacity="1"
     objecttolerance="10"
     gridtolerance="10"
     guidetolerance="10"
     inkscape:pageopacity="0"
     inkscape:pageshadow="2"
     inkscape:window-width="1147"
     inkscape:window-height="708"
     id="namedview106"
     showgrid="false"
     inkscape:zoom="1.6857143"
     inkscape:cx="140"
     inkscape:cy="140"
     inkscape:window-x="0"
     inkscape:window-y="0"
     inkscape:window-maximized="0"
     inkscape:current-layer="svg2" />
  <rect
     x="0"
     y="0"
     width="223.64407"
     height="168.47458"
     id="rect4"
     style="fill:#e8e8e8" />
  <rect
     x="5"
     y="5"
     width="50"
     height="50"
     fill="black"
     id="rect6" />
  <rect
     x="6"
     y="6"
     width="48"
     height="48"
     fill="white"
     id="rect8" />
  <rect
     x="60"
     y="5"
     width="50"
     height="50"
     fill="black"
     id="rect10" />
  <rect
     x="61"
     y="6"
     width="48"
     height="48"
     fill="white"
     id="rect12" />
  <rect
     x="115"
     y="5"
     width="50"
     height="50"
     fill="black"
     id="rect14" />
  <rect
     x="116"
     y="6"
     width="48"
     height="48"
     fill="white"
     id="rect16" />
  <rect
     x="170"
     y="5"
     width="50"
     height="50"
     fill="black"
     id="rect18" />
  <rect
     x="171"
     y="6"
     width="48"
     height="48"
     fill="white"
     id="rect20" />
  <rect
     x="5"
     y="60"
     width="50"
     height="50"
     fill="black"
     id="rect26" />
  <rect
     x="6"
     y="61"
     width="48"
     height="48"
     fill="white"
     id="rect28" />
  <rect
     x="60"
     y="60"
     width="50"
     height="50"
     fill="black"
     id="rect30" />
  <rect
     x="61"
     y="61"
     width="48"
     height="48"
     fill="white"
     id="rect32" />
  <rect
     x="115"
     y="60"
     width="50"
     height="50"
     fill="black"
     id="rect34" />
  <rect
     x="116"
     y="61"
     width="48"
     height="48"
     fill="white"
     id="rect36" />
  <rect
     x="170"
     y="60"
     width="50"
     height="50"
     fill="black"
     id="rect38" />
  <rect
     x="171"
     y="61"
     width="48"
     height="48"
     fill="white"
     id="rect40" />
  <rect
     x="5"
     y="115"
     width="50"
     height="50"
     fill="black"
     id="rect46" />
  <rect
     x="6"
     y="116"
     width="48"
     height="48"
     fill="white"
     id="rect48" />
  <rect
     x="60"
     y="115"
     width="50"
     height="50"
     fill="black"
     id="rect50" />
  <rect
     x="61"
     y="116"
     width="48"
     height="48"
     fill="white"
     id="rect52" />
  <rect
     x="115"
     y="115"
     width="50"
     height="50"
     fill="black"
     id="rect54" />
  <rect
     x="116"
     y="116"
     width="48"
     height="48"
     fill="white"
     id="rect56" />
  <rect
     x="170"
     y="115"
     width="50"
     height="50"
     fill="black"
     id="rect58" />
  <rect
     x="171"
     y="116"
     width="48"
     height="48"
     fill="white"
     id="rect60" />
</svg>
