<?xml version="1.0" encoding="UTF-8" standalone="no"?>
<svg
   xmlns:dc="http://purl.org/dc/elements/1.1/"
   xmlns:cc="http://creativecommons.org/ns#"
   xmlns:rdf="http://www.w3.org/1999/02/22-rdf-syntax-ns#"
   xmlns:svg="http://www.w3.org/2000/svg"
   xmlns="http://www.w3.org/2000/svg"
   xmlns:sodipodi="http://sodipodi.sourceforge.net/DTD/sodipodi-0.dtd"
   xmlns:inkscape="http://www.inkscape.org/namespaces/inkscape"
   width="372.04724"
   height="262.20471"
   id="svg2"
   version="1.1"
   inkscape:version="0.48.2 r9819"
   sodipodi:docname="pungo-setup.svg">
  <metadata
     id="metadata110">
    <rdf:RDF>
      <cc:Work
         rdf:about="">
        <dc:format>image/svg+xml</dc:format>
        <dc:type
           rdf:resource="http://purl.org/dc/dcmitype/StillImage" />
        <dc:title></dc:title>
      </cc:Work>
    </rdf:RDF>
  </metadata>
  <defs
     id="defs108">
    <inkscape:perspective
       id="perspective2668"
       inkscape:persp3d-origin="382.5 : 330 : 1"
       inkscape:vp_z="765 : 495 : 1"
       inkscape:vp_y="0 : 1000 : 0"
       inkscape:vp_x="0 : 495 : 1"
       sodipodi:type="inkscape:persp3d" />
    <linearGradient
       id="linearGradient8662">
      <stop
         id="stop8664"
         offset="0"
         style="stop-color:#cecece;stop-opacity:1;" />
      <stop
         id="stop8666"
         offset="1"
         style="stop-color:#ffffff;stop-opacity:1;" />
    </linearGradient>
    <linearGradient
       id="linearGradient8706">
      <stop
         id="stop8708"
         offset="0"
         style="stop-color:#000000;stop-opacity:1;" />
      <stop
         id="stop8710"
         offset="1"
         style="stop-color:#000000;stop-opacity:0.73451328;" />
    </linearGradient>
    <inkscape:perspective
       id="perspective2668-0"
       inkscape:persp3d-origin="382.5 : 330 : 1"
       inkscape:vp_z="765 : 495 : 1"
       inkscape:vp_y="0 : 1000 : 0"
       inkscape:vp_x="0 : 495 : 1"
       sodipodi:type="inkscape:persp3d" />
    <linearGradient
       id="linearGradient8662-2">
      <stop
         id="stop8664-9"
         offset="0"
         style="stop-color:#cecece;stop-opacity:1;" />
      <stop
         id="stop8666-1"
         offset="1"
         style="stop-color:#ffffff;stop-opacity:1;" />
    </linearGradient>
    <linearGradient
       id="linearGradient8706-2">
      <stop
         id="stop8708-4"
         offset="0"
         style="stop-color:#000000;stop-opacity:1;" />
      <stop
         id="stop8710-9"
         offset="1"
         style="stop-color:#000000;stop-opacity:0.73451328;" />
    </linearGradient>
  </defs>
  <sodipodi:namedview
     pagecolor="#ffffff"
     bordercolor="#666666"
     borderopacity="1"
     objecttolerance="10"
     gridtolerance="10"
     guidetolerance="10"
     inkscape:pageopacity="0"
     inkscape:pageshadow="2"
     inkscape:window-width="1147"
     inkscape:window-height="708"
     id="namedview106"
     showgrid="false"
     inkscape:zoom="1.19198"
     inkscape:cx="119.34519"
     inkscape:cy="133.54391"
     inkscape:window-x="0"
     inkscape:window-y="0"
     inkscape:window-maximized="0"
     inkscape:current-layer="svg2" />
  <rect
     x="10.677965"
     y="48.64542"
     width="223.64407"
     height="168.47458"
     id="rect4"
     style="fill:#e8e8e8"
     inkscape:export-filename="/Users/fogus/src/spiel/pyramidenspiel/pungo/graphics/pungo-setup.png"
     inkscape:export-xdpi="90"
     inkscape:export-ydpi="90" />
  <rect
     x="15.677965"
     y="53.64542"
     width="50"
     height="50"
     id="rect6"
     style="fill:#000000"
     inkscape:export-filename="/Users/fogus/src/spiel/pyramidenspiel/pungo/graphics/pungo-setup.png"
     inkscape:export-xdpi="90"
     inkscape:export-ydpi="90" />
  <rect
     x="16.677965"
     y="54.64542"
     width="48"
     height="48"
     id="rect8"
     style="fill:#ffffff"
     inkscape:export-filename="/Users/fogus/src/spiel/pyramidenspiel/pungo/graphics/pungo-setup.png"
     inkscape:export-xdpi="90"
     inkscape:export-ydpi="90" />
  <rect
     x="70.677963"
     y="53.64542"
     width="50"
     height="50"
     id="rect10"
     style="fill:#000000"
     inkscape:export-filename="/Users/fogus/src/spiel/pyramidenspiel/pungo/graphics/pungo-setup.png"
     inkscape:export-xdpi="90"
     inkscape:export-ydpi="90" />
  <rect
     x="71.677963"
     y="54.64542"
     width="48"
     height="48"
     id="rect12"
     style="fill:#ffffff"
     inkscape:export-filename="/Users/fogus/src/spiel/pyramidenspiel/pungo/graphics/pungo-setup.png"
     inkscape:export-xdpi="90"
     inkscape:export-ydpi="90" />
  <rect
     x="125.67797"
     y="53.64542"
     width="50"
     height="50"
     id="rect14"
     style="fill:#000000"
     inkscape:export-filename="/Users/fogus/src/spiel/pyramidenspiel/pungo/graphics/pungo-setup.png"
     inkscape:export-xdpi="90"
     inkscape:export-ydpi="90" />
  <rect
     x="126.67797"
     y="54.64542"
     width="48"
     height="48"
     id="rect16"
     style="fill:#ffffff"
     inkscape:export-filename="/Users/fogus/src/spiel/pyramidenspiel/pungo/graphics/pungo-setup.png"
     inkscape:export-xdpi="90"
     inkscape:export-ydpi="90" />
  <rect
     x="180.67798"
     y="53.64542"
     width="50"
     height="50"
     id="rect18"
     style="fill:#000000"
     inkscape:export-filename="/Users/fogus/src/spiel/pyramidenspiel/pungo/graphics/pungo-setup.png"
     inkscape:export-xdpi="90"
     inkscape:export-ydpi="90" />
  <rect
     x="181.67798"
     y="54.64542"
     width="48"
     height="48"
     id="rect20"
     style="fill:#ffffff"
     inkscape:export-filename="/Users/fogus/src/spiel/pyramidenspiel/pungo/graphics/pungo-setup.png"
     inkscape:export-xdpi="90"
     inkscape:export-ydpi="90" />
  <rect
     x="15.677965"
     y="108.64542"
     width="50"
     height="50"
     id="rect26"
     style="fill:#000000"
     inkscape:export-filename="/Users/fogus/src/spiel/pyramidenspiel/pungo/graphics/pungo-setup.png"
     inkscape:export-xdpi="90"
     inkscape:export-ydpi="90" />
  <rect
     x="16.677965"
     y="109.64542"
     width="48"
     height="48"
     id="rect28"
     style="fill:#ffffff"
     inkscape:export-filename="/Users/fogus/src/spiel/pyramidenspiel/pungo/graphics/pungo-setup.png"
     inkscape:export-xdpi="90"
     inkscape:export-ydpi="90" />
  <rect
     x="70.677963"
     y="108.64542"
     width="50"
     height="50"
     id="rect30"
     style="fill:#000000"
     inkscape:export-filename="/Users/fogus/src/spiel/pyramidenspiel/pungo/graphics/pungo-setup.png"
     inkscape:export-xdpi="90"
     inkscape:export-ydpi="90" />
  <rect
     x="71.677963"
     y="109.64542"
     width="48"
     height="48"
     id="rect32"
     style="fill:#ffffff"
     inkscape:export-filename="/Users/fogus/src/spiel/pyramidenspiel/pungo/graphics/pungo-setup.png"
     inkscape:export-xdpi="90"
     inkscape:export-ydpi="90" />
  <rect
     x="125.67797"
     y="108.64542"
     width="50"
     height="50"
     id="rect34"
     style="fill:#000000"
     inkscape:export-filename="/Users/fogus/src/spiel/pyramidenspiel/pungo/graphics/pungo-setup.png"
     inkscape:export-xdpi="90"
     inkscape:export-ydpi="90" />
  <rect
     x="126.67797"
     y="109.64542"
     width="48"
     height="48"
     id="rect36"
     style="fill:#ffffff"
     inkscape:export-filename="/Users/fogus/src/spiel/pyramidenspiel/pungo/graphics/pungo-setup.png"
     inkscape:export-xdpi="90"
     inkscape:export-ydpi="90" />
  <rect
     x="180.67798"
     y="108.64542"
     width="50"
     height="50"
     id="rect38"
     style="fill:#000000"
     inkscape:export-filename="/Users/fogus/src/spiel/pyramidenspiel/pungo/graphics/pungo-setup.png"
     inkscape:export-xdpi="90"
     inkscape:export-ydpi="90" />
  <rect
     x="181.67798"
     y="109.64542"
     width="48"
     height="48"
     id="rect40"
     style="fill:#ffffff"
     inkscape:export-filename="/Users/fogus/src/spiel/pyramidenspiel/pungo/graphics/pungo-setup.png"
     inkscape:export-xdpi="90"
     inkscape:export-ydpi="90" />
  <rect
     x="15.677965"
     y="163.64519"
     width="50"
     height="50"
     id="rect46"
     style="fill:#000000"
     inkscape:export-filename="/Users/fogus/src/spiel/pyramidenspiel/pungo/graphics/pungo-setup.png"
     inkscape:export-xdpi="90"
     inkscape:export-ydpi="90" />
  <rect
     x="16.677965"
     y="164.64519"
     width="48"
     height="48"
     id="rect48"
     style="fill:#ffffff"
     inkscape:export-filename="/Users/fogus/src/spiel/pyramidenspiel/pungo/graphics/pungo-setup.png"
     inkscape:export-xdpi="90"
     inkscape:export-ydpi="90" />
  <rect
     x="70.677963"
     y="163.64519"
     width="50"
     height="50"
     id="rect50"
     style="fill:#000000"
     inkscape:export-filename="/Users/fogus/src/spiel/pyramidenspiel/pungo/graphics/pungo-setup.png"
     inkscape:export-xdpi="90"
     inkscape:export-ydpi="90" />
  <rect
     x="71.677963"
     y="164.64519"
     width="48"
     height="48"
     id="rect52"
     style="fill:#ffffff"
     inkscape:export-filename="/Users/fogus/src/spiel/pyramidenspiel/pungo/graphics/pungo-setup.png"
     inkscape:export-xdpi="90"
     inkscape:export-ydpi="90" />
  <rect
     x="125.67797"
     y="163.64519"
     width="50"
     height="50"
     id="rect54"
     style="fill:#000000"
     inkscape:export-filename="/Users/fogus/src/spiel/pyramidenspiel/pungo/graphics/pungo-setup.png"
     inkscape:export-xdpi="90"
     inkscape:export-ydpi="90" />
  <rect
     x="126.67797"
     y="164.64519"
     width="48"
     height="48"
     id="rect56"
     style="fill:#ffffff"
     inkscape:export-filename="/Users/fogus/src/spiel/pyramidenspiel/pungo/graphics/pungo-setup.png"
     inkscape:export-xdpi="90"
     inkscape:export-ydpi="90" />
  <rect
     x="180.67798"
     y="163.64519"
     width="50"
     height="50"
     id="rect58"
     style="fill:#000000"
     inkscape:export-filename="/Users/fogus/src/spiel/pyramidenspiel/pungo/graphics/pungo-setup.png"
     inkscape:export-xdpi="90"
     inkscape:export-ydpi="90" />
  <rect
     x="181.67798"
     y="164.64519"
     width="48"
     height="48"
     id="rect60"
     style="fill:#ffffff"
     inkscape:export-filename="/Users/fogus/src/spiel/pyramidenspiel/pungo/graphics/pungo-setup.png"
     inkscape:export-xdpi="90"
     inkscape:export-ydpi="90" />
  <text
     xml:space="preserve"
     style="font-size:16px;font-style:normal;font-weight:normal;line-height:125%;letter-spacing:0px;word-spacing:0px;fill:#000000;fill-opacity:1;stroke:none;font-family:Sans"
     x="242.03391"
     y="74.15387"
     id="text3982"
     sodipodi:linespacing="125%"
     inkscape:export-filename="/Users/fogus/src/spiel/pyramidenspiel/pungo/graphics/pungo-setup.png"
     inkscape:export-xdpi="90"
     inkscape:export-ydpi="90"><tspan
       sodipodi:role="line"
       id="tspan3984"
       x="242.03391"
       y="74.15387">Player 1's</tspan><tspan
       sodipodi:role="line"
       x="242.03391"
       y="94.15387"
       id="tspan3986">home row</tspan></text>
  <text
     sodipodi:linespacing="125%"
     id="text3988"
     y="182.7132"
     x="242.03391"
     style="font-size:16px;font-style:normal;font-weight:normal;line-height:125%;letter-spacing:0px;word-spacing:0px;fill:#000000;fill-opacity:1;stroke:none;font-family:Sans"
     xml:space="preserve"
     inkscape:export-filename="/Users/fogus/src/spiel/pyramidenspiel/pungo/graphics/pungo-setup.png"
     inkscape:export-xdpi="90"
     inkscape:export-ydpi="90"><tspan
       y="182.7132"
       x="242.03391"
       id="tspan3990"
       sodipodi:role="line">Player 2's</tspan><tspan
       id="tspan3992"
       y="202.7132"
       x="242.03391"
       sodipodi:role="line">home row</tspan></text>
  <g
     id="layer3"
     inkscape:label="Chessboard"
     style="display:inline"
     transform="matrix(1.4061345,0,0,1.2338395,-1007.491,211.69652)" />
  <g
     id="use4605"
     transform="matrix(0.55271191,0,0,0.4476861,-53.69274,-69.489489)"
     style="opacity:0.87000002;fill:#a60000;fill-opacity:1;stroke:#9a0000;stroke-width:3;stroke-linecap:round;stroke-linejoin:round;stroke-miterlimit:4;stroke-opacity:1;stroke-dasharray:none"
     inkscape:export-filename="/Users/fogus/src/spiel/pyramidenspiel/pungo/graphics/pungo-setup.png"
     inkscape:export-xdpi="90"
     inkscape:export-ydpi="90">
    <path
       inkscape:connector-curvature="0"
       id="path13414"
       d="m 146.37356,495.24988 23.57952,-87.99997 23.57952,87.99997 -47.15904,0 z"
       style="fill-opacity:1" />
    <g
       style="fill-opacity:1"
       id="g13416"
       transform="translate(514.35419,-1019.4414)">
      <path
         sodipodi:nodetypes="csssc"
         id="path13418"
         d="m -341.03316,1504.9904 c 0,3.1469 -1.50884,3.701 -3.36795,3.701 -1.85912,0 -3.36796,-0.5541 -3.36796,-3.701 0,-3.1469 1.50884,-7.7009 3.36796,-7.7009 1.85911,0 3.36795,4.554 3.36795,7.7009 z"
         style="fill:#000000;fill-opacity:1;fill-rule:nonzero;stroke:none"
         inkscape:connector-curvature="0" />
    </g>
  </g>
  <g
     id="use4603"
     transform="matrix(0.55271191,0,0,0.4476861,-82.647089,-73.792321)"
     style="opacity:0.87000002;fill:#a60000;fill-opacity:1;stroke:#9a0000;stroke-width:3;stroke-linecap:round;stroke-linejoin:round;stroke-miterlimit:4;stroke-opacity:1;stroke-dasharray:none"
     inkscape:export-filename="/Users/fogus/src/spiel/pyramidenspiel/pungo/graphics/pungo-setup.png"
     inkscape:export-xdpi="90"
     inkscape:export-ydpi="90">
    <path
       inkscape:connector-curvature="0"
       style="fill-opacity:1"
       d="m 190.78953,498.94786 32.62281,-121.74999 32.62281,121.74999 -65.24562,0 z"
       id="path12974" />
    <path
       sodipodi:nodetypes="csssc"
       id="path12976"
       d="m 226.78029,489.24695 c 0,3.14691 -1.50884,3.70092 -3.36795,3.70092 -1.85912,0 -3.36796,-0.55401 -3.36796,-3.70092 0,-3.1469 1.50884,-7.70091 3.36796,-7.70091 1.85911,0 3.36795,4.55401 3.36795,7.70091 z"
       style="fill:#000000;fill-opacity:1;fill-rule:nonzero;stroke:none"
       inkscape:connector-curvature="0" />
    <path
       sodipodi:nodetypes="csssc"
       id="path12978"
       d="m 212.78029,489.24695 c 0,3.14691 -1.50884,3.70092 -3.36795,3.70092 -1.85912,0 -3.36796,-0.55401 -3.36796,-3.70092 0,-3.1469 1.50884,-7.70091 3.36796,-7.70091 1.85911,0 3.36795,4.55401 3.36795,7.70091 z"
       style="fill:#000000;fill-opacity:1;fill-rule:nonzero;stroke:none"
       inkscape:connector-curvature="0" />
  </g>
  <g
     transform="matrix(0.55271191,0,0,0.4476861,98.805852,-79.933816)"
     style="opacity:0.87000002;fill:#a60000;fill-opacity:1;stroke:#9a0000;stroke-width:3;stroke-linecap:round;stroke-linejoin:round;stroke-miterlimit:4;stroke-opacity:1;stroke-dasharray:none"
     id="g14132"
     inkscape:export-filename="/Users/fogus/src/spiel/pyramidenspiel/pungo/graphics/pungo-setup.png"
     inkscape:export-xdpi="90"
     inkscape:export-ydpi="90">
    <path
       style="fill-opacity:1"
       d="m 52.009235,512.54534 41.666104,-155.50001 41.666101,155.50001 -83.332205,0 z"
       id="path14134"
       inkscape:connector-curvature="0" />
    <path
       inkscape:connector-curvature="0"
       style="fill:#000000;fill-opacity:1;fill-rule:nonzero;stroke:none"
       d="m 97.04329,502.84443 c 0,3.14691 -1.50884,3.70092 -3.36795,3.70092 -1.85912,0 -3.36796,-0.55401 -3.36796,-3.70092 0,-3.1469 1.50884,-7.70091 3.36796,-7.70091 1.85911,0 3.36795,4.55401 3.36795,7.70091 z"
       id="path14136"
       sodipodi:nodetypes="csssc" />
    <path
       inkscape:connector-curvature="0"
       style="fill:#000000;fill-opacity:1;fill-rule:nonzero;stroke:none"
       d="m 69.04329,502.84443 c 0,3.14691 -1.50884,3.70092 -3.36795,3.70092 -1.85912,0 -3.36796,-0.55401 -3.36796,-3.70092 0,-3.1469 1.50884,-7.70091 3.36796,-7.70091 1.85911,0 3.36795,4.55401 3.36795,7.70091 z"
       id="path14138"
       sodipodi:nodetypes="csssc" />
    <path
       inkscape:connector-curvature="0"
       style="fill:#000000;fill-opacity:1;fill-rule:nonzero;stroke:none"
       d="m 83.04329,502.84443 c 0,3.14691 -1.50884,3.70092 -3.36795,3.70092 -1.85912,0 -3.36796,-0.55401 -3.36796,-3.70092 0,-3.1469 1.50884,-7.70091 3.36796,-7.70091 1.85911,0 3.36795,4.55401 3.36795,7.70091 z"
       id="path14140"
       sodipodi:nodetypes="csssc" />
  </g>
  <g
     style="opacity:0.87000002;fill:#a60000;fill-opacity:1;stroke:#9a0000;stroke-width:3;stroke-linecap:round;stroke-linejoin:round;stroke-miterlimit:4;stroke-opacity:1;stroke-dasharray:none"
     transform="matrix(0.55271191,0,0,0.4476861,56.646241,-109.30305)"
     id="g14150"
     inkscape:export-filename="/Users/fogus/src/spiel/pyramidenspiel/pungo/graphics/pungo-setup.png"
     inkscape:export-xdpi="90"
     inkscape:export-ydpi="90">
    <path
       style="fill-opacity:1"
       d="m 146.37356,495.24988 23.57952,-87.99997 23.57952,87.99997 -47.15904,0 z"
       id="path14152"
       inkscape:connector-curvature="0" />
    <g
       transform="translate(514.35419,-1019.4414)"
       id="g14154"
       style="fill-opacity:1">
      <path
         inkscape:connector-curvature="0"
         style="fill:#000000;fill-opacity:1;fill-rule:nonzero;stroke:none"
         d="m -341.03316,1504.9904 c 0,3.1469 -1.50884,3.701 -3.36795,3.701 -1.85912,0 -3.36796,-0.5541 -3.36796,-3.701 0,-3.1469 1.50884,-7.7009 3.36796,-7.7009 1.85911,0 3.36795,4.554 3.36795,7.7009 z"
         id="path14156"
         sodipodi:nodetypes="csssc" />
    </g>
  </g>
  <g
     id="use4601"
     style="opacity:0.87000002;fill:#a60000;fill-opacity:1;stroke:#9a0000;stroke-width:3;stroke-linecap:round;stroke-linejoin:round;stroke-miterlimit:4;stroke-opacity:1;stroke-dasharray:none"
     transform="matrix(0.55271191,0,0,0.4476861,-10.939909,-81.467758)"
     inkscape:export-filename="/Users/fogus/src/spiel/pyramidenspiel/pungo/graphics/pungo-setup.png"
     inkscape:export-xdpi="90"
     inkscape:export-ydpi="90">
    <path
       inkscape:connector-curvature="0"
       id="path12424"
       d="m 52.009235,512.54534 41.666104,-155.50001 41.666101,155.50001 -83.332205,0 z"
       style="fill-opacity:1" />
    <path
       sodipodi:nodetypes="csssc"
       id="path12426"
       d="m 97.04329,502.84443 c 0,3.14691 -1.50884,3.70092 -3.36795,3.70092 -1.85912,0 -3.36796,-0.55401 -3.36796,-3.70092 0,-3.1469 1.50884,-7.70091 3.36796,-7.70091 1.85911,0 3.36795,4.55401 3.36795,7.70091 z"
       style="fill:#000000;fill-opacity:1;fill-rule:nonzero;stroke:none"
       inkscape:connector-curvature="0" />
    <path
       sodipodi:nodetypes="csssc"
       id="path12428"
       d="m 69.04329,502.84443 c 0,3.14691 -1.50884,3.70092 -3.36795,3.70092 -1.85912,0 -3.36796,-0.55401 -3.36796,-3.70092 0,-3.1469 1.50884,-7.70091 3.36796,-7.70091 1.85911,0 3.36795,4.55401 3.36795,7.70091 z"
       style="fill:#000000;fill-opacity:1;fill-rule:nonzero;stroke:none"
       inkscape:connector-curvature="0" />
    <path
       sodipodi:nodetypes="csssc"
       id="path12430"
       d="m 83.04329,502.84443 c 0,3.14691 -1.50884,3.70092 -3.36795,3.70092 -1.85912,0 -3.36796,-0.55401 -3.36796,-3.70092 0,-3.1469 1.50884,-7.70091 3.36796,-7.70091 1.85911,0 3.36795,4.55401 3.36795,7.70091 z"
       style="fill:#000000;fill-opacity:1;fill-rule:nonzero;stroke:none"
       inkscape:connector-curvature="0" />
  </g>
  <g
     style="opacity:0.87000002;fill:#a60000;fill-opacity:1;stroke:#9a0000;stroke-width:3;stroke-linecap:round;stroke-linejoin:round;stroke-miterlimit:4;stroke-opacity:1;stroke-dasharray:none"
     transform="matrix(0.55271191,0,0,0.4476861,-28.647089,-73.792321)"
     id="g14168"
     inkscape:export-filename="/Users/fogus/src/spiel/pyramidenspiel/pungo/graphics/pungo-setup.png"
     inkscape:export-xdpi="90"
     inkscape:export-ydpi="90">
    <path
       id="path14170"
       d="m 190.78953,498.94786 32.62281,-121.74999 32.62281,121.74999 -65.24562,0 z"
       style="fill-opacity:1"
       inkscape:connector-curvature="0" />
    <path
       inkscape:connector-curvature="0"
       style="fill:#000000;fill-opacity:1;fill-rule:nonzero;stroke:none"
       d="m 226.78029,489.24695 c 0,3.14691 -1.50884,3.70092 -3.36795,3.70092 -1.85912,0 -3.36796,-0.55401 -3.36796,-3.70092 0,-3.1469 1.50884,-7.70091 3.36796,-7.70091 1.85911,0 3.36795,4.55401 3.36795,7.70091 z"
       id="path14172"
       sodipodi:nodetypes="csssc" />
    <path
       inkscape:connector-curvature="0"
       style="fill:#000000;fill-opacity:1;fill-rule:nonzero;stroke:none"
       d="m 212.78029,489.24695 c 0,3.14691 -1.50884,3.70092 -3.36795,3.70092 -1.85912,0 -3.36796,-0.55401 -3.36796,-3.70092 0,-3.1469 1.50884,-7.70091 3.36796,-7.70091 1.85911,0 3.36795,4.55401 3.36795,7.70091 z"
       id="path14174"
       sodipodi:nodetypes="csssc" />
  </g>
  <g
     transform="matrix(0.55271191,0,0,0.4476861,43.653311,-81.467758)"
     style="opacity:0.87000002;fill:#a60000;fill-opacity:1;stroke:#9a0000;stroke-width:3;stroke-linecap:round;stroke-linejoin:round;stroke-miterlimit:4;stroke-opacity:1;stroke-dasharray:none"
     id="g14176"
     inkscape:export-filename="/Users/fogus/src/spiel/pyramidenspiel/pungo/graphics/pungo-setup.png"
     inkscape:export-xdpi="90"
     inkscape:export-ydpi="90">
    <path
       style="fill-opacity:1"
       d="m 52.009235,512.54534 41.666104,-155.50001 41.666101,155.50001 -83.332205,0 z"
       id="path14178"
       inkscape:connector-curvature="0" />
    <path
       inkscape:connector-curvature="0"
       style="fill:#000000;fill-opacity:1;fill-rule:nonzero;stroke:none"
       d="m 97.04329,502.84443 c 0,3.14691 -1.50884,3.70092 -3.36795,3.70092 -1.85912,0 -3.36796,-0.55401 -3.36796,-3.70092 0,-3.1469 1.50884,-7.70091 3.36796,-7.70091 1.85911,0 3.36795,4.55401 3.36795,7.70091 z"
       id="path14180"
       sodipodi:nodetypes="csssc" />
    <path
       inkscape:connector-curvature="0"
       style="fill:#000000;fill-opacity:1;fill-rule:nonzero;stroke:none"
       d="m 69.04329,502.84443 c 0,3.14691 -1.50884,3.70092 -3.36795,3.70092 -1.85912,0 -3.36796,-0.55401 -3.36796,-3.70092 0,-3.1469 1.50884,-7.70091 3.36796,-7.70091 1.85911,0 3.36795,4.55401 3.36795,7.70091 z"
       id="path14182"
       sodipodi:nodetypes="csssc" />
    <path
       inkscape:connector-curvature="0"
       style="fill:#000000;fill-opacity:1;fill-rule:nonzero;stroke:none"
       d="m 83.04329,502.84443 c 0,3.14691 -1.50884,3.70092 -3.36795,3.70092 -1.85912,0 -3.36796,-0.55401 -3.36796,-3.70092 0,-3.1469 1.50884,-7.70091 3.36796,-7.70091 1.85911,0 3.36795,4.55401 3.36795,7.70091 z"
       id="path14184"
       sodipodi:nodetypes="csssc" />
  </g>
  <g
     id="g14186"
     transform="matrix(0.55271191,0,0,0.4476861,111.22251,-71.336949)"
     style="opacity:0.87000002;fill:#a60000;fill-opacity:1;stroke:#9a0000;stroke-width:3;stroke-linecap:round;stroke-linejoin:round;stroke-miterlimit:4;stroke-opacity:1;stroke-dasharray:none"
     inkscape:export-filename="/Users/fogus/src/spiel/pyramidenspiel/pungo/graphics/pungo-setup.png"
     inkscape:export-xdpi="90"
     inkscape:export-ydpi="90">
    <path
       inkscape:connector-curvature="0"
       id="path14188"
       d="m 146.37356,495.24988 23.57952,-87.99997 23.57952,87.99997 -47.15904,0 z"
       style="fill-opacity:1" />
    <g
       style="fill-opacity:1"
       id="g14190"
       transform="translate(514.35419,-1019.4414)">
      <path
         sodipodi:nodetypes="csssc"
         id="path14192"
         d="m -341.03316,1504.9904 c 0,3.1469 -1.50884,3.701 -3.36795,3.701 -1.85912,0 -3.36796,-0.5541 -3.36796,-3.701 0,-3.1469 1.50884,-7.7009 3.36796,-7.7009 1.85911,0 3.36795,4.554 3.36795,7.7009 z"
         style="fill:#000000;fill-opacity:1;fill-rule:nonzero;stroke:none"
         inkscape:connector-curvature="0" />
    </g>
  </g>
  <g
     style="opacity:0.87000002;fill:#a60000;fill-opacity:1;stroke:#9a0000;stroke-width:3;stroke-linecap:round;stroke-linejoin:round;stroke-miterlimit:4;stroke-opacity:1;stroke-dasharray:none"
     transform="matrix(0.55271191,0,0,0.4476861,81.378333,-75.199098)"
     id="g14142"
     inkscape:export-filename="/Users/fogus/src/spiel/pyramidenspiel/pungo/graphics/pungo-setup.png"
     inkscape:export-xdpi="90"
     inkscape:export-ydpi="90">
    <path
       id="path14144"
       d="m 190.78953,498.94786 32.62281,-121.74999 32.62281,121.74999 -65.24562,0 z"
       style="fill-opacity:1"
       inkscape:connector-curvature="0" />
    <path
       inkscape:connector-curvature="0"
       style="fill:#000000;fill-opacity:1;fill-rule:nonzero;stroke:none"
       d="m 226.78029,489.24695 c 0,3.14691 -1.50884,3.70092 -3.36795,3.70092 -1.85912,0 -3.36796,-0.55401 -3.36796,-3.70092 0,-3.1469 1.50884,-7.70091 3.36796,-7.70091 1.85911,0 3.36795,4.55401 3.36795,7.70091 z"
       id="path14146"
       sodipodi:nodetypes="csssc" />
    <path
       inkscape:connector-curvature="0"
       style="fill:#000000;fill-opacity:1;fill-rule:nonzero;stroke:none"
       d="m 212.78029,489.24695 c 0,3.14691 -1.50884,3.70092 -3.36795,3.70092 -1.85912,0 -3.36796,-0.55401 -3.36796,-3.70092 0,-3.1469 1.50884,-7.70091 3.36796,-7.70091 1.85911,0 3.36795,4.55401 3.36795,7.70091 z"
       id="path14148"
       sodipodi:nodetypes="csssc" />
  </g>
</svg>
