<?xml version="1.0" encoding="UTF-8" standalone="no"?>
<!-- Created with Inkscape (http://www.inkscape.org/) -->

<svg
   xmlns:dc="http://purl.org/dc/elements/1.1/"
   xmlns:cc="http://creativecommons.org/ns#"
   xmlns:rdf="http://www.w3.org/1999/02/22-rdf-syntax-ns#"
   xmlns:svg="http://www.w3.org/2000/svg"
   xmlns="http://www.w3.org/2000/svg"
   xmlns:sodipodi="http://sodipodi.sourceforge.net/DTD/sodipodi-0.dtd"
   xmlns:inkscape="http://www.inkscape.org/namespaces/inkscape"
   width="700"
   height="455"
   id="svg2812"
   sodipodi:version="0.32"
   inkscape:version="0.48.2 r9819"
   sodipodi:docname="pungo-setup.svg"
   version="1.0">
  <defs
     id="defs2814">
    <inkscape:perspective
       id="perspective2668"
       inkscape:persp3d-origin="382.5 : 330 : 1"
       inkscape:vp_z="765 : 495 : 1"
       inkscape:vp_y="0 : 1000 : 0"
       inkscape:vp_x="0 : 495 : 1"
       sodipodi:type="inkscape:persp3d" />
    <linearGradient
       id="linearGradient8662">
      <stop
         id="stop8664"
         offset="0"
         style="stop-color:#cecece;stop-opacity:1;" />
      <stop
         id="stop8666"
         offset="1"
         style="stop-color:#ffffff;stop-opacity:1;" />
    </linearGradient>
    <linearGradient
       id="linearGradient8706">
      <stop
         id="stop8708"
         offset="0"
         style="stop-color:#000000;stop-opacity:1;" />
      <stop
         id="stop8710"
         offset="1"
         style="stop-color:#000000;stop-opacity:0.73451328;" />
    </linearGradient>
  </defs>
  <sodipodi:namedview
     id="base"
     pagecolor="#ffffff"
     bordercolor="#666666"
     borderopacity="1.0"
     gridtolerance="10000"
     guidetolerance="10"
     objecttolerance="10"
     inkscape:pageopacity="0.0"
     inkscape:pageshadow="2"
     inkscape:zoom="0.98994949"
     inkscape:cx="179.73894"
     inkscape:cy="155.6955"
     inkscape:document-units="px"
     inkscape:current-layer="layer2"
     showgrid="true"
     inkscape:grid-points="true"
     inkscape:window-width="977"
     inkscape:window-height="724"
     inkscape:window-x="0"
     inkscape:window-y="31"
     width="700px"
     height="455px"
     inkscape:window-maximized="0">
    <inkscape:grid
       id="GridFromPre046Settings"
       type="xygrid"
       originx="0px"
       originy="0px"
       spacingx="8.66px"
       spacingy="5px"
       color="#0000ff"
       empcolor="#0000ff"
       opacity="0.2"
       empopacity="0.4"
       empspacing="5" />
  </sodipodi:namedview>
  <metadata
     id="metadata2817">
    <rdf:RDF>
      <cc:Work
         rdf:about="">
        <dc:format>image/svg+xml</dc:format>
        <dc:type
           rdf:resource="http://purl.org/dc/dcmitype/StillImage" />
        <dc:title></dc:title>
      </cc:Work>
    </rdf:RDF>
  </metadata>
  <g
     inkscape:groupmode="layer"
     id="layer2"
     inkscape:label="Color"
     style="opacity:1;display:inline"
     transform="translate(0.5,-1.862185)">
    <g
       id="g15021"
       transform="matrix(1.0999991,-0.00137304,0.00156028,1.249999,-49.69298,-82.496336)">
      <path
         inkscape:connector-curvature="0"
         style="fill:none;stroke:#000000;stroke-width:5;stroke-linecap:butt;stroke-linejoin:miter;stroke-miterlimit:4;stroke-opacity:1;stroke-dasharray:none;display:inline"
         d="m 190.02,256.86219 43.3,-25 43.3,25 -43.3,25 -43.3,-25 z"
         id="path3912" />
      <path
         inkscape:connector-curvature="0"
         style="fill:none;stroke:#000000;stroke-width:5;stroke-linecap:butt;stroke-linejoin:miter;stroke-miterlimit:4;stroke-opacity:1;stroke-dasharray:none;display:inline"
         d="m 233.32,231.86219 43.3,-25 43.3,25 -43.3,25 -43.3,-25 z"
         id="path3914" />
      <path
         inkscape:connector-curvature="0"
         style="fill:none;stroke:#000000;stroke-width:5;stroke-linecap:butt;stroke-linejoin:miter;stroke-miterlimit:4;stroke-opacity:1;stroke-dasharray:none;display:inline"
         d="m 276.62,206.86219 43.3,-25 43.3,25 -43.3,25 -43.3,-25 z"
         id="path3916" />
      <path
         inkscape:connector-curvature="0"
         style="fill:none;stroke:#000000;stroke-width:5;stroke-linecap:butt;stroke-linejoin:miter;stroke-miterlimit:4;stroke-opacity:1;stroke-dasharray:none;display:inline"
         d="m 319.92,181.86219 43.3,-25 43.3,25 -43.3,25 -43.3,-25 z"
         id="path3918" />
      <path
         id="path3928"
         d="m 233.32,281.86219 43.3,-25 43.3,25 -43.3,24.99999 -43.3,-25 z"
         style="fill:none;stroke:#000000;stroke-width:5;stroke-linecap:butt;stroke-linejoin:miter;stroke-miterlimit:4;stroke-opacity:1;stroke-dasharray:none;display:inline"
         inkscape:connector-curvature="0" />
      <path
         id="path3930"
         d="m 276.62,256.86219 43.3,-25 43.3,25 -43.3,25 -43.3,-25 z"
         style="fill:none;stroke:#000000;stroke-width:5;stroke-linecap:butt;stroke-linejoin:miter;stroke-miterlimit:4;stroke-opacity:1;stroke-dasharray:none;display:inline"
         inkscape:connector-curvature="0" />
      <path
         id="path3932"
         d="m 319.92,231.86219 43.3,-25 43.3,25 -43.3,25 -43.3,-25 z"
         style="fill:none;stroke:#000000;stroke-width:5;stroke-linecap:butt;stroke-linejoin:miter;stroke-miterlimit:4;stroke-opacity:1;stroke-dasharray:none;display:inline"
         inkscape:connector-curvature="0" />
      <path
         id="path3934"
         d="m 363.22,206.86219 43.3,-25 43.3,25 -43.3,25 -43.3,-25 z"
         style="fill:none;stroke:#000000;stroke-width:5;stroke-linecap:butt;stroke-linejoin:miter;stroke-miterlimit:4;stroke-opacity:1;stroke-dasharray:none;display:inline"
         inkscape:connector-curvature="0" />
      <path
         inkscape:connector-curvature="0"
         style="fill:none;stroke:#000000;stroke-width:5;stroke-linecap:butt;stroke-linejoin:miter;stroke-miterlimit:4;stroke-opacity:1;stroke-dasharray:none;display:inline"
         d="m 276.62,306.86219 43.3,-25 43.3,25 -43.3,25 -43.3,-25 z"
         id="path3944" />
      <path
         inkscape:connector-curvature="0"
         style="fill:none;stroke:#000000;stroke-width:5;stroke-linecap:butt;stroke-linejoin:miter;stroke-miterlimit:4;stroke-opacity:1;stroke-dasharray:none;display:inline"
         d="m 319.92,281.86219 43.3,-25 43.3,25 -43.3,24.99999 -43.3,-25 z"
         id="path3946" />
      <path
         inkscape:connector-curvature="0"
         style="fill:none;stroke:#000000;stroke-width:5;stroke-linecap:butt;stroke-linejoin:miter;stroke-miterlimit:4;stroke-opacity:1;stroke-dasharray:none;display:inline"
         d="m 363.22,256.86219 43.3,-25 43.3,25 -43.3,25 -43.3,-25 z"
         id="path3948" />
      <path
         inkscape:connector-curvature="0"
         style="fill:none;stroke:#000000;stroke-width:5;stroke-linecap:butt;stroke-linejoin:miter;stroke-miterlimit:4;stroke-opacity:1;stroke-dasharray:none;display:inline"
         d="m 406.52,231.86219 43.3,-25 43.3,25 -43.3,25 -43.3,-25 z"
         id="path3950" />
    </g>
    <g
       id="layer3"
       inkscape:label="Chessboard"
       style="display:inline"
       transform="translate(-903.58661,-270.76663)" />
    <g
       id="g5123"
       transform="translate(19.664427,-327.65398)"
       style="opacity:0.87000002;fill:#14148f;fill-opacity:1;fill-rule:nonzero;stroke:#0f0fb1;stroke-width:3;stroke-linejoin:round;stroke-miterlimit:4;stroke-opacity:1;stroke-dasharray:none;display:inline">
      <g
         transform="matrix(0.62785179,0.25881905,-0.16823238,0.96592583,226.3153,331.9993)"
         style="fill:#14148f;fill-opacity:1;fill-rule:nonzero;stroke:#0f0fb1;stroke-width:3.72104192;stroke-linejoin:round;stroke-miterlimit:4;stroke-opacity:1;stroke-dasharray:none"
         id="use5125">
        <path
           style="fill-opacity:1"
           d="m 52.009235,512.54534 41.666104,-155.50001 41.666101,155.50001 -83.332205,0 z"
           id="path13859"
           inkscape:connector-curvature="0" />
        <path
           inkscape:connector-curvature="0"
           style="fill:#000000;fill-opacity:1;fill-rule:nonzero;stroke:none"
           d="m 97.04329,502.84443 c 0,3.14691 -1.50884,3.70092 -3.36795,3.70092 -1.85912,0 -3.36796,-0.55401 -3.36796,-3.70092 0,-3.1469 1.50884,-7.70091 3.36796,-7.70091 1.85911,0 3.36795,4.55401 3.36795,7.70091 z"
           id="path13861"
           sodipodi:nodetypes="csssc" />
        <path
           inkscape:connector-curvature="0"
           style="fill:#000000;fill-opacity:1;fill-rule:nonzero;stroke:none"
           d="m 69.04329,502.84443 c 0,3.14691 -1.50884,3.70092 -3.36795,3.70092 -1.85912,0 -3.36796,-0.55401 -3.36796,-3.70092 0,-3.1469 1.50884,-7.70091 3.36796,-7.70091 1.85911,0 3.36795,4.55401 3.36795,7.70091 z"
           id="path13863"
           sodipodi:nodetypes="csssc" />
        <path
           inkscape:connector-curvature="0"
           style="fill:#000000;fill-opacity:1;fill-rule:nonzero;stroke:none"
           d="m 83.04329,502.84443 c 0,3.14691 -1.50884,3.70092 -3.36795,3.70092 -1.85912,0 -3.36796,-0.55401 -3.36796,-3.70092 0,-3.1469 1.50884,-7.70091 3.36796,-7.70091 1.85911,0 3.36795,4.55401 3.36795,7.70091 z"
           id="path13865"
           sodipodi:nodetypes="csssc" />
      </g>
      <g
         transform="matrix(0.62785179,-0.25881904,0.16823238,0.96592583,106.18217,380.48921)"
         style="fill:#14148f;fill-opacity:1;fill-rule:nonzero;stroke:#0f0fb1;stroke-width:3.72104192;stroke-linejoin:round;stroke-miterlimit:4;stroke-opacity:1;stroke-dasharray:none"
         id="use5127">
        <path
           style="fill-opacity:1"
           d="m 52.009235,512.54534 41.666104,-155.50001 41.666101,155.50001 -83.332205,0 z"
           id="path13869"
           inkscape:connector-curvature="0" />
        <path
           inkscape:connector-curvature="0"
           style="fill:#000000;fill-opacity:1;fill-rule:nonzero;stroke:none"
           d="m 97.04329,502.84443 c 0,3.14691 -1.50884,3.70092 -3.36795,3.70092 -1.85912,0 -3.36796,-0.55401 -3.36796,-3.70092 0,-3.1469 1.50884,-7.70091 3.36796,-7.70091 1.85911,0 3.36795,4.55401 3.36795,7.70091 z"
           id="path13871"
           sodipodi:nodetypes="csssc" />
        <path
           inkscape:connector-curvature="0"
           style="fill:#000000;fill-opacity:1;fill-rule:nonzero;stroke:none"
           d="m 69.04329,502.84443 c 0,3.14691 -1.50884,3.70092 -3.36795,3.70092 -1.85912,0 -3.36796,-0.55401 -3.36796,-3.70092 0,-3.1469 1.50884,-7.70091 3.36796,-7.70091 1.85911,0 3.36795,4.55401 3.36795,7.70091 z"
           id="path13873"
           sodipodi:nodetypes="csssc" />
        <path
           inkscape:connector-curvature="0"
           style="fill:#000000;fill-opacity:1;fill-rule:nonzero;stroke:none"
           d="m 83.04329,502.84443 c 0,3.14691 -1.50884,3.70092 -3.36795,3.70092 -1.85912,0 -3.36796,-0.55401 -3.36796,-3.70092 0,-3.1469 1.50884,-7.70091 3.36796,-7.70091 1.85911,0 3.36795,4.55401 3.36795,7.70091 z"
           id="path13875"
           sodipodi:nodetypes="csssc" />
      </g>
    </g>
    <g
       id="g5129"
       transform="translate(300.11199,-229.53003)"
       style="opacity:0.87000002;fill:#14148f;fill-opacity:1;fill-rule:nonzero;stroke:#0f0fb1;stroke-width:3;stroke-linejoin:round;stroke-miterlimit:4;stroke-opacity:1;stroke-dasharray:none;display:inline">
      <g
         style="fill:#14148f;fill-opacity:1;fill-rule:nonzero;stroke:#0f0fb1;stroke-width:3.72104192;stroke-linejoin:round;stroke-miterlimit:4;stroke-opacity:1;stroke-dasharray:none"
         transform="matrix(0.62785179,0.25881905,-0.16823238,0.96592583,-17.333903,282.0995)"
         id="use5131">
        <path
           id="path14295"
           d="m 190.78953,498.94786 32.62281,-121.74999 32.62281,121.74999 -65.24562,0 z"
           style="fill-opacity:1"
           inkscape:connector-curvature="0" />
        <path
           inkscape:connector-curvature="0"
           style="fill:#000000;fill-opacity:1;fill-rule:nonzero;stroke:none"
           d="m 226.78029,489.24695 c 0,3.14691 -1.50884,3.70092 -3.36795,3.70092 -1.85912,0 -3.36796,-0.55401 -3.36796,-3.70092 0,-3.1469 1.50884,-7.70091 3.36796,-7.70091 1.85911,0 3.36795,4.55401 3.36795,7.70091 z"
           id="path14297"
           sodipodi:nodetypes="csssc" />
        <path
           inkscape:connector-curvature="0"
           style="fill:#000000;fill-opacity:1;fill-rule:nonzero;stroke:none"
           d="m 212.78029,489.24695 c 0,3.14691 -1.50884,3.70092 -3.36795,3.70092 -1.85912,0 -3.36796,-0.55401 -3.36796,-3.70092 0,-3.1469 1.50884,-7.70091 3.36796,-7.70091 1.85911,0 3.36795,4.55401 3.36795,7.70091 z"
           id="path14299"
           sodipodi:nodetypes="csssc" />
      </g>
      <g
         style="fill:#14148f;fill-opacity:1;fill-rule:nonzero;stroke:#0f0fb1;stroke-width:3.72104192;stroke-linejoin:round;stroke-miterlimit:4;stroke-opacity:1;stroke-dasharray:none"
         transform="matrix(0.62785179,-0.25881904,0.16823238,0.96592583,-144.24766,397.74623)"
         id="use5133">
        <path
           id="path14303"
           d="m 190.78953,498.94786 32.62281,-121.74999 32.62281,121.74999 -65.24562,0 z"
           style="fill-opacity:1"
           inkscape:connector-curvature="0" />
        <path
           inkscape:connector-curvature="0"
           style="fill:#000000;fill-opacity:1;fill-rule:nonzero;stroke:none"
           d="m 226.78029,489.24695 c 0,3.14691 -1.50884,3.70092 -3.36795,3.70092 -1.85912,0 -3.36796,-0.55401 -3.36796,-3.70092 0,-3.1469 1.50884,-7.70091 3.36796,-7.70091 1.85911,0 3.36795,4.55401 3.36795,7.70091 z"
           id="path14305"
           sodipodi:nodetypes="csssc" />
        <path
           inkscape:connector-curvature="0"
           style="fill:#000000;fill-opacity:1;fill-rule:nonzero;stroke:none"
           d="m 212.78029,489.24695 c 0,3.14691 -1.50884,3.70092 -3.36795,3.70092 -1.85912,0 -3.36796,-0.55401 -3.36796,-3.70092 0,-3.1469 1.50884,-7.70091 3.36796,-7.70091 1.85911,0 3.36795,4.55401 3.36795,7.70091 z"
           id="path14307"
           sodipodi:nodetypes="csssc" />
      </g>
    </g>
    <g
       id="g5135"
       transform="translate(223.66649,-207.60972)"
       style="opacity:0.87000002;fill:#14148f;fill-opacity:1;fill-rule:nonzero;stroke:#0f0fb1;stroke-width:3;stroke-linejoin:round;stroke-miterlimit:4;stroke-opacity:1;stroke-dasharray:none;display:inline">
      <g
         style="fill:#14148f;fill-opacity:1;fill-rule:nonzero;stroke:#0f0fb1;stroke-width:3.72104192;stroke-linejoin:round;stroke-miterlimit:4;stroke-opacity:1;stroke-dasharray:none"
         transform="matrix(0.62785179,-0.25881904,0.16823238,0.96592583,-39.293335,311.18718)"
         id="use5137">
        <path
           style="fill-opacity:1"
           d="m 146.37356,495.24988 23.57952,-87.99997 23.57952,87.99997 -47.15904,0 z"
           id="path14727"
           inkscape:connector-curvature="0" />
        <g
           transform="translate(514.35419,-1019.4414)"
           id="g14729"
           style="fill-opacity:1">
          <path
             inkscape:connector-curvature="0"
             style="fill:#000000;fill-opacity:1;fill-rule:nonzero;stroke:none"
             d="m -341.03316,1504.9904 c 0,3.1469 -1.50884,3.701 -3.36795,3.701 -1.85912,0 -3.36796,-0.5541 -3.36796,-3.701 0,-3.1469 1.50884,-7.7009 3.36796,-7.7009 1.85911,0 3.36795,4.554 3.36795,7.7009 z"
             id="path14731"
             sodipodi:nodetypes="csssc" />
        </g>
      </g>
      <g
         style="fill:#14148f;fill-opacity:1;fill-rule:nonzero;stroke:#0f0fb1;stroke-width:3.72104192;stroke-linejoin:round;stroke-miterlimit:4;stroke-opacity:1;stroke-dasharray:none"
         transform="matrix(0.62785179,0.25881905,-0.16823238,0.96592583,97.731872,223.213)"
         id="use5139">
        <path
           style="fill-opacity:1"
           d="m 146.37356,495.24988 23.57952,-87.99997 23.57952,87.99997 -47.15904,0 z"
           id="path14735"
           inkscape:connector-curvature="0" />
        <g
           transform="translate(514.35419,-1019.4414)"
           id="g14737"
           style="fill-opacity:1">
          <path
             inkscape:connector-curvature="0"
             style="fill:#000000;fill-opacity:1;fill-rule:nonzero;stroke:none"
             d="m -341.03316,1504.9904 c 0,3.1469 -1.50884,3.701 -3.36795,3.701 -1.85912,0 -3.36796,-0.5541 -3.36796,-3.701 0,-3.1469 1.50884,-7.7009 3.36796,-7.7009 1.85911,0 3.36795,4.554 3.36795,7.7009 z"
             id="path14739"
             sodipodi:nodetypes="csssc" />
        </g>
      </g>
    </g>
  </g>
</svg>
