<?xml version="1.0" encoding="utf-8"?>
<!-- Generator: Adobe Illustrator 13.0.0, SVG Export Plug-In . SVG Version: 6.00 Build 14948)  -->
<!DOCTYPE svg PUBLIC "-//W3C//DTD SVG 1.1//EN" "http://www.w3.org/Graphics/SVG/1.1/DTD/svg11.dtd">
<svg version="1.1" id="圖層_1" xmlns="http://www.w3.org/2000/svg" xmlns:xlink="http://www.w3.org/1999/xlink" x="0px" y="0px"
	 width="372px" height="587px" viewBox="0 0 372 587" enable-background="new 0 0 372 587" xml:space="preserve">
<g>
	<g>
		<path fill="#FFE000" d="M1.371,502.417v117.384h371.501V502.417H1.371z"/>
	</g>
</g>
<g>
	<g>
		<g>
			<g>
				<path fill="#9260C7" d="M-74.145,207.562l-14.131,7.398c5.381,5.389,18.164,12.786,36.332,22.208
					c-0.674,13.457,0.672,25.565,6.055,35.657c10.766-6.729,20.184-16.819,29.603-28.93c8.075,6.059,21.532,10.092,40.369,12.109
					c-2.019-8.745-4.708-16.82-8.746-26.234l-6.054-10.77c5.381-6.052,9.419-14.803,12.781-25.566l3.365-14.803
					c-6.056,0-13.457,2.018-23.55,5.381l-12.108,4.711c-2.693-6.728-8.076-14.133-15.478-22.201l-10.092-10.092
					c-5.382,6.058-8.745,15.474-12.109,27.582l-2.021,16.821C-55.982,200.833-63.385,203.526-74.145,207.562z"/>
			</g>
		</g>
		<g>
			<g>
				<path d="M-53.291,197.469c-6.055,1.347-13.457,3.364-22.875,8.075l-13.456,6.729c-1.345,0-2.019,1.347-2.019,2.018v0.67
					l1.345,2.023c6.728,6.729,18.167,14.127,34.987,22.201l-0.674,3.364c0,11.438,2.69,22.202,6.729,31.623l2.689,2.019h2.694
					c9.419-6.728,18.838-16.144,28.256-28.258c9.419,6.057,22.205,9.422,39.025,11.438l2.69-0.676l1.344-2.688v-0.677
					c-2.018-12.104-6.729-24.219-14.127-36.328c8.072-10.092,12.783-23.549,15.474-39.691v-0.678l-0.673-2.017l-2.69-1.347
					c-8.075,0-19.512,3.363-33.641,8.746l-16.147-20.854l-8.748-9.423l-2.691-0.668l-2.69,0.668
					C-45.217,163.158-50.598,177.955-53.291,197.469z M-49.928,204.197l3.363-3.364l2.021-14.127
					c2.691-10.092,6.055-18.844,9.419-24.895c10.092,8.744,17.494,18.166,22.202,28.258c0.673,2.018,2.02,2.018,4.037,2.018
					l10.092-4.041c7.4-2.688,14.129-4.705,20.186-5.375c-3.365,15.467-8.072,26.236-14.131,33.641L5.918,219l0.674,1.347
					l5.381,10.092c3.363,7.398,6.055,14.127,7.401,21.524c-16.819-2.688-27.585-6.051-34.313-11.433h-2.69
					c-0.673,0-1.347,0-1.347,0.67c-8.072,10.762-16.146,19.514-25.565,26.242c-2.69-7.397-4.711-16.149-4.711-25.572l0.673-4.704
					l0,0l-2.018-3.364c-14.129-6.728-24.896-13.455-32.297-18.167C-66.748,207.562-55.982,204.197-49.928,204.197z"/>
			</g>
		</g>
		<g>
			<g>
				<path d="M-3.5,219h-4.038c-6.728,4.711-12.783,6.728-19.511,7.405l-8.075-2.023c-2.019-0.67-3.364,0-4.038,1.348
					c0,2.017,0,3.363,1.348,4.041l10.092,2.01c8.072-0.67,16.146-3.364,23.549-9.415C-2.83,222.364-2.157,220.349-3.5,219z"/>
			</g>
		</g>
		<g>
			<g>
				<path d="M-38.488,208.231l-3.363-0.67c-0.674,1.347-1.348,2.022,0,2.693l4.037,7.398l6.055,11.438
					c0,1.348,1.346,2.018,2.689,1.348c1.348,0,1.348-1.348,1.348-2.693l-6.729-12.109L-38.488,208.231z"/>
			</g>
		</g>
		<g>
			<g>
				<path d="M-23.016,203.526l-2.69-1.346c-2.017,0-2.017,0.676-2.017,2.018l3.363,24.895l2.691,1.348
					c2.018,0,2.018-1.348,2.018-2.693L-23.016,203.526z"/>
			</g>
		</g>
		<g>
			<g>
				<path d="M-11.576,204.197c-0.673-0.671-1.347,0-2.018,1.347c-2.021,4.711-2.693,11.439-2.021,20.186
					c0,1.347,0.675,2.017,2.021,2.017c2.018,0,2.018-0.67,2.018-2.017c-0.673-8.746,0-14.804,2.018-18.838
					C-9.559,205.544-9.559,204.197-11.576,204.197z"/>
			</g>
		</g>
		<g>
			<g>
				<path d="M75.688,97.298c0-1.34-1.347-2.017-3.363-2.017c-1.348,0.677-2.69,1.346-2.017,3.364
					c2.69,17.496,4.706,40.369,4.706,67.957c0.674,55.167-7.4,110.337-22.874,163.485c0,1.354,0,3.365,2.019,3.365l3.361-2.012
					C72.998,277.616,81.07,223.114,81.07,166.603C80.398,138.337,79.052,115.465,75.688,97.298z"/>
			</g>
		</g>
		<g>
			<g>
				<path fill="#9260C7" d="M60.214,125.558L52.14,106.72c-6.055-11.438-12.11-13.455-18.167-8.074
					c-6.057,6.728-3.365,12.779,7.4,18.836L60.214,125.558z"/>
			</g>
		</g>
		<g>
			<g>
				<path d="M56.176,109.414c-4.036-9.422-8.747-14.133-14.129-16.149c-3.364-0.67-6.729,0.67-10.092,3.363
					c-3.364,3.364-4.711,7.399-4.039,11.434c1.348,7.404,12.783,14.133,31.625,20.185l2.689-0.67v-2.694L56.176,109.414z
					 M33.302,106.72l-0.673-1.347c0-1.347,1.344-2.687,2.689-4.711c2.017-1.34,3.363-2.017,6.055-2.017
					c4.712,1.347,9.418,8.744,14.13,22.201C42.047,116.142,34.646,111.425,33.302,106.72z"/>
			</g>
		</g>
		<g>
			<g>
				<path d="M79.052,144.394c2.019-0.67,2.019-2.017,0-3.363l-16.819-17.491c-1.348-1.347-2.691-1.347-4.037,0
					c-0.676,2.017-0.676,3.364,0,4.034l17.492,16.82C76.361,145.742,77.703,145.742,79.052,144.394z"/>
			</g>
		</g>
		<g>
			<g>
				<path fill="#9260C7" d="M91.836,133.632l16.818-11.439c10.092-8.745,11.438-14.803,4.037-20.184
					c-6.728-4.712-12.781-1.348-16.82,11.438C93.182,119.506,92.509,126.233,91.836,133.632z"/>
			</g>
		</g>
		<g>
			<g>
				<path d="M120.094,110.083c0-4.033-2.021-7.396-5.385-10.092c-4.707-2.694-8.071-3.364-12.109-1.348
					c-6.729,3.365-11.438,14.804-13.455,34.317l0.674,2.687h2.69C110.002,126.904,119.421,118.829,120.094,110.083z
					 M111.346,104.696l3.363,4.718v0.669c-0.67,4.705-7.397,10.764-19.512,18.161c2.021-14.797,6.056-22.872,10.093-24.89
					C106.638,102.009,109.328,103.354,111.346,104.696z"/>
			</g>
		</g>
		<g>
			<g>
				<path d="M93.854,134.974c1.345-1.34,0.671-2.688-0.673-4.035c-1.346-0.67-3.363-0.67-4.037,1.348l-13.457,19.508
					c-1.347,2.023-0.674,2.693,0.674,4.041c1.344,0.676,2.69,0.676,3.364-1.347L93.854,134.974z"/>
			</g>
		</g>
		<g>
			<g>
				<path fill="#9260C7" d="M105.29,169.967l16.82-10.769c10.092-8.746,11.438-15.475,4.038-20.186
					c-6.729-5.381-12.784-1.347-16.82,11.439C106.638,155.834,105.965,162.562,105.29,169.967z"/>
			</g>
		</g>
		<g>
			<g>
				<path d="M133.55,147.088c0-4.71-2.021-8.075-5.384-10.092c-4.035-3.364-8.072-3.364-12.11-2.022
					c-6.728,4.041-11.438,15.479-13.456,34.317l0.674,2.688l2.691,0.677C123.458,163.909,132.877,155.157,133.55,147.088z
					 M118.746,140.36l6.056,0.67l3.364,4.711v0.677c0,4.705-6.729,10.763-19.512,18.161
					C110.675,150.453,114.039,142.378,118.746,140.36z"/>
			</g>
		</g>
		<g>
			<g>
				<path d="M106.638,167.943c-0.673-0.671-2.021-0.671-3.364,0l-28.26,28.936c-1.343,1.342-1.343,2.688,0.674,4.034
					c0.674,0.67,2.691,0.67,3.364,0l27.586-29.604C108.655,170.637,108.655,169.29,106.638,167.943z"/>
			</g>
		</g>
		<g>
			<g>
				<path fill="#9260C7" d="M28.591,163.909l19.511,7.399c-2.017-7.399-4.707-13.458-8.072-18.837
					c-6.728-11.439-12.785-13.457-18.84-6.729C15.135,151.793,17.824,157.851,28.591,163.909z"/>
			</g>
		</g>
		<g>
			<g>
				<path d="M29.264,139.015c-4.037,0-7.4,1.347-10.766,4.711c-3.363,3.363-4.036,6.728-3.363,10.762
					c2.018,4.711,6.729,9.422,16.82,13.457l15.474,6.058l2.021-1.347l1.344-2.017C44.738,151.793,37.335,141.031,29.264,139.015z
					 M22.535,147.088c2.69-2.694,4.037-3.364,6.056-2.694c4.711,1.348,10.092,9.422,14.804,22.879
					c-14.131-4.711-21.531-9.422-22.879-14.803v-0.678C20.516,150.453,21.189,149.106,22.535,147.088z"/>
			</g>
		</g>
		<g>
			<g>
				<path d="M79.726,192.838c1.345-0.676,0.673-2.017-0.674-3.363l-29.604-20.184H45.41c-0.672,2.018-0.672,3.364,0.674,4.04
					l29.604,20.854C77.035,194.855,78.379,194.855,79.726,192.838z"/>
			</g>
		</g>
		<g>
			<g>
				<path fill="#9260C7" d="M73.671,104.026c2.688-6.729,4.708-13.457,5.381-20.185c2.019-12.786-1.349-18.837-10.092-17.49
					c-8.746,1.34-10.093,8.068-5.382,20.185C65.596,91.917,68.96,98.646,73.671,104.026z"/>
			</g>
		</g>
		<g>
			<g>
				<path d="M76.361,105.373c6.055-19.507,7.402-32.293,2.69-37.682c-2.017-3.364-6.054-4.704-10.767-4.034
					c-5.381,1.347-8.071,2.694-9.418,6.728c-3.364,7.398,0.674,19.514,12.783,34.988l2.689,1.347L76.361,105.373z M75.014,71.056
					l1.348,7.405c0,5.381-0.674,11.438-3.363,18.837c-6.729-9.422-10.094-16.82-10.094-22.201l1.344-2.688
					c0.676-2.024,2.021-2.694,4.713-2.694C72.324,69.045,74.341,69.715,75.014,71.056z"/>
			</g>
		</g>
		<g>
			<g>
				<path fill="#9260C7" d="M117.402,209.659h-13.456c-1.347-9.416-4.71-18.837-9.421-26.913l-7.397-10.77
					c-8.075,7.405-14.804,19.515-21.531,35.664l-25.565,2.018l-12.785,4.711c4.037,7.398,12.785,15.473,26.242,25.564
					c-3.363,11.439-5.386,23.549-6.059,36.328c8.074-2.01,20.857-9.416,37.68-22.871c3.362,6.729,9.418,12.109,19.51,16.82
					l12.784,3.364c1.345-6.729,1.345-14.804,0.671-23.548l-2.018-11.439c9.419-6.058,16.821-14.126,24.223-24.219
					C135.567,211.676,127.496,211.005,117.402,209.659z"/>
			</g>
		</g>
		<g>
			<g>
				<path d="M143.643,213.021l-2.021-2.017c-6.056-2.692-18.164-4.034-34.984-4.711c-1.348-9.416-4.711-18.167-10.093-25.565
					l-6.729-10.762l-2.02-1.354c-1.344,0-2.018,0.677-2.689,0.677c-7.404,7.404-14.801,18.837-22.203,34.315
					c-6.729-0.676-14.804,0.671-24.223,3.365l-13.456,4.033l-1.348,2.018v1.347v1.34c4.712,7.405,13.456,16.149,25.569,25.572
					c-3.363,10.763-4.711,22.2-5.386,34.312v0.668l1.349,2.694H48.1c7.401-1.341,19.512-8.069,36.331-20.854
					c6.729,10.092,17.494,16.149,32.297,18.836h2.691l1.347-2.017l1.344-14.804l-2.018-20.184
					c8.746-6.052,16.146-14.134,22.875-23.549l0.674-2.017v-1.345H143.643z M100.583,209.659c0,2.017,1.344,3.364,3.362,3.364
					h10.764l20.185,3.363c-6.728,8.075-13.456,14.803-20.185,19.508l-2.018,2.694v0.671l1.348,6.059l1.344,14.802l-0.674,10.092
					c-14.126-4.71-22.873-10.092-26.238-18.167l-2.689-2.018l-2.691,1.347c-13.456,9.421-24.223,16.149-32.297,20.185
					c1.348-11.439,3.365-21.531,5.384-30.276l0.675-1.347l-1.348-2.688c-10.092-7.404-18.168-14.811-23.549-21.538
					c13.457-4.705,24.222-6.051,32.969-4.705c1.347,0,3.363-1.347,4.037-2.692c5.381-12.786,11.438-23.549,18.166-30.947
					C94.525,187.457,98.563,198.221,100.583,209.659z"/>
			</g>
		</g>
		<g>
			<g>
				<path d="M103.273,234.555c-0.674-1.348-1.347-2.024-3.362-1.348c-7.401,3.364-14.13,4.041-20.858,2.688l-7.4-4.033l-4.037,0.67
					c-1.345,0.677-1.345,2.023,0.672,4.041l9.418,4.041c7.404,2.011,15.479,1.341,24.896-2.693
					C103.946,237.248,104.617,236.571,103.273,234.555z"/>
			</g>
		</g>
		<g>
			<g>
				<path d="M75.014,223.791l-2.689-8.751c0-0.67-1.348-1.341-2.69-0.67c-0.673,0-1.347,0.67-0.673,2.017l2.017,8.075l3.364,13.457
					c0,1.341,0.673,2.017,1.347,1.341l2.691-2.011L75.014,223.791z"/>
			</g>
		</g>
		<g>
			<g>
				<path d="M85.781,214.37l-2.018,2.017l-2.021,22.202c0,1.347,0.675,2.694,2.021,2.694l2.018-2.694l2.018-22.202L85.781,214.37z"
					/>
			</g>
		</g>
		<g>
			<g>
				<path d="M99.91,218.404h-2.691c-2.693,4.71-5.383,10.762-7.4,19.514c0,2.018,0,2.018,2.019,2.018l2.688-1.348l1.348-6.728
					c1.347-5.382,3.363-8.746,4.711-10.763C101.927,219.75,101.253,218.404,99.91,218.404z"/>
			</g>
		</g>
		<g>
			<g>
				<path fill="#858585" d="M138.258,313.944c0.673-8.075,0.673-13.457,0-16.819c-4.034-13.457-12.108-21.531-23.549-22.202
					c-6.055,0-12.782,2.017-21.527,6.058c-8.074,4.035-12.111,6.729-13.456,6.729l-10.093-2.022l-14.803,1.346
					c-6.055,2.018-10.092,5.382-13.457,10.094c-2.69,4.04-4.038,8.074-4.038,13.456c-0.669,4.71,1.348,9.415,4.712,12.108
					l6.729,8.076l1.348,9.414l2.018,8.752c2.689,4.035,6.055,8.744,10.766,12.785l12.783,7.398
					c7.4,2.693,14.129,8.068,20.184,14.797c4.039,5.389,13.457,7.404,27.587,5.389c4.038-0.672,9.419,0.67,16.819,3.363
					c2.019-8.076,2.69-14.127,2.019-18.845c0-2.688,0.673-6.052,2.02-10.763l2.02-11.433c0-3.364-0.675-6.729-3.365-10.771
					l-5.382-10.769C136.914,327.4,136.914,322.689,138.258,313.944z"/>
			</g>
		</g>
		<g>
			<g>
				<path d="M79.726,284.346l-4.712-0.678c-7.4-2.688-14.129-2.688-21.527,0c-6.058,2.688-11.438,6.051-14.804,11.438
					c-3.362,4.705-4.71,9.423-4.71,15.476c-0.671,4.04,0.673,7.403,2.02,10.091l5.381,6.729l4.039,4.713l0.674,6.729l3.363,12.108
					c2.69,4.041,6.055,8.075,11.437,13.456l14.129,8.074c6.729,2.693,12.784,6.729,17.495,13.457
					c5.38,6.059,15.473,8.746,31.622,6.729c4.035-0.67,8.746,0.671,15.475,3.363l2.69-0.67l1.347-1.354
					c2.018-8.737,2.691-15.466,2.018-20.184c0-2.688,0.675-6.052,2.021-10.093l2.016-12.778c0-2.688-1.346-7.405-4.71-14.134
					l-4.708-8.068l0.675-13.456c1.344-8.751,1.344-15.479,0.67-18.844c-4.708-15.468-13.456-23.548-26.913-24.89
					c-7.397,0-16.82,2.694-28.256,9.422L79.726,284.346z M134.894,297.801l0.674,5.375l-2.018,22.209l0.674,5.381l4.707,9.416
					c3.365,4.039,4.038,8.08,4.038,11.444l-1.347,10.093c-2.018,4.034-2.691,7.397-2.691,10.762v4.033l-0.673,11.44l-15.474-2.019
					c-12.782,2.019-20.857,0.672-24.223-4.035c-6.727-8.08-14.13-13.454-22.202-15.479l-10.765-7.398
					c-4.711-4.033-8.076-8.074-10.093-11.438c-0.674-2.688-2.018-6.052-2.689-9.415l-0.674-8.082l-6.729-8.068l-3.364-4.709
					c-1.347-2.02-2.019-4.041-1.347-6.729c0-10.094,5.385-16.821,14.803-20.185c5.382-2.688,10.767-2.688,17.494,0l6.729,0.677
					l10.092-4.042c11.437-6.729,19.512-8.744,24.223-8.744C124.802,278.957,131.529,286.355,134.894,297.801z"/>
			</g>
		</g>
		<g>
			<g>
				<path d="M81.07,286.355c-1.345-1.34-2.019-1.34-2.69,0c-0.675,0.676-0.675,2.022,0,3.363l17.493,21.537
					c12.782,18.831,22.201,39.016,26.912,61.225c0.674,1.34,2.018,2.018,3.364,1.34c0.673,0,1.348-1.34,0.673-2.688
					c-4.711-22.201-14.13-43.057-27.586-62.57L81.07,286.355z"/>
			</g>
		</g>
		<g>
			<g>
				<path d="M114.039,295.105l-16.82,0.672l-8.748,3.363c-11.436,4.033-18.163,10.763-20.186,21.53
					c-1.344,6.054-1.344,10.771,0,16.146c0,0.677,0.675,1.354,2.69,1.354c1.349-0.677,1.349-1.354,1.349-2.693
					c-1.349-4.711-1.349-8.752-0.674-14.127c2.021-9.422,8.074-15.479,18.166-18.175l8.071-3.362l14.804-0.67
					c4.037,1.346,6.729,4.032,9.419,8.073l2.69,0.679c1.348,0,1.348-0.679,0.673-2.694
					C122.784,300.487,119.421,297.125,114.039,295.105z"/>
			</g>
		</g>
		<g>
			<g>
				<path d="M112.018,314.621h-10.765c-9.417,4.035-14.8,12.104-15.474,22.195c0,4.717,0,10.093,1.348,14.133
					c0.671,1.348,1.344,1.348,2.689,1.348c1.344-0.671,2.02-1.348,1.344-2.693c-1.344-4.034-2.017-8.069-1.344-12.109
					c0.674-9.416,4.709-15.475,12.782-19.508l8.746,0.671c6.057,1.34,10.766,4.702,13.456,9.421c0.673,1.341,1.348,2.011,2.021,0.67
					c2.019-0.67,2.019-1.348,1.345-2.693C124.802,319.996,119.421,316.632,112.018,314.621z"/>
			</g>
		</g>
		<g>
			<g>
				<path d="M122.784,340.855l-8.075-0.676c-4.707,1.354-7.397,4.041-9.419,8.752c-3.363,6.059-3.363,14.127,0,22.879
					c0.675,2.01,1.348,2.01,2.69,2.01c1.348-0.67,2.021-2.01,1.348-2.688c-3.363-8.746-3.363-15.474-0.674-20.185
					c1.348-3.364,4.037-5.382,7.4-6.729h6.056c4.038,2.019,7.401,6.053,10.767,11.439l2.689,1.34c1.348,0,1.348-1.34,0.673-2.688
					C132.877,346.909,128.166,342.203,122.784,340.855z"/>
			</g>
		</g>
		<g>
			<g>
				<path fill="#858585" d="M46.758,307.217c-7.4-3.363-16.15-3.363-26.242-0.677c-6.054,1.354-13.456,6.729-21.527,14.132
					c-7.4,6.729-13.457,10.77-17.494,10.77l-38.352,2.688c-12.109,3.364-20.854,10.093-26.238,19.509
					c-4.039,7.403-5.381,15.479-3.365,24.224c1.348,6.053,4.039,10.094,8.076,13.456l8.071,8.746l4.038,16.82
					c2.689,7.398,6.729,12.115,10.766,15.48c4.037,2.687,10.092,4.033,16.82,4.703c6.055,0.67,9.418,1.347,10.766,2.693
					l7.401,10.764c2.691,4.71,5.382,8.073,8.072,9.422c4.711,2.692,21.53,8.745,51.134,16.148
					c2.689-8.752,6.729-16.148,12.109-22.878l8.749-10.093c2.69-3.363,4.038-6.728,3.362-9.421l-2.02-15.476
					c-0.671-4.041,0-8.744,2.02-13.455l8.072-14.133c2.021-5.375,3.364-9.416,3.364-14.797c-0.67-4.033-2.017-8.752-5.381-14.127
					l-4.712-12.785v-11.438c0-5.381,0-9.416-1.344-13.456C60.214,315.962,54.83,309.903,46.758,307.217z"/>
			</g>
		</g>
		<g>
			<g>
				<path d="M19.846,303.176c-7.4,2.023-14.803,7.405-22.877,15.48c-6.729,6.057-12.109,9.421-15.475,9.421l-39.695,2.688
					c-10.092,3.362-18.842,8.743-24.895,16.818c-4.709,6.729-7.402,14.133-7.402,22.872l0.674,8.081
					c2.021,6.729,5.384,12.104,10.092,16.145l6.055,6.729l2.021,8.745l5.382,12.786c2.021,5.382,4.71,9.423,9.418,12.108
					c4.711,3.363,11.439,5.381,18.842,5.381c4.707,0.67,7.4,1.348,8.071,2.023l5.384,7.398c3.364,6.728,6.729,10.762,10.092,12.785
					c5.381,2.688,22.203,8.738,51.804,16.82c2.021,0.671,4.038,0,4.712-2.022c2.691-8.745,6.729-15.475,11.439-21.525l2.688-3.364
					l8.071-9.422c1.349-3.363,2.695-6.728,2.021-10.092l-1.347-10.763l-0.675-7.404c0-2.688,0.675-5.381,1.348-8.074l3.364-6.061
					c6.054-10.762,8.743-18.83,8.743-24.887c-0.668-4.713-2.689-10.764-6.053-17.492c-2.691-4.039-4.037-7.403-4.037-9.422v-8.75
					c0-8.068,0-12.781-1.345-16.822c-3.364-9.414-8.75-15.465-17.493-19.506L19.846,303.176z M21.863,309.903
					c8.075-2.688,16.146-2.688,22.2,0c8.076,2.024,13.456,7.405,15.478,15.479l1.345,8.069v16.149l4.711,11.438
					c3.364,6.729,5.381,11.439,5.381,14.805l0,0l-2.017,10.762l-5.381,10.763l-4.039,6.729c-1.346,4.041-2.689,8.082-2.689,10.769
					l1.344,9.416l1.348,10.091v0.678l-8.074,13.456l-2.691,3.363c-5.381,5.382-9.418,12.11-12.783,20.185l-47.096-15.474
					l-7.402-10.091l-6.729-8.753c-2.689-2.688-6.729-3.364-12.783-3.364c-6.728-0.669-11.438-2.687-14.804-4.703
					c-3.362-2.023-6.054-5.388-8.071-9.422l-4.037-12.109l-2.69-9.416c-0.675-3.363-4.038-6.058-7.402-9.422
					c-4.038-2.693-6.729-7.398-8.075-12.115l-0.674-6.729c0-7.398,2.02-13.457,6.729-19.508c4.711-6.053,12.113-10.77,20.857-13.456
					l37.678-2.688l0,0c6.055,0,12.783-4.039,20.184-11.445C9.08,315.962,15.809,311.257,21.863,309.903z"/>
			</g>
		</g>
		<g>
			<g>
				<path d="M-12.451,330.088c-1.344-2.011-2.689-2.011-3.364-1.341c-0.673,1.341-1.344,2.019,0,3.365L0.33,363.729
					c11.44,26.912,20.186,55.179,25.57,85.454c0.672,2.011,2.016,2.011,2.689,2.011l2.018-2.688
					c-6.055-30.277-14.8-59.877-26.912-86.789L-12.451,330.088z"/>
			</g>
		</g>
		<g>
			<g>
				<path d="M28.591,330.766c-7.401-0.678-15.474,0-23.548,4.041l-12.783,7.396c-21.531,2.018-37.004,8.746-45.08,20.186
					c-4.037,6.729-6.729,13.457-6.729,21.524l0.674,6.058c0,1.348,0.673,1.348,2.017,1.348l1.347-2.688
					c-1.347-8.082,0-16.149,6.055-23.548c7.402-10.77,22.205-16.82,43.06-18.844l0.675-0.67l10.766-6.729
					c8.744-4.034,16.146-4.711,22.873-4.034c8.076,2.012,14.804,7.397,20.859,17.491c0.672,1.341,2.016,1.341,2.69,0.671
					l0.673-2.695C46.085,338.84,38.683,332.782,28.591,330.766z"/>
			</g>
		</g>
		<g>
			<g>
				<path d="M54.158,381.9l0.672-3.362C44.738,364.405,32.63,357.678,18.5,357l-17.494,4.041
					c-14.131,2.018-24.223,8.075-30.95,17.497c-6.728,10.092-8.745,20.854-5.381,33.642c0,1.34,0,2.01,2.017,1.34
					c1.348-0.67,1.348-1.34,1.348-2.018l-0.674-10.092c0.674-8.074,2.69-14.803,6.055-20.186
					c5.384-9.414,15.477-14.134,28.932-16.819l16.82-3.364c12.109,0,22.875,6.729,32.295,20.186
					C52.14,382.572,52.813,382.572,54.158,381.9z"/>
			</g>
		</g>
		<g>
			<g>
				<path d="M50.123,400.063c-5.385-9.422-14.131-15.475-24.896-17.49H10.424c-10.764,2.693-18.164,11.432-22.202,24.889
					c-2.017,6.729-3.362,13.456-3.362,20.186c0,0.678,0.672,1.354,2.689,1.354l1.348-1.354c0-6.052,1.344-12.104,2.69-18.832
					c4.036-12.115,10.091-19.514,20.185-22.877l12.782,0.67c9.419,1.348,16.819,7.396,21.531,15.479
					c1.344,1.341,2.69,2.013,3.362,0.671C50.791,402.086,50.791,401.41,50.123,400.063z"/>
			</g>
		</g>
		<g>
			<g>
				<path d="M2.352,441.778v0.677c0,1.341,0.674,2.011,2.018,2.011l2.021-2.011c0-4.041,0.67-7.404,2.018-11.444
					c2.018-8.068,6.729-12.78,12.783-13.456l0.672-0.672l2.018-1.341h4.712c4.711,1.341,8.744,6.053,13.456,13.457
					c0,0.671,0.673,1.341,2.691,0.671c0.672-0.671,0.672-1.347,0.672-2.023c-4.711-9.416-10.092-14.797-16.146-16.145
					c-4.037-0.676-7.4,0-9.418,2.018c-7.4,1.348-12.111,6.059-14.803,14.805C3.025,432.364,2.352,437.737,2.352,441.778z"/>
			</g>
		</g>
	</g>
	<g>
		<g>
			<path d="M313.916,256.882l5.069,0.662c9.344-67.048,17.274-133.177,23.609-198.613l-2.944-2.342
				c-1.916-0.25-2.64,0.303-2.809,1.591C330.504,123.617,322.869,189.783,313.916,256.882z"/>
		</g>
		<g>
			<path fill="#9260C7" d="M342.196,26.791c-8.397-0.437-11.063,5.058-8.095,17.159l5.504,17.627l8.732-17.064
				C352.399,33.332,349.953,27.156,342.196,26.791z"/>
		</g>
		<g>
			<path d="M349.669,49.235c3.729-8.623,4.563-15.017,1.864-19.269c-2.137-3.531-5.085-5.872-9.007-5.725
				c-5.197-0.032-8.561,0.824-10.259,3.856c-2.503,4.233-2.697,10.71-0.668,20.073l5.919,14.44l1.67,2.16l2.806-1.576
				L349.669,49.235z M341.861,29.351c3.196,0.417,4.476,0.584,4.866,2.591l0.525,5.925c-0.668,5.109-3.421,11.254-7.621,18.515
				c-3.226-10.173-4.947-16.903-4.362-21.387l1.141-3.752C338.58,29.571,339.945,29.101,341.861,29.351z"/>
		</g>
		<g>
			<path fill="#9260C7" d="M359.258,200.287c-5.172-5.231-11.26-3.424-16.432,6.305c-3.311,5.426-5.343,11.014-7.373,16.604
				l16.435-6.315C362.398,211.103,364.984,206.231,359.258,200.287z"/>
		</g>
		<g>
			<path d="M364.733,208.156c0.418-3.197-0.442-6.562-3.945-9.621c-2.863-2.978-5.895-4.67-9.258-3.813
				c-4.729,1.338-9.23,5.944-12.961,14.565l-5.67,13.575c-0.725,0.553-0.25,1.911,1.026,2.078l2.473,0.971
				c4.089-1.41,8.176-2.832,13.708-5.362C358.366,217.081,362.872,212.46,364.733,208.156z M352.779,200.088l4.313,1.859
				c1.749,1.538,2.862,2.978,2.611,4.901l0,0c-1.224,4.388-8.288,8.674-20.464,12.279
				C344.022,207.395,348.139,200.781,352.779,200.088z"/>
		</g>
		<g>
			<path d="M333.704,221.66l-17.046,15.99c-0.808,1.19-0.976,2.477,0.14,3.918l3.281-0.222l17.044-15.988l0.891-1.829l-0.473-1.37
				l-3.837-0.501V221.66z"/>
		</g>
		<g>
			<path fill="#9260C7" d="M279.181,230.797l18.627,1.785l-11.841-13.904c-8.758-7.649-13.872-8.317-17.989-1.701
				C264.5,223.687,268.392,228.741,279.181,230.797z"/>
		</g>
		<g>
			<path d="M265.445,226.4c3.726,6.345,15.065,9.134,32.027,8.744l2.81-1.591l-0.391-1.993
				c-10.395-15.025-18.597-21.94-25.798-21.585c-3.28,0.218-6.729,1.726-7.954,6.113C263.638,220.32,263.861,223.603,265.445,226.4z
				 M274.705,215.263c4.643-0.701,10.451,4.617,17.6,14.645c-12.874-1.02-20.381-3.31-22.522-6.839
				c-0.556-0.723-0.305-2.643,0.667-5.109C271.26,216.757,272.784,215.012,274.705,215.263z"/>
		</g>
		<g>
			<path d="M295.417,230.976c-0.89,1.826-1.058,3.113,0.776,4.001l20.743,10.509l4.002-0.775c0.251-1.923,0.417-3.197-1.502-3.448
				l-20.653-11.158C297.586,229.301,295.585,229.688,295.417,230.976z"/>
		</g>
		<g>
			<path fill="#9260C7" d="M360.717,124.377l-10.957,14.182l18.488-2.133c10.734-2.51,14.682-7.84,11.038-14.818
				C374.925,115.183,369.004,115.706,360.717,124.377z"/>
		</g>
		<g>
			<path d="M381.957,131.051c1.698-3.03,1.476-6.312-0.582-10.479c-2.78-3.613-5.727-5.945-9.009-5.723
				c-3.92,0.134-9.618,3.938-15.656,10.313c-3.057,3.501-6.198,7.639-8.705,11.871l-0.332,2.547
				c0.555,0.734,1.111,1.455,2.475,0.984C367.748,140.259,378.565,137.112,381.957,131.051z M377.898,127.269l-0.808,1.203
				c-1.781,3.669-9.232,5.948-21.718,6.922c7.176-10.129,12.404-15.289,17.604-15.271c1.279,0.167,2.56,0.335,4.143,3.146
				L377.898,127.269z"/>
		</g>
		<g>
			<path d="M348.73,136.466l-20.298,11.019c-1.53,1.743-1.613,2.38-0.501,3.835l3.114,1.056l20.382-11.643
				c1.446-1.121,1.612-2.394,1.142-3.764C352.012,136.249,350.178,135.361,348.73,136.466z"/>
		</g>
		<g>
			<path fill="#9260C7" d="M290.872,141.273l17.987,1.699l-11.842-13.905c-8.117-7.562-14.513-8.396-17.987-1.702
				C275.553,134.078,279.524,138.494,290.872,141.273z"/>
		</g>
		<g>
			<path d="M276.556,126.395c-1.782,3.666-2.199,6.865-0.06,10.395c3.253,4.984,14.514,8.399,32.668,8.826l2.171-1.671l-0.944-2.729
				l-8.896-11.564c-6.283-6.676-11.064-9.892-16.266-9.925C281.946,119.95,279.056,122.174,276.556,126.395z M281.501,128.349
				c1.615-2.394,2.422-3.597,3.7-3.43c4.559-0.051,10.453,4.616,18.154,15.378c-12.234-0.937-19.824-2.589-22.604-6.202
				C280.359,132.1,280.527,130.812,281.501,128.349z"/>
		</g>
		<g>
			<path d="M306.468,141.366c-0.891,1.827-1.059,3.112,1.5,3.446l20.019,11.063c1.834,0.889,2.557,0.334,3.448-1.493
				c0.808-1.202,0.334-2.561-0.863-3.364l-20.738-10.521C308.553,140.33,306.636,140.08,306.468,141.366z"/>
		</g>
		<g>
			<path fill="#9260C7" d="M357.109,82.281c-2.674,5.507-5.26,10.377-6.733,16.688l17.071-6.23
				c9.788-5.227,12.461-10.732,6.733-16.676C369.011,70.827,363.559,72.719,357.109,82.281z"/>
		</g>
		<g>
			<path d="M347.569,100.547l3.196,0.417c16.737-3.658,26.609-9.533,28.168-16.481c1.059-3.115,0.194-6.478-2.584-10.094
				c-2.863-2.978-5.895-4.67-9.897-3.896c-4.727,1.339-9.147,5.309-13.514,13.847l-5.035,13.659
				C347.181,98.551,347.014,99.826,347.569,100.547z M374.623,82.624c-1.861,4.304-8.842,7.953-20.465,12.277
				c4.87-12.369,9.54-18.265,13.545-19.037c2-0.387,3.197,0.418,4.948,1.941c1.112,1.454,2.14,3.532,2.055,4.182L374.623,82.624z"/>
		</g>
		<g>
			<path d="M347.987,97.349l-16.962,15.353c-1.447,1.106-1.615,2.393,0.136,3.917l3.92-0.135l16.323-15.437
				c1.444-1.107,1.611-2.382,0.501-3.834L347.987,97.349z"/>
		</g>
		<g>
			<path fill="#9260C7" d="M298.328,94.117l16.85,5.45l-8.313-16.034c-5.948-9.238-11.454-11.899-16.763-6.09
				C285.43,83.336,287.877,89.5,298.328,94.117z"/>
		</g>
		<g>
			<path d="M288.35,75.905c-3.059,3.501-4.115,6.614-3.253,9.979c2.362,6.814,12.729,12.079,29.746,16.244
				c0.64,0.083,1.92,0.25,2.725-0.939l0.334-2.562c-6.309-16.434-12.897-25.742-19.934-26.661
				C293.494,71.381,290.688,72.959,288.35,75.905z M296.664,76.991c4.391,1.222,9.478,7.094,14.453,18.796
				c-12.539-3.581-19.794-7.78-20.573-11.782l-0.472-1.37l1.699-3.03L296.664,76.991z"/>
		</g>
		<g>
			<path d="M312.87,97.324c-0.89,1.826-1.058,3.113,0.776,4.001l17.515,15.294l3.92-0.135c0.809-1.202,0.975-2.477-0.141-3.918
				l-18.15-15.38C315.595,96.372,314.956,96.288,312.87,97.324z"/>
		</g>
		<g>
			<path fill="#9260C7" d="M376.196,160.227c-3.001-6.897-8.924-6.375-17.685,0.941c-3.78,4.056-8.287,8.673-11.594,14.085
				l17.684-0.942C375.973,171.896,379.837,167.205,376.196,160.227z"/>
		</g>
		<g>
			<path d="M344.609,173.01l-0.335,2.56c0.475,1.358,1.031,2.079,2.309,2.246c17.601-0.308,28.889-2.086,32.283-8.143
				c2.335-2.949,2.112-6.229,0.057-10.398c-2.141-3.532-4.365-6.425-8.201-6.926c-4.561,0.063-10.096,2.593-16.213,9.594
				L344.609,173.01z M351.813,172.641c7.895-10.667,14.319-15.036,18.156-14.535l4.78,3.228l0.14,3.919l-0.167,1.284
				C372.303,170.121,364.295,171.678,351.813,172.641z"/>
		</g>
		<g>
			<path d="M345.333,172.457l-20.854,10.282c-1.363,0.471-1.529,1.745-1.059,3.114l3.114,1.055l20.855-10.282
				c2-0.388,2.725-0.954,1.697-3.031L345.333,172.457z"/>
		</g>
		<g>
			<path fill="#9260C7" d="M285.693,180.926l18.629,1.772l-11.843-13.893c-8.674-8.296-13.788-8.964-17.989-1.701
				C270.931,174.441,274.905,178.858,285.693,180.926z"/>
		</g>
		<g>
			<path d="M306.156,183.598l0.335-2.56l-9.535-11.647c-6.923-6.762-11.787-9.352-16.348-9.299
				c-3.839-0.501-6.811,2.362-8.592,6.042c-2.421,3.586-1.558,6.948-0.057,10.395c3.725,6.345,14.428,9.038,32.027,8.73
				L306.156,183.598z M298.817,180.037c-12.956-0.396-20.382-3.31-22.605-6.204c-0.472-1.37-0.222-3.277,0.029-5.202
				c1.614-2.396,3.058-3.503,4.423-3.971C285.223,164.607,291.033,169.914,298.817,180.037z"/>
		</g>
		<g>
			<path d="M304.654,180.151c-0.554-0.734-1.917-0.251-3.446,1.493c-0.168,1.286-0.335,2.561,1.5,3.448l20.742,10.519
				c1.834,0.89,2.558,0.334,3.366-0.866c1.526-1.743,1.055-3.112-0.864-3.363L304.654,180.151z"/>
		</g>
	</g>
	<g>
		<path fill="#858585" d="M261.966,261.589l-4.634,13.233l-6.616,8.595c-2.646,3.309-4.63,7.283-5.954,10.59
			c-1.325,3.31-1.325,7.941-0.663,13.899c1.325,6.616,1.325,11.902,1.325,13.894l-3.309,9.925
			c-0.662,3.308-0.662,7.935,0.662,12.573c1.321,7.936,6.617,17.859,15.879,29.774c13.233-12.573,22.496-19.85,28.45-23.157
			c3.31-1.332,8.604-3.309,15.88-4.641c6.616-1.977,10.586-3.967,13.896-5.95c4.633-3.309,12.571-11.909,22.495-25.802
			l24.484-35.732l-4.634-15.224c-5.292-9.925-12.571-15.876-22.496-15.876l-17.204,3.309l-12.57,2.644l-13.896-5.951l-19.188,0.665
			C268.582,251.665,264.611,256.292,261.966,261.589z"/>
	</g>
	<g>
		<path d="M256.67,266.876l-2.646,6.615l-4.63,6.617c-3.971,4.641-6.617,8.605-7.941,12.574c-1.324,4.633-1.324,9.925,0,17.199
			l0.664,11.258l-1.988,5.285c-1.982,5.957-2.646,11.914-0.658,18.531c1.322,8.601,7.275,18.525,17.201,31.094
			c0.662,0.666,1.324,1.331,1.986,1.331l2.646-0.665c12.57-12.568,21.833-19.852,27.791-23.159
			c2.646-0.665,7.275-2.644,13.893-3.974l15.221-5.951l14.555-15.217l8.604-11.916l25.805-35.727v-2.643
			c-0.663-7.282-3.309-14.564-7.941-20.517c-5.292-8.6-13.232-13.233-22.496-13.233l-19.85,3.309l-9.926,2.643l-5.291-2.643
			c-5.955-2.643-10.588-3.975-13.233-4.633c-5.954-1.318-11.25-0.659-16.542,2.648c-4.633,2.649-7.941,5.959-10.587,10.584
			L256.67,266.876z M263.287,268.866c1.987-7.941,6.617-13.893,11.912-17.867l12.571-1.324l10.587,3.969l7.938,3.309l11.912-2.644
			l18.525-3.31c7.941,0,13.896,3.976,18.529,11.91c2.646,4.633,4.63,9.266,5.292,15.223l-23.821,34.402
			c-9.263,13.893-16.542,21.84-21.833,25.147c-3.309,1.978-7.94,3.309-13.896,5.286c-7.279,1.99-11.909,3.974-14.559,4.64
			c-6.617,3.308-15.879,10.584-27.125,21.827c-7.941-11.243-12.574-19.186-13.896-25.803l-0.662-6.615l1.982-8.602l1.326-5.299
			l0.661-5.951l-1.323-8.6l-0.664-7.941c0-1.983,0.664-3.975,0.664-5.951l6.616-10.59l5.954-7.283L263.287,268.866z"/>
	</g>
	<g>
		<path d="M316.221,250.999c-1.321-0.664-1.984-1.324-2.646,0l-21.832,22.494c-14.559,20.516-24.483,43.674-31.101,70.807
			l1.987,2.643l2.646-1.982c5.292-26.467,15.88-49.625,29.775-69.477l21.171-21.175V250.999z"/>
	</g>
	<g>
		<path d="M299.68,265.558c-10.584-3.309-19.188-1.99-25.143,3.309c-3.309,2.649-5.955,5.293-7.278,9.266
			c0,0.66,0,1.979,1.325,2.644c1.32,0,1.983,0,2.646-1.323c0.663-2.649,2.646-5.293,5.955-7.936
			c5.954-3.975,12.571-4.641,21.174-1.99l7.938,1.99c5.295,1.977,8.604,4.626,11.912,8.594c3.309,5.299,4.629,11.915,3.309,19.85
			c-0.663,1.332,0,1.99,1.32,1.99c1.326,0,1.988,0,1.988-1.324c1.983-9.26,0.662-16.541-3.309-23.158
			c-3.309-3.975-7.941-7.281-13.896-9.926L299.68,265.558z"/>
	</g>
	<g>
		<path d="M288.433,289.374l-4.633-0.658c-6.617-1.324-13.233,1.318-19.851,5.957c-3.309,2.644-6.617,5.285-8.601,8.595
			c-0.662,0.665-0.662,1.331,0,2.649l3.31-0.66l7.278-7.274c5.955-3.976,11.247-6.616,17.201-5.299c3.971,0,7.94,1.323,10.587,4.633
			c4.633,3.974,5.955,10.591,5.955,19.851c0,1.324,0.662,2.644,1.986,2.644l1.984-2.644c0-9.926-1.984-18.525-7.279-23.158
			C293.725,291.366,291.078,290.034,288.433,289.374z"/>
	</g>
	<g>
		<path d="M283.8,337.682c1.325-7.282,0.661-13.233-1.984-17.207c-1.987-1.983-4.633-3.31-6.616-3.974l-3.972-1.318
			c-4.633-0.659-9.263,0.658-13.233,5.292c-2.646,2.644-5.291,6.616-6.615,10.591c0,1.979,0.662,2.643,1.982,2.643l1.987-0.664
			c1.321-3.31,1.983-5.951,3.31-7.937c3.308-4.633,7.938-6.616,11.908-5.298l3.309,0.665l4.633,2.644
			c1.982,3.309,3.308,7.281,1.982,13.898l1.325,2.643l1.984-0.658V337.682z"/>
	</g>
	<g>
		<path fill="#858585" d="M368.496,262.249c-7.941,0-17.205,2.649-25.809,8.602c-9.925,5.951-15.879,13.232-15.879,22.493
			c-0.663,6.616,0,13.233,1.325,19.85c1.983,5.3,1.983,10.591,1.983,13.899l-3.972,11.248c-1.321,3.969-1.321,9.268-0.659,15.218
			c1.321,5.951,4.629,11.25,9.926,15.877c4.629,3.974,7.938,7.947,7.275,11.256c-0.658,7.275,7.941,22.492,25.145,45.651
			l13.233-6.617l21.171-9.26c3.971-1.331,7.279-4.64,9.926-9.925l7.278-9.926l15.88-5.958c7.278-3.308,11.911-6.615,14.559-10.584
			c1.324-3.308,2.646-7.947,3.308-15.223c0-5.958,1.983-11.243,4.634-13.893l11.908-11.25c3.971-4.633,6.617-11.25,8.602-19.186
			c1.324-7.947,0.662-16.541-4.631-23.158c-3.971-6.615-9.925-9.925-16.541-11.256l-25.805,0.665l-25.808-0.665l-16.542-9.925
			C381.065,264.898,373.787,262.909,368.496,262.249z"/>
	</g>
	<g>
		<path d="M368.496,258.941c-8.604,0-18.529,2.647-28.455,9.267c-9.924,6.615-15.879,15.211-16.541,25.135
			c-0.662,6.617,0,13.898,1.986,21.182l1.321,11.902l-2.646,7.281c-2.646,5.951-2.646,12.567-1.984,20.517
			c1.32,6.616,4.63,12.567,11.247,18.519c4.633,3.31,6.616,5.3,5.954,7.948c-0.659,8.594,7.941,23.817,26.467,47.635
			c0.662,1.324,1.986,1.99,3.971,1.324l12.571-7.282c9.267-4.626,16.542-7.935,20.512-9.259l9.263-5.292l4.633-7.94l4.635-6.617
			l8.6-3.309l13.233-5.293c3.971-1.988,7.278-5.298,9.263-8.605c1.987-3.968,3.309-9.261,3.971-15.876
			c0-5.951,1.326-9.926,3.31-12.567l5.292-3.976l9.925-10.59c3.31-5.285,5.296-11.242,6.617-17.859
			c1.323-8.605,0-17.866-5.292-25.148c-4.635-6.615-10.588-11.902-18.525-13.232c-3.971-0.659-11.25-0.659-23.158,0.666
			c-14.559,0.664-23.82,0.664-27.791-0.666l-10.588-5.951C384.375,263.567,375.111,259.601,368.496,258.941z M368.496,265.558
			c5.291,0.658,13.892,3.968,23.816,10.584l11.912,7.275l31.096,0.666c11.25-1.324,17.866-1.324,21.176-0.666
			c5.953,0.666,10.588,4.64,15.217,10.59c2.648,3.976,3.971,9.261,3.971,13.899l-0.662,5.951c-1.32,6.616-2.646,11.249-5.954,15.876
			l-8.601,8.605l-5.295,5.293c-2.646,2.643-4.631,7.94-5.292,16.541c-0.662,5.293-1.325,9.926-3.31,12.567l-7.279,6.617
			l-11.246,3.974l-10.586,4.634c-1.987,1.983-3.971,4.627-7.279,9.267c-2.646,5.95-5.954,9.259-9.264,9.925
			c-7.278,2.644-17.203,7.275-31.762,15.21c-15.217-21.168-23.158-34.4-23.158-41.018v-1.325c0-3.974-2.646-8.601-7.938-12.567
			c-5.295-4.64-8.604-9.266-9.264-13.898l-0.661-7.282c0-3.308,0.661-6.616,1.983-9.925l3.309-9.26v-3.975l-1.984-9.925
			c-1.324-5.951-1.986-11.243-1.986-15.21l0.662-3.975c0-8.602,5.295-15.217,14.558-20.517
			C353.274,267.542,361.216,265.558,368.496,265.558z"/>
	</g>
	<g>
		<path d="M412.824,279.45c-0.662-0.658-1.982-0.658-2.646,0.659l-14.558,30.44c-11.91,25.801-21.172,53.599-28.451,84.032
			c0,1.317,0,1.983,1.326,2.649l2.646-1.332c7.278-31.093,16.542-58.884,27.788-84.025l14.559-29.774L412.824,279.45z"/>
	</g>
	<g>
		<path d="M438.629,307.241c5.295,5.293,7.279,13.233,6.617,23.158c-0.66,1.325,0,2.645,1.324,2.645l1.982-1.979
			c1.324-11.256-1.321-20.516-7.938-26.467c-7.941-7.282-20.514-10.592-37.056-9.266c-17.204-9.268-33.083-10.584-46.315-4.633
			l-15.879,13.231c0,0.666,0,1.325,0.662,2.644c1.32,0.666,1.983,0.666,2.646-1.318l15.217-11.25
			c11.912-5.95,26.466-3.307,42.347,5.293l1.323,0.658l13.233-0.658C426.058,300.624,433.336,303.268,438.629,307.241z"/>
	</g>
	<g>
		<path d="M422.75,329.734c3.971,3.974,5.295,10.591,3.971,18.531c0,1.983,0,1.983,1.982,1.983l1.987-1.324
			c1.321-9.266-0.663-17.2-5.296-21.834c-5.954-6.616-16.541-9.926-31.758-9.26l-35.729-0.666c-4.634,3.31-8.604,6.617-11.25,11.25
			c0,1.318,0,1.983,1.323,2.649c0.663,0.659,1.322,0,1.984-0.666c2.646-3.974,5.954-7.282,10.587-9.925
			c8.6-5.292,19.85-4.633,31.759,1.324h1.987C407.533,321.141,417.457,323.784,422.75,329.734z"/>
	</g>
	<g>
		<path d="M405.545,344.298c-5.953-3.309-12.57-4.639-21.17-3.309c-10.588-3.974-19.851-3.309-27.793,2.643
			c-3.971,2.644-7.278,5.951-9.262,9.926c-0.662,0.666,0,1.984,0.661,2.645c1.322,0.664,1.984,0,2.646-1.318
			c1.324-2.649,3.971-5.299,8.601-7.941c6.617-5.292,14.558-5.951,24.483-1.982h1.324l5.955-0.659c4.629,0,8.602,1.317,11.908,3.309
			c5.955,3.968,9.926,11.243,11.25,21.168l1.983,1.324c1.325,0,1.987,0,1.325-1.983
			C416.133,356.866,412.162,349.583,405.545,344.298z"/>
	</g>
	<g>
		<path d="M392.313,373.409c-1.984-3.31-5.292-5.951-9.925-6.617l-5.954-1.324c-8.602-1.983-14.555,0.658-19.188,5.299
			c-2.646,2.643-3.971,5.951-4.633,8.594c-0.66,1.331,0,1.99,1.324,1.99l1.984-1.325c0.662-1.982,1.986-3.974,3.971-6.616
			c3.971-3.974,9.262-5.291,16.542-3.974l4.633,0.665c3.31,1.324,5.955,3.309,8.601,5.292c3.309,3.968,3.972,9.266,2.646,16.542
			c0,1.324,0.662,1.99,1.325,1.99c1.983,0.658,2.646,0,2.646-1.331C397.607,384,396.283,377.382,392.313,373.409z"/>
	</g>
	<g>
		<g>
			<g>
				<path d="M183.947,300.238c-0.667-1.329-2.667-2-4.002-0.665c-1.999,0.665-1.999,1.999-0.667,3.335l22.011,53.356
					c14.007,40.019,16.674,73.367,10.005,100.046c-0.667,1.999,0,2.67,2,2.67c1.335,0.664,2.667,0,3.334-1.342
					c7.338-27.343,4.003-61.355-9.337-102.037L183.947,300.238z"/>
			</g>
		</g>
		<g>
			<g>
				<path fill="#9260C7" d="M181.28,301.572l-4.002-20.008c-4.003-12.005-10.005-15.339-16.674-10.676
					c-6.67,4.677-6.003,11.346,4.002,19.344L181.28,301.572z"/>
			</g>
		</g>
		<g>
			<g>
				<path d="M183.947,301.572c-2.667-20.008-6.669-31.348-13.339-34.683c-3.335-2-7.338-1.329-11.34,1.335
					c-4,2.664-6.002,5.999-6.002,10.004c0.668,5.335,4.002,11.34,12.672,17.346c4.67,3.335,8.672,5.998,14.007,8.662l2.667-0.664
					L183.947,301.572z M158.604,278.229L158.604,278.229c0-1.999,1.332-3.334,3.334-5.334c2-1.335,4.668-2.006,6.002-1.335
					c4.668,2.664,8.002,11.339,10.006,25.343C165.274,289.568,159.269,282.898,158.604,278.229z"/>
			</g>
		</g>
		<g>
			<g>
				<path fill="#9260C7" d="M200.622,315.583l13.339-16.01c6.67-10.669,5.334-17.339-3.334-20.009
					c-8.006-2.006-12.005,3.334-12.005,16.01C198.622,301.572,199.287,308.242,200.622,315.583z"/>
			</g>
		</g>
		<g>
			<g>
				<path d="M198.622,316.247l2,2l2.667-0.671c13.339-14.004,19.342-24.673,17.342-32.678c-1.336-3.334-4.003-6.67-8.669-8.005
					c-4.671-0.664-8.006-0.664-11.34,2.671C194.619,284.898,193.952,296.902,198.622,316.247z M203.956,282.898l6.671-0.664
					c2.667,0.664,4.002,2.664,4.002,4l0.667,1.999c0,4.67-4.669,12.005-12.675,21.344l-1.332-14.003
					C201.289,289.568,202.621,284.898,203.956,282.898z"/>
			</g>
		</g>
		<g>
			<g>
				<path d="M201.289,312.912c-1.335,0-2.667,0.665-3.334,2l-3.336,22.673c0,1.342,1.332,2.006,2.668,2.671l3.335-2l3.334-22.009
					C203.956,314.912,203.289,312.912,201.289,312.912z"/>
			</g>
		</g>
		<g>
			<g>
				<path fill="#9260C7" d="M178.613,344.255l-11.34-16.674c-9.337-10.005-16.007-11.334-20.009-3.336
					c-4.67,7.341-0.668,12.676,11.34,16.675L178.613,344.255z"/>
			</g>
		</g>
		<g>
			<g>
				<path d="M144.597,322.253c-2.002,4.664-2.666,8.663-0.667,11.997c1.999,4.006,8.669,7.341,18.674,10.005l16.01,2.007
					l1.999-1.337v-2.664l-9.336-14.009c-6.002-7.341-12.008-11.34-17.342-12.005C150.599,316.247,147.265,318.247,144.597,322.253z
					 M147.933,331.586v-1.999l1.332-3.999c1.334-2.671,3.334-4.007,4.67-4.007c5.334,0.672,12.004,6.671,20.008,19.339
					C159.269,338.927,150.599,336.257,147.933,331.586z"/>
			</g>
		</g>
		<g>
			<g>
				<path d="M179.945,341.591c-1.999-1.335-2.667-0.671-3.335,0.67c-1.332,1.994-0.668,3.336,0.668,4.001l26.011,12.674
					c1.335,0.665,2.667,0,4.002-1.342c0-1.329,0-2.664-1.335-3.334L179.945,341.591z"/>
			</g>
		</g>
		<g>
			<g>
				<path fill="#9260C7" d="M189.282,411.622c-4.666-5.334-9.337-10.005-14.672-13.339c-10.672-8.005-17.342-7.341-20.009,0
					c-3.335,8.005,1.999,13.339,14.671,14.01L189.282,411.622z"/>
			</g>
		</g>
		<g>
			<g>
				<path d="M160.604,389.613c-4.004,0.665-6.67,3.335-8.67,7.998c-1.336,4.677-1.336,8.013,1.332,11.347
					c4.67,5.999,16.674,7.998,36.684,5.999l2.002-2l-0.667-2.67l-11.34-12.004C171.943,391.613,165.274,388.949,160.604,389.613z
					 M157.269,405.624c-0.668-2.007-0.668-4.007,0-6.006c0.668-3.335,2.668-4.67,4.003-4.67c5.335-0.671,12.671,4.005,22.676,14.675
					C169.272,410.952,160.604,408.958,157.269,405.624z"/>
			</g>
		</g>
		<g>
			<g>
				<path d="M189.95,408.958c-2,0-2.668,0.665-3.335,2.664c0,1.335,0.667,2.664,2.003,2.664l28.01,7.341
					c1.335,0.671,3.335,0,3.335-2c0.668-1.336,0-2.006-2-2.671L189.95,408.958z"/>
			</g>
		</g>
		<g>
			<g>
				<path fill="#9260C7" d="M237.305,332.921l-7.337-10.668c-6.002,6.669-12.672,18.667-19.341,34.012
					c-6.671,2-15.339,6.006-24.681,10.67l-12.671,6.005l33.348,18.674c0,5.335,0.668,16.003,4.004,31.349l16.674-13.339
					l10.672-8.676c7.338,5.341,18.006,10.675,32.014,14.681c0.667-4.006-0.668-10.676-4.004-21.351l-4.666-14.669
					c4.002-2.67,10.005-12.01,18.006-28.013l-21.341-1.335l-10.672,1.335L237.305,332.921z"/>
			</g>
		</g>
		<g>
			<g>
				<path d="M229.968,318.917l-2.667,0.665c-6.67,7.999-12.672,19.345-19.341,34.678l-24.013,10.004
					c-7.337,3.335-11.339,5.341-12.671,6.005c-0.668,0.665-1.336,1.336-1.336,2.671l1.336,2.67l32.013,18.003
					c0.667,6.006,1.335,16.011,4.002,30.015l2,2.67l3.335-0.665l25.347-20.68c8.002,6,18.674,10.005,31.346,14.011l2.003-0.672
					l1.999-1.999v-3.335c0-8.005-2.667-18.68-8.002-32.02l10.005-15.332l6.67-12.675l0.664-1.335l-0.664-2l-2.004-1.335
					c-8.001-1.999-18.006-1.999-30.68,0l-10.005-18.01l-6.67-10.005L229.968,318.917z M243.975,352.266
					c0.668,1.994,2,2.664,3.335,2.664l9.337-0.67h17.342c-6.67,12.675-10.673,20.68-14.007,22.679c-1.332,0.665-2,1.335-2,2.67
					v1.329c5.334,13.34,8.001,23.344,8.669,30.015c-12.004-3.336-20.676-7.999-26.011-12.669c-2-2-3.335-2-4.67,0l-22.676,19.338
					c-2.667-12.669-3.335-21.338-3.335-26.008l-1.999-3.335l-10.005-5.334l-18.01-10.005c14.007-6.005,24.011-10.669,31.349-13.339
					l2.667-2.007c5.334-12.669,10.005-22.002,16.007-29.342C237.305,339.591,241.975,347.589,243.975,352.266z"/>
			</g>
		</g>
		<g>
			<g>
				<path d="M247.978,378.273c-1.335-0.67-2.667-0.67-4.003,0c-5.335,5.999-13.34,7.341-24.68,4.007
					c-1.999-0.672-2.667-0.672-3.334,1.992c0,1.342,0,2.007,1.335,3.336c8.669,2.005,16.007,2.005,22.676,0l8.006-5.328
					C249.31,380.938,249.31,379.608,247.978,378.273z"/>
			</g>
		</g>
		<g>
			<g>
				<path d="M243.975,362.271c-0.668,0-1.336,0-2,1.993l-1.335,7.341l-1.335,12.668c0,0.672,0.667,1.342,1.335,1.342l2.667-1.342
					l2.668-19.338C246.643,364.264,245.975,362.935,243.975,362.271z"/>
			</g>
		</g>
		<g>
			<g>
				<path d="M232.635,361.6c-0.664-0.671-2-1.336-2.667-0.671c-1.332,0-2,0.671-1.332,2.006l1.999,8.67l2,14.675
					c0,1.999,0.668,1.999,1.336,1.999l2.667-2.664l-2.667-14.681L232.635,361.6z"/>
			</g>
		</g>
		<g>
			<g>
				<path d="M220.631,368.94h-3.335c-0.668,0.664-0.668,1.993,0,2.664c3.335,3.335,5.335,8.004,7.337,15.339l2.668,1.335
					c1.335,0,1.999-1.335,1.335-2.664C226.633,378.273,223.966,372.275,220.631,368.94z"/>
			</g>
		</g>
		<g>
			<g>
				<path d="M109.913,356.265c-1.332,0-2.666,0.665-3.334,2v29.344c1.335,21.35,6.002,42.023,14.674,60.697l3.336,0.67
					c1.999-0.67,1.999-2.005,1.999-3.334c-8.669-17.346-14.007-37.354-15.339-59.362l1.332-26.679
					C112.581,357.594,111.917,356.265,109.913,356.265z"/>
			</g>
		</g>
		<g>
			<g>
				<path fill="#9260C7" d="M108.581,374.268l8.002-18.666c4.67-12.676,2.004-18.017-6.67-18.681
					c-8.668-0.664-11.336,5.34-8.668,18.009C103.244,361.6,105.911,367.599,108.581,374.268z"/>
			</g>
		</g>
		<g>
			<g>
				<path d="M109.913,334.25c-4.002,0-8.001,1.342-10.004,4.677c-4.667,6.67-2,18.667,6.67,36.013l2.002,1.335l2.668-0.665
					l6.67-14.681c4.002-10.005,4.666-16.674,2-21.338C117.919,335.592,114.583,334.25,109.913,334.25z M109.913,339.591
					c2.004,0,3.336,0.665,5.338,2l1.332,4.006c0,5.999-2.667,13.339-7.337,22.673c-4.667-9.334-6.002-16.674-6.002-21.345
					l1.335-5.334C105.911,339.591,107.914,338.927,109.913,339.591z"/>
			</g>
		</g>
		<g>
			<g>
				<path fill="#9260C7" d="M121.253,394.277l18.674-9.333c10.672-6.671,12.672-13.34,6.002-19.339
					c-6.002-5.342-12.672-2.671-18.006,9.334C124.589,380.938,123.253,386.943,121.253,394.277z"/>
			</g>
		</g>
		<g>
			<g>
				<path d="M147.265,364.264c-3.335-3.335-6.67-4.663-10.672-3.335c-7.338,2.006-13.34,13.339-18.006,32.02l1.332,2.671
					l2.666,0.664c18.01-6.67,28.014-14.003,29.35-22.016C153.267,370.934,151.267,367.599,147.265,364.264z M143.93,368.27
					l3.335,4.006l-0.668,0.664c-0.668,5.334-8.002,10.668-21.341,16.01c3.999-14.01,8.001-21.351,12.671-23.344
					C139.927,364.935,141.263,365.605,143.93,368.27z"/>
			</g>
		</g>
		<g>
			<g>
				<path d="M123.253,391.613l-4.002,0.671l-10.005,12.668c-1.332,2-1.332,3.336,0.667,4.006l3.336-0.67l10.004-12.669
					C124.589,394.277,124.589,392.948,123.253,391.613z"/>
			</g>
		</g>
		<g>
			<g>
				<path fill="#9260C7" d="M99.241,402.288l-8.669-18.016c-7.337-11.333-14.007-12.668-19.341-6.669
					c-5.338,6.669-2.668,12.01,8.668,18.016C85.902,398.283,92.571,400.947,99.241,402.288z"/>
			</g>
		</g>
		<g>
			<g>
				<path d="M79.899,371.604c-4.002-0.671-7.336,0.671-10.672,4.005c-2.666,3.335-3.998,7.335-2.666,10.67
					c2.666,8.669,13.338,14.668,32.016,18.673l2.668-0.671v-2.664c-0.668-4.006-2.668-9.333-6.67-15.338
					C89.905,377.604,84.57,372.275,79.899,371.604z M71.231,383.607c0-1.327,0.667-2.67,1.999-4.663
					c1.335-1.341,3.335-2.67,6.002-2.67c5.338,1.999,10.673,8.67,15.343,22.009c-13.34-4.006-21.345-8.67-23.344-13.339V383.607z"/>
			</g>
		</g>
		<g>
			<g>
				<path d="M101.245,400.282l-4.004,0.665l-0.667,1.341l1.335,1.993l12.672,10.676c2,0.671,2.668,0.671,4.002-0.671
					c0.668-1.329,0.668-2.664-0.667-3.999L101.245,400.282z"/>
			</g>
		</g>
		<g>
			<g>
				<path fill="#9260C7" d="M299.999,398.953l10.005-17.345c4.669-12.004,2.667-18.674-6.002-19.338
					c-8.67-0.671-12.004,5.328-10.005,17.338C295.332,386.279,297.332,392.948,299.999,398.953z"/>
			</g>
		</g>
		<g>
			<g>
				<path d="M314.006,365.605c-1.335-3.335-4.67-6.005-10.004-6.005c-4.671-0.665-8.005,1.328-10.005,3.999
					c-5.335,6.005-4.003,18.681,3.335,36.683l2.667,1.335c0.667,0.671,1.335,0,2.002-0.67
					C313.338,384.944,317.341,372.939,314.006,365.605z M304.002,364.935c2.667,0,4.002,1.335,5.334,3.335l0.668,2.664
					c0,4.676-3.335,12.011-9.338,22.679c-3.334-8.668-4.002-15.339-4.002-20.673c0-2.671,0.668-4.67,1.335-6.67
					C299.331,364.935,301.334,364.935,304.002,364.935z"/>
			</g>
		</g>
		<g>
			<g>
				<path d="M299.999,396.283c-2,0-2.667,1.328-2.667,2.67l-2,36.013c0,1.335,1.332,2.664,2.667,2.664c2,0,2.667-1.329,2.667-2.664
					l2-35.348C302.666,397.611,301.334,396.283,299.999,396.283z"/>
			</g>
		</g>
		<g>
			<g>
				<path fill="#9260C7" d="M320.676,414.957c5.334-4.005,10.005-8.669,14.007-13.34c8.67-10.004,9.337-16.673,1.332-20.68
					c-8.669-3.334-13.34,0.671-15.339,14.011C320.008,401.617,320.008,408.288,320.676,414.957z"/>
			</g>
		</g>
		<g>
			<g>
				<path d="M319.341,417.621h2.67c15.339-12.669,22.677-22.673,22.009-30.013c0-4.001-3.335-6.671-7.338-9.335l-11.336,0.671
					c-4.67,2.664-6.67,9.334-8.005,19.339c0,6.669,0,12.004,0,16.674L319.341,417.621z M338.686,388.278L338.686,388.278
					c0,5.334-5.338,12.669-16.011,21.345v-2.671c0-12.675,2.003-20.673,5.339-24.008l6.001,0.663L338.686,388.278z"/>
			</g>
		</g>
		<g>
			<g>
				<path fill="#858585" d="M157.269,479.654c4.67-8.676,6.67-18.01,4.67-27.343l-4.002-8.013
					c-4.002-6.669-10.004-11.332-18.678-14.667l-24.676-2.006l-8.004,2.67c-10.005-8.669-20.01-14.668-28.679-16.01
					c-13.339-2.664-22.012,0.671-26.679,10.676l-3.334,12.668l-4.67,8.012l-8.67,6.67c-3.335,2.664-4.67,6.669-6.002,11.997
					l-0.668,14.682c0.668,5.328-0.668,8.662-2.002,10.669l-6.67,7.998c-2.668,2.67-4,6.669-4.668,10.675
					c-1.334,6.67,0,16.004,4.003,25.344c11.337-0.665,21.341-2.67,30.014-7.998c7.334-3.335,12.004-6.006,15.339-7.341l16.006-0.671
					l16.675-1.329c4.003-1.335,8.005-4.67,11.34-10.004c3.335-3.999,8.669-5.342,16.675-5.342c9.336,0,16.006-1.992,18.674-3.999
					C149.932,491.658,153.935,486.323,157.269,479.654z"/>
			</g>
		</g>
		<g>
			<g>
				<path d="M165.938,460.31l-0.664-7.998l-4.67-10.677c-4.004-6.669-10.673-12.003-20.01-14.674
					c-13.34-5.334-24.68-5.334-34.016-0.664c-10.005-8.676-18.674-14.004-28.679-15.345c-14.675-2.664-24.679,1.341-29.346,12.675
					l-3.335,10.669l-4.67,8.676l-4.002,3.334c-6.002,4.664-10.005,10.005-11.337,16.674c-0.667,3.999-0.667,8.67-0.667,14.668
					l-1.336,10.005l-2.668,2.67c-5.334,5.341-8.668,11.341-9.336,18.01c-2.003,6.67,0,16.004,4.002,26.679l3.335,1.999
					c12.005-0.663,22.677-3.334,31.346-7.998c6.669-4.006,12.008-6.669,14.675-7.34l15.338-0.671l18.01-1.993l13.34-10.676
					c2-2.664,6.67-4.006,15.339-4.006l9.337-0.663c4.002-0.665,7.338-2,9.34-4l12.004-13.34
					C163.271,478.319,165.938,468.985,165.938,460.31z M137.927,432.967c8.002,2.67,13.34,6.669,17.342,12.004
					c2,3.335,2.668,5.999,3.336,8.005l0,0c2,10.004,0,19.344-5.338,28.007l-12.004,13.34c-2.004,1.341-7.338,3.335-14.675,3.335
					l-11.337,0.67c-4.002,1.336-7.337,3.336-9.34,5.999l-10.669,8.677l-15.343,1.328l-16.674,0.671
					c-4.002,1.335-9.336,4.006-16.674,8.005c-6.67,4-15.339,6.005-26.012,6.67c-1.999-5.341-4.002-11.34-4.002-16.674l0.668-4
					c1.335-4.677,4.002-10.004,8.005-14.01l2.667-3.335c2-2.664,3.335-5.999,3.335-10.004v-9.335c0-2.67,0-4.676,0.668-7.34
					c0.664-3.335,1.331-6.67,3.335-8.669l5.334-4.671l4.003-3.334c3.335-2.664,5.334-6.671,6.669-12.669l3.335-9.34
					c3.335-8.006,10.673-11.34,22.009-8.676c8.672,1.342,18.01,6.67,27.346,15.346h4.003l8.001-2.007
					C123.253,429.632,129.923,430.296,137.927,432.967z"/>
			</g>
		</g>
		<g>
			<g>
				<path d="M107.914,428.968c-1.335-0.672-2.003-0.672-3.335,0l-25.347,27.343c-19.341,22.009-33.349,40.018-43.353,56.692
					c-1.332,1.328-1.332,1.999,0.668,2.67c0.667,0.664,1.334,0.664,2.666-0.671c10.006-16.003,24.012-34.684,42.689-56.021
					c15.338-17.346,24.008-26.014,26.011-27.349C108.581,430.96,108.581,429.632,107.914,428.968z"/>
			</g>
		</g>
		<g>
			<g>
				<path d="M55.889,446.306l2.671-0.664l10.668-6.669c8.006-3.336,17.342-2.672,26.68,2.662l8.672,3.336
					c5.334,2.664,9.337,5.999,12.004,10.675c4.67,7.334,4.67,17.339,1.336,29.343c-0.668,0.671,0,1.335,1.332,2l2.002-1.329
					c4.668-13.34,4.003-24.015-1.334-32.02c-2.668-5.334-7.338-9.341-13.34-12.675l-9.338-2.664
					c-10.672-5.999-20.676-6.669-30.68-3.335l-10.673,8.67C54.557,444.971,54.557,444.971,55.889,446.306z"/>
			</g>
		</g>
		<g>
			<g>
				<path d="M55.224,458.98c-4.002,2.664-7.336,5.328-10.004,7.998c-0.667,1.336-0.667,1.336,0,2.671c1.332,1.329,2,1.329,2.668,0
					l9.336-7.333l20.677-0.672l5.335,2.664l9.336,8.676c3.336,6.67,3.336,14.004,0.668,22.009c-0.668,1.335,0,2.664,1.336,3.334
					c0.667,0,1.999,0,1.999-1.999c3.335-9.34,3.335-18.009-0.667-24.679c-2.668-4.006-6.002-7.341-10.005-10.676
					c-3.335-1.993-6.003-2.664-6.67-2.664L55.224,458.98z"/>
			</g>
		</g>
		<g>
			<g>
				<path d="M64.562,484.988l-5.338-3.334c-4.667-1.336-9.337-0.672-16.006,2.664l-8.002,4.676
					c-0.668,1.328-0.668,2.664-0.668,3.335c1.332,0.664,2,0.664,3.334,0l6.671-4.677c5.334-2.664,10.004-3.334,13.339-1.993
					l3.335,2.664c3.335,1.336,4.667,3.335,5.335,5.999c1.334,2.67,1.334,6.669-2,10.676c0,1.335,0,1.999,1.332,2.664
					c0.668,0.67,2.002,0.67,2.002-1.329c3.336-4.67,4.668-8.676,3.336-14.004L64.562,484.988z"/>
			</g>
		</g>
		<g>
			<g>
				<path fill="#858585" d="M233.971,461.645v17.346c0.667,13.339,4.002,22.001,9.336,26.678c6.003,5.328,11.34,9.334,18.677,11.998
					l14.672,3.335c2.003,0.671,4.67,2.67,7.337,6.669c2.668,3.336,5.335,5.341,8.006,6.67l11.335,1.342h10.005l7.338,2.664
					l9.337,4.006l32.68-0.671c-0.663-17.345-2.667-28.678-4.666-34.019c-0.668-2.664-0.668-5.999-0.668-10.67v-10.669
					c-0.667-3.334-4.002-8.676-10.004-16.674c-2-2.006-3.335-4.67-3.335-8.005l-1.335-16.003c0-7.341-3.999-14.682-11.337-21.351
					c-6.67-6-14.007-9.334-21.344-7.999c-6.671,1.329-14.007,4.663-22.677,10.669l-10.005,8.676l-23.344,2.664
					c-5.334,1.335-9.336,4.671-12.672,8.005C238.64,449.641,236.638,454.976,233.971,461.645z"/>
			</g>
		</g>
		<g>
			<g>
				<path d="M253.312,434.966c-6.669,2.664-11.337,5.999-14.672,10.005c-2.67,3.335-5.337,8.669-8.005,16.003v0.671
					c-0.667,3.335-0.667,10.005,0,18.674c0.668,12.675,4.671,22.016,10.005,28.014c9.337,8.005,20.677,14.011,34.684,16.004
					c1.999,0,3.335,1.342,5.335,4.676c3.334,4.664,6.669,7.335,10.004,8.663l15.34,1.342h6.669l11.34,3.999l4.003,2.671
					l19.341,1.328l15.338-2.67c2.672,0,3.336-1.329,3.336-3.336c-0.664-16.003-2.668-28.006-4.668-34.676
					c-0.667-1.335-0.667-4.67-0.667-10.005v-10.669c-0.668-4.677-4.002-10.676-10.005-16.674l-0.667-1.342l-2.667-5.327
					l-1.335-10.677v-5.998c-0.665-10.005-5.335-18.016-14.004-25.35c-7.338-6.006-14.675-8.67-22.68-7.335
					c-10.005,2-21.341,7.998-33.349,19.345L253.312,434.966z M243.975,448.306c2.668-2.664,6.67-5.334,11.34-6.671
					c7.334-2.662,14.004-3.334,21.341-2.662l2.667-0.672l10.005-8.669c8.005-5.341,14.675-8.677,21.344-10.005
					c5.334-1.336,10.672,1.328,17.343,5.335c6.669,6.67,11.335,13.339,11.335,20.68v5.998l1.336,12.669c0,2.67,2,4.677,3.335,7.341
					l2,1.335l8.005,14.004l0.667,3.999l-0.667,10.676l1.335,6.669c1.332,5.999,2.667,16.004,3.999,30.685l-28.011,0.665l-4.67-2.007
					c-5.335-3.335-9.337-4.664-13.34-5.328h-8.001l-12.007-1.341l-6.67-5.328c-3.335-4.677-6.002-7.341-9.338-8.012
					c-13.339-2.664-24.011-6.67-31.348-14.668c-6.003-4.671-8.67-15.346-8.67-30.679v-10.003
					C239.305,456.311,241.307,451.64,243.975,448.306z"/>
			</g>
		</g>
		<g>
			<g>
				<path d="M276.655,434.966h-2.667c-1.335,1.335-0.668,2.664,0,3.335l24.011,23.344c17.343,20.01,29.347,40.019,36.684,60.698
					c0,0.664,1.332,0.664,2.667,0.664c1.336-0.664,1.999-1.335,1.336-2.671c-8.005-20.673-20.01-40.682-38.02-61.355
					L276.655,434.966z"/>
			</g>
		</g>
		<g>
			<g>
				<path d="M256.646,485.659l2.667-1.341c1.335-4.664,4.002-9.335,8.005-14.669c6.67-9.34,15.339-14.674,24.012-16.674l6.002-4
					c4.669-2.005,8.67-2.67,12.672-2.67c4.669,0.665,8.672,2.67,12.007,7.334l2.667,0.664v-2.664
					c-4.002-5.998-8.673-8.668-14.674-9.333c-4.002,0-9.338,0.665-13.34,2.664c-2.667,2-5.334,3.335-6.67,4.67
					c-10.005,1.999-18.673,7.334-26.011,18.003c-4.67,6.005-7.337,10.676-8.669,15.346v0.664L256.646,485.659z"/>
			</g>
		</g>
		<g>
			<g>
				<path d="M320.676,462.979l-12.004-0.663c-2.67,0.663-4.67,1.992-5.339,2.663c-12.671,5.335-19.341,14.011-20.676,26.008
					c-0.664,6.005,0,11.347,2.003,16.675c0,0.67,1.332,0.67,2.667,0.67c0.668,0,1.335-1.335,0.668-2.664
					c-1.335-4.005-2.003-9.34-1.335-14.681c0.667-10.005,7.337-18.003,18.01-22.673l5.334-1.999h9.337
					c5.337,1.999,10.005,6.004,14.674,13.339c0,1.328,0.668,2,2.667,1.328c0.668-1.328,1.335-1.992,0.668-2.663
					C332.68,469.649,327.346,464.979,320.676,462.979z"/>
			</g>
		</g>
		<g>
			<g>
				<path d="M330.013,488.994h-8.67c-8.672,3.999-14.006,11.333-15.341,22.002c-0.665,4.677,0,10.005,0.667,14.682
					c0.668,0.664,1.335,1.329,2.667,0.664c1.335,0,1.335-0.664,1.335-2.006c-0.667-4.664-1.335-9.334-0.667-13.34
					c0.667-9.333,4.669-15.333,12.671-18.667l6.671,0.664c4.669,2,8.671,5.334,12.007,11.333l2.667,0.672
					c0.668-0.672,1.335-2,0.668-2.664C340.685,494.993,336.015,490.987,330.013,488.994z"/>
			</g>
		</g>
		<g>
			<g>
				<path fill="#858585" d="M143.263,459.645l-3.336,10.005l-6.002,6.669c-2,3.336-4.002,8-4.67,14.669
					c-1.332,5.341-1.332,10.676,0.668,15.346l0.668,13.339l-4.003,11.334l-2.667,6.669c-1.336,7.341-0.668,14.011,2,20.009
					l10.004,20.01c20.009-1.329,33.348-3.336,40.018-6c12.008-5.998,21.345-12.004,26.015-17.344
					c1.999-2.664,7.334-5.328,14.004-7.335c7.337-2.67,11.34-4.663,13.339-6.669l4.671-11.334
					c1.999-6.005,4.002-10.004,6.001-12.675l10.673-12.011c4.002-5.327,6.67-9.333,8.005-11.997
					c1.999-6.006,1.999-11.347,1.999-17.346c-1.335-8.668-4.67-16.674-10.004-23.344c-6.002-5.998-14.007-8.668-26.679-8.668
					l-16.675,1.999l-11.34-8.67c-8.669-4.669-17.338-7.333-24.675-5.341c-7.338,1.342-13.34,4.006-17.342,6.67
					c-2,1.343-4.67,5.342-8.006,10.676C143.93,450.97,143.263,454.976,143.263,459.645z"/>
			</g>
		</g>
		<g>
			<g>
				<path d="M139.259,459.645l-1.999,8.67l-2.667,2.664c-4.67,4.677-7.338,11.346-8.672,19.344
					c-1.332,6.006-1.332,12.012,0.667,18.01c1.335,3.335,1.335,6.67,0.667,10.676l-4.002,10.669l-2.667,7.333
					c-0.667,6.006-0.667,11.34,0,15.346l5.335,11.998l7.336,14.011c0.668,1.335,1.336,2.664,3.336,2.664
					c20.008-1.329,34.016-3.335,40.686-6.671c13.339-5.998,22.009-11.997,27.346-18.003c1.999-2.005,6.003-3.999,12.672-6.669
					c6.67-2.006,12.004-3.999,14.007-7.334c2.668-2.67,4.667-6.67,6.002-12.675c2-4.671,3.335-8.005,5.334-11.34l8.006-9.334
					c6.002-6.669,9.337-11.346,10.672-16.01c2.667-6.67,2.667-13.339,1.999-20.674c-1.332-8.011-4.666-16.009-10.004-22.679
					c-8.669-9.341-23.344-12.011-45.352-8.006c-13.341-12.003-25.348-16.673-37.352-14.009c-8.005,1.342-14.008,4.006-18.674,7.34
					l-8.672,10.676C141.263,448.306,140.595,452.976,139.259,459.645z M171.943,434.296c6.003-1.994,14.003,0.67,22.009,5.34
					l10.672,7.999l3.336,0.671l16.006-2c11.34,0,19.341,2.67,24.012,7.998c6.001,7.341,9.337,15.346,9.337,24.687l-2,12.668
					l-9.34,12.668l-8.67,10.005c-1.999,3.335-4.002,7.341-6.002,13.339l-4.67,10.005c-1.332,2.007-5.334,3.334-11.337,6.006
					c-8.005,2.006-12.675,5.341-15.342,8.675c-4.666,4.664-13.339,10.005-26.012,16.675l-36.016,4.663l-6.669-12.675
					c-3.335-6.669-4.67-11.997-4.67-15.332l0.667-7.341l2-5.335c2.003-3.334,4.002-7.333,4.67-12.675l0.668-5.334l-1.336-9.334
					l-1.999-7.341l1.332-6.669c0.667-7.34,3.335-13.339,6.669-16.003l3.336-4.006c1.335-2,3.334-5.999,3.334-11.34
					c0.668-5.334,1.336-8.67,3.336-10.669c2.67-4.67,4.67-8.006,7.336-10.005C159.937,437.63,164.606,434.966,171.943,434.296z"/>
			</g>
		</g>
		<g>
			<g>
				<path d="M208.627,442.972l-2.671,0.664c-3.335,2.67-9.337,10.668-17.338,24.679c-12.676,21.345-24.68,48.022-35.352,79.365
					c-0.668,1.342,0,2.006,0.668,2.67c1.999,0.664,2.666,0,3.334-1.328c10.005-30.685,22.01-57.363,35.349-79.372l16.01-23.344
					C209.959,444.971,209.959,444.299,208.627,442.972z"/>
			</g>
		</g>
		<g>
			<g>
				<path d="M165.938,456.311l-9.338,7.334c-0.667,1.335-0.667,1.335,0.668,2.671l2.668-0.665l8.004-6.006
					c8.002-2.006,16.007-1.335,26.679,3.335h0.669l8.668,1.329c6.671,0.671,12.005,4.006,16.007,7.341
					c4.67,5.334,7.338,12.669,6.67,22.673c0,0.671,0.668,1.341,2.003,1.341l1.999-1.341c0.668-10.669-1.999-19.339-8.004-25.337
					c-6.67-6.669-15.34-10.005-26.68-10.005C183.947,454.304,173.942,452.976,165.938,456.311z"/>
			</g>
		</g>
		<g>
			<g>
				<path d="M181.28,482.989l-24.68,0.664l-10.672,7.334c-1.332,0.671-1.332,1.342,0,2.671c0.668,1.335,1.336,1.335,2.004,0
					l10.004-6.006l22.676-1.329l8.67,2.671c5.337,2.664,10.672,5.328,13.339,9.333c4.002,4.671,4.67,11.34,4.002,18.675
					c0,1.335,0.668,2.006,1.337,2.006l2.667-1.342c1.335-8.663,0-16.003-4.671-22.003c-3.335-4.005-8.669-8.011-15.339-10.675
					L181.28,482.989z"/>
			</g>
		</g>
		<g>
			<g>
				<path d="M184.616,522.343c-2.004-4.006-5.338-6.67-10.006-8.012l-6.67-1.993c-6.669-3.335-13.339-2.006-18.676,2.664
					c-4.668,3.335-8.67,8.005-10.67,14.01c-0.668,1.329,0.664,1.994,1.332,3.335c0.668,0,1.336-0.671,2.668-1.341l6.67-10.005
					c5.337-5.999,11.34-7.998,18.009-5.328l6.002,1.993c4.003,1.342,6.67,4.006,8.005,6.67c3.336,4.676,2.667,11.346,0,20.009
					c-0.668,1.342,0,2.006,1.332,2.006l2.671-0.664C188.618,535.682,188.618,527.67,184.616,522.343z"/>
			</g>
		</g>
	</g>
	<g>
		<g>
			<path fill="#FF0000" d="M109.193,27.851c0.655,41.486,5.923,88.902,15.801,142.904c18.438,107.341,49.39,190.976,90.876,251.556
				l131.052-3.948c-50.707-67.165-85.608-152.12-106.685-255.51c-9.877-51.365-15.802-96.15-15.802-135L109.193,27.851
				L109.193,27.851z"/>
		</g>
	</g>
	<g>
		<g>
			<path d="M227.729,27.851c0-1.974-1.317-3.292-3.294-3.292H109.193c-1.317,0-1.981,0.663-3.293,1.318v1.974
				c1.312,42.805,6.586,91.533,16.463,144.878c19.094,107.995,49.392,190.975,90.877,250.905c0.654,1.313,1.975,1.968,2.629,1.968
				l131.052-3.948l2.638-1.976v-3.291c-49.391-65.854-84.954-150.146-105.366-252.217
				C233.652,112.798,228.385,67.363,227.729,27.851z M112.486,31.143h108.656c1.313,46.098,7.242,95.489,19.095,146.852
				c21.075,94.833,54.001,173.856,100.099,237.073l-122.484,3.948c-38.855-55.977-67.833-134.337-86.927-233.117
				C120.384,132.556,114.46,80.534,112.486,31.143z"/>
		</g>
	</g>
</g>
<path id="PATH77" fill="none" stroke="#000000" stroke-width="3" stroke-miterlimit="100" d="M370.59,585.26H3.92V2.74h366.67
	V585.26L370.59,585.26z"/>
</svg>
