<?xml version="1.0" standalone="no"?>
<!DOCTYPE svg PUBLIC "-//W3C//DTD SVG 20010904//EN" "http://www.w3.org/TR/2001/REC-SVG-20010904/DTD/svg10.dtd">
<svg xmlns="http://www.w3.org/2000/svg" xmlns:svg="http://www.w3.org/2000/svg" xmlns:dc="http://purl.org/dc/elements/1.1/" xmlns:cc="http://web.resource.org/cc/" xmlns:rdf="http://www.w3.org/1999/02/22-rdf-syntax-ns#" version="1.0" width="468pt" height="468pt" viewBox="0 0 468 468" preserveAspectRatio="xMidYMid meet">
  <g transform="translate(0,468) scale(0.066857,-0.066857)" fill="#000000" stroke="none">
    <path d="M2765 5770 c-153 -24 -327 -90 -516 -195 l-118 -66 -103 11 c-227 26 -410 -14 -687 -149 -47 -23 -93 -41 -102 -41 -56 0 -253 -79 -339 -137 -28 -18 -69 -29 -166 -44 -176 -26 -290 -60 -413 -120 -170 -84 -234 -167 -217 -286 13 -95 93 -181 236 -253 52 -26 56 -31 73 -85 34 -111 91 -165 277 -259 101 -52 111 -60 150 -118 50 -75 48 -76 -83 -89 -184 -17 -257 -62 -257 -156 0 -66 33 -94 143 -123 l88 -23 27 -56 c24 -50 35 -60 97 -94 89 -48 103 -61 130 -123 27 -60 70 -111 134 -158 66 -48 135 -73 254 -92 298 -45 281 -40 326 -94 54 -65 180 -164 253 -201 79 -40 171 -59 288 -59 116 0 202 20 294 67 64 32 76 35 126 29 30 -3 81 -15 112 -26 51 -18 82 -20 282 -20 199 0 230 -2 278 -20 29 -11 111 -29 183 -40 86 -13 134 -25 141 -35 29 -39 23 -306 -10 -445 -35 -153 -112 -335 -209 -495 -79 -132 -229 -339 -300 -418 -63 -70 -82 -96 -75 -102 7 -8 141 45 235 92 237 120 438 265 618 447 196 197 322 385 416 620 42 105 93 283 115 404 6 28 26 28 91 -2 103 -49 230 -69 423 -69 199 0 328 18 458 62 159 55 280 148 333 257 30 61 32 69 26 142 -4 42 -9 93 -13 112 l-6 35 57 18 c101 31 159 65 245 143 46 41 102 85 125 96 86 43 155 90 176 120 13 18 24 53 28 86 l6 56 45 12 c25 7 79 20 120 29 147 34 289 116 324 189 46 97 -12 185 -168 256 -84 38 -257 80 -333 80 -32 1 -68 6 -80 13 -22 12 -20 15 53 62 137 90 177 158 153 258 -24 102 -133 177 -379 260 -117 39 -125 44 -128 70 -2 16 5 38 17 53 28 36 27 98 -2 146 -23 39 -105 106 -167 138 -110 56 -397 113 -655 131 -82 5 -190 19 -239 31 -123 28 -311 22 -401 -13 -56 -22 -76 -24 -284 -27 l-224 -3 -71 49 c-186 129 -359 171 -507 125 -82 -26 -212 -21 -329 12 -107 29 -273 40 -375 25z m333 -312 c75 -104 162 -188 195 -188 42 0 78 60 92 153 4 26 12 46 18 44 5 -1 19 -32 31 -67 26 -79 57 -134 78 -138 24 -5 54 53 79 153 12 50 24 92 26 94 8 10 34 -39 68 -127 22 -55 50 -106 70 -127 28 -30 39 -35 79 -35 57 0 89 16 141 69 57 60 62 55 53 -46 -6 -56 -5 -90 1 -96 18 -18 61 13 154 108 l88 90 -19 -50 c-11 -27 -28 -69 -37 -92 -31 -78 -11 -71 93 31 56 55 105 96 109 92 4 -3 -5 -31 -20 -62 -37 -74 -36 -87 6 -79 42 9 89 40 173 115 59 52 129 100 149 100 3 0 -11 -22 -30 -48 -45 -64 -87 -154 -76 -165 22 -22 114 17 230 94 65 44 125 79 134 79 18 0 37 -55 37 -104 0 -44 36 -111 76 -141 19 -14 60 -38 92 -53 51 -23 72 -27 192 -30 87 -2 177 2 255 12 226 30 226 28 5 -84 -107 -54 -187 -99 -177 -99 14 -1 175 41 330 85 12 4 17 0 17 -13 0 -22 -49 -70 -132 -131 -92 -68 -74 -112 62 -152 59 -18 96 -20 299 -20 182 0 232 -3 229 -12 -3 -7 -74 -32 -159 -55 -245 -67 -301 -84 -352 -110 -79 -40 -60 -48 121 -51 129 -2 162 -5 162 -16 0 -18 -15 -23 -90 -32 -34 -4 -71 -14 -83 -24 l-22 -18 25 -20 c33 -27 227 -72 605 -142 66 -12 124 -26 130 -31 5 -5 7 -9 5 -9 -95 -6 -466 -56 -558 -75 -132 -28 -152 -36 -152 -65 0 -28 19 -38 126 -66 104 -27 152 -52 79 -40 -22 3 -98 8 -170 11 l-130 5 178 -32 c97 -18 177 -35 177 -40 0 -4 -117 -8 -261 -8 -167 0 -268 -4 -280 -11 -20 -10 -20 -11 -2 -31 26 -29 87 -62 180 -98 46 -17 85 -36 88 -41 9 -13 -68 -11 -223 7 -157 18 -266 15 -290 -10 -28 -28 -5 -64 68 -106 134 -79 150 -89 150 -98 0 -5 -66 12 -147 38 -179 57 -207 64 -199 51 6 -9 168 -101 306 -172 l65 -34 -195 -7 c-194 -6 -255 -16 -332 -52 -104 -50 -170 -152 -190 -296 -6 -47 -13 -86 -14 -88 -5 -8 -76 36 -184 113 -183 130 -210 147 -256 161 -39 11 -46 11 -65 -5 l-23 -18 22 -60 c12 -33 22 -63 22 -67 0 -14 -28 -4 -66 24 l-41 29 1 -182 c1 -160 -2 -193 -23 -272 -85 -329 -294 -629 -616 -890 -81 -65 -297 -215 -310 -215 -3 0 42 53 101 118 213 235 338 438 390 637 23 87 27 125 31 300 6 262 -3 304 -86 390 -32 33 -83 86 -112 118 -114 124 -178 119 -268 -23 -70 -111 -83 -108 -80 20 1 56 -1 104 -5 107 -3 4 -17 -4 -30 -16 -21 -20 -41 -61 -87 -179 -13 -34 -25 -19 -33 40 -27 225 -131 245 -323 64 -67 -63 -83 -74 -83 -57 0 12 7 38 15 58 19 45 19 83 1 83 -51 0 -178 -83 -288 -188 -93 -89 -103 -83 -64 39 14 44 26 91 26 105 0 44 -27 81 -77 105 -41 21 -62 24 -148 23 -102 -1 -161 -12 -307 -60 -43 -14 -82 -23 -88 -19 -25 15 -7 67 41 123 41 46 41 112 1 152 -52 52 -111 63 -381 69 -177 4 -240 9 -230 17 8 6 48 25 89 43 96 41 220 112 220 124 0 13 -192 2 -290 -17 -92 -17 -203 -24 -210 -12 -3 4 49 27 115 51 185 66 189 67 203 78 6 5 12 13 12 18 0 5 -124 9 -277 9 -152 0 -273 3 -269 8 4 4 125 37 269 74 l262 66 -95 2 -95 2 182 38 c101 21 187 42 193 45 33 20 -9 25 -227 25 -140 0 -233 4 -227 9 5 5 45 18 89 29 89 22 175 57 175 70 0 4 -13 21 -29 36 -34 32 -184 82 -431 141 -80 20 -152 39 -160 43 -8 3 59 9 150 12 163 6 216 17 207 43 -10 33 -198 96 -532 180 -44 11 -83 23 -87 26 -8 7 219 34 437 51 186 16 328 59 346 108 18 47 0 93 -60 151 l-55 54 79 -6 c44 -4 125 -18 180 -32 114 -30 327 -46 339 -26 16 25 -10 56 -97 113 -138 90 -142 106 -20 72 117 -32 271 -54 381 -54 169 0 196 33 126 157 -19 35 -34 72 -32 83 3 17 20 8 123 -61 143 -96 215 -141 215 -134 0 2 -30 41 -66 86 -36 44 -63 83 -60 86 2 3 49 -26 103 -65 110 -77 142 -96 150 -88 10 10 -13 48 -81 135 -37 46 -65 86 -62 88 2 2 35 -11 74 -31 107 -54 185 -77 266 -78 83 -1 117 13 164 66 28 32 82 171 82 212 0 7 2 14 4 14 2 0 31 -37 64 -82z"/>
  </g>
  <metadata>
    <rdf:RDF>
      <cc:Work>
        <dc:format>image/svg+xml</dc:format>
        <dc:type rdf:resource="http://purl.org/dc/dcmitype/StillImage"/>
        <cc:license rdf:resource="http://creativecommons.org/licenses/publicdomain/"/>
        <dc:publisher>
          <cc:Agent rdf:about="http://openclipart.org/">
            <dc:title>Open Clip Art Library</dc:title>
          </cc:Agent>
        </dc:publisher>
        <dc:title>Speech 18</dc:title>
        <dc:date>2012-02-06T15:32:16</dc:date>
        <dc:description>A Speech Bubble</dc:description>
        <dc:source>http://openclipart.org/detail/167812/speech-18-by-dripsandcastle</dc:source>
        <dc:creator>
          <cc:Agent>
            <dc:title>dripsandcastle</dc:title>
          </cc:Agent>
        </dc:creator>
        <dc:subject>
          <rdf:Bag>
            <rdf:li>bubble</rdf:li>
            <rdf:li>cartoon</rdf:li>
            <rdf:li>clip art</rdf:li>
            <rdf:li>clipart</rdf:li>
            <rdf:li>speech</rdf:li>
            <rdf:li>talk</rdf:li>
            <rdf:li>words</rdf:li>
          </rdf:Bag>
        </dc:subject>
      </cc:Work>
      <cc:License rdf:about="http://creativecommons.org/licenses/publicdomain/">
        <cc:permits rdf:resource="http://creativecommons.org/ns#Reproduction"/>
        <cc:permits rdf:resource="http://creativecommons.org/ns#Distribution"/>
        <cc:permits rdf:resource="http://creativecommons.org/ns#DerivativeWorks"/>
      </cc:License>
    </rdf:RDF>
  </metadata>
</svg>
