<?xml version="1.0" encoding="UTF-8" standalone="no"?>
<!-- Created with Inkscape (http://www.inkscape.org/) -->

<svg
   xmlns:dc="http://purl.org/dc/elements/1.1/"
   xmlns:cc="http://creativecommons.org/ns#"
   xmlns:rdf="http://www.w3.org/1999/02/22-rdf-syntax-ns#"
   xmlns:svg="http://www.w3.org/2000/svg"
   xmlns="http://www.w3.org/2000/svg"
   xmlns:xlink="http://www.w3.org/1999/xlink"
   xmlns:sodipodi="http://sodipodi.sourceforge.net/DTD/sodipodi-0.dtd"
   xmlns:inkscape="http://www.inkscape.org/namespaces/inkscape"
   version="1.0"
   width="800"
   height="800"
   id="svg2433"
   inkscape:version="0.48.2 r9819"
   sodipodi:docname="board.svg">
  <metadata
     id="metadata3753">
    <rdf:RDF>
      <cc:Work
         rdf:about="">
        <dc:format>image/svg+xml</dc:format>
        <dc:type
           rdf:resource="http://purl.org/dc/dcmitype/StillImage" />
      </cc:Work>
    </rdf:RDF>
  </metadata>
  <sodipodi:namedview
     pagecolor="#ffffff"
     bordercolor="#666666"
     borderopacity="1"
     objecttolerance="10"
     gridtolerance="10"
     guidetolerance="10"
     inkscape:pageopacity="0"
     inkscape:pageshadow="2"
     inkscape:window-width="917"
     inkscape:window-height="694"
     id="namedview3751"
     showgrid="false"
     inkscape:zoom="0.57160494"
     inkscape:cx="405"
     inkscape:cy="405"
     inkscape:window-x="0"
     inkscape:window-y="0"
     inkscape:window-maximized="0"
     inkscape:current-layer="svg2433" />
  <defs
     id="defs2435" />
  <rect
     style="fill:#9f9f9f;fill-opacity:1;fill-rule:evenodd;stroke:none;stroke-width:1px;marker:none;visibility:visible;display:inline;overflow:visible;enable-background:accumulate"
     id="rect2499"
     y="7.3730467e-07"
     x="-1.1328125e-06"
     height="100"
     width="100" />
  <use
     xlink:href="#rect2499"
     height="1052.3622"
     width="744.09448"
     y="0"
     x="0"
     id="use2959"
     transform="translate(0,200)" />
  <use
     xlink:href="#rect2499"
     height="1052.3622"
     width="744.09448"
     y="0"
     x="0"
     id="use2963"
     transform="translate(0,410)" />
  <use
     xlink:href="#rect2499"
     height="1052.3622"
     width="744.09448"
     y="0"
     x="0"
     id="use2967"
     transform="translate(0,610)" />
  <use
     xlink:href="#rect2499"
     height="1052.3622"
     width="744.09448"
     y="0"
     x="0"
     id="use2973"
     transform="translate(100,100)" />
  <use
     xlink:href="#rect2499"
     height="1052.3622"
     width="744.09448"
     y="0"
     x="0"
     id="use2977"
     transform="translate(100,300)" />
  <use
     xlink:href="#rect2499"
     height="1052.3622"
     width="744.09448"
     y="0"
     x="0"
     id="use2981"
     transform="translate(100,510)" />
  <use
     xlink:href="#rect2499"
     height="1052.3622"
     width="744.09448"
     y="0"
     x="0"
     id="use2985"
     transform="translate(100,710)" />
  <use
     xlink:href="#rect2499"
     height="1052.3622"
     width="744.09448"
     y="0"
     x="0"
     id="use2987"
     transform="translate(200,0)" />
  <use
     xlink:href="#rect2499"
     height="1052.3622"
     width="744.09448"
     y="0"
     x="0"
     id="use2991"
     transform="translate(200,200)" />
  <use
     xlink:href="#rect2499"
     height="1052.3622"
     width="744.09448"
     y="0"
     x="0"
     id="use2995"
     transform="translate(200,410)" />
  <use
     xlink:href="#rect2499"
     height="1052.3622"
     width="744.09448"
     y="0"
     x="0"
     id="use2999"
     transform="translate(200,610)" />
  <use
     xlink:href="#rect2499"
     height="1052.3622"
     width="744.09448"
     y="0"
     x="0"
     id="use3005"
     transform="translate(300,100)" />
  <use
     xlink:href="#rect2499"
     height="1052.3622"
     width="744.09448"
     y="0"
     x="0"
     id="use3009"
     transform="translate(300,300)" />
  <use
     xlink:href="#rect2499"
     height="1052.3622"
     width="744.09448"
     y="0"
     x="0"
     id="use3013"
     transform="translate(300,510)" />
  <use
     xlink:href="#rect2499"
     height="1052.3622"
     width="744.09448"
     y="0"
     x="0"
     id="use3017"
     transform="translate(300,710)" />
  <use
     xlink:href="#rect2499"
     height="1052.3622"
     width="744.09448"
     y="0"
     x="0"
     id="use3019"
     transform="translate(480,0)" />
  <use
     xlink:href="#rect2499"
     height="1052.3622"
     width="744.09448"
     y="0"
     x="0"
     id="use3023"
     transform="translate(480,200)" />
  <use
     xlink:href="#rect2499"
     height="1052.3622"
     width="744.09448"
     y="0"
     x="0"
     id="use3027"
     transform="translate(480,410)" />
  <use
     xlink:href="#rect2499"
     height="1052.3622"
     width="744.09448"
     y="0"
     x="0"
     id="use3031"
     transform="translate(480,610)" />
  <use
     xlink:href="#rect2499"
     height="1052.3622"
     width="744.09448"
     y="0"
     x="0"
     id="use3037"
     transform="translate(580,100)" />
  <use
     xlink:href="#rect2499"
     height="1052.3622"
     width="744.09448"
     y="0"
     x="0"
     id="use3041"
     transform="translate(580,300)" />
  <use
     xlink:href="#rect2499"
     height="1052.3622"
     width="744.09448"
     y="0"
     x="0"
     id="use3045"
     transform="translate(580,510)" />
  <use
     xlink:href="#rect2499"
     height="1052.3622"
     width="744.09448"
     y="0"
     x="0"
     id="use3049"
     transform="translate(580,710)" />
  <use
     xlink:href="#rect2499"
     height="1052.3622"
     width="744.09448"
     y="0"
     x="0"
     id="use3051"
     transform="translate(680,0)" />
  <use
     xlink:href="#rect2499"
     height="1052.3622"
     width="744.09448"
     y="0"
     x="0"
     id="use3055"
     transform="translate(680,200)" />
  <use
     xlink:href="#rect2499"
     height="1052.3622"
     width="744.09448"
     y="0"
     x="0"
     id="use3059"
     transform="translate(680,410)" />
  <use
     xlink:href="#rect2499"
     height="1052.3622"
     width="744.09448"
     y="0"
     x="0"
     id="use3063"
     transform="translate(680,610)" />
  <use
     xlink:href="#rect2499"
     height="1052.3622"
     width="744.09448"
     y="0"
     x="0"
     id="use3069"
     transform="translate(780,100)" />
  <use
     xlink:href="#rect2499"
     height="1052.3622"
     width="744.09448"
     y="0"
     x="0"
     id="use3073"
     transform="translate(780,300)" />
  <use
     xlink:href="#rect2499"
     height="1052.3622"
     width="744.09448"
     y="0"
     x="0"
     id="use3077"
     transform="translate(780,510)" />
  <use
     xlink:href="#rect2499"
     height="1052.3622"
     width="744.09448"
     y="0"
     x="0"
     id="use3081"
     transform="translate(780,710)" />
  <rect
     style="fill:#666666;fill-opacity:1;fill-rule:evenodd;stroke:none;stroke-width:1px;marker:none;visibility:visible;display:inline;overflow:visible;enable-background:accumulate"
     id="rect2497"
     y="7.3730467e-07"
     x="100"
     height="100"
     width="100" />
  <use
     xlink:href="#rect2497"
     height="1052.3622"
     width="744.09448"
     y="0"
     x="0"
     id="use3087"
     transform="translate(-100,100)" />
  <use
     xlink:href="#rect2497"
     height="1052.3622"
     width="744.09448"
     y="0"
     x="0"
     id="use3091"
     transform="translate(-100,300)" />
  <use
     xlink:href="#rect2497"
     height="1052.3622"
     width="744.09448"
     y="0"
     x="0"
     id="use3095"
     transform="translate(-100,510)" />
  <use
     xlink:href="#rect2497"
     height="1052.3622"
     width="744.09448"
     y="0"
     x="0"
     id="use3099"
     transform="translate(-100,710)" />
  <use
     xlink:href="#rect2497"
     height="1052.3622"
     width="744.09448"
     y="0"
     x="0"
     id="use3105"
     transform="translate(0,200)" />
  <use
     xlink:href="#rect2497"
     height="1052.3622"
     width="744.09448"
     y="0"
     x="0"
     id="use3109"
     transform="translate(0,410)" />
  <use
     xlink:href="#rect2497"
     height="1052.3622"
     width="744.09448"
     y="0"
     x="0"
     id="use3113"
     transform="translate(0,610)" />
  <use
     xlink:href="#rect2497"
     height="1052.3622"
     width="744.09448"
     y="0"
     x="0"
     id="use3119"
     transform="translate(100,100)" />
  <use
     xlink:href="#rect2497"
     height="1052.3622"
     width="744.09448"
     y="0"
     x="0"
     id="use3123"
     transform="translate(100,300)" />
  <use
     xlink:href="#rect2497"
     height="1052.3622"
     width="744.09448"
     y="0"
     x="0"
     id="use3127"
     transform="translate(100,510)" />
  <use
     xlink:href="#rect2497"
     height="1052.3622"
     width="744.09448"
     y="0"
     x="0"
     id="use3131"
     transform="translate(100,710)" />
  <use
     xlink:href="#rect2497"
     height="1052.3622"
     width="744.09448"
     y="0"
     x="0"
     id="use3133"
     transform="translate(200,0)" />
  <use
     xlink:href="#rect2497"
     height="1052.3622"
     width="744.09448"
     y="0"
     x="0"
     id="use3137"
     transform="translate(200,200)" />
  <use
     xlink:href="#rect2497"
     height="1052.3622"
     width="744.09448"
     y="0"
     x="0"
     id="use3141"
     transform="translate(200,410)" />
  <use
     xlink:href="#rect2497"
     height="1052.3622"
     width="744.09448"
     y="0"
     x="0"
     id="use3145"
     transform="translate(200,610)" />
  <use
     xlink:href="#rect2497"
     height="1052.3622"
     width="744.09448"
     y="0"
     x="0"
     id="use3151"
     transform="translate(380,100)" />
  <use
     xlink:href="#rect2497"
     height="1052.3622"
     width="744.09448"
     y="0"
     x="0"
     id="use3155"
     transform="translate(380,300)" />
  <use
     xlink:href="#rect2497"
     height="1052.3622"
     width="744.09448"
     y="0"
     x="0"
     id="use3159"
     transform="translate(380,510)" />
  <use
     xlink:href="#rect2497"
     height="1052.3622"
     width="744.09448"
     y="0"
     x="0"
     id="use3163"
     transform="translate(380,710)" />
  <use
     xlink:href="#rect2497"
     height="1052.3622"
     width="744.09448"
     y="0"
     x="0"
     id="use3165"
     transform="translate(480,0)" />
  <use
     xlink:href="#rect2497"
     height="1052.3622"
     width="744.09448"
     y="0"
     x="0"
     id="use3169"
     transform="translate(480,200)" />
  <use
     xlink:href="#rect2497"
     height="1052.3622"
     width="744.09448"
     y="0"
     x="0"
     id="use3173"
     transform="translate(480,410)" />
  <use
     xlink:href="#rect2497"
     height="1052.3622"
     width="744.09448"
     y="0"
     x="0"
     id="use3177"
     transform="translate(480,610)" />
  <use
     xlink:href="#rect2497"
     height="1052.3622"
     width="744.09448"
     y="0"
     x="0"
     id="use3183"
     transform="translate(580,100)" />
  <use
     xlink:href="#rect2497"
     height="1052.3622"
     width="744.09448"
     y="0"
     x="0"
     id="use3187"
     transform="translate(580,300)" />
  <use
     xlink:href="#rect2497"
     height="1052.3622"
     width="744.09448"
     y="0"
     x="0"
     id="use3191"
     transform="translate(580,510)" />
  <use
     xlink:href="#rect2497"
     height="1052.3622"
     width="744.09448"
     y="0"
     x="0"
     id="use3195"
     transform="translate(580,710)" />
  <use
     xlink:href="#rect2497"
     height="1052.3622"
     width="744.09448"
     y="0"
     x="0"
     id="use3197"
     transform="translate(680,0)" />
  <use
     xlink:href="#rect2497"
     height="1052.3622"
     width="744.09448"
     y="0"
     x="0"
     id="use3201"
     transform="translate(680,200)" />
  <use
     xlink:href="#rect2497"
     height="1052.3622"
     width="744.09448"
     y="0"
     x="0"
     id="use3205"
     transform="translate(680,410)" />
  <use
     xlink:href="#rect2497"
     height="1052.3622"
     width="744.09448"
     y="0"
     x="0"
     id="use3209"
     transform="translate(680,610)" />
</svg>
