<?xml version="1.0"?><svg width="640" height="480" xmlns="http://www.w3.org/2000/svg">
 <metadata id="metadata7">image/svg+xml</metadata>
 <g>
  <path fill="none" stroke="#000000" stroke-width="15" stroke-miterlimit="4" id="path2816" d="m386.49472,235.723663c0,83.518311 -18.888031,151.223236 -42.1875,151.223236c-23.29953,0 -42.187531,-67.704926 -42.187531,-151.223236c0,-83.518265 18.888,-151.223206 42.187531,-151.223206c23.299469,0 42.1875,67.704941 42.1875,151.223206z"/>
  <path fill="#000000" stroke="#000000" stroke-width="15" stroke-linecap="round" stroke-miterlimit="4" stroke-dashoffset="0" id="path3655" d="m361.985779,235.723679c0,9.763611 -7.914948,17.678558 -17.678558,17.678558c-9.763611,0 -17.678589,-7.914948 -17.678589,-17.678558c0,-9.763611 7.914978,-17.678558 17.678589,-17.678558c9.763611,0 17.678558,7.914948 17.678558,17.678558z"/>
  <title>Layer 1</title>
  <path transform="rotate(60 344.30722045898443,235.72370910644526) " id="svg_1" fill="none" stroke="#000000" stroke-width="15" stroke-miterlimit="4" d="m386.49472,235.723694c0,83.518311 -18.888031,151.223236 -42.1875,151.223236c-23.29953,0 -42.187531,-67.704926 -42.187531,-151.223236c0,-83.518265 18.888,-151.223206 42.187531,-151.223206c23.299469,0 42.1875,67.704941 42.1875,151.223206z"/>
  <path transform="rotate(120 344.30718994140625,235.72369384765625) " id="svg_2" fill="none" stroke="#000000" stroke-width="15" stroke-miterlimit="4" d="m386.49469,235.723663c0,83.518311 -18.888,151.223236 -42.1875,151.223236c-23.299561,0 -42.1875,-67.704926 -42.1875,-151.223236c0,-83.518265 18.887939,-151.223206 42.1875,-151.223206c23.2995,0 42.1875,67.704941 42.1875,151.223206z"/>
 </g>
</svg>