<?xml version="1.0" encoding="UTF-8" standalone="no"?>
<!-- Created with Inkscape (http://www.inkscape.org/) -->

<svg
   xmlns:dc="http://purl.org/dc/elements/1.1/"
   xmlns:cc="http://creativecommons.org/ns#"
   xmlns:rdf="http://www.w3.org/1999/02/22-rdf-syntax-ns#"
   xmlns:svg="http://www.w3.org/2000/svg"
   xmlns="http://www.w3.org/2000/svg"
   xmlns:sodipodi="http://sodipodi.sourceforge.net/DTD/sodipodi-0.dtd"
   xmlns:inkscape="http://www.inkscape.org/namespaces/inkscape"
   width="1068"
   height="990"
   id="svg4543"
   sodipodi:version="0.32"
   inkscape:version="0.48.2 r9819"
   sodipodi:docname="initiative-stack.svg"
   inkscape:output_extension="org.inkscape.output.svg.inkscape"
   version="1.0">
  <defs
     id="defs4545">
    <linearGradient
       id="linearGradient8706">
      <stop
         style="stop-color:#000000;stop-opacity:1;"
         offset="0"
         id="stop8708" />
      <stop
         style="stop-color:#000000;stop-opacity:0.73451328;"
         offset="1"
         id="stop8710" />
    </linearGradient>
    <linearGradient
       id="linearGradient8662">
      <stop
         style="stop-color:#cecece;stop-opacity:1;"
         offset="0"
         id="stop8664" />
      <stop
         style="stop-color:#ffffff;stop-opacity:1;"
         offset="1"
         id="stop8666" />
    </linearGradient>
    <inkscape:perspective
       sodipodi:type="inkscape:persp3d"
       inkscape:vp_x="0 : 495 : 1"
       inkscape:vp_y="0 : 1000 : 0"
       inkscape:vp_z="765 : 495 : 1"
       inkscape:persp3d-origin="382.5 : 330 : 1"
       id="perspective2668" />
  </defs>
  <sodipodi:namedview
     inkscape:document-units="in"
     pagecolor="#ffffff"
     bordercolor="#666666"
     borderopacity="1.0"
     inkscape:pageopacity="0.0"
     inkscape:pageshadow="2"
     inkscape:zoom="1"
     inkscape:cx="419.71111"
     inkscape:cy="452.72929"
     inkscape:current-layer="layer1"
     id="namedview4547"
     showgrid="false"
     inkscape:window-width="1219"
     inkscape:window-height="1190"
     inkscape:window-x="4409"
     inkscape:window-y="161"
     inkscape:object-paths="false"
     inkscape:object-nodes="true"
     objecttolerance="10"
     showguides="true"
     inkscape:guide-bbox="true"
     inkscape:snap-guide="true"
     guidetolerance="10"
     inkscape:window-maximized="0" />
  <metadata
     id="metadata4549">
    <rdf:RDF>
      <cc:Work
         rdf:about="">
        <dc:format>image/svg+xml</dc:format>
        <dc:type
           rdf:resource="http://purl.org/dc/dcmitype/StillImage" />
        <dc:title></dc:title>
      </cc:Work>
    </rdf:RDF>
  </metadata>
  <g
     inkscape:groupmode="layer"
     id="layer3"
     inkscape:label="Chessboard"
     style="display:inline" />
  <g
     inkscape:groupmode="layer"
     id="layer2"
     inkscape:label="backs" />
  <g
     inkscape:label="fronts"
     inkscape:groupmode="layer"
     id="layer1">
    <g
       style="fill:#000000;fill-opacity:0.91341984;stroke:#464646;stroke-width:3;stroke-linejoin:round;stroke-miterlimit:4;stroke-opacity:1;stroke-dasharray:none"
       transform="translate(79.99989,-200.7031)"
       id="g3583">
      <g
         id="use3585"
         style="fill:#000000;fill-opacity:1;stroke:#464646;stroke-width:4.34904575;stroke-linejoin:round;stroke-miterlimit:4;stroke-opacity:1;stroke-dasharray:none"
         transform="matrix(-0.62785179,-0.25881894,0.16823238,0.8272251,223.81074,430.01164)">
        <path
           id="path3895"
           d="m 52.009235,512.54534 41.666104,-155.50001 41.666101,155.50001 -83.332205,0 z"
           style="fill-opacity:1"
           inkscape:connector-curvature="0" />
        <path
           style="fill:#9a9c9d;fill-opacity:1;fill-rule:nonzero;stroke:none"
           d="m 97.04326,502.84442 c 0,3.1469 -1.5088,3.70091 -3.3679,3.70091 -1.8591,0 -3.368,-0.55401 -3.368,-3.70091 0,-3.1469 1.5089,-7.70091 3.368,-7.70091 1.8591,0 3.3679,4.55401 3.3679,7.70091 z"
           id="use3897"
           sodipodi:nodetypes="csssc"
           inkscape:connector-curvature="0" />
        <path
           style="fill:#9a9c9d;fill-opacity:1;fill-rule:nonzero;stroke:none"
           d="m 69.04326,502.84442 c 0,3.1469 -1.5088,3.70091 -3.3679,3.70091 -1.8591,0 -3.368,-0.55401 -3.368,-3.70091 0,-3.1469 1.5089,-7.70091 3.368,-7.70091 1.8591,0 3.3679,4.55401 3.3679,7.70091 z"
           id="use3899"
           sodipodi:nodetypes="csssc"
           inkscape:connector-curvature="0" />
        <path
           style="fill:#9a9c9d;fill-opacity:1;fill-rule:nonzero;stroke:none"
           d="m 83.04326,502.84442 c 0,3.1469 -1.5088,3.70091 -3.3679,3.70091 -1.8591,0 -3.368,-0.55401 -3.368,-3.70091 0,-3.1469 1.5089,-7.70091 3.368,-7.70091 1.8591,0 3.3679,4.55401 3.3679,7.70091 z"
           id="use3901"
           sodipodi:nodetypes="csssc"
           inkscape:connector-curvature="0" />
      </g>
      <g
         id="use3587"
         style="fill:#000000;fill-opacity:1;stroke:#464646;stroke-width:4.34904575;stroke-linejoin:round;stroke-miterlimit:4;stroke-opacity:1;stroke-dasharray:none"
         transform="matrix(-0.62785179,0.25881905,-0.16823238,0.82722513,343.94387,381.52169)">
        <path
           id="path3905"
           d="m 52.009235,512.54534 41.666104,-155.50001 41.666101,155.50001 -83.332205,0 z"
           style="fill-opacity:1"
           inkscape:connector-curvature="0" />
        <path
           style="fill:#9a9c9d;fill-opacity:1;fill-rule:nonzero;stroke:none"
           d="m 97.04326,502.84442 c 0,3.1469 -1.5088,3.70091 -3.3679,3.70091 -1.8591,0 -3.368,-0.55401 -3.368,-3.70091 0,-3.1469 1.5089,-7.70091 3.368,-7.70091 1.8591,0 3.3679,4.55401 3.3679,7.70091 z"
           id="use3907"
           sodipodi:nodetypes="csssc"
           inkscape:connector-curvature="0" />
        <path
           style="fill:#9a9c9d;fill-opacity:1;fill-rule:nonzero;stroke:none"
           d="m 69.04326,502.84442 c 0,3.1469 -1.5088,3.70091 -3.3679,3.70091 -1.8591,0 -3.368,-0.55401 -3.368,-3.70091 0,-3.1469 1.5089,-7.70091 3.368,-7.70091 1.8591,0 3.3679,4.55401 3.3679,7.70091 z"
           id="use3909"
           sodipodi:nodetypes="csssc"
           inkscape:connector-curvature="0" />
        <path
           style="fill:#9a9c9d;fill-opacity:1;fill-rule:nonzero;stroke:none"
           d="m 83.04326,502.84442 c 0,3.1469 -1.5088,3.70091 -3.3679,3.70091 -1.8591,0 -3.368,-0.55401 -3.368,-3.70091 0,-3.1469 1.5089,-7.70091 3.368,-7.70091 1.8591,0 3.3679,4.55401 3.3679,7.70091 z"
           id="use3911"
           sodipodi:nodetypes="csssc"
           inkscape:connector-curvature="0" />
      </g>
    </g>
    <g
       style="fill:#000000;fill-opacity:0.91341984;stroke:#464646;stroke-width:3;stroke-linejoin:round;stroke-miterlimit:4;stroke-opacity:1;stroke-dasharray:none"
       transform="translate(80.00005,-200.7031)"
       id="g3647">
      <g
         id="use3649"
         style="fill:#000000;fill-opacity:1;stroke:#464646;stroke-width:3.72104192;stroke-linejoin:round;stroke-miterlimit:4;stroke-opacity:1;stroke-dasharray:none"
         transform="matrix(0.62785179,0.25881905,-0.16823238,0.96592583,226.31525,331.99931)">
        <path
           id="path3935"
           d="m 52.009235,512.54534 41.666104,-155.50001 41.666101,155.50001 -83.332205,0 z"
           style="fill-opacity:1"
           inkscape:connector-curvature="0" />
        <path
           style="fill:#9a9c9d;fill-opacity:1;fill-rule:nonzero;stroke:none"
           d="m 97.04326,502.84442 c 0,3.1469 -1.5088,3.70091 -3.3679,3.70091 -1.8591,0 -3.368,-0.55401 -3.368,-3.70091 0,-3.1469 1.5089,-7.70091 3.368,-7.70091 1.8591,0 3.3679,4.55401 3.3679,7.70091 z"
           id="use3937"
           sodipodi:nodetypes="csssc"
           inkscape:connector-curvature="0" />
        <path
           style="fill:#9a9c9d;fill-opacity:1;fill-rule:nonzero;stroke:none"
           d="m 69.04326,502.84442 c 0,3.1469 -1.5088,3.70091 -3.3679,3.70091 -1.8591,0 -3.368,-0.55401 -3.368,-3.70091 0,-3.1469 1.5089,-7.70091 3.368,-7.70091 1.8591,0 3.3679,4.55401 3.3679,7.70091 z"
           id="use3939"
           sodipodi:nodetypes="csssc"
           inkscape:connector-curvature="0" />
        <path
           style="fill:#9a9c9d;fill-opacity:1;fill-rule:nonzero;stroke:none"
           d="m 83.04326,502.84442 c 0,3.1469 -1.5088,3.70091 -3.3679,3.70091 -1.8591,0 -3.368,-0.55401 -3.368,-3.70091 0,-3.1469 1.5089,-7.70091 3.368,-7.70091 1.8591,0 3.3679,4.55401 3.3679,7.70091 z"
           id="use3941"
           sodipodi:nodetypes="csssc"
           inkscape:connector-curvature="0" />
      </g>
      <g
         id="use3651"
         style="fill:#000000;fill-opacity:1;stroke:#464646;stroke-width:3.72104192;stroke-linejoin:round;stroke-miterlimit:4;stroke-opacity:1;stroke-dasharray:none"
         transform="matrix(0.62785179,-0.25881904,0.16823238,0.96592583,106.18208,380.48921)">
        <path
           id="path3945"
           d="m 52.009235,512.54534 41.666104,-155.50001 41.666101,155.50001 -83.332205,0 z"
           style="fill-opacity:1"
           inkscape:connector-curvature="0" />
        <path
           style="fill:#9a9c9d;fill-opacity:1;fill-rule:nonzero;stroke:none"
           d="m 97.04326,502.84442 c 0,3.1469 -1.5088,3.70091 -3.3679,3.70091 -1.8591,0 -3.368,-0.55401 -3.368,-3.70091 0,-3.1469 1.5089,-7.70091 3.368,-7.70091 1.8591,0 3.3679,4.55401 3.3679,7.70091 z"
           id="use3947"
           sodipodi:nodetypes="csssc"
           inkscape:connector-curvature="0" />
        <path
           style="fill:#9a9c9d;fill-opacity:1;fill-rule:nonzero;stroke:none"
           d="m 69.04326,502.84442 c 0,3.1469 -1.5088,3.70091 -3.3679,3.70091 -1.8591,0 -3.368,-0.55401 -3.368,-3.70091 0,-3.1469 1.5089,-7.70091 3.368,-7.70091 1.8591,0 3.3679,4.55401 3.3679,7.70091 z"
           id="use3949"
           sodipodi:nodetypes="csssc"
           inkscape:connector-curvature="0" />
        <path
           style="fill:#9a9c9d;fill-opacity:1;fill-rule:nonzero;stroke:none"
           d="m 83.04326,502.84442 c 0,3.1469 -1.5088,3.70091 -3.3679,3.70091 -1.8591,0 -3.368,-0.55401 -3.368,-3.70091 0,-3.1469 1.5089,-7.70091 3.368,-7.70091 1.8591,0 3.3679,4.55401 3.3679,7.70091 z"
           id="use3951"
           sodipodi:nodetypes="csssc"
           inkscape:connector-curvature="0" />
      </g>
    </g>
    <g
       style="opacity:0.87000002;fill:#a60000;fill-opacity:1;stroke:#9a0000;stroke-width:3;stroke-linejoin:round;stroke-miterlimit:4;stroke-opacity:1;stroke-dasharray:none"
       transform="translate(80.000024,-224.66893)"
       id="g4607">
      <g
         transform="matrix(0.62785179,0.25881905,-0.16823238,0.96592583,226.3153,331.9993)"
         style="fill:#a60000;fill-opacity:1;stroke:#9a0000;stroke-width:3.72104192;stroke-linejoin:round;stroke-miterlimit:4;stroke-opacity:1;stroke-dasharray:none"
         id="use4609">
        <path
           style="fill-opacity:1"
           d="m 52.009235,512.54534 41.666104,-155.50001 41.666101,155.50001 -83.332205,0 z"
           id="path5120"
           inkscape:connector-curvature="0" />
        <path
           sodipodi:nodetypes="csssc"
           id="use5122"
           d="m 97.04329,502.84443 c 0,3.14691 -1.50884,3.70092 -3.36795,3.70092 -1.85912,0 -3.36796,-0.55401 -3.36796,-3.70092 0,-3.1469 1.50884,-7.70091 3.36796,-7.70091 1.85911,0 3.36795,4.55401 3.36795,7.70091 z"
           style="fill:#000000;fill-opacity:1;fill-rule:nonzero;stroke:none"
           inkscape:connector-curvature="0" />
        <path
           sodipodi:nodetypes="csssc"
           id="use5124"
           d="m 69.04329,502.84443 c 0,3.14691 -1.50884,3.70092 -3.36795,3.70092 -1.85912,0 -3.36796,-0.55401 -3.36796,-3.70092 0,-3.1469 1.50884,-7.70091 3.36796,-7.70091 1.85911,0 3.36795,4.55401 3.36795,7.70091 z"
           style="fill:#000000;fill-opacity:1;fill-rule:nonzero;stroke:none"
           inkscape:connector-curvature="0" />
        <path
           sodipodi:nodetypes="csssc"
           id="use5126"
           d="m 83.04329,502.84443 c 0,3.14691 -1.50884,3.70092 -3.36795,3.70092 -1.85912,0 -3.36796,-0.55401 -3.36796,-3.70092 0,-3.1469 1.50884,-7.70091 3.36796,-7.70091 1.85911,0 3.36795,4.55401 3.36795,7.70091 z"
           style="fill:#000000;fill-opacity:1;fill-rule:nonzero;stroke:none"
           inkscape:connector-curvature="0" />
      </g>
      <g
         transform="matrix(0.62785179,-0.25881904,0.16823238,0.96592583,106.18217,380.48921)"
         style="fill:#a60000;fill-opacity:1;stroke:#9a0000;stroke-width:3.72104192;stroke-linejoin:round;stroke-miterlimit:4;stroke-opacity:1;stroke-dasharray:none"
         id="use4611">
        <path
           style="fill-opacity:1"
           d="m 52.009235,512.54534 41.666104,-155.50001 41.666101,155.50001 -83.332205,0 z"
           id="path5130"
           inkscape:connector-curvature="0" />
        <path
           sodipodi:nodetypes="csssc"
           id="use5132"
           d="m 97.04329,502.84443 c 0,3.14691 -1.50884,3.70092 -3.36795,3.70092 -1.85912,0 -3.36796,-0.55401 -3.36796,-3.70092 0,-3.1469 1.50884,-7.70091 3.36796,-7.70091 1.85911,0 3.36795,4.55401 3.36795,7.70091 z"
           style="fill:#000000;fill-opacity:1;fill-rule:nonzero;stroke:none"
           inkscape:connector-curvature="0" />
        <path
           sodipodi:nodetypes="csssc"
           id="use5134"
           d="m 69.04329,502.84443 c 0,3.14691 -1.50884,3.70092 -3.36795,3.70092 -1.85912,0 -3.36796,-0.55401 -3.36796,-3.70092 0,-3.1469 1.50884,-7.70091 3.36796,-7.70091 1.85911,0 3.36795,4.55401 3.36795,7.70091 z"
           style="fill:#000000;fill-opacity:1;fill-rule:nonzero;stroke:none"
           inkscape:connector-curvature="0" />
        <path
           sodipodi:nodetypes="csssc"
           id="use5136"
           d="m 83.04329,502.84443 c 0,3.14691 -1.50884,3.70092 -3.36795,3.70092 -1.85912,0 -3.36796,-0.55401 -3.36796,-3.70092 0,-3.1469 1.50884,-7.70091 3.36796,-7.70091 1.85911,0 3.36795,4.55401 3.36795,7.70091 z"
           style="fill:#000000;fill-opacity:1;fill-rule:nonzero;stroke:none"
           inkscape:connector-curvature="0" />
      </g>
    </g>
    <g
       id="g4779"
       transform="translate(80.000003,-247.83907)"
       style="opacity:0.87000002;fill:#f4f600;fill-opacity:1;fill-rule:nonzero;stroke:#d1de00;stroke-width:3;stroke-linejoin:round;stroke-miterlimit:4;stroke-opacity:1;stroke-dasharray:none">
      <g
         transform="matrix(0.62785179,0.25881905,-0.16823238,0.96592583,226.3153,331.9993)"
         style="fill:#f4f600;fill-opacity:1;fill-rule:nonzero;stroke:#d1de00;stroke-width:3.72104192;stroke-linejoin:round;stroke-miterlimit:4;stroke-opacity:1;stroke-dasharray:none"
         id="use4781">
        <path
           style="fill-opacity:1"
           d="m 52.009235,512.54534 41.666104,-155.50001 41.666101,155.50001 -83.332205,0 z"
           id="path5160"
           inkscape:connector-curvature="0" />
        <path
           sodipodi:nodetypes="csssc"
           id="use5162"
           d="m 97.04329,502.84443 c 0,3.14691 -1.50884,3.70092 -3.36795,3.70092 -1.85912,0 -3.36796,-0.55401 -3.36796,-3.70092 0,-3.1469 1.50884,-7.70091 3.36796,-7.70091 1.85911,0 3.36795,4.55401 3.36795,7.70091 z"
           style="fill:#000000;fill-opacity:1;fill-rule:nonzero;stroke:none"
           inkscape:connector-curvature="0" />
        <path
           sodipodi:nodetypes="csssc"
           id="use5164"
           d="m 69.04329,502.84443 c 0,3.14691 -1.50884,3.70092 -3.36795,3.70092 -1.85912,0 -3.36796,-0.55401 -3.36796,-3.70092 0,-3.1469 1.50884,-7.70091 3.36796,-7.70091 1.85911,0 3.36795,4.55401 3.36795,7.70091 z"
           style="fill:#000000;fill-opacity:1;fill-rule:nonzero;stroke:none"
           inkscape:connector-curvature="0" />
        <path
           sodipodi:nodetypes="csssc"
           id="use5166"
           d="m 83.04329,502.84443 c 0,3.14691 -1.50884,3.70092 -3.36795,3.70092 -1.85912,0 -3.36796,-0.55401 -3.36796,-3.70092 0,-3.1469 1.50884,-7.70091 3.36796,-7.70091 1.85911,0 3.36795,4.55401 3.36795,7.70091 z"
           style="fill:#000000;fill-opacity:1;fill-rule:nonzero;stroke:none"
           inkscape:connector-curvature="0" />
      </g>
      <g
         transform="matrix(0.62785179,-0.25881904,0.16823238,0.96592583,106.18217,380.48921)"
         style="fill:#f4f600;fill-opacity:1;fill-rule:nonzero;stroke:#d1de00;stroke-width:3.72104192;stroke-linejoin:round;stroke-miterlimit:4;stroke-opacity:1;stroke-dasharray:none"
         id="use4783">
        <path
           style="fill-opacity:1"
           d="m 52.009235,512.54534 41.666104,-155.50001 41.666101,155.50001 -83.332205,0 z"
           id="path5170"
           inkscape:connector-curvature="0" />
        <path
           sodipodi:nodetypes="csssc"
           id="use5172"
           d="m 97.04329,502.84443 c 0,3.14691 -1.50884,3.70092 -3.36795,3.70092 -1.85912,0 -3.36796,-0.55401 -3.36796,-3.70092 0,-3.1469 1.50884,-7.70091 3.36796,-7.70091 1.85911,0 3.36795,4.55401 3.36795,7.70091 z"
           style="fill:#000000;fill-opacity:1;fill-rule:nonzero;stroke:none"
           inkscape:connector-curvature="0" />
        <path
           sodipodi:nodetypes="csssc"
           id="use5174"
           d="m 69.04329,502.84443 c 0,3.14691 -1.50884,3.70092 -3.36795,3.70092 -1.85912,0 -3.36796,-0.55401 -3.36796,-3.70092 0,-3.1469 1.50884,-7.70091 3.36796,-7.70091 1.85911,0 3.36795,4.55401 3.36795,7.70091 z"
           style="fill:#000000;fill-opacity:1;fill-rule:nonzero;stroke:none"
           inkscape:connector-curvature="0" />
        <path
           sodipodi:nodetypes="csssc"
           id="use5176"
           d="m 83.04329,502.84443 c 0,3.14691 -1.50884,3.70092 -3.36795,3.70092 -1.85912,0 -3.36796,-0.55401 -3.36796,-3.70092 0,-3.1469 1.50884,-7.70091 3.36796,-7.70091 1.85911,0 3.36795,4.55401 3.36795,7.70091 z"
           style="fill:#000000;fill-opacity:1;fill-rule:nonzero;stroke:none"
           inkscape:connector-curvature="0" />
      </g>
    </g>
    <g
       style="opacity:0.87000002;fill:#008400;fill-opacity:1;fill-rule:nonzero;stroke:#009a00;stroke-width:3;stroke-linejoin:round;stroke-miterlimit:4;stroke-opacity:1;stroke-dasharray:none"
       transform="translate(80,-270)"
       id="g4951">
      <g
         transform="matrix(0.62785179,0.25881905,-0.16823238,0.96592583,226.3153,331.9993)"
         style="fill:#008400;fill-opacity:1;fill-rule:nonzero;stroke:#009a00;stroke-width:3.72104192;stroke-linejoin:round;stroke-miterlimit:4;stroke-opacity:1;stroke-dasharray:none"
         id="use4953">
        <path
           style="fill-opacity:1"
           d="m 52.009235,512.54534 41.666104,-155.50001 41.666101,155.50001 -83.332205,0 z"
           id="path5200"
           inkscape:connector-curvature="0" />
        <path
           sodipodi:nodetypes="csssc"
           id="use5202"
           d="m 97.04329,502.84443 c 0,3.14691 -1.50884,3.70092 -3.36795,3.70092 -1.85912,0 -3.36796,-0.55401 -3.36796,-3.70092 0,-3.1469 1.50884,-7.70091 3.36796,-7.70091 1.85911,0 3.36795,4.55401 3.36795,7.70091 z"
           style="fill:#000000;fill-opacity:1;fill-rule:nonzero;stroke:none"
           inkscape:connector-curvature="0" />
        <path
           sodipodi:nodetypes="csssc"
           id="use5204"
           d="m 69.04329,502.84443 c 0,3.14691 -1.50884,3.70092 -3.36795,3.70092 -1.85912,0 -3.36796,-0.55401 -3.36796,-3.70092 0,-3.1469 1.50884,-7.70091 3.36796,-7.70091 1.85911,0 3.36795,4.55401 3.36795,7.70091 z"
           style="fill:#000000;fill-opacity:1;fill-rule:nonzero;stroke:none"
           inkscape:connector-curvature="0" />
        <path
           sodipodi:nodetypes="csssc"
           id="use5206"
           d="m 83.04329,502.84443 c 0,3.14691 -1.50884,3.70092 -3.36795,3.70092 -1.85912,0 -3.36796,-0.55401 -3.36796,-3.70092 0,-3.1469 1.50884,-7.70091 3.36796,-7.70091 1.85911,0 3.36795,4.55401 3.36795,7.70091 z"
           style="fill:#000000;fill-opacity:1;fill-rule:nonzero;stroke:none"
           inkscape:connector-curvature="0" />
      </g>
      <g
         transform="matrix(0.62785179,-0.25881904,0.16823238,0.96592583,106.18217,380.48921)"
         style="fill:#008400;fill-opacity:1;fill-rule:nonzero;stroke:#009a00;stroke-width:3.72104192;stroke-linejoin:round;stroke-miterlimit:4;stroke-opacity:1;stroke-dasharray:none"
         id="use4955">
        <path
           style="fill-opacity:1"
           d="m 52.009235,512.54534 41.666104,-155.50001 41.666101,155.50001 -83.332205,0 z"
           id="path5210"
           inkscape:connector-curvature="0" />
        <path
           sodipodi:nodetypes="csssc"
           id="use5212"
           d="m 97.04329,502.84443 c 0,3.14691 -1.50884,3.70092 -3.36795,3.70092 -1.85912,0 -3.36796,-0.55401 -3.36796,-3.70092 0,-3.1469 1.50884,-7.70091 3.36796,-7.70091 1.85911,0 3.36795,4.55401 3.36795,7.70091 z"
           style="fill:#000000;fill-opacity:1;fill-rule:nonzero;stroke:none"
           inkscape:connector-curvature="0" />
        <path
           sodipodi:nodetypes="csssc"
           id="use5214"
           d="m 69.04329,502.84443 c 0,3.14691 -1.50884,3.70092 -3.36795,3.70092 -1.85912,0 -3.36796,-0.55401 -3.36796,-3.70092 0,-3.1469 1.50884,-7.70091 3.36796,-7.70091 1.85911,0 3.36795,4.55401 3.36795,7.70091 z"
           style="fill:#000000;fill-opacity:1;fill-rule:nonzero;stroke:none"
           inkscape:connector-curvature="0" />
        <path
           sodipodi:nodetypes="csssc"
           id="use5216"
           d="m 83.04329,502.84443 c 0,3.14691 -1.50884,3.70092 -3.36795,3.70092 -1.85912,0 -3.36796,-0.55401 -3.36796,-3.70092 0,-3.1469 1.50884,-7.70091 3.36796,-7.70091 1.85911,0 3.36795,4.55401 3.36795,7.70091 z"
           style="fill:#000000;fill-opacity:1;fill-rule:nonzero;stroke:none"
           inkscape:connector-curvature="0" />
      </g>
    </g>
    <g
       id="g5123"
       transform="translate(81,-294)"
       style="opacity:0.87000002;fill:#14148f;fill-opacity:1;fill-rule:nonzero;stroke:#0f0fb1;stroke-width:3;stroke-linejoin:round;stroke-miterlimit:4;stroke-opacity:1;stroke-dasharray:none">
      <g
         transform="matrix(0.62785179,0.25881905,-0.16823238,0.96592583,226.3153,331.9993)"
         style="fill:#14148f;fill-opacity:1;fill-rule:nonzero;stroke:#0f0fb1;stroke-width:3.72104192;stroke-linejoin:round;stroke-miterlimit:4;stroke-opacity:1;stroke-dasharray:none"
         id="use5125">
        <path
           style="fill-opacity:1"
           d="m 52.009235,512.54534 41.666104,-155.50001 41.666101,155.50001 -83.332205,0 z"
           id="path5240"
           inkscape:connector-curvature="0" />
        <path
           sodipodi:nodetypes="csssc"
           id="use5242"
           d="m 97.04329,502.84443 c 0,3.14691 -1.50884,3.70092 -3.36795,3.70092 -1.85912,0 -3.36796,-0.55401 -3.36796,-3.70092 0,-3.1469 1.50884,-7.70091 3.36796,-7.70091 1.85911,0 3.36795,4.55401 3.36795,7.70091 z"
           style="fill:#000000;fill-opacity:1;fill-rule:nonzero;stroke:none"
           inkscape:connector-curvature="0" />
        <path
           sodipodi:nodetypes="csssc"
           id="use5244"
           d="m 69.04329,502.84443 c 0,3.14691 -1.50884,3.70092 -3.36795,3.70092 -1.85912,0 -3.36796,-0.55401 -3.36796,-3.70092 0,-3.1469 1.50884,-7.70091 3.36796,-7.70091 1.85911,0 3.36795,4.55401 3.36795,7.70091 z"
           style="fill:#000000;fill-opacity:1;fill-rule:nonzero;stroke:none"
           inkscape:connector-curvature="0" />
        <path
           sodipodi:nodetypes="csssc"
           id="use5246"
           d="m 83.04329,502.84443 c 0,3.14691 -1.50884,3.70092 -3.36795,3.70092 -1.85912,0 -3.36796,-0.55401 -3.36796,-3.70092 0,-3.1469 1.50884,-7.70091 3.36796,-7.70091 1.85911,0 3.36795,4.55401 3.36795,7.70091 z"
           style="fill:#000000;fill-opacity:1;fill-rule:nonzero;stroke:none"
           inkscape:connector-curvature="0" />
      </g>
      <g
         transform="matrix(0.62785179,-0.25881904,0.16823238,0.96592583,106.18217,380.48921)"
         style="fill:#14148f;fill-opacity:1;fill-rule:nonzero;stroke:#0f0fb1;stroke-width:3.72104192;stroke-linejoin:round;stroke-miterlimit:4;stroke-opacity:1;stroke-dasharray:none"
         id="use5127">
        <path
           style="fill-opacity:1"
           d="m 52.009235,512.54534 41.666104,-155.50001 41.666101,155.50001 -83.332205,0 z"
           id="path5250"
           inkscape:connector-curvature="0" />
        <path
           sodipodi:nodetypes="csssc"
           id="use5252"
           d="m 97.04329,502.84443 c 0,3.14691 -1.50884,3.70092 -3.36795,3.70092 -1.85912,0 -3.36796,-0.55401 -3.36796,-3.70092 0,-3.1469 1.50884,-7.70091 3.36796,-7.70091 1.85911,0 3.36795,4.55401 3.36795,7.70091 z"
           style="fill:#000000;fill-opacity:1;fill-rule:nonzero;stroke:none"
           inkscape:connector-curvature="0" />
        <path
           sodipodi:nodetypes="csssc"
           id="use5254"
           d="m 69.04329,502.84443 c 0,3.14691 -1.50884,3.70092 -3.36795,3.70092 -1.85912,0 -3.36796,-0.55401 -3.36796,-3.70092 0,-3.1469 1.50884,-7.70091 3.36796,-7.70091 1.85911,0 3.36795,4.55401 3.36795,7.70091 z"
           style="fill:#000000;fill-opacity:1;fill-rule:nonzero;stroke:none"
           inkscape:connector-curvature="0" />
        <path
           sodipodi:nodetypes="csssc"
           id="use5256"
           d="m 83.04329,502.84443 c 0,3.14691 -1.50884,3.70092 -3.36795,3.70092 -1.85912,0 -3.36796,-0.55401 -3.36796,-3.70092 0,-3.1469 1.50884,-7.70091 3.36796,-7.70091 1.85911,0 3.36795,4.55401 3.36795,7.70091 z"
           style="fill:#000000;fill-opacity:1;fill-rule:nonzero;stroke:none"
           inkscape:connector-curvature="0" />
      </g>
    </g>
  </g>
</svg>
