<?xml version="1.0" encoding="UTF-8" standalone="no"?>
<!-- Created with Inkscape (http://www.inkscape.org/) -->

<svg
   xmlns:dc="http://purl.org/dc/elements/1.1/"
   xmlns:cc="http://creativecommons.org/ns#"
   xmlns:rdf="http://www.w3.org/1999/02/22-rdf-syntax-ns#"
   xmlns:svg="http://www.w3.org/2000/svg"
   xmlns="http://www.w3.org/2000/svg"
   xmlns:sodipodi="http://sodipodi.sourceforge.net/DTD/sodipodi-0.dtd"
   xmlns:inkscape="http://www.inkscape.org/namespaces/inkscape"
   width="1068"
   height="990"
   id="svg4543"
   sodipodi:version="0.32"
   inkscape:version="0.48.2 r9819"
   sodipodi:docname="initiative-stack.svg"
   inkscape:output_extension="org.inkscape.output.svg.inkscape"
   version="1.0"
   inkscape:export-filename="/Users/fogus/src/spiel/pyramidenspiel/initiative/graphics/initiative-stack.png"
   inkscape:export-xdpi="90"
   inkscape:export-ydpi="90">
  <defs
     id="defs4545">
    <linearGradient
       id="linearGradient8706">
      <stop
         style="stop-color:#000000;stop-opacity:1;"
         offset="0"
         id="stop8708" />
      <stop
         style="stop-color:#000000;stop-opacity:0.73451328;"
         offset="1"
         id="stop8710" />
    </linearGradient>
    <linearGradient
       id="linearGradient8662">
      <stop
         style="stop-color:#cecece;stop-opacity:1;"
         offset="0"
         id="stop8664" />
      <stop
         style="stop-color:#ffffff;stop-opacity:1;"
         offset="1"
         id="stop8666" />
    </linearGradient>
    <inkscape:perspective
       sodipodi:type="inkscape:persp3d"
       inkscape:vp_x="0 : 495 : 1"
       inkscape:vp_y="0 : 1000 : 0"
       inkscape:vp_z="765 : 495 : 1"
       inkscape:persp3d-origin="382.5 : 330 : 1"
       id="perspective2668" />
  </defs>
  <sodipodi:namedview
     inkscape:document-units="in"
     pagecolor="#ffffff"
     bordercolor="#666666"
     borderopacity="1.0"
     inkscape:pageopacity="0.0"
     inkscape:pageshadow="2"
     inkscape:zoom="0.70710678"
     inkscape:cx="537.82243"
     inkscape:cy="584.88504"
     inkscape:current-layer="layer1"
     id="namedview4547"
     showgrid="false"
     inkscape:window-width="1366"
     inkscape:window-height="651"
     inkscape:window-x="0"
     inkscape:window-y="0"
     inkscape:object-paths="false"
     inkscape:object-nodes="true"
     objecttolerance="10"
     showguides="true"
     inkscape:guide-bbox="true"
     inkscape:snap-guide="true"
     guidetolerance="10"
     inkscape:window-maximized="1" />
  <metadata
     id="metadata4549">
    <rdf:RDF>
      <cc:Work
         rdf:about="">
        <dc:format>image/svg+xml</dc:format>
        <dc:type
           rdf:resource="http://purl.org/dc/dcmitype/StillImage" />
        <dc:title></dc:title>
      </cc:Work>
    </rdf:RDF>
  </metadata>
  <g
     inkscape:groupmode="layer"
     id="layer3"
     inkscape:label="Chessboard"
     style="display:inline" />
  <g
     inkscape:groupmode="layer"
     id="layer2"
     inkscape:label="backs" />
  <g
     inkscape:label="fronts"
     inkscape:groupmode="layer"
     id="layer1">
    <g
       style="opacity:0.87000002;fill:#a60000;fill-opacity:1;stroke:#9a0000;stroke-width:3;stroke-linejoin:round;stroke-miterlimit:4;stroke-opacity:1;stroke-dasharray:none"
       transform="translate(365.13836,-212.12132)"
       id="g4619">
      <g
         style="fill:#a60000;fill-opacity:1;stroke:#9a0000;stroke-width:3.72104192;stroke-linejoin:round;stroke-miterlimit:4;stroke-opacity:1;stroke-dasharray:none"
         transform="matrix(0.62785179,-0.25881904,0.16823238,0.96592583,-39.293335,311.18718)"
         id="use4621">
        <path
           style="fill-opacity:1"
           d="m 146.37356,495.24988 23.57952,-87.99997 23.57952,87.99997 -47.15904,0 z"
           id="path3700"
           inkscape:connector-curvature="0" />
        <g
           transform="translate(514.35419,-1019.4414)"
           id="g3702"
           style="fill-opacity:1">
          <path
             sodipodi:nodetypes="csssc"
             id="use3704"
             d="m -341.03316,1504.9904 c 0,3.1469 -1.50884,3.701 -3.36795,3.701 -1.85912,0 -3.36796,-0.5541 -3.36796,-3.701 0,-3.1469 1.50884,-7.7009 3.36796,-7.7009 1.85911,0 3.36795,4.554 3.36795,7.7009 z"
             style="fill:#000000;fill-opacity:1;fill-rule:nonzero;stroke:none"
             inkscape:connector-curvature="0" />
        </g>
      </g>
      <g
         style="fill:#a60000;fill-opacity:1;stroke:#9a0000;stroke-width:3.72104192;stroke-linejoin:round;stroke-miterlimit:4;stroke-opacity:1;stroke-dasharray:none"
         transform="matrix(0.62785179,0.25881905,-0.16823238,0.96592583,97.731872,223.213)"
         id="use4623">
        <path
           style="fill-opacity:1"
           d="m 146.37356,495.24988 23.57952,-87.99997 23.57952,87.99997 -47.15904,0 z"
           id="path3708"
           inkscape:connector-curvature="0" />
        <g
           transform="translate(514.35419,-1019.4414)"
           id="g3710"
           style="fill-opacity:1">
          <path
             sodipodi:nodetypes="csssc"
             id="use3712"
             d="m -341.03316,1504.9904 c 0,3.1469 -1.50884,3.701 -3.36795,3.701 -1.85912,0 -3.36796,-0.5541 -3.36796,-3.701 0,-3.1469 1.50884,-7.7009 3.36796,-7.7009 1.85911,0 3.36795,4.554 3.36795,7.7009 z"
             style="fill:#000000;fill-opacity:1;fill-rule:nonzero;stroke:none"
             inkscape:connector-curvature="0" />
        </g>
      </g>
    </g>
    <g
       id="g4791"
       transform="translate(365.13836,-230.12132)"
       style="opacity:0.87000002;fill:#f4f600;fill-opacity:1;fill-rule:nonzero;stroke:#d1de00;stroke-width:3;stroke-linejoin:round;stroke-miterlimit:4;stroke-opacity:1;stroke-dasharray:none">
      <g
         style="fill:#f4f600;fill-opacity:1;fill-rule:nonzero;stroke:#d1de00;stroke-width:3.72104192;stroke-linejoin:round;stroke-miterlimit:4;stroke-opacity:1;stroke-dasharray:none"
         transform="matrix(0.62785179,-0.25881904,0.16823238,0.96592583,-39.293335,311.18718)"
         id="use4793">
        <path
           style="fill-opacity:1"
           d="m 146.37356,495.24988 23.57952,-87.99997 23.57952,87.99997 -47.15904,0 z"
           id="path3716"
           inkscape:connector-curvature="0" />
        <g
           transform="translate(514.35419,-1019.4414)"
           id="g3718"
           style="fill-opacity:1">
          <path
             sodipodi:nodetypes="csssc"
             id="use3720"
             d="m -341.03316,1504.9904 c 0,3.1469 -1.50884,3.701 -3.36795,3.701 -1.85912,0 -3.36796,-0.5541 -3.36796,-3.701 0,-3.1469 1.50884,-7.7009 3.36796,-7.7009 1.85911,0 3.36795,4.554 3.36795,7.7009 z"
             style="fill:#000000;fill-opacity:1;fill-rule:nonzero;stroke:none"
             inkscape:connector-curvature="0" />
        </g>
      </g>
      <g
         style="fill:#f4f600;fill-opacity:1;fill-rule:nonzero;stroke:#d1de00;stroke-width:3.72104192;stroke-linejoin:round;stroke-miterlimit:4;stroke-opacity:1;stroke-dasharray:none"
         transform="matrix(0.62785179,0.25881905,-0.16823238,0.96592583,97.731872,223.213)"
         id="use4795">
        <path
           style="fill-opacity:1"
           d="m 146.37356,495.24988 23.57952,-87.99997 23.57952,87.99997 -47.15904,0 z"
           id="path3724"
           inkscape:connector-curvature="0" />
        <g
           transform="translate(514.35419,-1019.4414)"
           id="g3726"
           style="fill-opacity:1">
          <path
             sodipodi:nodetypes="csssc"
             id="use3728"
             d="m -341.03316,1504.9904 c 0,3.1469 -1.50884,3.701 -3.36795,3.701 -1.85912,0 -3.36796,-0.5541 -3.36796,-3.701 0,-3.1469 1.50884,-7.7009 3.36796,-7.7009 1.85911,0 3.36795,4.554 3.36795,7.7009 z"
             style="fill:#000000;fill-opacity:1;fill-rule:nonzero;stroke:none"
             inkscape:connector-curvature="0" />
        </g>
      </g>
    </g>
    <g
       style="fill:#000000;fill-opacity:0.91341984;stroke:#464646;stroke-width:3;stroke-linejoin:round;stroke-miterlimit:4;stroke-opacity:1;stroke-dasharray:none"
       transform="translate(366.13843,-247.82442)"
       id="g3659">
      <g
         id="use3661"
         transform="matrix(0.62785179,-0.25881904,0.16823238,0.96592583,-39.293446,311.18717)"
         style="fill:#000000;fill-opacity:1;stroke:#464646;stroke-width:3.72104192;stroke-linejoin:round;stroke-miterlimit:4;stroke-opacity:1;stroke-dasharray:none">
        <path
           id="path3680"
           d="m 146.37356,495.24988 23.57952,-87.99997 23.57952,87.99997 -47.15904,0 z"
           style="fill-opacity:1"
           inkscape:connector-curvature="0" />
        <g
           style="fill-opacity:1"
           id="g3682"
           transform="translate(514.35419,-1019.4414)">
          <path
             style="fill:#9a9c9d;fill-opacity:1;fill-rule:nonzero;stroke:none"
             d="m -341.03319,1504.9904 c 0,3.1469 -1.5088,3.7009 -3.3679,3.7009 -1.8591,0 -3.368,-0.554 -3.368,-3.7009 0,-3.1469 1.5089,-7.7009 3.368,-7.7009 1.8591,0 3.3679,4.554 3.3679,7.7009 z"
             id="use3684"
             sodipodi:nodetypes="csssc"
             inkscape:connector-curvature="0" />
        </g>
      </g>
      <g
         id="use3663"
         transform="matrix(0.62785179,0.25881905,-0.16823238,0.96592583,97.731783,223.21301)"
         style="fill:#000000;fill-opacity:1;stroke:#464646;stroke-width:3.72104192;stroke-linejoin:round;stroke-miterlimit:4;stroke-opacity:1;stroke-dasharray:none">
        <path
           id="path3688"
           d="m 146.37356,495.24988 23.57952,-87.99997 23.57952,87.99997 -47.15904,0 z"
           style="fill-opacity:1"
           inkscape:connector-curvature="0" />
        <g
           style="fill-opacity:1"
           id="g3690"
           transform="translate(514.35419,-1019.4414)">
          <path
             style="fill:#9a9c9d;fill-opacity:1;fill-rule:nonzero;stroke:none"
             d="m -341.03319,1504.9904 c 0,3.1469 -1.5088,3.7009 -3.3679,3.7009 -1.8591,0 -3.368,-0.554 -3.368,-3.7009 0,-3.1469 1.5089,-7.7009 3.368,-7.7009 1.8591,0 3.3679,4.554 3.3679,7.7009 z"
             id="use3692"
             sodipodi:nodetypes="csssc"
             inkscape:connector-curvature="0" />
        </g>
      </g>
    </g>
    <g
       style="opacity:0.87000002;fill:#008400;fill-opacity:1;fill-rule:nonzero;stroke:#009a00;stroke-width:3;stroke-linejoin:round;stroke-miterlimit:4;stroke-opacity:1;stroke-dasharray:none"
       transform="translate(366.13836,-263.12132)"
       id="g4963">
      <g
         style="fill:#008400;fill-opacity:1;fill-rule:nonzero;stroke:#009a00;stroke-width:3.72104192;stroke-linejoin:round;stroke-miterlimit:4;stroke-opacity:1;stroke-dasharray:none"
         transform="matrix(0.62785179,-0.25881904,0.16823238,0.96592583,-39.293335,311.18718)"
         id="use4965">
        <path
           style="fill-opacity:1"
           d="m 146.37356,495.24988 23.57952,-87.99997 23.57952,87.99997 -47.15904,0 z"
           id="path3732"
           inkscape:connector-curvature="0" />
        <g
           transform="translate(514.35419,-1019.4414)"
           id="g3734"
           style="fill-opacity:1">
          <path
             sodipodi:nodetypes="csssc"
             id="use3736"
             d="m -341.03316,1504.9904 c 0,3.1469 -1.50884,3.701 -3.36795,3.701 -1.85912,0 -3.36796,-0.5541 -3.36796,-3.701 0,-3.1469 1.50884,-7.7009 3.36796,-7.7009 1.85911,0 3.36795,4.554 3.36795,7.7009 z"
             style="fill:#000000;fill-opacity:1;fill-rule:nonzero;stroke:none"
             inkscape:connector-curvature="0" />
        </g>
      </g>
      <g
         style="fill:#008400;fill-opacity:1;fill-rule:nonzero;stroke:#009a00;stroke-width:3.72104192;stroke-linejoin:round;stroke-miterlimit:4;stroke-opacity:1;stroke-dasharray:none"
         transform="matrix(0.62785179,0.25881905,-0.16823238,0.96592583,97.731872,223.213)"
         id="use4967">
        <path
           style="fill-opacity:1"
           d="m 146.37356,495.24988 23.57952,-87.99997 23.57952,87.99997 -47.15904,0 z"
           id="path3740"
           inkscape:connector-curvature="0" />
        <g
           transform="translate(514.35419,-1019.4414)"
           id="g3742"
           style="fill-opacity:1">
          <path
             sodipodi:nodetypes="csssc"
             id="use3744"
             d="m -341.03316,1504.9904 c 0,3.1469 -1.50884,3.701 -3.36795,3.701 -1.85912,0 -3.36796,-0.5541 -3.36796,-3.701 0,-3.1469 1.50884,-7.7009 3.36796,-7.7009 1.85911,0 3.36795,4.554 3.36795,7.7009 z"
             style="fill:#000000;fill-opacity:1;fill-rule:nonzero;stroke:none"
             inkscape:connector-curvature="0" />
        </g>
      </g>
    </g>
    <g
       id="g5135"
       transform="translate(367.08049,-279.72279)"
       style="opacity:0.87000002;fill:#14148f;fill-opacity:1;fill-rule:nonzero;stroke:#0f0fb1;stroke-width:3;stroke-linejoin:round;stroke-miterlimit:4;stroke-opacity:1;stroke-dasharray:none">
      <g
         style="fill:#14148f;fill-opacity:1;fill-rule:nonzero;stroke:#0f0fb1;stroke-width:3.72104192;stroke-linejoin:round;stroke-miterlimit:4;stroke-opacity:1;stroke-dasharray:none"
         transform="matrix(0.62785179,-0.25881904,0.16823238,0.96592583,-39.293335,311.18718)"
         id="use5137">
        <path
           style="fill-opacity:1"
           d="m 146.37356,495.24988 23.57952,-87.99997 23.57952,87.99997 -47.15904,0 z"
           id="path3748"
           inkscape:connector-curvature="0" />
        <g
           transform="translate(514.35419,-1019.4414)"
           id="g3750"
           style="fill-opacity:1">
          <path
             sodipodi:nodetypes="csssc"
             id="use3752"
             d="m -341.03316,1504.9904 c 0,3.1469 -1.50884,3.701 -3.36795,3.701 -1.85912,0 -3.36796,-0.5541 -3.36796,-3.701 0,-3.1469 1.50884,-7.7009 3.36796,-7.7009 1.85911,0 3.36795,4.554 3.36795,7.7009 z"
             style="fill:#000000;fill-opacity:1;fill-rule:nonzero;stroke:none"
             inkscape:connector-curvature="0" />
        </g>
      </g>
      <g
         style="fill:#14148f;fill-opacity:1;fill-rule:nonzero;stroke:#0f0fb1;stroke-width:3.72104192;stroke-linejoin:round;stroke-miterlimit:4;stroke-opacity:1;stroke-dasharray:none"
         transform="matrix(0.62785179,0.25881905,-0.16823238,0.96592583,97.731872,223.213)"
         id="use5139">
        <path
           style="fill-opacity:1"
           d="m 146.37356,495.24988 23.57952,-87.99997 23.57952,87.99997 -47.15904,0 z"
           id="path3756"
           inkscape:connector-curvature="0" />
        <g
           transform="translate(514.35419,-1019.4414)"
           id="g3758"
           style="fill-opacity:1">
          <path
             sodipodi:nodetypes="csssc"
             id="use3760"
             d="m -341.03316,1504.9904 c 0,3.1469 -1.50884,3.701 -3.36795,3.701 -1.85912,0 -3.36796,-0.5541 -3.36796,-3.701 0,-3.1469 1.50884,-7.7009 3.36796,-7.7009 1.85911,0 3.36795,4.554 3.36795,7.7009 z"
             style="fill:#000000;fill-opacity:1;fill-rule:nonzero;stroke:none"
             inkscape:connector-curvature="0" />
        </g>
      </g>
    </g>
  </g>
</svg>
