<?xml version="1.0"?><svg width="1379.9589" height="955.68878" xmlns="http://www.w3.org/2000/svg">
 <title>hexagons</title>

 <g>
  <title>Layer 1</title>
  <g id="layer1">
   <path fill="none" stroke="#000000" stroke-width="3.543307" stroke-linecap="round" stroke-miterlimit="4" stroke-dashoffset="0" id="path5166" d="m193.356079,225.582687l-64.415649,-0.239944l-32,-55.905518l32.415649,-55.665573l64.415649,0.239952l32,55.90551l-32.415649,55.665573z"/>
   <path fill="none" stroke="#000000" stroke-width="3.543307" stroke-linecap="round" stroke-miterlimit="4" stroke-dashoffset="0" id="path5549" d="m289.356079,281.582703l-64.415649,-0.23996l-32,-55.905518l32.415649,-55.665573l64.415649,0.239944l32,55.905518l-32.415649,55.665588z"/>
   <path fill="none" stroke="#000000" stroke-width="3.543307" stroke-linecap="round" stroke-miterlimit="4" stroke-dashoffset="0" id="path5551" d="m289.771729,169.822647l-64.415649,-0.239944l-32,-55.905518l32.415649,-55.665585l64.415649,0.239952l32,55.905521l-32.415649,55.665573z"/>
   <path fill="none" stroke="#000000" stroke-width="3.543307" stroke-linecap="round" stroke-miterlimit="4" stroke-dashoffset="0" id="path5553" d="m385.771729,225.822647l-64.415649,-0.239944l-32,-55.905518l32.415649,-55.665588l64.415649,0.239952l32,55.905525l-32.415649,55.665573z"/>
   <path fill="none" stroke="#000000" stroke-width="3.543307" stroke-linecap="round" stroke-miterlimit="4" stroke-dashoffset="0" id="path5555" d="m289.771729,393.917114l-64.415649,-0.239929l-32,-55.905518l32.415649,-55.665588l64.415649,0.23996l32,55.905518l-32.415649,55.665558z"/>
   <path fill="none" stroke="#000000" stroke-width="3.543307" stroke-linecap="round" stroke-miterlimit="4" stroke-dashoffset="0" id="path5557" d="m385.771729,449.917114l-64.415649,-0.239929l-32,-55.905518l32.415649,-55.665588l64.415649,0.23996l32,55.905518l-32.415649,55.665558z"/>
   <path fill="none" stroke="#000000" stroke-width="3.543307" stroke-linecap="round" stroke-miterlimit="4" stroke-dashoffset="0" id="path5559" d="m386.187256,338.157074l-64.415649,-0.23996l-32,-55.905518l32.415649,-55.665558l64.415649,0.239944l32,55.905533l-32.415649,55.665558z"/>
   <path fill="none" stroke="#000000" stroke-width="3.543307" stroke-linecap="round" stroke-miterlimit="4" stroke-dashoffset="0" id="path5561" d="m482.187256,394.157074l-64.415649,-0.23996l-32,-55.905518l32.415649,-55.665558l64.415649,0.23996l32,55.905518l-32.415649,55.665558z"/>
   <path fill="none" stroke="#000000" stroke-width="3.543307" stroke-linecap="round" stroke-miterlimit="4" stroke-dashoffset="0" id="path5563" d="m480.940552,281.24826l-64.415649,-0.23996l-32,-55.905502l32.415649,-55.665573l64.415649,0.239944l32,55.905518l-32.415649,55.665573z"/>
   <path fill="none" stroke="#000000" stroke-width="3.543307" stroke-linecap="round" stroke-miterlimit="4" stroke-dashoffset="0" id="path5565" d="m576.940552,337.24826l-64.415649,-0.239929l-32,-55.905518l32.415649,-55.665588l64.415649,0.23996l32,55.905518l-32.415649,55.665558z"/>
   <path fill="none" stroke="#000000" stroke-width="3.543307" stroke-linecap="round" stroke-miterlimit="4" stroke-dashoffset="0" id="path5567" d="m577.356079,225.48822l-64.415649,-0.23996l-32,-55.905518l32.415649,-55.665573l64.415649,0.239952l32,55.90551l-32.415649,55.665588z"/>
   <path fill="none" stroke="#000000" stroke-width="3.543307" stroke-linecap="round" stroke-miterlimit="4" stroke-dashoffset="0" id="path5569" d="m673.356079,281.48822l-64.415649,-0.23996l-32,-55.905518l32.415649,-55.665588l64.415649,0.23996l32,55.905518l-32.415649,55.665588z"/>
   <path fill="none" stroke="#000000" stroke-width="3.543307" stroke-linecap="round" stroke-miterlimit="4" stroke-dashoffset="0" id="path5571" d="m577.356079,449.582703l-64.415649,-0.23996l-32,-55.905518l32.415649,-55.665588l64.415649,0.23996l32,55.905518l-32.415649,55.665588z"/>
   <path fill="none" stroke="#000000" stroke-width="3.543307" stroke-linecap="round" stroke-miterlimit="4" stroke-dashoffset="0" id="path5573" d="m673.356079,505.582703l-64.415649,-0.23996l-32,-55.905518l32.415649,-55.665588l64.415649,0.23996l32,55.905518l-32.415649,55.665588z"/>
   <path fill="none" stroke="#000000" stroke-width="3.543307" stroke-linecap="round" stroke-miterlimit="4" stroke-dashoffset="0" id="path5575" d="m673.771729,393.822632l-64.415649,-0.239929l-32,-55.905518l32.415649,-55.665588l64.415649,0.23996l32,55.905518l-32.415649,55.665558z"/>
   <path fill="none" stroke="#000000" stroke-width="3.543307" stroke-linecap="round" stroke-miterlimit="4" stroke-dashoffset="0" id="path5577" d="m769.771667,449.822632l-64.415649,-0.239929l-32,-55.905518l32.415649,-55.665588l64.415649,0.23996l32,55.905518l-32.415649,55.665558z"/>
   <path fill="none" stroke="#000000" stroke-width="3.543307" stroke-linecap="round" stroke-miterlimit="4" stroke-dashoffset="0" id="path5579" d="m385.771729,561.917114l-64.415649,-0.239929l-32,-55.905518l32.415649,-55.665588l64.415649,0.23996l32,55.905518l-32.415649,55.665558z"/>
   <path fill="none" stroke="#000000" stroke-width="3.543307" stroke-linecap="round" stroke-miterlimit="4" stroke-dashoffset="0" id="path5581" d="m481.771729,617.917114l-64.415649,-0.239929l-32,-55.905518l32.415649,-55.665588l64.415649,0.23996l32,55.905548l-32.415649,55.665527z"/>
   <path fill="none" stroke="#000000" stroke-width="3.543307" stroke-linecap="round" stroke-miterlimit="4" stroke-dashoffset="0" id="path5583" d="m482.187256,506.157104l-64.415649,-0.23996l-32,-55.905518l32.415649,-55.665588l64.415649,0.23996l32,55.905518l-32.415649,55.665588z"/>
   <path fill="none" stroke="#000000" stroke-width="3.543307" stroke-linecap="round" stroke-miterlimit="4" stroke-dashoffset="0" id="path5585" d="m578.187256,562.157043l-64.415649,-0.239929l-32,-55.905518l32.415649,-55.665588l64.415649,0.23996l32,55.905518l-32.415649,55.665558z"/>
   <path fill="none" stroke="#000000" stroke-width="3.543307" stroke-linecap="round" stroke-miterlimit="4" stroke-dashoffset="0" id="path5587" d="m482.187256,730.251526l-64.415649,-0.239929l-32,-55.905518l32.415649,-55.665588l64.415649,0.239929l32,55.905518l-32.415649,55.665588z"/>
   <path fill="none" stroke="#000000" stroke-width="3.543307" stroke-linecap="round" stroke-miterlimit="4" stroke-dashoffset="0" id="path5589" d="m578.187256,786.251526l-64.415649,-0.239929l-32,-55.905518l32.415649,-55.665588l64.415649,0.239929l32,55.905518l-32.415649,55.665588z"/>
   <path fill="none" stroke="#000000" stroke-width="3.543307" stroke-linecap="round" stroke-miterlimit="4" stroke-dashoffset="0" id="path5591" d="m578.602905,674.491516l-64.415649,-0.239929l-32,-55.905518l32.415649,-55.665588l64.415649,0.239929l32,55.905518l-32.415649,55.665588z"/>
   <path fill="none" stroke="#000000" stroke-width="3.543307" stroke-linecap="round" stroke-miterlimit="4" stroke-dashoffset="0" id="path5593" d="m674.602905,730.491516l-64.415649,-0.239929l-32,-55.905518l32.415649,-55.665588l64.415649,0.239929l32,55.905518l-32.415649,55.665588z"/>
   <path fill="none" stroke="#000000" stroke-width="3.543307" stroke-linecap="round" stroke-miterlimit="4" stroke-dashoffset="0" id="path5595" d="m673.356079,617.582764l-64.415649,-0.23999l-32,-55.905518l32.415649,-55.665558l64.415649,0.23996l32,55.905518l-32.415649,55.665588z"/>
   <path fill="none" stroke="#000000" stroke-width="3.543307" stroke-linecap="round" stroke-miterlimit="4" stroke-dashoffset="0" id="path5597" d="m769.356079,673.582764l-64.415649,-0.23999l-32,-55.905518l32.415649,-55.665527l64.415649,0.239929l32,55.905518l-32.415649,55.665588z"/>
   <path fill="none" stroke="#000000" stroke-width="3.543307" stroke-linecap="round" stroke-miterlimit="4" stroke-dashoffset="0" id="path5599" d="m769.771667,561.822632l-64.415649,-0.239929l-32,-55.905518l32.415649,-55.665588l64.415649,0.23996l32,55.905518l-32.415649,55.665558z"/>
   <path fill="none" stroke="#000000" stroke-width="3.543307" stroke-linecap="round" stroke-miterlimit="4" stroke-dashoffset="0" id="path5601" d="m865.771667,617.822632l-64.415649,-0.239929l-32,-55.905518l32.415649,-55.665588l64.415649,0.23996l32,55.905548l-32.415649,55.665527z"/>
   <path fill="none" stroke="#000000" stroke-width="3.543307" stroke-linecap="round" stroke-miterlimit="4" stroke-dashoffset="0" id="path5603" d="m769.771667,785.917114l-64.415649,-0.239929l-32,-55.905518l32.415649,-55.665588l64.415649,0.23999l32,55.905518l-32.415649,55.665527z"/>
   <path fill="none" stroke="#000000" stroke-width="3.543307" stroke-linecap="round" stroke-miterlimit="4" stroke-dashoffset="0" id="path5605" d="m865.771667,841.917114l-64.415649,-0.239929l-32,-55.905518l32.415649,-55.665588l64.415649,0.23999l32,55.905518l-32.415649,55.665527z"/>
   <path fill="none" stroke="#000000" stroke-width="3.543307" stroke-linecap="round" stroke-miterlimit="4" stroke-dashoffset="0" id="path5607" d="m866.187256,730.157043l-64.415649,-0.239929l-32,-55.905518l32.415649,-55.665588l64.415649,0.239929l32,55.905518l-32.415649,55.665588z"/>
   <path fill="none" stroke="#000000" stroke-width="3.543307" stroke-linecap="round" stroke-miterlimit="4" stroke-dashoffset="0" id="path5609" d="m962.187256,786.157043l-64.415649,-0.239929l-32,-55.905518l32.415649,-55.665588l64.415649,0.239929l32,55.905518l-32.415649,55.665588z"/>
   <path fill="none" stroke="#000000" stroke-width="3.543307" stroke-linecap="round" stroke-miterlimit="4" stroke-dashoffset="0" id="path5611" d="m864.524841,505.102783l-64.415649,-0.239929l-32,-55.905518l32.415649,-55.665588l64.415649,0.23996l32,55.905518l-32.415649,55.665558z"/>
   <path fill="none" stroke="#000000" stroke-width="3.543307" stroke-linecap="round" stroke-miterlimit="4" stroke-dashoffset="0" id="path5613" d="m960.524841,561.102783l-64.415649,-0.239929l-32,-55.905518l32.415649,-55.665588l64.415649,0.23996l32,55.905518l-32.415649,55.665558z"/>
   <path fill="none" stroke="#000000" stroke-width="3.543307" stroke-linecap="round" stroke-miterlimit="4" stroke-dashoffset="0" id="path5615" d="m960.94043,449.342743l-64.415649,-0.23996l-32,-55.905518l32.415649,-55.665558l64.415649,0.23996l32,55.905518l-32.415649,55.665558z"/>
   <path fill="none" stroke="#000000" stroke-width="3.543307" stroke-linecap="round" stroke-miterlimit="4" stroke-dashoffset="0" id="path5617" d="m1056.94043,505.342712l-64.415649,-0.239929l-32,-55.905518l32.415649,-55.665588l64.415649,0.23996l32,55.905518l-32.415649,55.665558z"/>
   <path fill="none" stroke="#000000" stroke-width="3.543307" stroke-linecap="round" stroke-miterlimit="4" stroke-dashoffset="0" id="path5619" d="m960.94043,673.437256l-64.415649,-0.23999l-32,-55.905518l32.415649,-55.665527l64.415649,0.239929l32,55.905518l-32.415649,55.665588z"/>
   <path fill="none" stroke="#000000" stroke-width="3.543307" stroke-linecap="round" stroke-miterlimit="4" stroke-dashoffset="0" id="path5621" d="m1056.94043,729.437256l-64.415649,-0.239929l-32,-55.905518l32.415649,-55.665588l64.415649,0.23999l32,55.905518l-32.415649,55.665527z"/>
   <path fill="none" stroke="#000000" stroke-width="3.543307" stroke-linecap="round" stroke-miterlimit="4" stroke-dashoffset="0" id="path5623" d="m1057.356079,617.677124l-64.415649,-0.239929l-32,-55.905518l32.415649,-55.665588l64.415649,0.23996l32,55.905548l-32.415649,55.665527z"/>
   <path fill="none" stroke="#000000" stroke-width="3.543307" stroke-linecap="round" stroke-miterlimit="4" stroke-dashoffset="0" id="path5625" d="m1153.356079,673.677124l-64.415649,-0.239929l-32,-55.905518l32.415649,-55.665588l64.415649,0.23999l32,55.905518l-32.415649,55.665527z"/>
   <path fill="none" stroke="#000000" stroke-width="3.543307" stroke-linecap="round" stroke-miterlimit="4" stroke-dashoffset="0" id="path5635" d="m1153.356079,561.677185l-64.415649,-0.239929l-32,-55.905548l32.415649,-55.665588l64.415649,0.23996l32,55.905518l-32.415649,55.665588z"/>
   <path fill="none" stroke="#000000" stroke-width="3.543307" stroke-linecap="round" stroke-miterlimit="4" stroke-dashoffset="0" id="path5637" d="m1249.356079,617.677246l-64.415649,-0.23999l-32,-55.905518l32.415649,-55.665558l64.415649,0.23996l32,55.905518l-32.415649,55.665588z"/>
   <path fill="none" stroke="#000000" stroke-width="3.543307" stroke-linecap="round" stroke-miterlimit="4" stroke-dashoffset="0" id="path5639" d="m1249.771606,505.917114l-64.415649,-0.239929l-32,-55.905518l32.415649,-55.665588l64.415649,0.23996l32,55.905518l-32.415649,55.665558z"/>
   <path fill="none" stroke="#000000" stroke-width="3.543307" stroke-linecap="round" stroke-miterlimit="4" stroke-dashoffset="0" id="path5641" d="m1345.771606,561.917114l-64.415649,-0.239929l-32,-55.905518l32.415649,-55.665588l64.415649,0.23996l32,55.905518l-32.415649,55.665558z"/>
   <path fill="none" stroke="#000000" stroke-width="3.543307" stroke-linecap="round" stroke-miterlimit="4" stroke-dashoffset="0" id="path5643" d="m769.356079,337.677185l-64.415649,-0.23996l-32,-55.905518l32.415649,-55.665573l64.415649,0.239944l32,55.905518l-32.415649,55.665588z"/>
   <path fill="none" stroke="#000000" stroke-width="3.543307" stroke-linecap="round" stroke-miterlimit="4" stroke-dashoffset="0" id="path5645" d="m865.356079,393.677185l-64.415649,-0.23996l-32,-55.905518l32.415649,-55.665588l64.415649,0.23996l32,55.905518l-32.415649,55.665588z"/>
   <path fill="none" stroke="#000000" stroke-width="3.543307" stroke-linecap="round" stroke-miterlimit="4" stroke-dashoffset="0" id="path5647" d="m865.771667,281.917114l-64.415649,-0.239929l-32,-55.905518l32.415649,-55.665588l64.415649,0.23996l32,55.905518l-32.415649,55.665558z"/>
   <path fill="none" stroke="#000000" stroke-width="3.543307" stroke-linecap="round" stroke-miterlimit="4" stroke-dashoffset="0" id="path5649" d="m961.771667,337.917114l-64.415649,-0.239929l-32,-55.905518l32.415649,-55.665588l64.415649,0.23996l32,55.905518l-32.415649,55.665558z"/>
   <path fill="none" stroke="#000000" stroke-width="3.543307" stroke-linecap="round" stroke-miterlimit="4" stroke-dashoffset="0" id="path5653" d="m1059.958984,283.35434l-64.41571,-0.23996l-32,-55.905502l32.415649,-55.665573l64.415588,0.239944l32,55.905518l-32.415527,55.665573z"/>
   <path fill="none" stroke="#000000" stroke-width="3.543307" stroke-linecap="round" stroke-miterlimit="4" stroke-dashoffset="0" id="path5659" d="m672.940552,169.342758l-64.415649,-0.239944l-32,-55.905518l32.415649,-55.665585l64.415649,0.239952l32,55.905521l-32.415649,55.665573z"/>
   <path fill="none" stroke="#000000" stroke-width="3.543307" stroke-linecap="round" stroke-miterlimit="4" stroke-dashoffset="0" id="path5661" d="m768.94043,225.342743l-64.415649,-0.239944l-32,-55.905518l32.415649,-55.665581l64.415649,0.239952l32,55.905518l-32.415649,55.665573z"/>
   <path fill="none" stroke="#000000" stroke-width="3.543307" stroke-linecap="round" stroke-miterlimit="4" stroke-dashoffset="0" id="path5663" d="m769.356079,113.582695l-64.415649,-0.239944l-32,-55.905518l32.415649,-55.665581l64.415649,0.239952l32,55.905518l-32.415649,55.665573z"/>
   <path fill="none" stroke="#000000" stroke-width="3.543307" stroke-linecap="round" stroke-miterlimit="4" stroke-dashoffset="0" id="path5665" d="m865.356079,169.582687l-64.415649,-0.239944l-32,-55.905518l32.415649,-55.665577l64.415649,0.239952l32,55.905514l-32.415649,55.665573z"/>
   <path fill="none" stroke="#000000" stroke-width="3.543307" stroke-linecap="round" stroke-miterlimit="4" stroke-dashoffset="0" id="path5667" d="m193.771729,673.822632l-64.415649,-0.239929l-32,-55.905518l32.415649,-55.665588l64.415649,0.23999l32,55.905518l-32.415649,55.665527z"/>
   <path fill="none" stroke="#000000" stroke-width="3.543307" stroke-linecap="round" stroke-miterlimit="4" stroke-dashoffset="0" id="path5669" d="m289.771729,729.822632l-64.415649,-0.239929l-32,-55.905518l32.415649,-55.665588l64.415649,0.23999l32,55.905518l-32.415649,55.665527z"/>
   <path fill="none" stroke="#000000" stroke-width="3.543307" stroke-linecap="round" stroke-miterlimit="4" stroke-dashoffset="0" id="path5671" d="m290.187256,618.062622l-64.415649,-0.239929l-32,-55.905518l32.415649,-55.665588l64.415649,0.23996l32,55.905548l-32.415649,55.665527z"/>
   <path fill="none" stroke="#000000" stroke-width="3.543307" stroke-linecap="round" stroke-miterlimit="4" stroke-dashoffset="0" id="path5673" d="m386.187256,674.062622l-64.415649,-0.239929l-32,-55.905518l32.415649,-55.665588l64.415649,0.23999l32,55.905518l-32.415649,55.665527z"/>
   <path fill="none" stroke="#000000" stroke-width="3.543307" stroke-linecap="round" stroke-miterlimit="4" stroke-dashoffset="0" id="path5675" d="m98.187256,506.251526l-64.415649,-0.239929l-32,-55.905518l32.415649,-55.665588l64.415649,0.23996l32,55.905518l-32.415649,55.665558z"/>
   <path fill="none" stroke="#000000" stroke-width="3.543307" stroke-linecap="round" stroke-miterlimit="4" stroke-dashoffset="0" id="path5677" d="m194.187256,562.251526l-64.415649,-0.239929l-32,-55.905518l32.415649,-55.665588l64.415649,0.23996l32,55.905518l-32.415649,55.665558z"/>
   <path fill="none" stroke="#000000" stroke-width="3.543307" stroke-linecap="round" stroke-miterlimit="4" stroke-dashoffset="0" id="path5679" d="m194.602905,450.491516l-64.415649,-0.23996l-32,-55.905518l32.415649,-55.665588l64.415649,0.23996l32,55.905518l-32.415649,55.665588z"/>
   <path fill="none" stroke="#000000" stroke-width="3.543307" stroke-linecap="round" stroke-miterlimit="4" stroke-dashoffset="0" id="path5681" d="m290.602905,506.491516l-64.415649,-0.23996l-32,-55.905518l32.415649,-55.665588l64.415649,0.23996l32,55.905518l-32.415649,55.665588z"/>
   <path fill="none" stroke="#000000" stroke-width="3.543307" stroke-linecap="round" stroke-miterlimit="4" stroke-dashoffset="0" id="path5683" d="m290.187256,842.157043l-64.415649,-0.239929l-32,-55.905518l32.415649,-55.665588l64.415649,0.239929l32,55.905518l-32.415649,55.665588z"/>
   <path fill="none" stroke="#000000" stroke-width="3.543307" stroke-linecap="round" stroke-miterlimit="4" stroke-dashoffset="0" id="path5685" d="m386.187256,898.157043l-64.415649,-0.239929l-32,-55.905518l32.415649,-55.665588l64.415649,0.239929l32,55.905518l-32.415649,55.665588z"/>
   <path fill="none" stroke="#000000" stroke-width="3.543307" stroke-linecap="round" stroke-miterlimit="4" stroke-dashoffset="0" id="path5687" d="m386.602905,786.397034l-64.415649,-0.239929l-32,-55.905518l32.415649,-55.665588l64.415649,0.239929l32,55.905518l-32.415649,55.665588z"/>
   <path fill="none" stroke="#000000" stroke-width="3.543307" stroke-linecap="round" stroke-miterlimit="4" stroke-dashoffset="0" id="path5689" d="m482.602905,842.397034l-64.415649,-0.239929l-32,-55.905518l32.415649,-55.665588l64.415649,0.239929l32,55.905518l-32.415649,55.665588z"/>
   <path fill="none" stroke="#000000" stroke-width="3.543307" stroke-linecap="round" stroke-miterlimit="4" stroke-dashoffset="0" id="path5691" d="m961.771667,897.917114l-64.415649,-0.239929l-32,-55.905518l32.415649,-55.665588l64.415649,0.23999l32,55.905518l-32.415649,55.665527z"/>
   <path fill="none" stroke="#000000" stroke-width="3.543307" stroke-linecap="round" stroke-miterlimit="4" stroke-dashoffset="0" id="path5693" d="m1057.771729,953.917114l-64.41571,-0.239929l-32,-55.905518l32.415649,-55.665588l64.415588,0.23999l32,55.905518l-32.415527,55.665527z"/>
   <path fill="none" stroke="#000000" stroke-width="3.543307" stroke-linecap="round" stroke-miterlimit="4" stroke-dashoffset="0" id="path5695" d="m1058.187256,842.157043l-64.415649,-0.239929l-32,-55.905518l32.415649,-55.665588l64.415649,0.239929l32,55.905518l-32.415649,55.665588z"/>
   <path fill="none" stroke="#000000" stroke-width="3.543307" stroke-linecap="round" stroke-miterlimit="4" stroke-dashoffset="0" id="path5697" d="m1154.187256,898.157043l-64.415649,-0.239929l-32,-55.905518l32.415649,-55.665588l64.415649,0.239929l32,55.905518l-32.415649,55.665588z"/>
   <path fill="none" stroke="#000000" stroke-width="3.543307" stroke-linecap="round" stroke-miterlimit="4" stroke-dashoffset="0" id="path5699" d="m577.771729,897.822632l-64.415649,-0.239929l-32,-55.905518l32.415649,-55.665588l64.415649,0.23999l32,55.905518l-32.415649,55.665527z"/>
   <path fill="none" stroke="#000000" stroke-width="3.543307" stroke-linecap="round" stroke-miterlimit="4" stroke-dashoffset="0" id="path5701" d="m673.771729,953.822632l-64.415649,-0.239929l-32,-55.905518l32.415649,-55.665588l64.415649,0.23999l32,55.905518l-32.415649,55.665527z"/>
   <path fill="none" stroke="#000000" stroke-width="3.543307" stroke-linecap="round" stroke-miterlimit="4" stroke-dashoffset="0" id="path5703" d="m674.187256,842.062622l-64.415649,-0.239929l-32,-55.905518l32.415649,-55.665588l64.415649,0.23999l32,55.905518l-32.415649,55.665527z"/>
   <path fill="none" stroke="#000000" stroke-width="3.543307" stroke-linecap="round" stroke-miterlimit="4" stroke-dashoffset="0" id="path5705" d="m770.187256,898.062622l-64.415649,-0.239929l-32,-55.905518l32.415649,-55.665588l64.415649,0.23999l32,55.905518l-32.415649,55.665527z"/>
  </g>
 </g>
</svg>