<?xml version="1.0" encoding="UTF-8" standalone="no"?>
<!-- Created with Inkscape (http://www.inkscape.org/) -->

<svg
   xmlns:dc="http://purl.org/dc/elements/1.1/"
   xmlns:cc="http://creativecommons.org/ns#"
   xmlns:rdf="http://www.w3.org/1999/02/22-rdf-syntax-ns#"
   xmlns:svg="http://www.w3.org/2000/svg"
   xmlns="http://www.w3.org/2000/svg"
   xmlns:sodipodi="http://sodipodi.sourceforge.net/DTD/sodipodi-0.dtd"
   xmlns:inkscape="http://www.inkscape.org/namespaces/inkscape"
   version="1.0"
   width="390"
   height="450"
   id="svg1901"
   inkscape:version="0.48.2 r9819"
   sodipodi:docname="hexhex8.svg">
  <metadata
     id="metadata177">
    <rdf:RDF>
      <cc:Work
         rdf:about="">
        <dc:format>image/svg+xml</dc:format>
        <dc:type
           rdf:resource="http://purl.org/dc/dcmitype/StillImage" />
        <dc:title></dc:title>
      </cc:Work>
    </rdf:RDF>
  </metadata>
  <sodipodi:namedview
     pagecolor="#ffffff"
     bordercolor="#666666"
     borderopacity="1"
     objecttolerance="10"
     gridtolerance="10"
     guidetolerance="10"
     inkscape:pageopacity="0"
     inkscape:pageshadow="2"
     inkscape:window-width="1366"
     inkscape:window-height="720"
     id="namedview175"
     showgrid="false"
     inkscape:zoom="1.0488889"
     inkscape:cx="140.65678"
     inkscape:cy="225"
     inkscape:window-x="0"
     inkscape:window-y="0"
     inkscape:window-maximized="1"
     inkscape:current-layer="svg1901" />
  <defs
     id="defs1903" />
  <path
     inkscape:connector-curvature="0"
     id="use16236"
     style="fill:none;stroke:#000000;stroke-width:1.5;stroke-miterlimit:4;stroke-opacity:1;stroke-dasharray:none"
     d="m 104.46381,195.5196 -15.958172,0 -7.979086,-13.79777 7.979087,-13.79777 15.958171,0 7.97909,13.79777 -7.97909,13.79777 z" />
  <path
     d="m 104.46381,224.61514 -15.958172,0 -7.979086,-13.79777 7.979087,-13.79777 15.958171,0 7.97909,13.79777 -7.97909,13.79777 z"
     style="fill:#ffffff;fill-opacity:1;stroke:#000000;stroke-width:1.5;stroke-miterlimit:4;stroke-opacity:1;stroke-dasharray:none"
     id="use16238"
     inkscape:connector-curvature="0" />
  <path
     d="m 104.46381,253.71068 -15.958172,0 -7.979086,-13.79777 7.979087,-13.79777 15.958171,0 7.97909,13.79777 -7.97909,13.79777 z"
     style="fill:#ffffff;fill-opacity:1;stroke:#000000;stroke-width:1.5;stroke-miterlimit:4;stroke-opacity:1;stroke-dasharray:none"
     id="use16240"
     inkscape:connector-curvature="0" />
  <path
     inkscape:connector-curvature="0"
     id="use16242"
     style="fill:none;stroke:#000000;stroke-width:1.5;stroke-miterlimit:4;stroke-opacity:1;stroke-dasharray:none"
     d="m 104.46381,282.80623 -15.958172,0 -7.979086,-13.79777 7.979087,-13.79777 15.958171,0 7.97909,13.79777 -7.97909,13.79777 z" />
  <path
     inkscape:connector-curvature="0"
     id="use16244"
     style="fill:none;stroke:#000000;stroke-width:1.5;stroke-miterlimit:4;stroke-opacity:1;stroke-dasharray:none"
     d="m 104.46381,311.90177 -15.958172,0 -7.979086,-13.79777 7.979087,-13.79777 15.958171,0 7.97909,13.79777 -7.97909,13.79777 z" />
  <path
     d="m 129.52606,180.97183 -15.95817,0 -7.97908,-13.79777 7.97908,-13.79777 15.95817,0 7.97909,13.79777 -7.97909,13.79777 z"
     style="fill:#ffffff;fill-opacity:1;stroke:#000000;stroke-width:1.5;stroke-miterlimit:4;stroke-opacity:1;stroke-dasharray:none"
     id="use16276"
     inkscape:connector-curvature="0" />
  <path
     inkscape:connector-curvature="0"
     id="use16278"
     style="fill:none;stroke:#000000;stroke-width:1.5;stroke-miterlimit:4;stroke-opacity:1;stroke-dasharray:none"
     d="m 129.52606,210.06737 -15.95817,0 -7.97908,-13.79777 7.97908,-13.79777 15.95818,0 7.97908,13.79777 -7.97909,13.79777 z" />
  <path
     inkscape:connector-curvature="0"
     id="use16280"
     style="fill:none;stroke:#000000;stroke-width:1.5;stroke-miterlimit:4;stroke-opacity:1;stroke-dasharray:none"
     d="m 129.52606,239.16291 -15.95817,0 -7.97908,-13.79777 7.97908,-13.79777 15.95818,0 7.97908,13.79777 -7.97909,13.79777 z" />
  <path
     inkscape:connector-curvature="0"
     id="use16282"
     style="fill:none;stroke:#000000;stroke-width:1.5;stroke-miterlimit:4;stroke-opacity:1;stroke-dasharray:none"
     d="m 129.52606,268.25845 -15.95817,0 -7.97908,-13.79777 7.97908,-13.79777 15.95818,0 7.97908,13.79777 -7.97909,13.79777 z" />
  <path
     d="m 129.52606,297.35399 -15.95817,0 -7.97908,-13.79777 7.97908,-13.79777 15.95817,0 7.97909,13.79777 -7.97909,13.79777 z"
     style="fill:#ffffff;fill-opacity:1;stroke:#000000;stroke-width:1.5;stroke-miterlimit:4;stroke-opacity:1;stroke-dasharray:none"
     id="use16284"
     inkscape:connector-curvature="0" />
  <path
     d="m 129.52606,326.44953 -15.95817,0 -7.97908,-13.79777 7.97908,-13.79777 15.95817,0 7.97909,13.79777 -7.97909,13.79777 z"
     style="fill:#ffffff;fill-opacity:1;stroke:#000000;stroke-width:1.5;stroke-miterlimit:4;stroke-opacity:1;stroke-dasharray:none"
     id="use16286"
     inkscape:connector-curvature="0" />
  <path
     d="m 154.58832,166.42406 -15.95817,0 -7.97908,-13.79777 7.97908,-13.79777 15.95817,0 7.97909,13.79777 -7.97909,13.79777 z"
     style="fill:#ffffff;fill-opacity:1;stroke:#000000;stroke-width:1.5;stroke-miterlimit:4;stroke-opacity:1;stroke-dasharray:none"
     id="use16316"
     inkscape:connector-curvature="0" />
  <path
     inkscape:connector-curvature="0"
     id="use16318"
     style="fill:none;stroke:#000000;stroke-width:1.5;stroke-miterlimit:4;stroke-opacity:1;stroke-dasharray:none"
     d="m 154.58832,195.5196 -15.95817,0 -7.97908,-13.79777 7.97908,-13.79777 15.95818,0 7.97908,13.79777 -7.97909,13.79777 z" />
  <path
     d="m 154.58832,224.61514 -15.95817,0 -7.97908,-13.79777 7.97908,-13.79777 15.95817,0 7.97909,13.79777 -7.97909,13.79777 z"
     style="fill:#ffffff;fill-opacity:1;stroke:#000000;stroke-width:1.5;stroke-miterlimit:4;stroke-opacity:1;stroke-dasharray:none"
     id="use16320"
     inkscape:connector-curvature="0" />
  <path
     d="m 154.58832,253.71068 -15.95817,0 -7.97908,-13.79777 7.97908,-13.79777 15.95817,0 7.97909,13.79777 -7.97909,13.79777 z"
     style="fill:#ffffff;fill-opacity:1;stroke:#000000;stroke-width:1.5;stroke-miterlimit:4;stroke-opacity:1;stroke-dasharray:none"
     id="use16322"
     inkscape:connector-curvature="0" />
  <path
     d="m 154.58832,282.80622 -15.95817,0 -7.97908,-13.79777 7.97908,-13.79777 15.95817,0 7.97909,13.79777 -7.97909,13.79777 z"
     style="fill:#ffffff;fill-opacity:1;stroke:#000000;stroke-width:1.5;stroke-miterlimit:4;stroke-opacity:1;stroke-dasharray:none"
     id="use16324"
     inkscape:connector-curvature="0" />
  <path
     d="m 154.58832,311.90176 -15.95817,0 -7.97908,-13.79777 7.97908,-13.79777 15.95817,0 7.97909,13.79777 -7.97909,13.79777 z"
     style="fill:#ffffff;fill-opacity:1;stroke:#000000;stroke-width:1.5;stroke-miterlimit:4;stroke-opacity:1;stroke-dasharray:none"
     id="use16326"
     inkscape:connector-curvature="0" />
  <path
     d="m 154.58832,340.9973 -15.95817,0 -7.97908,-13.79777 7.97908,-13.79777 15.95817,0 7.97909,13.79777 -7.97909,13.79777 z"
     style="fill:#ffffff;fill-opacity:1;stroke:#000000;stroke-width:1.5;stroke-miterlimit:4;stroke-opacity:1;stroke-dasharray:none"
     id="use16328"
     inkscape:connector-curvature="0" />
  <path
     d="m 179.65058,151.87629 -15.95817,0 -7.97908,-13.79777 7.97908,-13.79777 15.95817,0 7.97909,13.79777 -7.97909,13.79777 z"
     style="fill:#ffffff;fill-opacity:1;stroke:#000000;stroke-width:1.5;stroke-miterlimit:4;stroke-opacity:1;stroke-dasharray:none"
     id="use16356"
     inkscape:connector-curvature="0" />
  <path
     inkscape:connector-curvature="0"
     id="use16358"
     style="fill:none;stroke:#000000;stroke-width:1.5;stroke-miterlimit:4;stroke-opacity:1;stroke-dasharray:none"
     d="m 179.65059,180.97183 -15.95817,0 -7.97909,-13.79777 7.97909,-13.79777 15.95817,0 7.97909,13.79777 -7.97909,13.79777 z" />
  <path
     d="m 179.65058,210.06737 -15.95817,0 -7.97908,-13.79777 7.97908,-13.79777 15.95817,0 7.97909,13.79777 -7.97909,13.79777 z"
     style="fill:#ffffff;fill-opacity:1;stroke:#000000;stroke-width:1.5;stroke-miterlimit:4;stroke-opacity:1;stroke-dasharray:none"
     id="use16360"
     inkscape:connector-curvature="0" />
  <path
     d="m 179.65058,239.16291 -15.95817,0 -7.97908,-13.79777 7.97908,-13.79777 15.95817,0 7.97909,13.79777 -7.97909,13.79777 z"
     style="fill:#ffffff;fill-opacity:1;stroke:#000000;stroke-width:1.5;stroke-miterlimit:4;stroke-opacity:1;stroke-dasharray:none"
     id="use16362"
     inkscape:connector-curvature="0" />
  <path
     d="m 179.65058,268.25845 -15.95817,0 -7.97908,-13.79777 7.97908,-13.79777 15.95817,0 7.97909,13.79777 -7.97909,13.79777 z"
     style="fill:#ffffff;fill-opacity:1;stroke:#000000;stroke-width:1.5;stroke-miterlimit:4;stroke-opacity:1;stroke-dasharray:none"
     id="use16364"
     inkscape:connector-curvature="0" />
  <path
     inkscape:connector-curvature="0"
     id="use16366"
     style="fill:none;stroke:#000000;stroke-width:1.5;stroke-miterlimit:4;stroke-opacity:1;stroke-dasharray:none"
     d="m 179.65059,297.354 -15.95817,0 -7.97909,-13.79777 7.97909,-13.79777 15.95817,0 7.97909,13.79777 -7.97909,13.79777 z" />
  <path
     inkscape:connector-curvature="0"
     id="use16368"
     style="fill:none;stroke:#000000;stroke-width:1.5;stroke-miterlimit:4;stroke-opacity:1;stroke-dasharray:none"
     d="m 179.65059,326.44954 -15.95817,0 -7.97909,-13.79777 7.97909,-13.79777 15.95817,0 7.97909,13.79777 -7.97909,13.79777 z" />
  <path
     d="m 179.65058,355.54508 -15.95817,0 -7.97908,-13.79777 7.97908,-13.79777 15.95817,0 7.97909,13.79777 -7.97909,13.79777 z"
     style="fill:#ffffff;fill-opacity:1;stroke:#000000;stroke-width:1.5;stroke-miterlimit:4;stroke-opacity:1;stroke-dasharray:none"
     id="use16370"
     inkscape:connector-curvature="0" />
  <path
     d="m 204.71284,137.32852 -15.95817,0 -7.97908,-13.79777 7.97908,-13.79777 15.95817,0 7.97909,13.79777 -7.97909,13.79777 z"
     style="fill:#ffffff;fill-opacity:1;stroke:#000000;stroke-width:1.5;stroke-miterlimit:4;stroke-opacity:1;stroke-dasharray:none"
     id="use16396"
     inkscape:connector-curvature="0" />
  <path
     inkscape:connector-curvature="0"
     id="use16398"
     style="fill:none;stroke:#000000;stroke-width:1.5;stroke-miterlimit:4;stroke-opacity:1;stroke-dasharray:none"
     d="m 204.71285,166.42406 -15.95817,0 -7.97909,-13.79777 7.97909,-13.79777 15.95817,0 7.97909,13.79777 -7.97909,13.79777 z" />
  <path
     d="m 204.71284,195.5196 -15.95817,0 -7.97908,-13.79777 7.97908,-13.79777 15.95817,0 7.97909,13.79777 -7.97909,13.79777 z"
     style="fill:#ffffff;fill-opacity:1;stroke:#000000;stroke-width:1.5;stroke-miterlimit:4;stroke-opacity:1;stroke-dasharray:none"
     id="use16400"
     inkscape:connector-curvature="0" />
  <path
     d="m 204.71284,224.61514 -15.95817,0 -7.97908,-13.79777 7.97908,-13.79777 15.95817,0 7.97909,13.79777 -7.97909,13.79777 z"
     style="fill:#ffffff;fill-opacity:1;stroke:#000000;stroke-width:1.5;stroke-miterlimit:4;stroke-opacity:1;stroke-dasharray:none"
     id="use16402"
     inkscape:connector-curvature="0" />
  <path
     d="m 204.71284,253.71068 -15.95817,0 -7.97908,-13.79777 7.97908,-13.79777 15.95817,0 7.97909,13.79777 -7.97909,13.79777 z"
     style="fill:#ffffff;fill-opacity:1;stroke:#000000;stroke-width:1.5;stroke-miterlimit:4;stroke-opacity:1;stroke-dasharray:none"
     id="use16404"
     inkscape:connector-curvature="0" />
  <path
     inkscape:connector-curvature="0"
     id="use16406"
     style="fill:none;stroke:#000000;stroke-width:1.5;stroke-miterlimit:4;stroke-opacity:1;stroke-dasharray:none"
     d="m 204.71285,282.80623 -15.95817,0 -7.97909,-13.79777 7.97909,-13.79777 15.95817,0 7.97909,13.79777 -7.97909,13.79777 z" />
  <path
     d="m 204.71284,311.90176 -15.95817,0 -7.97908,-13.79777 7.97908,-13.79777 15.95817,0 7.97909,13.79777 -7.97909,13.79777 z"
     style="fill:#ffffff;fill-opacity:1;stroke:#000000;stroke-width:1.5;stroke-miterlimit:4;stroke-opacity:1;stroke-dasharray:none"
     id="use16408"
     inkscape:connector-curvature="0" />
  <path
     inkscape:connector-curvature="0"
     id="use16410"
     style="fill:none;stroke:#000000;stroke-width:1.5;stroke-miterlimit:4;stroke-opacity:1;stroke-dasharray:none"
     d="m 204.71285,340.9973 -15.95817,0 -7.97909,-13.79777 7.97909,-13.79777 15.95817,0 7.97909,13.79777 -7.97909,13.79777 z" />
  <path
     inkscape:connector-curvature="0"
     id="use16412"
     style="fill:none;stroke:#000000;stroke-width:1.5;stroke-miterlimit:4;stroke-opacity:1;stroke-dasharray:none"
     d="m 204.71285,370.09285 -15.95817,0 -7.97909,-13.79777 7.97909,-13.79777 15.95817,0 7.97909,13.79777 -7.97909,13.79777 z" />
  <path
     d="m 229.7751,151.87629 -15.95817,0 -7.97908,-13.79777 7.97908,-13.79777 15.95817,0 7.97909,13.79777 -7.97909,13.79777 z"
     style="fill:#ffffff;fill-opacity:1;stroke:#000000;stroke-width:1.5;stroke-miterlimit:4;stroke-opacity:1;stroke-dasharray:none"
     id="use16438"
     inkscape:connector-curvature="0" />
  <path
     inkscape:connector-curvature="0"
     id="use16440"
     style="fill:none;stroke:#000000;stroke-width:1.5;stroke-miterlimit:4;stroke-opacity:1;stroke-dasharray:none"
     d="m 229.77511,180.97183 -15.95817,0 -7.97909,-13.79777 7.97909,-13.79777 15.95817,0 7.97909,13.79777 -7.97909,13.79777 z" />
  <path
     d="m 229.7751,210.06737 -15.95817,0 -7.97908,-13.79777 7.97908,-13.79777 15.95817,0 7.97909,13.79777 -7.97909,13.79777 z"
     style="fill:#ffffff;fill-opacity:1;stroke:#000000;stroke-width:1.5;stroke-miterlimit:4;stroke-opacity:1;stroke-dasharray:none"
     id="use16442"
     inkscape:connector-curvature="0" />
  <path
     d="m 229.7751,239.16291 -15.95817,0 -7.97908,-13.79777 7.97908,-13.79777 15.95817,0 7.97909,13.79777 -7.97909,13.79777 z"
     style="fill:#ffffff;fill-opacity:1;stroke:#000000;stroke-width:1.5;stroke-miterlimit:4;stroke-opacity:1;stroke-dasharray:none"
     id="use16444"
     inkscape:connector-curvature="0" />
  <path
     d="m 229.7751,268.25845 -15.95817,0 -7.97908,-13.79777 7.97908,-13.79777 15.95817,0 7.97909,13.79777 -7.97909,13.79777 z"
     style="fill:#ffffff;fill-opacity:1;stroke:#000000;stroke-width:1.5;stroke-miterlimit:4;stroke-opacity:1;stroke-dasharray:none"
     id="use16446"
     inkscape:connector-curvature="0" />
  <path
     inkscape:connector-curvature="0"
     id="use16448"
     style="fill:none;stroke:#000000;stroke-width:1.5;stroke-miterlimit:4;stroke-opacity:1;stroke-dasharray:none"
     d="m 229.77511,297.354 -15.95817,0 -7.97909,-13.79777 7.97909,-13.79777 15.95817,0 7.97909,13.79777 -7.97909,13.79777 z" />
  <path
     d="m 229.7751,326.44953 -15.95817,0 -7.97908,-13.79777 7.97908,-13.79777 15.95817,0 7.97909,13.79777 -7.97909,13.79777 z"
     style="fill:#ffffff;fill-opacity:1;stroke:#000000;stroke-width:1.5;stroke-miterlimit:4;stroke-opacity:1;stroke-dasharray:none"
     id="use16450"
     inkscape:connector-curvature="0" />
  <path
     d="m 229.7751,355.54508 -15.95817,0 -7.97908,-13.79777 7.97908,-13.79777 15.95817,0 7.97909,13.79777 -7.97909,13.79777 z"
     style="fill:#ffffff;fill-opacity:1;stroke:#000000;stroke-width:1.5;stroke-miterlimit:4;stroke-opacity:1;stroke-dasharray:none"
     id="use16452"
     inkscape:connector-curvature="0" />
  <path
     inkscape:connector-curvature="0"
     id="use16480"
     style="fill:none;stroke:#000000;stroke-width:1.5;stroke-miterlimit:4;stroke-opacity:1;stroke-dasharray:none"
     d="m 254.83737,166.42406 -15.95817,0 -7.97909,-13.79777 7.97909,-13.79777 15.95817,0 7.97909,13.79777 -7.97909,13.79777 z" />
  <path
     d="m 254.83736,195.5196 -15.95817,0 -7.97908,-13.79777 7.97908,-13.79777 15.95817,0 7.97909,13.79777 -7.97909,13.79777 z"
     style="fill:#ffffff;fill-opacity:1;stroke:#000000;stroke-width:1.5;stroke-miterlimit:4;stroke-opacity:1;stroke-dasharray:none"
     id="use16482"
     inkscape:connector-curvature="0" />
  <path
     d="m 254.83736,224.61514 -15.95817,0 -7.97908,-13.79777 7.97908,-13.79777 15.95817,0 7.97909,13.79777 -7.97909,13.79777 z"
     style="fill:#ffffff;fill-opacity:1;stroke:#000000;stroke-width:1.5;stroke-miterlimit:4;stroke-opacity:1;stroke-dasharray:none"
     id="use16484"
     inkscape:connector-curvature="0" />
  <path
     d="m 254.83736,253.71068 -15.95817,0 -7.97908,-13.79777 7.97908,-13.79777 15.95817,0 7.97909,13.79777 -7.97909,13.79777 z"
     style="fill:#ffffff;fill-opacity:1;stroke:#000000;stroke-width:1.5;stroke-miterlimit:4;stroke-opacity:1;stroke-dasharray:none"
     id="use16486"
     inkscape:connector-curvature="0" />
  <path
     d="m 254.83736,282.80622 -15.95817,0 -7.97908,-13.79777 7.97908,-13.79777 15.95817,0 7.97909,13.79777 -7.97909,13.79777 z"
     style="fill:#ffffff;fill-opacity:1;stroke:#000000;stroke-width:1.5;stroke-miterlimit:4;stroke-opacity:1;stroke-dasharray:none"
     id="use16488"
     inkscape:connector-curvature="0" />
  <path
     inkscape:connector-curvature="0"
     id="use16490"
     style="fill:none;stroke:#000000;stroke-width:1.5;stroke-miterlimit:4;stroke-opacity:1;stroke-dasharray:none"
     d="m 254.83737,311.90177 -15.95817,0 -7.97909,-13.79777 7.97909,-13.79777 15.95817,0 7.97909,13.79777 -7.97909,13.79777 z" />
  <path
     inkscape:connector-curvature="0"
     id="use16492"
     style="fill:none;stroke:#000000;stroke-width:1.5;stroke-miterlimit:4;stroke-opacity:1;stroke-dasharray:none"
     d="m 254.83737,340.9973 -15.95817,0 -7.97909,-13.79777 7.97909,-13.79777 15.95817,0 7.97909,13.79777 -7.97909,13.79777 z" />
  <path
     d="m 279.89962,180.97183 -15.95817,0 -7.97908,-13.79777 7.97908,-13.79777 15.95817,0 7.97909,13.79777 -7.97909,13.79777 z"
     style="fill:#ffffff;fill-opacity:1;stroke:#000000;stroke-width:1.5;stroke-miterlimit:4;stroke-opacity:1;stroke-dasharray:none"
     id="use16522"
     inkscape:connector-curvature="0" />
  <path
     d="m 279.89962,210.06737 -15.95817,0 -7.97908,-13.79777 7.97908,-13.79777 15.95817,0 7.97909,13.79777 -7.97909,13.79777 z"
     style="fill:#ffffff;fill-opacity:1;stroke:#000000;stroke-width:1.5;stroke-miterlimit:4;stroke-opacity:1;stroke-dasharray:none"
     id="use16524"
     inkscape:connector-curvature="0" />
  <path
     d="m 279.89962,239.16291 -15.95817,0 -7.97908,-13.79777 7.97908,-13.79777 15.95817,0 7.97909,13.79777 -7.97909,13.79777 z"
     style="fill:#ffffff;fill-opacity:1;stroke:#000000;stroke-width:1.5;stroke-miterlimit:4;stroke-opacity:1;stroke-dasharray:none"
     id="use16526"
     inkscape:connector-curvature="0" />
  <path
     d="m 279.89962,268.25845 -15.95817,0 -7.97908,-13.79777 7.97908,-13.79777 15.95817,0 7.97909,13.79777 -7.97909,13.79777 z"
     style="fill:#ffffff;fill-opacity:1;stroke:#000000;stroke-width:1.5;stroke-miterlimit:4;stroke-opacity:1;stroke-dasharray:none"
     id="use16528"
     inkscape:connector-curvature="0" />
  <path
     d="m 279.89962,297.35399 -15.95817,0 -7.97908,-13.79777 7.97908,-13.79777 15.95817,0 7.97909,13.79777 -7.97909,13.79777 z"
     style="fill:#ffffff;fill-opacity:1;stroke:#000000;stroke-width:1.5;stroke-miterlimit:4;stroke-opacity:1;stroke-dasharray:none"
     id="use16530"
     inkscape:connector-curvature="0" />
  <path
     d="m 279.89962,326.44953 -15.95817,0 -7.97908,-13.79777 7.97908,-13.79777 15.95817,0 7.97909,13.79777 -7.97909,13.79777 z"
     style="fill:#ffffff;fill-opacity:1;stroke:#000000;stroke-width:1.5;stroke-miterlimit:4;stroke-opacity:1;stroke-dasharray:none"
     id="use16532"
     inkscape:connector-curvature="0" />
  <path
     d="m 304.96188,195.5196 -15.95817,0 -7.97908,-13.79777 7.97908,-13.79777 15.95817,0 7.97909,13.79777 -7.97909,13.79777 z"
     style="fill:#ffffff;fill-opacity:1;stroke:#000000;stroke-width:1.5;stroke-miterlimit:4;stroke-opacity:1;stroke-dasharray:none"
     id="use16564"
     inkscape:connector-curvature="0" />
  <path
     d="m 304.96188,224.61514 -15.95817,0 -7.97908,-13.79777 7.97908,-13.79777 15.95817,0 7.97909,13.79777 -7.97909,13.79777 z"
     style="fill:#ffffff;fill-opacity:1;stroke:#000000;stroke-width:1.5;stroke-miterlimit:4;stroke-opacity:1;stroke-dasharray:none"
     id="use16566"
     inkscape:connector-curvature="0" />
  <path
     d="m 304.96188,253.71068 -15.95817,0 -7.97908,-13.79777 7.97908,-13.79777 15.95817,0 7.97909,13.79777 -7.97909,13.79777 z"
     style="fill:#ffffff;fill-opacity:1;stroke:#000000;stroke-width:1.5;stroke-miterlimit:4;stroke-opacity:1;stroke-dasharray:none"
     id="use16568"
     inkscape:connector-curvature="0" />
  <path
     d="m 304.96188,282.80622 -15.95817,0 -7.97908,-13.79777 7.97908,-13.79777 15.95817,0 7.97909,13.79777 -7.97909,13.79777 z"
     style="fill:#ffffff;fill-opacity:1;stroke:#000000;stroke-width:1.5;stroke-miterlimit:4;stroke-opacity:1;stroke-dasharray:none"
     id="use16570"
     inkscape:connector-curvature="0" />
  <path
     d="m 304.96188,311.90176 -15.95817,0 -7.97908,-13.79777 7.97908,-13.79777 15.95817,0 7.97909,13.79777 -7.97909,13.79777 z"
     style="fill:#ffffff;fill-opacity:1;stroke:#000000;stroke-width:1.5;stroke-miterlimit:4;stroke-opacity:1;stroke-dasharray:none"
     id="use16572"
     inkscape:connector-curvature="0" />
</svg>
