<?xml version="1.0"?><svg width="2861.0117" height="2566.1736" xmlns="http://www.w3.org/2000/svg" xmlns:xlink="http://www.w3.org/1999/xlink">
 <title>honeycomb</title>
 <defs>
  <filter height="1.31" width="1.49" y="-0.15" x="-0.21" color-interpolation-filters="sRGB" id="filter4124">
   <feGaussianBlur stdDeviation="17.172463" id="feGaussianBlur4126"/>
  </filter>
 </defs>
 <metadata id="metadata7">image/svg+xml</metadata>
 <g>
  <title>Layer 1</title>
  <g id="layer1">
   <g id="use4161">
    <path opacity="0.99" fill="#ff7f00" stroke="#000000" stroke-width="20" stroke-miterlimit="4" d="m426.844696,708.448914l0,-229.85556l199.060455,-114.927155l199.060486,114.927155l0,229.85556l-199.060486,114.926819l-199.060455,-114.926819z" id="path4595"/>
    <path opacity="0.99" fill="#ff7f00" filter="url(#filter4124)" d="m761.501465,596.531433c0,82.205017 -62.498352,148.845459 -139.593933,148.845459c-77.095642,0 -139.593994,-66.640442 -139.593994,-148.845459c0,-82.205078 62.498352,-148.845459 139.593994,-148.845459c77.095581,0 139.593933,66.640381 139.593933,148.845459z" id="path4597"/>
   </g>
   <use fill="#ff7f00" stroke="#0000e8" height="1052.3622" width="744.09448" id="use4703" xlink:href="#use4161" y="0" x="0"/>
   <use fill="#ff7f00" stroke="#0000e8" height="1052.3622" width="744.09448" id="use4705" xlink:href="#use4161" y="344.782974" x="199.059753"/>
   <g id="g4719">
    <path opacity="0.99" fill="#ff7f00" stroke="#000000" stroke-width="20" stroke-miterlimit="4" id="path4721" d="m824.965088,708.448914l0,-229.85556l199.060425,-114.927155l199.060547,114.927155l0,229.85556l-199.060547,114.926819l-199.060425,-114.926819z"/>
    <path opacity="0.99" fill="#ff7f00" filter="url(#filter4124)" id="path4723" d="m1159.621948,596.531433c0,82.205017 -62.498413,148.845459 -139.593994,148.845459c-77.095642,0 -139.593994,-66.640442 -139.593994,-148.845459c0,-82.205078 62.498352,-148.845459 139.593994,-148.845459c77.095581,0 139.593994,66.640381 139.593994,148.845459z"/>
   </g>
   <use fill="#ff7f00" stroke="#0000e8" height="1052.3622" width="744.09448" x="398.121002" y="0.000019" xlink:href="#use4161" id="use4725"/>
   <use fill="#ff7f00" stroke="#0000e8" x="597.18103" y="344.782974" xlink:href="#use4161" id="use4727" width="744.09448" height="1052.3622"/>
   <use fill="#ff7f00" stroke="#0000e8" x="-0.00004" y="689.565002" xlink:href="#use4161" id="use4729" width="744.09448" height="1052.3622"/>
   <use fill="#ff7f00" stroke="#0000e8" height="1052.3622" width="744.09448" id="use4731" xlink:href="#use4161" y="689.565002" x="398.121002"/>
   <g id="g4733">
    <path opacity="0.99" fill="#ff7f00" stroke="#000000" stroke-width="20" stroke-miterlimit="4" id="path4735" d="m1223.085693,708.448914l0,-229.85556l199.060547,-114.927155l199.060425,114.927155l0,229.85556l-199.060425,114.926819l-199.060547,-114.926819z"/>
    <path opacity="0.99" fill="#ff7f00" filter="url(#filter4124)" id="path4737" d="m1557.742554,596.531433c0,82.205017 -62.498291,148.845459 -139.593994,148.845459c-77.095581,0 -139.593994,-66.640442 -139.593994,-148.845459c0,-82.205078 62.498413,-148.845459 139.593994,-148.845459c77.095703,0 139.593994,66.640381 139.593994,148.845459z"/>
   </g>
   <use fill="#ff7f00" stroke="#0000e8" height="1052.3622" width="744.09448" x="796.24115" y="0.000038" xlink:href="#use4161" id="use4739"/>
   <use fill="#ff7f00" stroke="#0000e8" x="995.300903" y="344.782974" xlink:href="#use4161" id="use4741" width="744.09448" height="1052.3622"/>
   <g id="g4743">
    <path opacity="0.99" fill="#ff7f00" stroke="#000000" stroke-width="20" stroke-miterlimit="4" d="m1621.206665,708.448914l0,-229.85556l199.060425,-114.927155l199.060547,114.927155l0,229.85556l-199.060547,114.926819l-199.060425,-114.926819z" id="path4745"/>
    <path opacity="0.99" fill="#ff7f00" filter="url(#filter4124)" d="m1955.863525,596.531433c0,82.205017 -62.498413,148.845459 -139.594116,148.845459c-77.095459,0 -139.593872,-66.640442 -139.593872,-148.845459c0,-82.205078 62.498413,-148.845459 139.593872,-148.845459c77.095703,0 139.594116,66.640381 139.594116,148.845459z" id="path4747"/>
   </g>
   <use fill="#ff7f00" stroke="#0000e8" id="use4749" xlink:href="#use4161" y="0.000057" x="1194.359985" width="744.09448" height="1052.3622"/>
   <use fill="#ff7f00" stroke="#0000e8" height="1052.3622" width="744.09448" id="use4751" xlink:href="#use4161" y="344.782974" x="1393.420044"/>
   <use fill="#ff7f00" stroke="#0000e8" height="1052.3622" width="744.09448" id="use4753" xlink:href="#use4161" y="689.565002" x="796.24115"/>
   <use fill="#ff7f00" stroke="#0000e8" x="1194.359985" y="689.565002" xlink:href="#use4161" id="use4755" width="744.09448" height="1052.3622"/>
   <g id="g4757">
    <path opacity="0.99" fill="#ff7f00" stroke="#000000" stroke-width="20" stroke-miterlimit="4" id="path4759" d="m227.783661,1742.798096l0,-229.855713l199.060486,-114.927124l199.060455,114.927124l0,229.855713l-199.060455,114.926758l-199.060486,-114.926758z"/>
    <path opacity="0.99" fill="#ff7f00" filter="url(#filter4124)" id="path4761" d="m562.440491,1630.880493c0,82.205078 -62.498352,148.845581 -139.593964,148.845581c-77.095642,0 -139.593964,-66.640503 -139.593964,-148.845581c0,-82.205078 62.498322,-148.845459 139.593964,-148.845459c77.095612,0 139.593964,66.640381 139.593964,148.845459z"/>
   </g>
   <use fill="#ff7f00" stroke="#0000e8" height="1052.3622" width="744.09448" x="-199.059753" y="1034.349976" xlink:href="#use4161" id="use4763"/>
   <g id="g4767">
    <path opacity="0.99" fill="#ff7f00" stroke="#000000" stroke-width="20" stroke-miterlimit="4" d="m625.904724,1742.798096l0,-229.855713l199.060486,-114.927124l199.060425,114.927124l0,229.855713l-199.060425,114.926758l-199.060486,-114.926758z" id="path4769"/>
    <path opacity="0.99" fill="#ff7f00" filter="url(#filter4124)" d="m960.561462,1630.880493c0,82.205078 -62.498352,148.845581 -139.593933,148.845581c-77.095642,0 -139.593994,-66.640503 -139.593994,-148.845581c0,-82.205078 62.498352,-148.845459 139.593994,-148.845459c77.095581,0 139.593933,66.640381 139.593933,148.845459z" id="path4771"/>
   </g>
   <use fill="#ff7f00" stroke="#0000e8" id="use4773" xlink:href="#use4161" y="1034.349976" x="199.059753" width="744.09448" height="1052.3622"/>
   <g id="g4781">
    <path opacity="0.99" fill="#ff7f00" stroke="#000000" stroke-width="20" stroke-miterlimit="4" d="m1024.025513,1742.798096l0,-229.855713l199.060547,-114.927124l199.060425,114.927124l0,229.855713l-199.060425,114.926758l-199.060547,-114.926758z" id="path4783"/>
    <path opacity="0.99" fill="#ff7f00" filter="url(#filter4124)" d="m1358.682373,1630.880493c0,82.205078 -62.498291,148.845581 -139.593994,148.845581c-77.095581,0 -139.593994,-66.640503 -139.593994,-148.845581c0,-82.205078 62.498413,-148.845459 139.593994,-148.845459c77.095703,0 139.593994,66.640381 139.593994,148.845459z" id="path4785"/>
   </g>
   <use fill="#ff7f00" stroke="#0000e8" id="use4787" xlink:href="#use4161" y="1034.349976" x="597.18103" width="744.09448" height="1052.3622"/>
   <g id="g4791">
    <path opacity="0.99" fill="#ff7f00" stroke="#000000" stroke-width="20" stroke-miterlimit="4" id="path4793" d="m1422.145752,1742.798096l0,-229.855713l199.060425,-114.927124l199.060547,114.927124l0,229.855713l-199.060547,114.926758l-199.060425,-114.926758z"/>
    <path opacity="0.99" fill="#ff7f00" filter="url(#filter4124)" id="path4795" d="m1756.80249,1630.880493c0,82.205078 -62.498291,148.845581 -139.593872,148.845581c-77.095703,0 -139.593994,-66.640503 -139.593994,-148.845581c0,-82.205078 62.498291,-148.845459 139.593994,-148.845459c77.095581,0 139.593872,66.640381 139.593872,148.845459z"/>
   </g>
   <use fill="#ff7f00" stroke="#0000e8" height="1052.3622" width="744.09448" x="995.300903" y="1034.349976" xlink:href="#use4161" id="use4797"/>
   <use fill="#ff7f00" stroke="#0000e8" x="-199.059753" y="344.782974" xlink:href="#use4161" id="use4799" width="744.09448" height="1052.3622"/>
   <use fill="#ff7f00" stroke="#0000e8" height="1052.3622" width="744.09448" id="use4803" xlink:href="#use4161" y="689.565002" x="-398.121002"/>
   <use fill="#ff7f00" stroke="#0000e8" height="1052.3622" width="744.09448" id="use4805" xlink:href="#use4161" y="1379.130005" x="-0.000081"/>
   <use fill="#ff7f00" stroke="#0000e8" x="398.121002" y="1379.130005" xlink:href="#use4161" id="use4807" width="744.09448" height="1052.3622"/>
   <use fill="#ff7f00" stroke="#0000e8" x="796.24115" y="1379.130005" xlink:href="#use4161" id="use4809" width="744.09448" height="1052.3622"/>
   <use fill="#ff7f00" stroke="#0000e8" height="1052.3622" width="744.09448" id="use4811" xlink:href="#use4161" y="1379.130005" x="1194.359985"/>
   <g id="g4813">
    <path opacity="0.99" fill="#ff7f00" stroke="#000000" stroke-width="20" stroke-miterlimit="4" id="path4815" d="m625.904724,2432.35791l0,-229.855225l199.060486,-114.927246l199.060425,114.927246l0,229.855225l-199.060425,114.927002l-199.060486,-114.927002z"/>
    <path opacity="0.99" fill="#ff7f00" filter="url(#filter4124)" id="path4817" d="m960.561462,2320.440674c0,82.204834 -62.498352,148.845215 -139.593933,148.845215c-77.095642,0 -139.593994,-66.640381 -139.593994,-148.845215c0,-82.205078 62.498352,-148.845459 139.593994,-148.845459c77.095581,0 139.593933,66.640381 139.593933,148.845459z"/>
   </g>
   <use fill="#ff7f00" stroke="#0000e8" height="1052.3622" width="744.09448" x="199.059753" y="1723.910034" xlink:href="#use4161" id="use4819"/>
   <g id="g4821">
    <path opacity="0.99" fill="#ff7f00" stroke="#000000" stroke-width="20" stroke-miterlimit="4" id="path4823" d="m1024.025513,2432.35791l0,-229.855225l199.060547,-114.927246l199.060425,114.927246l0,229.855225l-199.060425,114.927002l-199.060547,-114.927002z"/>
    <path opacity="0.99" fill="#ff7f00" filter="url(#filter4124)" id="path4825" d="m1358.682373,2320.440674c0,82.204834 -62.498291,148.845215 -139.593994,148.845215c-77.095581,0 -139.593994,-66.640381 -139.593994,-148.845215c0,-82.205078 62.498413,-148.845459 139.593994,-148.845459c77.095703,0 139.593994,66.640381 139.593994,148.845459z"/>
   </g>
   <use fill="#ff7f00" stroke="#0000e8" height="1052.3622" width="744.09448" x="597.18103" y="1723.910034" xlink:href="#use4161" id="use4827"/>
   <g id="g4829">
    <path opacity="0.99" fill="#ff7f00" stroke="#000000" stroke-width="20" stroke-miterlimit="4" d="m1422.145752,2432.35791l0,-229.855225l199.060425,-114.927246l199.060547,114.927246l0,229.855225l-199.060547,114.927002l-199.060425,-114.927002z" id="path4831"/>
    <path opacity="0.99" fill="#ff7f00" filter="url(#filter4124)" d="m1756.80249,2320.440674c0,82.204834 -62.498291,148.845215 -139.593872,148.845215c-77.095703,0 -139.593994,-66.640381 -139.593994,-148.845215c0,-82.205078 62.498291,-148.845459 139.593994,-148.845459c77.095581,0 139.593872,66.640381 139.593872,148.845459z" id="path4833"/>
   </g>
   <use fill="#ff7f00" stroke="#0000e8" id="use4835" xlink:href="#use4161" y="1723.910034" x="995.300903" width="744.09448" height="1052.3622"/>
   <use fill="#ff7f00" stroke="#0000e8" x="199.059753" y="-344.782974" xlink:href="#use4161" id="use4837" width="744.09448" height="1052.3622"/>
   <use fill="#ff7f00" stroke="#0000e8" height="1052.3622" width="744.09448" id="use4847" xlink:href="#use4161" y="-344.782974" x="597.18103"/>
   <use fill="#ff7f00" stroke="#0000e8" height="1052.3622" width="744.09448" id="use4857" xlink:href="#use4161" y="-344.782974" x="995.300903"/>
   <use fill="#ff7f00" stroke="#0000e8" x="1393.420044" y="-344.781998" xlink:href="#use4161" id="use4867" width="744.09448" height="1052.3622"/>
   <use fill="#ff7f00" stroke="#0000e8" height="1052.3622" width="744.09448" id="use4869" xlink:href="#use4161" y="1723.910034" x="1393.420044"/>
   <g id="g4871">
    <path opacity="0.99" fill="#ff7f00" stroke="#000000" stroke-width="20" stroke-miterlimit="4" d="m2019.330688,2087.577881l0,-229.855469l199.060425,-114.927124l199.060547,114.927124l0,229.855469l-199.060547,114.926758l-199.060425,-114.926758z" id="path4873"/>
    <path opacity="0.99" fill="#ff7f00" filter="url(#filter4124)" d="m2353.987549,1975.660522c0,82.204956 -62.498291,148.845337 -139.593994,148.845337c-77.095703,0 -139.593994,-66.640381 -139.593994,-148.845337c0,-82.205078 62.498291,-148.845581 139.593994,-148.845581c77.095703,0 139.593994,66.640503 139.593994,148.845581z" id="path4875"/>
   </g>
   <use fill="#ff7f00" stroke="#0000e8" id="use4877" xlink:href="#use4161" y="1379.130005" x="1592.480103" width="744.09448" height="1052.3622"/>
   <use fill="#ff7f00" stroke="#0000e8" x="1393.420044" y="1034.349976" xlink:href="#use4161" id="use4931" width="744.09448" height="1052.3622"/>
   <use fill="#ff7f00" stroke="#0000e8" x="1791.540161" y="1034.349976" xlink:href="#use4161" id="use4933" width="744.09448" height="1052.3622"/>
   <use fill="#ff7f00" stroke="#0000e8" height="1052.3622" width="744.09448" id="use4937" xlink:href="#use4161" y="689.565002" x="1592.480103"/>
   <use fill="#ff7f00" stroke="#0000e8" height="1052.3622" width="744.09448" id="use4939" xlink:href="#use4161" y="0.000079" x="1592.480103"/>
   <use fill="#ff7f00" stroke="#0000e8" height="1052.3622" width="744.09448" id="use4943" xlink:href="#use4161" y="344.782974" x="1791.540161"/>
   <use fill="#ff7f00" stroke="#0000e8" height="1052.3622" width="744.09448" id="use4953" xlink:href="#use4161" y="689.565002" x="1990.599976"/>
  </g>
 </g>
</svg>