<?xml version="1.0" encoding="UTF-8" standalone="no"?>
<!-- Created with Inkscape (http://www.inkscape.org/) -->
<svg
   xmlns:svg="http://www.w3.org/2000/svg"
   xmlns="http://www.w3.org/2000/svg"
   version="1.0"
   width="386.78125"
   height="217.33946"
   id="svg2"
   style="display:inline">
  <defs
     id="defs4" />
  <g
     transform="translate(-68.6875,-173.08012)"
     id="layer10"
     style="display:inline">
    <path
       d="M 278.40625,173.09375 C 277.47647,173.27535 277.70783,174.95247 277.3125,175.84375 C 273.74617,177.36266 269.34833,178.32616 266.40625,181.4375 C 260.20334,183.94382 255.40429,188.9643 249.71875,192.40625 C 244.34794,195.55053 239.32633,199.41719 234.34375,203.09375 C 233.36754,205.19761 231.68345,206.60301 229.75,207.6875 C 226.15881,210.99301 221.2625,211.23191 217.15625,213.53125 C 217.22848,210.7363 218.15915,205.6988 217.59375,202.09375 C 218.28325,194.64111 213.47259,184.50935 204.65625,185.96875 C 198.61032,186.43984 192.09097,184.87837 186.28125,186.71875 C 183.73253,187.57546 183.63186,190.9204 181.5625,191.96875 C 179.73876,195.09009 178.56342,198.82659 178.53125,202.5 C 177.90796,205.06869 181.08314,206.59575 179.90625,208.875 C 179.08047,211.28863 181.558,214.17096 179.59375,215.96875 C 178.71692,219.41308 174.73314,219.82262 172.71875,222.4375 C 170.04518,222.23558 167.85354,223.74723 165.375,224.21875 C 162.28057,226.50914 159.65479,229.73618 158.1875,233.34375 C 156.04386,235.25488 153.92899,237.44392 153.1875,240.28125 C 152.74466,245.20286 147.97485,247.72965 145.96875,252.0625 C 144.9802,255.68418 143.84663,259.31279 142.1875,262.59375 C 140.87844,264.77085 139.04544,267.01418 137.84375,269.28125 C 135.68941,273.17541 132.4179,276.91294 131.59375,281.40625 C 130.21336,283.49076 130.52246,286.48381 128.75,288.21875 C 126.70254,292.1836 126.46008,297.37138 123.1875,300.5625 C 120.08939,302.17314 119.71118,305.47905 119.75,308.5 C 119.35047,311.88912 119.11281,317.85253 123.75,318.21875 C 125.46017,317.50745 127.02337,316.75839 128.65625,315.875 C 130.1276,311.80575 133.7781,308.73927 135.4375,304.6875 C 137.34624,302.27215 138.44585,299.40374 140.96875,297.34375 C 143.57502,294.9656 145.27811,291.87253 146.90625,288.875 C 148.73176,284.71645 152.02526,281.29669 153.8125,277.125 C 153.49275,273.91441 156.21033,271.78232 157.0625,269.03125 C 159.64257,267.11831 161.40889,264.47166 163.46875,262 C 164.33191,265.06689 166.18532,268.33574 163.875,271.375 C 163.38656,274.52009 162.24389,277.46829 161.75,280.59375 C 161.2541,283.29337 160.69891,285.78625 159.53125,288.1875 C 157.64545,290.15518 156.42229,292.6522 155.28125,295.125 C 154.42009,296.40926 153.55368,297.82732 153.03125,299.375 C 152.48037,302.60227 151.67864,305.91959 148.375,307.65625 C 143.50769,313.48047 138.27946,319.26799 133,324.78125 C 130.27456,324.94761 127.69559,326.72498 126.46875,329.28125 C 123.89082,329.65176 121.84255,332.09325 119.25,332.5 C 116.78001,335.1209 113.80759,337.1133 110.8125,339.21875 C 107.75632,341.06616 105.45394,343.90958 103.1875,346.59375 C 100.67488,349.53225 98.360357,352.65345 95.8125,355.53125 C 92.004867,357.80672 91.147535,362.68639 87.28125,364.9375 C 84.39118,364.12032 82.549883,366.40222 81.25,368.59375 C 78.831593,369.74898 78.573484,372.54571 76.21875,373.625 C 73.147271,375.59115 68.910689,378.04205 68.6875,382.40625 C 69.400325,386.06904 74.918103,386.8571 78.21875,385.875 C 81.272638,387.46332 85.413165,387.78317 88.53125,386.1875 C 89.26965,384.35725 90.411354,383.09924 91.03125,381.34375 C 95.637322,375.7847 100.97632,370.56871 106.5,365.75 C 110.75659,363.27342 114.43125,359.803 118.6875,357.53125 C 121.71366,353.63217 125.66228,349.48763 131.21875,350.875 C 133.247,349.44959 135.91189,348.39246 138,346.5625 C 141.90194,344.82633 144.9642,341.90892 148.78125,339.90625 C 155.84813,335.84407 162.5268,331.85263 169.40625,327.625 C 175.56775,326.01393 180.90861,320.98084 187.75,322.125 C 196.63408,322.40388 205.26255,324.72237 214.0625,325.9375 C 219.18594,327.19823 224.47318,327.98179 229.96875,327.15625 C 231.89245,328.0989 234.62215,327.92761 235.90625,329.8125 C 236.74862,336.49959 236.04132,343.74206 239.5,349.6875 C 241.52978,357.03574 243.00115,364.59419 244.0625,372.125 C 241.93764,376.51123 241.51529,381.63686 241.40625,386.5625 C 240.85997,390.71379 245.75747,389.54828 248.53125,389.71875 C 254.36785,389.29111 260.73303,391.15816 266.3125,389.34375 C 271.8509,388.08354 278.54273,392.97741 283.375,388.46875 C 286.22276,384.19639 280.71122,379.40659 276.375,379.65625 C 272.63802,376.36717 268.09059,373.82302 264.3125,370.46875 C 263.42586,368.8559 262.15964,365.80724 259.53125,366.625 C 257.84474,359.7197 258.12697,352.51072 257.75,345.375 C 257.86239,337.13955 255.19012,329.43225 255.0625,321.25 C 255.59903,316.11629 253.28181,310.80691 248.5,308.4375 C 244.63773,307.61214 241.88348,305.04531 238.0625,304.0625 C 229.73594,299.82106 220.21031,298.17835 211.15625,295.90625 C 207.96923,295.82704 211.43956,292.53156 212.25,291.28125 C 215.18792,288.22798 214.29674,284.10487 213.8125,280.375 C 212.42165,274.86906 212.15798,269.16311 212.46875,263.4375 C 213.01527,256.51929 214.30393,249.55404 215.78125,242.8125 C 221.40728,239.28074 225.71102,233.50209 231.8125,230.8125 C 236.7899,226.85162 242.6385,224.4596 246.96875,219.78125 C 249.08725,218.63854 248.31688,215.90403 250,214.40625 C 254.56874,212.97238 256.05906,207.7388 259.625,204.9375 C 262.48228,203.41386 263.7374,200.3346 266.28125,198.25 C 268.11681,193.50779 273.78711,194.06368 277.96875,193.75 C 280.23357,194.75184 282.83274,194.20397 284.59375,192.34375 C 285.78339,189.94047 287.51686,187.39455 287.90625,184.6875 C 387.82506,183.62832 433.64001,186.15902 455.21875,187.40625 C 454.8468,184.59333 455.3248,188.39402 455.46875,186.15625 C 424.37085,184.15193 290.75166,181.34552 287.6875,181.28125 C 288.14281,176.67338 284.0243,172.25819 279.25,173.25 C 278.88758,173.10728 278.62082,173.05184 278.40625,173.09375 z"
       id="path4172"
       style="fill:#000000;fill-opacity:1;stroke:none;stroke-width:11.80000019;stroke-miterlimit:4;stroke-dasharray:none;stroke-opacity:1;display:inline" />
  </g>
</svg>
