<?xml version="1.0" encoding="UTF-8" standalone="no"?>
<!-- Created with Inkscape (http://www.inkscape.org/) -->
<svg
   xmlns:svg="http://www.w3.org/2000/svg"
   xmlns="http://www.w3.org/2000/svg"
   xmlns:inkscape="http://www.inkscape.org/namespaces/inkscape"
   version="1.0"
   width="368.83484"
   height="218.2301"
   id="svg2"
   style="display:inline">
<g
     transform="translate(-59.6875,-781.23882)"
     id="layer10"
     style="display:inline">
    <path
       d="M 280.84115,781.23916 C 282.16973,781.22817 284.24087,781.489 285.09286,781.80355 C 287.33863,783.31218 287.93694,785.39624 287.91479,787.7108 C 289.76876,787.68892 402.39084,786.35797 428.52235,787.18404 C 428.46332,789.05833 427.94628,785.85902 428.33422,788.19993 C 410.20667,787.74706 371.68991,786.90775 287.65141,790.57036 C 287.47621,791.84706 287.28018,793.11838 287.16228,794.37056 C 286.81752,795.92733 286.75285,796.03295 284.34034,798.54703 C 283.54608,799.37473 283.10904,799.70125 282.64718,799.8263 C 281.78687,800.05918 280.29366,799.91786 279.52424,799.5253 C 278.9153,799.21462 278.76219,799.18615 276.96569,799.33717 C 275.92479,799.42469 274.09153,799.50662 272.86448,799.48767 C 271.10005,799.46039 270.52052,799.48734 270.15542,799.6758 C 269.90149,799.80688 269.32119,800.05708 268.87615,800.20256 C 267.71832,800.58094 266.68195,801.32907 264.92544,803.06212 C 263.58508,804.38446 263.2841,804.62156 262.44214,804.90578 C 261.77442,805.13119 261.20334,805.441 260.6361,805.9593 C 260.18467,806.37192 259.50211,806.85273 259.13107,807.01283 C 258.76023,807.17296 258.3221,807.46236 258.1528,807.65247 C 257.98352,807.84257 257.52229,808.14107 257.09928,808.32973 C 256.67607,808.51839 256.06108,808.86636 255.74475,809.08225 C 255.42841,809.29817 254.81536,809.54467 254.39022,809.64663 C 253.45853,809.87015 252.09745,811.02115 249.31074,813.89835 C 248.06528,815.1841 247.19368,815.76844 245.24715,816.64503 C 244.40695,817.0235 243.4757,817.51761 243.17774,817.73618 C 242.25139,818.41531 236.9306,821.78255 235.87833,822.36415 C 235.69367,822.46632 235.17728,822.75415 234.71193,822.96616 C 233.77148,823.39453 232.19169,824.33889 231.25036,825.03558 C 230.9118,825.28608 230.41311,825.56593 230.15921,825.67522 C 229.9055,825.78453 229.40661,826.05364 229.06807,826.27723 C 228.72951,826.50082 227.1535,827.33645 225.56887,828.12089 C 223.98421,828.90539 222.62912,829.64466 222.52118,829.77643 C 222.41346,829.9082 221.31349,830.51271 220.11313,831.09333 C 218.76144,831.74734 217.67503,832.37483 217.21594,832.78649 C 216.80833,833.1519 216.23295,833.5787 215.93667,833.72713 C 215.64065,833.87558 215.10879,834.26905 214.77027,834.59253 C 214.43171,834.91596 213.66125,835.44602 213.03948,835.79655 C 212.41793,836.14704 211.52367,836.74143 211.04532,837.07583 C 210.56697,837.41022 209.82903,837.89394 209.42741,838.16698 C 207.95026,839.17131 205.84688,840.87055 205.40145,841.40279 C 205.14945,841.70396 204.58296,842.54692 204.1598,843.28408 C 203.73681,844.02125 203.11174,844.92468 202.76764,845.31588 C 201.78487,846.43356 200.73876,848.01357 200.24672,849.07845 C 199.96223,849.69386 199.468,850.35584 198.92981,850.88449 C 198.46022,851.34583 198.06446,851.77006 198.06442,851.82514 C 198.06442,851.88015 197.68573,852.36329 197.19903,852.91628 C 196.71256,853.46932 195.9261,854.60251 195.46824,855.43721 C 194.06183,858.00135 193.2675,859.55565 193.06019,860.14043 C 192.95096,860.44811 192.69583,860.97978 192.4958,861.30683 C 192.29596,861.63386 191.99016,862.27119 191.78091,862.73661 C 191.57165,863.20205 191.14914,864.00831 190.84027,864.54265 C 190.53121,865.07702 190.21917,865.78523 190.163,866.08531 C 190.10679,866.38535 189.81409,867.08021 189.52337,867.62797 C 189.23268,868.17576 188.99658,868.71929 188.99661,868.86962 C 188.99661,869.01994 188.79172,869.5366 188.5451,869.99839 C 188.29887,870.46017 188.00483,871.1282 187.90546,871.50342 C 187.80585,871.87864 187.41794,872.83835 187.00244,873.61047 C 186.32403,874.87035 186.21233,875.10447 186.2123,875.98089 L 186.2123,876.95916 L 184.33101,878.7652 C 183.29438,879.7606 181.59226,881.20509 180.5308,881.96339 C 179.46938,882.72166 178.47635,883.47351 178.31088,883.65655 C 178.14523,883.83963 177.74174,884.14475 177.44549,884.29619 C 177.14947,884.44759 176.53363,884.86832 176.05334,885.23683 C 175.57328,885.60529 174.97561,886.03186 174.73643,886.17748 C 173.92871,886.66949 172.46748,887.91425 172.14025,888.3974 C 171.96136,888.66145 171.7473,889.26546 171.68874,889.7143 C 171.55816,890.71403 170.4572,892.93423 169.50645,894.11652 C 169.07491,894.6532 168.51398,895.68293 168.00142,896.90083 C 166.86496,899.60235 166.41375,900.55796 165.932,901.11491 C 165.52546,901.58498 164.83209,902.57755 163.82496,904.1626 C 163.55522,904.58752 162.8282,905.44432 162.24467,906.04389 C 160.80108,907.52703 160.42389,908.10199 159.38511,910.06985 C 158.89373,911.0009 158.18081,912.06922 157.80483,912.4779 L 157.12757,913.23042 L 157.24044,915.03645 C 157.37019,917.17811 157.5971,918.36948 158.10584,919.25054 C 158.57178,920.05719 158.67517,920.56129 158.85835,923.91614 C 158.95026,925.59678 159.08416,927.04245 159.27224,927.7916 C 159.63496,929.23626 159.83662,930.6638 159.83662,931.93043 C 159.83662,932.75332 159.78798,932.9725 159.34749,933.58597 C 158.88389,934.23082 158.84017,934.34867 158.9336,935.05337 C 159.0253,935.74354 158.98763,935.88772 158.55735,936.5584 C 158.29359,936.96942 158.00276,937.64687 157.91771,938.06343 C 157.83263,938.48022 157.62777,939.38046 157.4662,940.0576 L 157.16519,941.29925 L 155.58491,942.80428 C 154.25972,944.06727 153.76559,944.43964 152.61247,944.98658 C 151.8507,945.3478 150.92396,945.67605 150.54305,945.73909 C 150.16217,945.80214 149.60686,945.99827 149.3014,946.15298 C 148.97096,946.32055 148.22549,946.47112 147.45774,946.52924 C 146.59273,946.59464 145.99862,946.71009 145.68933,946.90549 C 144.8534,947.43322 144.30623,947.67814 143.43178,947.84614 C 142.21368,948.08018 140.88642,948.9899 138.38993,951.34534 C 137.23124,952.4384 136.05213,953.45215 135.75612,953.60288 C 135.45988,953.75357 134.74866,954.30636 134.17584,954.84453 C 133.60302,955.38295 133.08788,955.82282 133.00944,955.8228 C 132.931,955.8228 131.95316,956.71618 130.82714,957.77935 C 129.70138,958.84227 128.56017,959.79062 128.30622,959.92402 C 127.5002,960.34743 126.04817,961.60187 124.69414,963.00933 C 123.53696,964.21226 122.85204,965.17822 122.09796,966.65903 C 121.97805,966.89457 121.35641,967.5538 120.74343,968.12644 C 119.17579,969.59034 118.67696,970.44203 118.52357,971.96427 C 118.39823,973.20695 118.34598,973.36556 116.86804,975.38821 C 116.67925,975.64662 116.69875,975.83755 117.05611,976.89324 C 117.3848,977.86383 117.46993,978.38011 117.47005,979.56467 C 117.47005,980.99011 117.46656,981.07549 118.07206,982.19848 C 118.41557,982.8352 118.93065,983.53982 119.20072,983.77876 C 119.47066,984.01751 120.06063,984.61025 120.51768,985.09567 C 121.20078,985.82109 121.36086,986.13544 121.45832,986.7512 C 121.56926,987.45334 122.0399,988.30681 123.37724,990.17515 C 124.02081,991.07413 124.39313,991.95504 124.39313,992.77133 C 124.39313,993.39223 124.22329,993.83429 123.52774,995.17938 C 123.05945,996.08498 122.46331,997.01601 122.21084,997.24879 C 121.77289,997.65277 121.67883,997.6687 120.0286,997.7003 C 117.44802,997.74988 117.02324,997.73652 115.51351,997.24879 C 114.75184,997.00257 113.82005,996.74446 113.44403,996.68441 C 112.9251,996.60189 112.61831,996.40834 112.0895,995.89427 C 111.39141,995.21586 111.15602,995.10409 109.38045,994.76549 C 108.07926,994.51755 107.76705,994.19282 107.31097,992.50794 C 107.16709,991.97595 106.98865,991.72881 106.18231,991.15342 C 104.81611,990.17855 103.68348,988.90002 103.54839,988.18098 C 103.48867,987.86208 103.31962,987.45475 103.17225,987.24033 C 102.66126,986.49716 101.74235,984.7662 101.74235,984.53128 C 101.74235,984.40133 101.41582,983.85258 100.98984,983.28963 C 99.92945,981.88878 99.306367,980.47471 99.146232,979.11317 C 99.059904,978.37919 98.880504,977.75259 98.619471,977.30713 C 98.242732,976.6642 98.214317,976.53133 98.243213,974.59807 C 98.268016,972.93154 98.324485,972.50681 98.54422,972.22765 C 98.691351,972.04041 98.921802,971.52273 99.070981,971.06125 C 99.430743,969.94895 99.909945,969.21102 100.83933,968.42744 C 101.26146,968.07157 101.79352,967.52199 102.00579,967.18579 C 102.23853,966.8171 102.60949,966.4989 102.94638,966.35802 C 103.83675,965.98611 106.92604,962.99719 107.46147,961.99343 C 107.71275,961.523 108.09093,960.93047 108.32692,960.67653 C 108.81311,960.15372 110.79373,957.53891 111.22405,956.8387 C 111.38045,956.58477 112.26625,955.60196 113.18059,954.65641 C 114.79302,952.98923 115.13171,952.4352 114.5728,952.43648 C 114.13273,952.43734 113.35674,952.97353 112.01425,954.24252 C 109.03019,957.0626 107.30398,958.58115 106.29513,959.24675 C 105.70287,959.63769 104.80876,960.27342 104.3009,960.63891 C 103.79329,961.00462 102.8993,961.59591 102.3068,961.95581 C 101.7143,962.31553 100.85342,962.86463 100.38782,963.19746 C 99.922588,963.53025 99.160199,963.98703 98.694723,964.21335 C 98.229126,964.4397 97.565949,964.8496 97.227257,965.11637 C 96.135447,965.97667 93.852495,967.49905 92.8251,968.05118 C 91.95459,968.51906 89.038201,970.70339 87.745559,971.85139 C 87.20748,972.32953 86.273037,972.99307 85.676201,973.31879 C 84.388496,974.02178 82.689737,975.73621 82.365132,976.66749 C 82.247379,977.00583 82.148649,977.73546 82.139378,978.2854 C 82.130107,978.83557 82.01139,979.69646 81.875934,980.20431 C 81.740722,980.71194 81.585283,981.40178 81.537363,981.70934 C 81.489442,982.01692 81.223232,982.54405 80.972916,982.91337 C 80.717903,983.28999 80.522851,983.81537 80.521406,984.07977 C 80.517553,984.72804 79.941066,986.83555 79.580822,987.54134 C 79.155921,988.37429 78.535006,991.14212 78.489734,992.35744 C 78.451446,993.37783 78.452771,993.42622 78.978809,993.82485 C 79.272712,994.04757 79.820904,994.49298 80.182834,994.84074 C 80.834934,995.467 80.822533,995.50558 80.822412,996.57153 C 80.822412,997.43397 80.761368,997.74401 80.483841,998.15181 C 79.938658,998.95291 79.40371,999.26562 78.339231,999.39346 C 77.004208,999.55355 70.880898,999.43788 70.249627,999.24296 C 69.499881,999.01149 68.544005,998.4257 67.615822,997.58743 C 66.863909,996.90795 66.770717,996.7496 66.487049,995.63088 C 66.317642,994.96274 66.014348,994.16813 65.809785,993.9001 C 65.564645,993.57864 65.415226,993.10042 65.320589,992.43269 C 65.241726,991.87569 65.101095,991.27265 65.019583,991.11579 C 64.938311,990.95912 64.816103,990.51308 64.756263,990.09989 C 64.696182,989.68695 64.600462,989.18832 64.530508,989.00875 C 64.460915,988.82942 64.197956,987.87489 63.966061,986.9017 C 63.547783,985.14562 63.285185,984.51525 62.611533,983.59063 C 62.402032,983.30273 62.203489,982.65195 62.084892,981.97273 C 61.797853,980.32757 61.351882,978.76434 60.918433,977.94677 C 60.468248,977.09736 60.039976,975.3126 59.902476,973.50692 C 59.847934,972.78769 59.777739,972.14151 59.714408,972.03952 C 59.650955,971.93736 59.704173,971.61961 59.827345,971.32463 C 60.096445,970.68085 60.717481,970.30902 62.536402,969.78197 C 63.243044,969.5772 64.086223,969.27615 64.380005,969.10471 C 64.673667,968.93349 65.326369,968.70855 65.847471,968.61557 C 66.368573,968.5226 67.497828,968.13661 68.330652,967.7878 C 69.457138,967.3163 70.078174,967.17382 70.776388,967.14817 C 71.672785,967.11526 71.759113,967.04407 72.845746,966.1699 C 74.499956,964.83958 75.339884,964.29729 76.11925,964.06285 C 76.535963,963.93738 77.248746,963.51566 77.887722,962.9717 C 78.469507,962.47646 79.621879,961.50397 80.446275,960.82703 C 81.270671,960.14991 82.650366,958.93408 83.531471,958.11798 C 84.412697,957.30214 85.381215,956.52716 85.676201,956.38719 C 85.971308,956.24719 86.202962,956.01841 86.202962,955.89806 C 86.202962,955.77771 86.751275,955.26192 87.406987,954.73166 C 89.009665,953.43597 91.624687,950.79063 92.147836,949.95318 C 92.787414,948.92958 94.699767,946.88871 96.39961,945.40046 C 98.092349,943.9186 100.36145,942.07692 101.06521,941.63788 C 101.51551,941.35682 102.72544,940.40813 104.22577,939.11696 C 104.63478,938.76472 105.12097,938.42432 105.31686,938.36444 C 105.51288,938.30459 106.22939,937.86259 106.89714,937.38617 C 107.80642,936.73704 108.16522,936.34516 108.36449,935.88114 C 108.51102,935.54044 108.99371,934.91563 109.41801,934.45136 C 109.84231,933.98712 110.37136,933.1568 110.62204,932.6077 C 110.94833,931.89402 111.31254,931.41295 111.86375,930.95216 C 112.85334,930.125 113.13761,929.5541 113.29353,927.86685 C 113.41104,926.5921 113.45908,926.39662 114.15898,925.27067 C 114.68273,924.42768 115.73397,923.21052 117.62055,921.28233 C 119.68112,919.17594 120.45792,918.27258 120.81868,917.55738 C 122.03893,915.14019 123.62133,912.75403 125.59716,910.37086 C 128.00386,907.46828 128.83209,906.23549 128.83298,905.59238 C 128.83383,905.08882 128.49151,903.19543 128.11809,901.5288 C 127.99497,900.97871 127.89537,900.28238 127.89233,899.98614 C 127.88935,899.68994 127.78838,899.15826 127.66658,898.81974 C 127.44045,898.19113 127.3202,896.74784 127.21507,893.74026 C 127.18258,892.80936 127.14134,891.48245 127.10219,890.80545 C 127.06329,890.12844 126.99638,888.20308 126.98931,886.51611 C 126.97778,883.7085 127.0058,883.40629 127.29032,882.90403 C 127.46152,882.60228 127.88832,881.81262 128.23096,881.13562 C 129.4559,878.71436 130.46926,877.02307 131.31628,875.90564 C 132.20544,874.73273 133.31042,872.98809 133.31044,872.7827 C 133.31044,872.37836 134.63608,870.71507 135.53037,869.99839 C 136.09356,869.54704 136.89743,868.67703 137.37403,868.00422 C 137.83721,867.35055 138.72523,866.32908 139.3682,865.74668 C 140.01112,865.16434 140.84227,864.33621 141.17423,863.90301 C 141.50617,863.46985 141.96807,862.89126 142.22776,862.58611 C 142.55051,862.20696 142.81504,861.62978 143.0179,860.8177 C 143.42421,859.19164 143.80756,858.32774 144.4853,857.65713 C 144.801,857.34477 145.23191,856.86587 145.42595,856.60361 C 145.62002,856.34137 146.13324,855.92998 146.55472,855.70059 C 147.01726,855.44881 147.34597,855.17873 147.38249,854.9857 C 147.47461,854.49736 147.76502,851.18391 147.90925,849.11608 C 148.05973,846.96065 148.15713,846.35984 148.54889,845.16537 C 148.7077,844.68144 148.84988,844.09538 148.84989,843.8861 C 148.84989,843.64917 149.12299,843.19231 149.60241,842.64444 C 150.03054,842.1553 150.43143,841.52158 150.50543,841.21467 C 150.9795,839.24777 151.20374,835.06359 150.84406,834.63015 C 150.6207,834.36104 149.23811,833.71908 147.94687,833.27562 C 146.7649,832.86974 144.24483,831.74627 143.43178,831.24383 C 142.92863,830.93276 142.62512,830.89027 140.27121,830.82995 C 138.84216,830.79331 137.47744,830.6925 137.22353,830.60419 C 136.96981,830.51594 136.2404,830.29416 135.60562,830.11506 C 134.97102,829.93595 134.10991,829.59832 133.6867,829.36254 C 131.97487,828.40888 130.33337,828.17282 124.39313,828.04564 C 122.06593,827.99579 119.64271,827.91686 119.05021,827.85751 C 117.48992,827.70129 112.76869,827.72051 111.60043,827.89514 C 111.00612,827.98398 108.40422,828.02356 105.20392,827.97039 C 100.56867,827.89342 99.553313,827.81455 97.904641,827.51888 C 96.851119,827.32996 95.938589,827.14568 95.872729,827.105 C 95.806869,827.06432 94.868692,826.92639 93.765685,826.80399 C 91.650574,826.56924 90.9166,826.36062 90.191295,825.75047 C 89.664294,825.30698 89.153667,825.12889 87.632742,824.88507 C 86.409091,824.68888 84.641823,823.90954 84.133484,823.34242 C 83.765413,822.93176 81.402993,820.93338 80.709595,820.44523 C 80.210286,820.09363 78.173678,819.50458 77.473778,819.50459 C 77.261869,819.50459 76.748955,819.27481 76.345004,819.01545 C 75.670509,818.58271 75.585987,818.55833 75.216231,818.75207 C 74.99457,818.86818 74.550525,819.32165 74.23796,819.73034 C 73.796204,820.30797 73.477017,820.55678 72.732929,820.85912 C 71.784157,821.24464 71.762364,821.24703 71.152646,820.97199 C 70.1698,820.52888 69.986307,820.21951 69.986187,819.05308 L 69.986187,818.03718 L 69.384174,817.84905 C 68.53955,817.57084 68.368338,817.38169 68.368338,816.75791 C 68.368338,816.06406 69.038498,815.4376 71.11508,814.08647 C 73.361912,812.62447 73.115207,812.68621 76.570759,812.61907 C 80.221604,812.54808 80.840593,812.60803 81.499797,813.18346 C 81.771184,813.42046 82.318296,813.79604 82.74139,814.01122 C 83.164605,814.22639 83.764932,814.64647 84.058353,814.95187 C 84.351292,815.25727 84.835671,815.58226 85.14944,815.66676 C 85.800216,815.84198 87.216631,815.71076 88.234755,815.40338 C 89.398686,815.0519 90.132057,815.01678 95.233151,814.95187 C 100.56554,814.88403 102.5529,814.75119 103.51082,814.38748 C 104.13607,814.15014 104.90966,814.11893 117.77106,814.04885 C 121.0697,814.03087 121.30917,814.04896 121.7217,814.34985 C 122.38835,814.83623 122.63875,814.89649 123.22673,814.65086 C 123.52426,814.52649 123.90102,814.42252 124.09213,814.42511 C 130.98651,814.51794 134.95311,814.5622 139.14244,814.57561 L 144.29717,814.57561 L 145.42595,814.19935 L 146.59235,813.78547 L 151.25794,813.82309 L 155.92354,813.89835 L 156.82656,812.92008 C 157.53126,812.19538 158.10476,811.82548 159.12173,811.33979 C 159.86106,810.98684 160.75403,810.66583 161.1159,810.6249 C 162.81813,810.43245 165.83681,811.38849 166.75977,812.43094 C 167.81265,813.62029 168.14171,813.82308 169.31832,813.82309 C 170.30302,813.82309 170.54743,813.7348 171.87687,813.07058 C 172.68161,812.66861 173.37509,812.24574 173.41953,812.12993 C 173.46421,812.01414 173.3517,811.37676 173.15615,810.70015 C 172.92253,809.89205 172.7893,809.01737 172.77989,808.17923 C 172.76749,807.05062 172.8193,806.86607 173.15615,806.41081 C 173.59261,805.82066 173.59285,805.45932 173.30665,803.06212 C 173.19166,802.09873 173.16281,800.17222 173.19378,798.20839 L 173.2314,794.97258 L 173.83341,793.88143 C 174.15595,793.28905 174.6112,792.26726 174.84931,791.62388 C 175.42214,790.07668 176.61198,788.39053 177.897,787.25929 C 179.17153,786.1372 179.69073,785.8171 181.24569,785.26512 C 182.35201,784.87247 182.61834,784.8201 184.36863,784.85124 C 185.42087,784.86999 186.76202,784.98291 187.34107,785.11462 C 188.24455,785.32008 188.76365,785.33482 191.10365,785.18987 C 192.97516,785.07394 194.33713,785.08452 195.39299,785.18987 C 199.89755,785.63937 200.1366,785.71429 202.20326,787.25929 C 205.70923,789.88014 207.5755,792.89019 208.07288,796.74099 C 208.15474,797.37569 208.28736,798.14019 208.37388,798.43415 C 208.56091,799.06803 208.4508,805.61445 208.22338,807.35146 C 208.14024,807.98618 207.96726,808.84722 207.84712,809.27037 C 207.72721,809.69349 207.53798,810.65341 207.43324,811.41504 C 207.32851,812.17669 207.13731,813.21259 206.98173,813.71022 C 206.67309,814.69759 206.61879,815.27217 206.83123,815.40338 C 206.90603,815.44973 207.41201,815.31322 207.96,815.06474 C 208.50803,814.81627 209.32357,814.55903 209.76604,814.50036 C 210.36195,814.42131 210.73715,814.24515 211.27107,813.82309 C 211.66734,813.50982 212.15703,813.15662 212.32459,813.07058 C 213.31762,812.56048 217.07206,811.98308 219.32299,811.97943 C 220.20338,811.978 221.58547,811.51311 224.85398,810.09814 C 225.65679,809.75062 226.78137,809.32464 227.37491,809.1575 C 228.79541,808.75753 229.51123,808.37953 230.53547,807.50196 C 231.001,807.10319 232.09732,806.33418 232.94352,805.77118 C 233.78972,805.20816 235.14476,804.24163 235.99121,803.66413 C 237.94478,802.33098 239.52114,801.50031 241.33407,800.80457 C 242.12256,800.50192 243.26252,800.03698 243.855,799.78868 C 244.44749,799.54033 245.61332,799.10962 246.45118,798.81041 C 247.28882,798.51122 248.18306,798.14274 248.44535,797.98264 C 248.70781,797.82253 249.956,797.18327 251.22965,796.59048 C 252.50333,795.99771 253.91146,795.30796 254.35259,795.04783 C 254.79353,794.78772 256.15784,794.2078 257.36266,793.73092 C 259.93844,792.71149 260.82423,792.27009 261.76487,791.58626 C 262.79253,790.83921 264.22247,790.12285 265.00069,790.00597 C 265.37901,789.94918 266.14386,789.71618 266.69385,789.47921 C 267.24402,789.24226 268.03069,788.97624 268.42464,788.8772 C 268.88225,788.76212 269.45157,788.44202 270.00492,787.97418 C 270.48114,787.57152 271.21908,787.06669 271.66045,786.84541 C 272.50408,786.4225 274.0648,785.94239 274.67052,785.94239 C 275.22218,785.94239 276.13014,785.51904 276.66468,785.00174 C 277.00966,784.66784 277.37689,784.48892 278.01921,784.3621 L 278.92223,784.17398 L 279.03511,783.12045 C 279.15458,781.75166 279.23022,781.5475 279.82525,781.35204 C 280.02231,781.2873 280.39828,781.24282 280.84115,781.23916 z"
       id="path3199"
       style="fill:#000000" />
  </g>
</svg>
