<?xml version="1.0"?><svg width="640" height="480" xmlns="http://www.w3.org/2000/svg">
 <g>
  <title>Layer 1</title>
  <g display="inline" id="layer10">
   <path fill="#000000" id="path3199" d="m380.05838,32.010017c2.283051,-0.020699 5.842102,0.470772 7.306183,1.063316c3.8591,2.842331 4.887299,6.768677 4.849213,11.129341c3.185883,-0.041283 196.716522,-2.548763 241.621063,-0.992485c-0.101379,3.531239 -0.989868,-2.496323 -0.323242,1.914017c-31.150513,-0.85323 -97.338013,-2.434464 -241.750458,4.465881c-0.301056,2.405251 -0.637878,4.800499 -0.840454,7.159527c-0.592499,2.932941 -0.703613,3.131992 -4.849304,7.868557c-1.364838,1.55938 -2.115845,2.174469 -2.909515,2.410088c-1.478363,0.438797 -4.044281,0.172485 -5.366486,-0.567017c-1.046387,-0.585419 -1.30954,-0.639008 -4.396606,-0.354523c-1.788696,0.164902 -4.939026,0.319214 -7.047577,0.283569c-3.032043,-0.051407 -4.027893,-0.000572 -4.655243,0.354401c-0.436371,0.246994 -1.433563,0.718346 -2.198303,0.992485c-1.989655,0.712822 -3.770569,2.122261 -6.78894,5.387405c-2.303284,2.491264 -2.820526,2.938004 -4.267334,3.473404c-1.14743,0.42466 -2.128784,1.008347 -3.103516,1.98484c-0.775757,0.777458 -1.948669,1.683235 -2.586243,1.984848c-0.637268,0.301743 -1.390137,0.846909 -1.681091,1.205101c-0.290894,0.3582 -1.083496,0.920502 -1.810364,1.27594c-0.727264,0.355431 -1.784088,1.010994 -2.327637,1.417824c-0.54361,0.406723 -1.597076,0.87117 -2.327637,1.063202c-1.601013,0.421219 -3.939911,2.589699 -8.728607,8.010345c-2.140228,2.422272 -3.63797,3.523186 -6.98291,5.174675c-1.443817,0.713066 -3.044098,1.64402 -3.556091,2.055801c-1.591858,1.279381 -10.735138,7.623283 -12.543365,8.719025c-0.317322,0.192497 -1.204681,0.734787 -2.004333,1.134262c-1.616089,0.807014 -4.330811,2.586143 -5.948395,3.898758c-0.581787,0.471909 -1.438721,0.999146 -1.875061,1.205101c-0.435974,0.205933 -1.293243,0.712929 -1.875,1.13414c-0.581787,0.421204 -3.290009,1.995552 -6.013062,3.473526c-2.723083,1.477966 -5.051697,2.87072 -5.237183,3.118988c-0.185089,0.248268 -2.075287,1.387123 -4.138,2.481026c-2.322754,1.232124 -4.189636,2.414345 -4.978546,3.189949c-0.700439,0.688446 -1.689178,1.492477 -2.198303,1.772125c-0.508698,0.279755 -1.422638,1.020996 -2.004364,1.630432c-0.581787,0.609344 -1.905731,1.608032 -2.974213,2.268433c-1.068085,0.660248 -2.604767,1.780151 -3.426758,2.41008c-0.822021,0.63002 -2.090088,1.541336 -2.780243,2.055801c-2.538345,1.892166 -6.152817,5.093491 -6.918243,6.096207c-0.433044,0.567474 -1.406494,2.155609 -2.133652,3.544342c-0.726868,1.388855 -1.800995,3.090942 -2.392303,3.827927c-1.688812,2.105682 -3.48645,5.082458 -4.33197,7.088684c-0.488861,1.159439 -1.33815,2.406631 -2.262985,3.402573c-0.806946,0.869202 -1.48703,1.668503 -1.487091,1.772217c0,0.103622 -0.650742,1.013885 -1.487091,2.055695c-0.835968,1.041931 -2.187408,3.176941 -2.974197,4.749435c-2.416794,4.830872 -3.781769,7.759216 -4.138016,8.860931c-0.187714,0.579666 -0.626129,1.58136 -0.969849,2.197464c-0.343414,0.616119 -0.868912,1.816849 -1.22847,2.693756c-0.359589,0.876801 -1.085648,2.395828 -1.616409,3.402557c-0.531113,1.006744 -1.067291,2.340988 -1.163834,2.906387c-0.096573,0.565292 -0.599579,1.874344 -1.099136,2.906372c-0.499527,1.032043 -0.905243,2.056046 -0.905197,2.339264c0,0.283234 -0.352081,1.256607 -0.775864,2.126633c-0.423126,0.869904 -0.928406,2.128479 -1.099182,2.835434c-0.171173,0.70697 -0.837753,2.51506 -1.551743,3.969696c-1.165787,2.373627 -1.357742,2.814728 -1.357803,4.465881l0,1.843048l-3.232803,3.402573c-1.781372,1.875381 -4.706299,4.596756 -6.530304,6.025391c-1.823975,1.428619 -3.530396,2.845093 -3.814728,3.189941c-0.284653,0.344849 -0.978012,0.919815 -1.487091,1.205093c-0.508682,0.285172 -1.566956,1.077927 -2.392288,1.772125c-0.824951,0.694183 -1.851974,1.497849 -2.262985,1.772232c-1.388,0.926926 -3.898987,3.272049 -4.461319,4.182312c-0.307388,0.497437 -0.675232,1.635391 -0.775864,2.481033c-0.22438,1.883545 -2.116287,6.066315 -3.750061,8.293793c-0.741577,1.011108 -1.705475,2.951111 -2.586258,5.245605c-1.952896,5.089722 -2.728256,6.890106 -3.556091,7.939423c-0.698608,0.885529 -1.890106,2.755615 -3.620758,5.741791c-0.463531,0.800598 -1.712845,2.414795 -2.715591,3.544373c-2.480667,2.79425 -3.128845,3.877472 -4.913879,7.584869c-0.844421,1.754181 -2.069473,3.766846 -2.715591,4.536835l-1.163803,1.417725l0.193954,3.402557c0.222977,4.034882 0.612915,6.27948 1.487106,7.939392c0.80069,1.519714 0.978363,2.469391 1.293137,8.789978c0.157928,3.166351 0.388046,5.890015 0.711243,7.301422c0.623291,2.72171 0.969833,5.411194 0.969833,7.797485c0,1.550293 -0.083603,1.963226 -0.840546,3.11908c-0.796631,1.214905 -0.87178,1.436951 -0.711227,2.764526c0.157578,1.300323 0.092834,1.57193 -0.646561,2.835541c-0.453232,0.774353 -0.952988,2.050629 -1.099152,2.835388c-0.14621,0.785309 -0.498215,2.481323 -0.775879,3.757141l-0.517258,2.339233l-2.715546,2.835419c-2.277237,2.379517 -3.126343,3.081024 -5.10788,4.111511c-1.309036,0.680481 -2.901535,1.298889 -3.556122,1.417694c-0.654495,0.118774 -1.608749,0.488342 -2.133636,0.779755c-0.567841,0.315765 -1.848846,0.599426 -3.168182,0.708893c-1.486435,0.123322 -2.507339,0.340729 -3.038834,0.708923c-1.436478,0.994202 -2.37674,1.455658 -3.879395,1.772095c-2.093185,0.44101 -4.373978,2.154968 -8.663971,6.592529c-1.991074,2.059387 -4.017288,3.969238 -4.52594,4.253265c-0.509048,0.283783 -1.731232,1.325256 -2.715561,2.339233c-0.984329,1.014343 -1.869568,1.843109 -2.004349,1.843109c-0.134796,0 -1.815132,1.683075 -3.750099,3.686096c-1.934494,2.002563 -3.895576,3.789276 -4.33197,4.040558c-1.385063,0.797668 -3.880234,3.161072 -6.207016,5.812744c-1.98851,2.266327 -3.165466,4.086182 -4.461288,6.876099c-0.206055,0.443726 -1.274292,1.685638 -2.327637,2.764557c-2.693848,2.757965 -3.551048,4.362518 -3.814629,7.230499c-0.215378,2.341187 -0.305176,2.639923 -2.844872,6.450592c-0.324417,0.486877 -0.290901,0.846588 0.323174,2.835571c0.564835,1.828552 0.711121,2.80127 0.711319,5.03302c0,2.685455 -0.005989,2.846344 1.0345,4.962067c0.590302,1.199554 1.47541,2.527008 1.939507,2.977203c0.46386,0.449829 1.477669,1.566498 2.263062,2.481049c1.173859,1.36673 1.448936,1.958954 1.616409,3.11911c0.190643,1.322845 0.999397,2.930756 3.297493,6.450714c1.105919,1.693695 1.745705,3.353241 1.745705,4.891083c0,1.16983 -0.291855,2.002716 -1.487091,4.536835c-0.80471,1.706116 -1.829124,3.460236 -2.26297,3.898773c-0.752579,0.761139 -0.914207,0.791107 -3.749969,0.850677c-4.434494,0.093414 -5.164444,0.068237 -7.758766,-0.850677c-1.308868,-0.463898 -2.910057,-0.950165 -3.556213,-1.063324c-0.891731,-0.155487 -1.41893,-0.520111 -2.327637,-1.488525c-1.1996,-1.278137 -1.604095,-1.4888 -4.655258,-2.126648c-2.23597,-0.467102 -2.772469,-1.078949 -3.556213,-4.253296c-0.247231,-1.002228 -0.553871,-1.467834 -1.939484,-2.551819c-2.347694,-1.836761 -4.294014,-4.245483 -4.526146,-5.600159c-0.102631,-0.60083 -0.393135,-1.368164 -0.64637,-1.772125c-0.878082,-1.400238 -2.457153,-4.661346 -2.457153,-5.103973c0,-0.244812 -0.561111,-1.278564 -1.293121,-2.339233c-1.822174,-2.63913 -2.892876,-5.303223 -3.168068,-7.868408c-0.148331,-1.382813 -0.456635,-2.563385 -0.90519,-3.402588c-0.647392,-1.211304 -0.69622,-1.46167 -0.646568,-5.103851c0.042618,-3.139832 0.139679,-3.939911 0.517258,-4.465851c0.252831,-0.352814 0.648834,-1.328156 0.905182,-2.197479c0.618225,-2.095612 1.441689,-3.485931 3.038757,-4.962189c0.725388,-0.67041 1.639679,-1.705872 2.004448,-2.339264c0.399948,-0.694641 1.037399,-1.294098 1.616318,-1.559479c1.530014,-0.700775 6.838676,-6.331848 7.758766,-8.222961c0.431808,-0.8862 1.081665,-2.002533 1.487198,-2.481049c0.835472,-0.984894 4.238983,-5.911194 4.978455,-7.230438c0.268745,-0.478424 1.790916,-2.329987 3.362122,-4.111389c2.770821,-3.140991 3.352821,-4.184845 2.392387,-4.182434c-0.756218,0.001587 -2.089684,1.01178 -4.396629,3.402557c-5.127831,5.31311 -8.09417,8.174103 -9.827782,9.42807c-1.017738,0.736511 -2.554184,1.934235 -3.426895,2.622803c-0.872284,0.688995 -2.408524,1.802948 -3.426682,2.481018c-1.01815,0.677765 -2.497505,1.712219 -3.297592,2.339264c-0.799477,0.627014 -2.109543,1.48761 -2.909409,1.914032c-0.800095,0.426361 -1.939713,1.198639 -2.521721,1.701263c-1.876194,1.620819 -5.799221,4.488892 -7.564697,5.529205c-1.495895,0.881409 -6.507442,4.996674 -8.728725,7.159515c-0.924637,0.900848 -2.530388,2.150909 -3.556004,2.764618c-2.212799,1.324432 -5.13195,4.554413 -5.689747,6.30896c-0.202358,0.637482 -0.372021,2.012054 -0.387951,3.048157c-0.015953,1.036499 -0.21994,2.658417 -0.452713,3.615173c-0.232346,0.95636 -0.499454,2.256134 -0.581802,2.835541c-0.082348,0.579437 -0.539806,1.572632 -0.969933,2.268433c-0.438229,0.709442 -0.773411,1.69931 -0.77589,2.197449c-0.006607,1.221313 -0.997269,5.191925 -1.616287,6.521576c-0.730171,1.569244 -1.797165,6.783844 -1.874962,9.073547c-0.065788,1.922394 -0.063519,2.01358 0.840443,2.764557c0.505039,0.419617 1.447063,1.258789 2.068993,1.914032c1.120575,1.17981 1.09927,1.252502 1.09906,3.260773c0,1.624847 -0.104897,2.208984 -0.581799,2.977234c-0.936844,1.509216 -1.85611,2.09845 -3.68531,2.339233c-2.294113,0.301636 -12.816463,0.083679 -13.901232,-0.283447c-1.288385,-0.436127 -2.930963,-1.539734 -4.525962,-3.119141c-1.292096,-1.280029 -1.452253,-1.57843 -1.939685,-3.686096c-0.291117,-1.258698 -0.812295,-2.755737 -1.163837,-3.260803c-0.42125,-0.605652 -0.678005,-1.506592 -0.840627,-2.764557c-0.135509,-1.049408 -0.377173,-2.185547 -0.517258,-2.481049c-0.139652,-0.295166 -0.349655,-1.135559 -0.452479,-1.91391c-0.103245,-0.777985 -0.267728,-1.717499 -0.387938,-2.055817c-0.119606,-0.33783 -0.571469,-2.136169 -0.969954,-3.969696c-0.718778,-3.30835 -1.170012,-4.496002 -2.327635,-6.237976c-0.360005,-0.542389 -0.701178,-1.768433 -0.904985,-3.048187c-0.493246,-3.099426 -1.259609,-6.044556 -2.00445,-7.584839c-0.773593,-1.600342 -1.509552,-4.962769 -1.745815,-8.364777c-0.093739,-1.35495 -0.214355,-2.572449 -0.323185,-2.764587c-0.109033,-0.192352 -0.017594,-0.791016 0.19408,-1.346741c0.462404,-1.212952 1.529604,-1.913452 4.655251,-2.906372c1.214313,-0.385834 2.663222,-0.953064 3.168052,-1.276001c0.504646,-0.322632 1.626255,-0.746368 2.521722,-0.92157c0.89548,-0.175171 2.835992,-0.902374 4.267111,-1.55957c1.935765,-0.888245 3.002952,-1.156677 4.202777,-1.204956c1.540369,-0.062103 1.688713,-0.196136 3.556004,-1.843048c2.842585,-2.506348 4.285936,-3.528046 5.625204,-3.969696c0.716078,-0.23642 1.940945,-1.030884 3.03898,-2.055847c0.999735,-0.933014 2.979971,-2.765106 4.396616,-4.040497c1.416645,-1.275696 3.787529,-3.566315 5.301624,-5.103821c1.514305,-1.53714 3.178619,-2.997131 3.68552,-3.260803c0.507126,-0.263794 0.905182,-0.694794 0.905182,-0.921539c0,-0.226746 0.942219,-1.198547 2.069019,-2.197449c2.754051,-2.441162 7.247723,-7.424927 8.14669,-9.002716c1.09906,-1.928497 4.385277,-5.773407 7.306301,-8.577393c2.908806,-2.791809 6.808052,-6.261536 8.017395,-7.088684c0.773804,-0.52951 2.852959,-2.316803 5.431129,-4.74942c0.70285,-0.663635 1.538322,-1.304932 1.874939,-1.417725c0.336845,-0.112823 1.568108,-0.945435 2.715569,-1.843079c1.562515,-1.222931 2.179085,-1.961243 2.5215,-2.835419c0.251801,-0.641907 1.081268,-1.819031 1.810379,-2.693726c0.729118,-0.874664 1.638252,-2.438965 2.069016,-3.473419c0.560707,-1.344604 1.186562,-2.250977 2.133759,-3.119141c1.700523,-1.558319 2.189018,-2.633972 2.456955,-5.812744c0.201927,-2.40155 0.284485,-2.769867 1.487198,-4.891113c0.900017,-1.588226 2.706474,-3.881378 5.948387,-7.514038c3.540901,-3.968445 4.875748,-5.67041 5.495689,-7.017883c2.096893,-4.553955 4.816093,-9.0495 8.211372,-13.539398c4.135696,-5.468475 5.558937,-7.791077 5.560455,-9.002594c0.001472,-0.948822 -0.586769,-4.51593 -1.22847,-7.655823c-0.211563,-1.036407 -0.382721,-2.348267 -0.387955,-2.906403c-0.005112,-0.558044 -0.178612,-1.559738 -0.387924,-2.197464c-0.388573,-1.184387 -0.595222,-3.903458 -0.775871,-9.569855c-0.05584,-1.753708 -0.126701,-4.253708 -0.193977,-5.529175c-0.066841,-1.275467 -0.181816,-4.902847 -0.19397,-8.08107c-0.019814,-5.289551 0.028328,-5.858871 0.517258,-6.805115c0.294182,-0.568527 1.027603,-2.056259 1.616394,-3.331741c2.104958,-4.561676 3.846306,-7.748047 5.301849,-9.853287c1.527939,-2.209763 3.426743,-5.496658 3.426773,-5.883606c0,-0.761795 2.277992,-3.895401 3.814735,-5.245621c0.967804,-0.850357 2.349182,-2.489548 3.168152,-3.757095c0.795944,-1.231537 2.32193,-3.155884 3.426804,-4.253143c1.104813,-1.097107 2.533066,-2.65741 3.1035,-3.473511c0.570404,-0.816086 1.364136,-1.906189 1.810379,-2.481018c0.554626,-0.71431 1.009201,-1.801788 1.357803,-3.331741c0.698212,-3.063446 1.356949,-4.69104 2.521606,-5.954544c0.54248,-0.588394 1.282959,-1.490723 1.616409,-1.984726c0.333496,-0.49411 1.215408,-1.26915 1.939682,-1.701401c0.79483,-0.474335 1.35968,-0.983154 1.422455,-1.346756c0.158295,-0.920059 0.657318,-7.162643 0.905197,-11.058411c0.25856,-4.060867 0.425949,-5.192719 1.099136,-7.443207c0.272919,-0.911636 0.517242,-2.015778 0.517242,-2.41008c0,-0.446381 0.469299,-1.307098 1.293152,-2.339233c0.735687,-0.921661 1.424576,-2.115494 1.551758,-2.693771c0.814651,-3.705673 1.199966,-11.588623 0.581879,-12.405273c-0.38382,-0.506989 -2.759659,-1.716476 -4.978546,-2.551865c-2.031113,-0.764694 -6.361618,-2.881325 -7.758759,-3.827919c-0.864609,-0.586105 -1.386169,-0.666138 -5.431152,-0.779747c-2.455673,-0.069 -4.800812,-0.258957 -5.237152,-0.425346c-0.436005,-0.166283 -1.689407,-0.58403 -2.780228,-0.921539c-1.0905,-0.337379 -2.570244,-0.973503 -3.297478,-1.417717c-2.941635,-1.796715 -5.76239,-2.241501 -15.970154,-2.481026c-3.999069,-0.093948 -8.163155,-0.242622 -9.181313,-0.354523c-2.681213,-0.29425 -10.794205,-0.258034 -12.80175,0.070953c-1.021278,0.167427 -5.492401,0.241936 -10.991821,0.141785c-7.96524,-0.144997 -9.710052,-0.293571 -12.543137,-0.8507c-1.810375,-0.355888 -3.378471,-0.703049 -3.491653,-0.779747c-0.113171,-0.076584 -1.725346,-0.336456 -3.620743,-0.567017c-3.63464,-0.44236 -4.895897,-0.835411 -6.142281,-1.984848c-0.905602,-0.835518 -1.783066,-1.171059 -4.396641,-1.630455c-2.102726,-0.369576 -5.139606,-1.837883 -6.013153,-2.90638c-0.632488,-0.773651 -4.692085,-4.538658 -5.88364,-5.458237c-0.857994,-0.66246 -4.357716,-1.772232 -5.560438,-1.772232c-0.364141,0 -1.245554,-0.432945 -1.939697,-0.921532c-1.159052,-0.815292 -1.304302,-0.861168 -1.939686,-0.496185c-0.380909,0.218712 -1.143961,1.073082 -1.681068,1.843063c-0.759119,1.088264 -1.307608,1.556961 -2.586252,2.126633c-1.630384,0.72628 -1.667828,0.730766 -2.715572,0.212608c-1.688934,-0.834824 -2.00424,-1.417717 -2.00445,-3.615173l0,-1.914017l-1.034517,-0.354401c-1.4514,-0.524124 -1.745611,-0.880478 -1.745611,-2.055687c0,-1.307205 1.151606,-2.487465 4.720024,-5.033005c3.860989,-2.754486 3.437012,-2.638107 9.375082,-2.764603c6.273632,-0.133728 7.337307,-0.020805 8.470074,1.063324c0.466377,0.446503 1.406536,1.154037 2.133575,1.559494c0.727245,0.405342 1.758865,1.196823 2.263077,1.772118c0.503414,0.575409 1.335754,1.187737 1.874935,1.346878c1.118305,0.330139 3.552277,0.082909 5.301834,-0.496178c2.000111,-0.662239 3.260338,-0.728355 12.026089,-0.8507c9.163216,-0.127754 12.578323,-0.37809 14.224411,-1.063316c1.07444,-0.447083 2.403786,-0.505844 24.504906,-0.63797c5.668419,-0.033806 6.079926,0.000229 6.788818,0.567131c1.145576,0.916367 1.575859,1.029854 2.58625,0.567139c0.511284,-0.234352 1.158699,-0.430183 1.487114,-0.425354c11.847359,0.174904 18.663589,0.25827 25.862564,0.283562l8.857925,0l1.939713,-0.708908l2.004333,-0.779755l8.017395,0.070953l8.017395,0.141785l1.551758,-1.843071c1.210983,-1.365395 2.196487,-2.062233 3.944061,-2.977333c1.270447,-0.664978 2.804932,-1.269722 3.426788,-1.346878c2.925125,-0.362564 8.112442,1.438644 9.698456,3.402679c1.809296,2.240707 2.374741,2.622704 4.396622,2.622818c1.692139,0 2.112122,-0.166389 4.396667,-1.417831c1.382858,-0.757217 2.574539,-1.553986 2.650894,-1.77211c0.076767,-0.21814 -0.116547,-1.418991 -0.452606,-2.693771c-0.401428,-1.522469 -0.630371,-3.170288 -0.646545,-4.749329c-0.021317,-2.126396 0.067734,-2.474014 0.646545,-3.331734c0.750031,-1.111839 0.750443,-1.792694 0.258652,-6.308945c-0.197601,-1.81501 -0.247192,-5.444557 -0.193954,-9.144485l0.064636,-6.096218l1.034485,-2.055794c0.55426,-1.115982 1.336578,-3.041035 1.745728,-4.253151c0.98436,-2.915005 3.029007,-6.091724 5.237198,-8.222958c2.19014,-2.113983 3.082352,-2.717106 5.75441,-3.756966c1.901093,-0.739731 2.35878,-0.838394 5.366486,-0.779747c1.808167,0.035301 4.112823,0.248032 5.107849,0.496181c1.552551,0.387058 2.444595,0.414886 6.465652,0.141785c3.216019,-0.218483 5.556427,-0.198475 7.370834,0c7.740677,0.846786 8.151443,0.987995 11.70282,3.898746c6.024689,4.937687 9.231705,10.608665 10.086395,17.863518c0.140671,1.195786 0.368561,2.636154 0.517258,3.189949c0.321381,1.19429 0.132172,13.527695 -0.258652,16.800201c-0.142838,1.1959 -0.440109,2.818069 -0.646545,3.615295c-0.20607,0.797119 -0.531235,2.605568 -0.711212,4.040535c-0.179977,1.434967 -0.50853,3.386581 -0.775879,4.324097c-0.530365,1.860199 -0.623688,2.942719 -0.258636,3.189949c0.128555,0.087273 0.998016,-0.169846 1.939713,-0.63797c0.941711,-0.468124 2.343155,-0.952812 3.1035,-1.063316c1.024017,-0.148911 1.668762,-0.480774 2.586243,-1.275932c0.680969,-0.59024 1.522461,-1.255699 1.810364,-1.417831c1.706451,-0.960976 8.158112,-2.048782 12.026123,-2.055679c1.512878,-0.002647 3.887848,-0.878532 9.504486,-3.54435c1.379547,-0.654755 3.312042,-1.457268 4.332001,-1.772232c2.44101,-0.753532 3.671051,-1.465668 5.431152,-3.118996c0.799957,-0.751236 2.683868,-2.200111 4.138,-3.260788c1.454102,-1.060783 3.782623,-2.881653 5.237152,-3.969688c3.357025,-2.51162 6.065857,-4.076637 9.181244,-5.387421c1.354919,-0.570229 3.313843,-1.446114 4.33194,-1.913895c1.018158,-0.467896 3.021545,-1.279381 4.461334,-1.843063c1.439392,-0.563683 2.976044,-1.257881 3.426758,-1.559502c0.451019,-0.301735 2.595917,-1.506027 4.784576,-2.622925c2.18869,-1.116787 4.608429,-2.416183 5.366486,-2.906265c0.757721,-0.490093 3.102142,-1.582619 5.172546,-2.481152c4.426239,-1.920567 5.948364,-2.752178 7.564758,-4.040531c1.765991,-1.407364 4.223175,-2.757008 5.560486,-2.977211c0.650085,-0.107059 1.964417,-0.545975 2.909515,-0.992485c0.945435,-0.446388 2.297272,-0.947517 2.974243,-1.134148c0.786346,-0.216755 1.764648,-0.819881 2.715515,-1.701283c0.818359,-0.758591 2.086456,-1.709675 2.84491,-2.126633c1.449707,-0.796768 4.131622,-1.701283 5.172546,-1.701283c0.947937,0 2.508179,-0.797569 3.426727,-1.772114c0.592865,-0.629112 1.223907,-0.966267 2.327637,-1.205101l1.551788,-0.354515l0.193939,-1.984848c0.205322,-2.578773 0.335297,-2.963413 1.357819,-3.331615c0.338623,-0.122002 0.984711,-0.20583 1.745728,-0.21273z"/>
  </g>
  <text xml:space="preserve" text-anchor="middle" font-family="Fantasy" font-size="21" id="svg_1" y="446" x="529" stroke-width="0" stroke="#000000" fill="#000000">ANGGAR BANTUL</text>
 </g>
</svg>