<?xml version="1.0" encoding="UTF-8" standalone="no"?>
<!-- Created with Inkscape (http://www.inkscape.org/) -->

<svg
   xmlns:dc="http://purl.org/dc/elements/1.1/"
   xmlns:cc="http://creativecommons.org/ns#"
   xmlns:rdf="http://www.w3.org/1999/02/22-rdf-syntax-ns#"
   xmlns:svg="http://www.w3.org/2000/svg"
   xmlns="http://www.w3.org/2000/svg"
   xmlns:sodipodi="http://sodipodi.sourceforge.net/DTD/sodipodi-0.dtd"
   xmlns:inkscape="http://www.inkscape.org/namespaces/inkscape"
   width="4096"
   height="4096"
   viewBox="0 0 4096 4096.0001"
   id="svg2"
   version="1.1"
   inkscape:version="0.91 r13725"
   sodipodi:docname="UNO-Zeros.svg"
   inkscape:export-filename="C:\Users\José Paulo\Desktop\UNO-Zeros.png"
   inkscape:export-xdpi="90"
   inkscape:export-ydpi="90">
  <defs
     id="defs4">
    <inkscape:perspective
       sodipodi:type="inkscape:persp3d"
       inkscape:vp_x="0 : 2048.0001 : 1"
       inkscape:vp_y="0 : 1000 : 0"
       inkscape:vp_z="4096 : 2048.0001 : 1"
       inkscape:persp3d-origin="2048 : 1365.3334 : 1"
       id="perspective3342" />
  </defs>
  <sodipodi:namedview
     id="base"
     pagecolor="#000000"
     bordercolor="#666666"
     borderopacity="1.0"
     inkscape:pageopacity="0"
     inkscape:pageshadow="2"
     inkscape:zoom="0.36471824"
     inkscape:cx="2171.0821"
     inkscape:cy="274.78734"
     inkscape:document-units="px"
     inkscape:current-layer="layer1"
     showgrid="true"
     units="px"
     showguides="false"
     objecttolerance="20"
     inkscape:snap-path-clip="false"
     inkscape:snap-perpendicular="false"
     inkscape:snap-tangential="false"
     inkscape:window-width="1920"
     inkscape:window-height="1017"
     inkscape:window-x="-8"
     inkscape:window-y="-8"
     inkscape:window-maximized="1">
    <inkscape:grid
       type="xygrid"
       id="grid3336"
       dotted="false"
       empspacing="16"
       spacingx="25.6"
       spacingy="36.570001"
       snapvisiblegridlinesonly="true"
       visible="true"
       enabled="true"
       empcolor="#ff3fff"
       empopacity="0.25098039"
       color="#ffff00"
       opacity="0.1372549" />
  </sodipodi:namedview>
  <metadata
     id="metadata7">
    <rdf:RDF>
      <cc:Work
         rdf:about="">
        <dc:format>image/svg+xml</dc:format>
        <dc:type
           rdf:resource="http://purl.org/dc/dcmitype/StillImage" />
        <dc:title />
      </cc:Work>
    </rdf:RDF>
  </metadata>
  <g
     inkscape:label="Camada 1"
     inkscape:groupmode="layer"
     id="layer1"
     transform="translate(0,3043.6379)">
    <g
       id="g5106">
      <rect
         rx="25.600006"
         ry="25.600006"
         y="-3043.478"
         x="0"
         height="585.12"
         width="409.60001"
         id="rect3362"
         style="opacity:1;fill:#ffffff;fill-opacity:1;stroke:none;stroke-width:0;stroke-miterlimit:4;stroke-dasharray:none;stroke-opacity:1" />
      <rect
         ry="25.6"
         rx="25.6"
         y="-3006.908"
         x="25.6"
         height="511.98004"
         width="358.39999"
         id="rect4168"
         style="opacity:1;fill:#d40000;fill-opacity:1;stroke:none;stroke-width:0;stroke-miterlimit:4;stroke-dasharray:none;stroke-opacity:1" />
      <ellipse
         ry="230.149"
         rx="142.22751"
         cx="-1800.3772"
         cy="-2090.0083"
         transform="matrix(0.70710678,0.70710678,-0.70710678,0.70710678,0,0)"
         id="path4172"
         style="opacity:1;fill:#ffffff;fill-opacity:1;stroke:none;stroke-width:0;stroke-miterlimit:4;stroke-dasharray:none;stroke-opacity:1" />
      <text
         sodipodi:linespacing="125%"
         id="text4174-4"
         y="-2664.1807"
         x="142.92033"
         style="font-style:normal;font-variant:normal;font-weight:normal;font-stretch:normal;font-size:250px;line-height:125%;font-family:'Britannic Bold';-inkscape-font-specification:'Britannic Bold, Normal';text-align:start;letter-spacing:0px;word-spacing:0px;writing-mode:lr;text-anchor:start;fill:#000000;fill-opacity:1;stroke:none;stroke-width:3;stroke-linecap:butt;stroke-linejoin:miter;stroke-miterlimit:4;stroke-dasharray:none;stroke-opacity:1;"
         xml:space="preserve"><tspan
           id="tspan5096"
           sodipodi:role="line">0</tspan></text>
      <text
         sodipodi:linespacing="125%"
         id="text4174"
         y="-2667.605"
         x="140.10284"
         style="font-style:normal;font-variant:normal;font-weight:normal;font-stretch:normal;font-size:250px;line-height:125%;font-family:'Britannic Bold';-inkscape-font-specification:'Britannic Bold, Normal';text-align:start;letter-spacing:0px;word-spacing:0px;writing-mode:lr;text-anchor:start;fill:#d40000;fill-opacity:1;stroke:#000000;stroke-width:3;stroke-linecap:butt;stroke-linejoin:miter;stroke-miterlimit:4;stroke-dasharray:none;stroke-opacity:1;"
         xml:space="preserve"><tspan
           id="tspan5094"
           sodipodi:role="line">0</tspan></text>
      <text
         sodipodi:linespacing="125%"
         id="text4174-4-2"
         y="-2947.2405"
         x="44.336266"
         style="font-style:normal;font-variant:normal;font-weight:normal;font-stretch:normal;font-size:65.21874905px;line-height:125%;font-family:'Britannic Bold';-inkscape-font-specification:'Britannic Bold, Normal';text-align:start;letter-spacing:0px;word-spacing:0px;writing-mode:lr;text-anchor:start;fill:#000000;fill-opacity:1;stroke:none;stroke-width:3;stroke-linecap:butt;stroke-linejoin:miter;stroke-miterlimit:4;stroke-dasharray:none;stroke-opacity:1;"
         xml:space="preserve"><tspan
           id="tspan5100"
           sodipodi:role="line">0</tspan></text>
      <text
         sodipodi:linespacing="125%"
         id="text4174-46"
         y="-2948.1338"
         x="43.601254"
         style="font-style:normal;font-variant:normal;font-weight:normal;font-stretch:normal;font-size:65.21874905px;line-height:125%;font-family:'Britannic Bold';-inkscape-font-specification:'Britannic Bold, Normal';text-align:start;letter-spacing:0px;word-spacing:0px;writing-mode:lr;text-anchor:start;fill:#ffffff;fill-opacity:1;stroke:#000000;stroke-width:0.78262186;stroke-linecap:butt;stroke-linejoin:miter;stroke-miterlimit:4;stroke-dasharray:none;stroke-opacity:1;"
         xml:space="preserve"><tspan
           id="tspan5098"
           sodipodi:role="line">0</tspan></text>
      <text
         transform="scale(-1,-1)"
         sodipodi:linespacing="125%"
         id="text4174-4-2-5"
         y="2554.5952"
         x="-365.26373"
         style="font-style:normal;font-variant:normal;font-weight:normal;font-stretch:normal;font-size:65.21874905px;line-height:125%;font-family:'Britannic Bold';-inkscape-font-specification:'Britannic Bold, Normal';text-align:start;letter-spacing:0px;word-spacing:0px;writing-mode:lr;text-anchor:start;fill:#000000;fill-opacity:1;stroke:none;stroke-width:3;stroke-linecap:butt;stroke-linejoin:miter;stroke-miterlimit:4;stroke-dasharray:none;stroke-opacity:1;"
         xml:space="preserve"><tspan
           id="tspan5104"
           sodipodi:role="line">0</tspan></text>
      <text
         transform="scale(-1,-1)"
         sodipodi:linespacing="125%"
         id="text4174-46-9"
         y="2553.7019"
         x="-365.99872"
         style="font-style:normal;font-variant:normal;font-weight:normal;font-stretch:normal;font-size:65.21874905px;line-height:125%;font-family:'Britannic Bold';-inkscape-font-specification:'Britannic Bold, Normal';text-align:start;letter-spacing:0px;word-spacing:0px;writing-mode:lr;text-anchor:start;fill:#ffffff;fill-opacity:1;stroke:#000000;stroke-width:0.78262186;stroke-linecap:butt;stroke-linejoin:miter;stroke-miterlimit:4;stroke-dasharray:none;stroke-opacity:1;"
         xml:space="preserve"><tspan
           id="tspan5102"
           sodipodi:role="line">0</tspan></text>
    </g>
    <g
       id="g4215">
      <path
         id="rect6778"
         transform="translate(0,-3043.6379)"
         d="M 3712 3510.8809 C 3697.8176 3510.8809 3686.4004 3522.2981 3686.4004 3536.4805 L 3686.4004 4070.4004 C 3686.4004 4084.5828 3697.8176 4096 3712 4096 L 4070.4004 4096 C 4084.5828 4096 4096 4084.5828 4096 4070.4004 L 4096 3536.4805 C 4096 3522.2981 4084.5828 3510.8809 4070.4004 3510.8809 L 3712 3510.8809 z M 3737.5996 3547.4492 L 4044.8008 3547.4492 C 4058.9832 3547.4492 4070.4004 3558.8684 4070.4004 3573.0508 L 4070.4004 4033.8301 C 4070.4004 4048.0125 4058.9832 4059.4297 4044.8008 4059.4297 L 3737.5996 4059.4297 C 3723.4172 4059.4297 3712 4048.0125 3712 4033.8301 L 3712 3573.0508 C 3712 3558.8684 3723.4172 3547.4492 3737.5996 3547.4492 z "
         style="opacity:1;fill:#ffffff;fill-opacity:1;stroke:none;stroke-width:0;stroke-miterlimit:4;stroke-dasharray:none;stroke-opacity:1" />
      <path
         transform="translate(0,-3043.6379)"
         id="path7027"
         d="M 3712 3984.8672 L 3712 4033.8301 C 3712 4035.6029 3712.1777 4037.3325 3712.5176 4039.002 C 3712.8575 4040.6714 3713.3599 4042.2801 3714.0059 4043.8125 C 3714.6518 4045.3449 3715.4431 4046.8006 3716.3613 4048.1621 C 3717.2796 4049.5236 3718.3237 4050.7924 3719.4805 4051.9492 C 3720.6372 4053.106 3721.9061 4054.1501 3723.2676 4055.0684 C 3724.6291 4055.9866 3726.0848 4056.7778 3727.6172 4057.4238 C 3729.1496 4058.0698 3730.7582 4058.5722 3732.4277 4058.9121 C 3734.0972 4059.252 3735.8268 4059.4297 3737.5996 4059.4297 L 4044.8008 4059.4297 C 4046.5736 4059.4297 4048.3032 4059.252 4049.9727 4058.9121 C 4051.6421 4058.5722 4053.2508 4058.0698 4054.7832 4057.4238 C 4056.3156 4056.7778 4057.7713 4055.9866 4059.1328 4055.0684 C 4060.4943 4054.1501 4061.7631 4053.106 4062.9199 4051.9492 C 4064.0767 4050.7924 4065.1208 4049.5236 4066.0391 4048.1621 C 4066.9573 4046.8006 4067.7485 4045.3449 4068.3945 4043.8125 C 4069.0405 4042.2801 4069.5429 4040.6714 4069.8828 4039.002 C 4070.2227 4037.3325 4070.4004 4035.6029 4070.4004 4033.8301 L 4070.4004 3985.166 L 3891.0527 3805.8145 L 3712 3984.8672 z "
         style="opacity:1;fill:#2ca05a;fill-opacity:1;stroke:none;stroke-width:0;stroke-miterlimit:4;stroke-dasharray:none;stroke-opacity:1" />
      <path
         transform="translate(0,-3043.6379)"
         id="path7003"
         d="M 4070.4004 3985.166 L 4070.4004 3626.4668 L 3891.0527 3805.8145 L 4070.4004 3985.166 z "
         style="opacity:1;fill:#2a7fff;fill-opacity:1;stroke:none;stroke-width:0;stroke-miterlimit:4;stroke-dasharray:none;stroke-opacity:1" />
      <path
         transform="translate(0,-3043.6379)"
         id="path7008"
         d="M 4070.4004 3626.4668 L 4070.4004 3573.0508 C 4070.4004 3571.278 4070.2227 3569.5484 4069.8828 3567.8789 C 4069.5429 3566.2094 4069.0405 3564.5989 4068.3945 3563.0664 C 4067.7486 3561.5339 4066.9573 3560.0803 4066.0391 3558.7188 C 4065.1208 3557.3572 4064.0767 3556.0885 4062.9199 3554.9316 C 4061.7631 3553.7747 4060.4943 3552.7289 4059.1328 3551.8105 C 4057.7713 3550.8922 4056.3156 3550.1012 4054.7832 3549.4551 C 4053.2508 3548.809 4051.6421 3548.3067 4049.9727 3547.9668 C 4048.3032 3547.6269 4046.5736 3547.4492 4044.8008 3547.4492 L 3737.5996 3547.4492 C 3735.8268 3547.4492 3734.0972 3547.6269 3732.4277 3547.9668 C 3730.7582 3548.3067 3729.1496 3548.809 3727.6172 3549.4551 C 3726.0848 3550.1012 3724.6291 3550.8922 3723.2676 3551.8105 C 3721.9061 3552.7289 3720.6372 3553.7747 3719.4805 3554.9316 C 3718.3237 3556.0885 3717.2796 3557.3572 3716.3613 3558.7188 C 3715.4431 3560.0803 3714.6518 3561.5339 3714.0059 3563.0664 C 3713.3599 3564.5989 3712.8575 3566.2094 3712.5176 3567.8789 C 3712.1777 3569.5484 3712 3571.278 3712 3573.0508 L 3712 3626.7656 L 3891.0527 3805.8145 L 4070.4004 3626.4668 z "
         style="opacity:1;fill:#d40000;fill-opacity:1;stroke:none;stroke-width:0;stroke-miterlimit:4;stroke-dasharray:none;stroke-opacity:1" />
      <path
         transform="translate(0,-3043.6379)"
         id="path7022"
         d="M 3712 3626.7656 L 3712 3984.8672 L 3891.0527 3805.8145 L 3712 3626.7656 z "
         style="opacity:1;fill:#ffcc00;fill-opacity:1;stroke:none;stroke-width:0;stroke-miterlimit:4;stroke-dasharray:none;stroke-opacity:1" />
      <path
         transform="translate(0,-3043.6379)"
         id="ellipse6782"
         d="M 3973.8027 3612.1602 A 142.22751 230.149 45 0 0 3790.6309 3702.8691 A 142.22751 230.149 45 0 0 3728.4609 3966.1797 A 142.22751 230.149 45 0 0 3991.7695 3904.0098 A 142.22751 230.149 45 0 0 4053.9395 3640.6992 A 142.22751 230.149 45 0 0 3973.8027 3612.1602 z M 3899.9883 3704.7461 C 3902.9383 3704.7461 3905.803 3704.8835 3908.5801 3705.1582 C 3911.3572 3705.4329 3914.0482 3705.8452 3916.6523 3706.3945 C 3919.2565 3706.9438 3921.7738 3707.6292 3924.2051 3708.4531 C 3926.6363 3709.2771 3928.98 3710.2393 3931.2383 3711.3379 C 3933.4966 3712.4162 3935.6261 3713.5944 3937.625 3714.8711 C 3939.6239 3716.1477 3941.4929 3717.523 3943.2324 3718.998 C 3944.9719 3720.4731 3946.5824 3722.0473 3948.0625 3723.7207 C 3949.5426 3725.3941 3950.8926 3727.1673 3952.1133 3729.0391 C 3953.3543 3730.9108 3954.4403 3732.8223 3955.3711 3734.7754 C 3956.3019 3736.7285 3957.0767 3738.7233 3957.6973 3740.7578 C 3958.3178 3742.7923 3958.7835 3744.8665 3959.0938 3746.9824 C 3959.404 3749.0983 3959.5586 3751.2559 3959.5586 3753.4531 C 3959.5586 3755.1825 3959.471 3756.858 3959.293 3758.4805 C 3959.115 3760.103 3958.8463 3761.6718 3958.4902 3763.1875 C 3958.1342 3764.7032 3957.6903 3766.1653 3957.1562 3767.5742 C 3956.6222 3768.9831 3955.9992 3770.3385 3955.2871 3771.6406 C 3953.9036 3774.2448 3952.3773 3776.6753 3950.709 3778.9336 C 3949.0407 3781.1919 3947.2305 3783.279 3945.2773 3785.1914 C 3941.4525 3788.9349 3934.5352 3795.2826 3924.5254 3804.2344 C 3921.7585 3806.7572 3919.5195 3808.9941 3917.8105 3810.9473 C 3916.1829 3812.819 3914.9622 3814.5697 3914.1484 3816.1973 C 3913.3346 3817.7435 3912.6836 3819.3294 3912.1953 3820.957 C 3911.7884 3822.5033 3911.1374 3825.2702 3910.2422 3829.2578 C 3909.8556 3831.3737 3909.2634 3833.2256 3908.4648 3834.8125 C 3907.6663 3836.3994 3906.6617 3837.7214 3905.4512 3838.7793 C 3904.2406 3839.8372 3902.8237 3840.6312 3901.2012 3841.1602 C 3899.5787 3841.6891 3897.7513 3841.9531 3895.7168 3841.9531 C 3894.6588 3841.9531 3893.6406 3841.8663 3892.6641 3841.6934 C 3891.6875 3841.5204 3890.7526 3841.2619 3889.8574 3840.916 C 3888.9622 3840.5701 3888.1068 3840.1379 3887.293 3839.6191 C 3886.4792 3839.1003 3885.707 3838.4945 3884.9746 3837.8027 C 3884.2625 3837.111 3883.6395 3836.3361 3883.1055 3835.4766 C 3882.5714 3834.617 3882.1256 3833.672 3881.7695 3832.6445 C 3881.4135 3831.6171 3881.1468 3830.5058 3880.9688 3829.3105 C 3880.7907 3828.1153 3880.7012 3826.8377 3880.7012 3825.4746 C 3880.7012 3822.0566 3880.9671 3818.8719 3881.4961 3815.9219 C 3882.0251 3812.9718 3882.8171 3810.2555 3883.875 3807.7734 C 3884.933 3805.2507 3886.1645 3802.8906 3887.5684 3800.6934 C 3888.9722 3798.4961 3890.5492 3796.4616 3892.2988 3794.5898 C 3894.0485 3792.6774 3896.1029 3790.5923 3898.4629 3788.334 C 3900.8229 3786.0757 3903.4886 3783.6452 3906.459 3781.041 C 3911.6673 3776.4837 3915.4108 3773.0657 3917.6895 3770.7871 C 3918.8695 3769.6071 3919.9473 3768.3646 3920.9238 3767.0625 C 3921.9004 3765.7604 3922.7757 3764.3988 3923.5488 3762.9746 C 3924.3626 3761.5505 3924.972 3760.0638 3925.3789 3758.5176 C 3925.7858 3756.9714 3925.9902 3755.3656 3925.9902 3753.6973 C 3925.9902 3752.0697 3925.8384 3750.5044 3925.5332 3749.0039 C 3925.228 3747.5035 3924.7686 3746.0667 3924.1582 3744.6934 C 3923.5479 3743.3201 3922.7866 3742.0098 3921.8711 3740.7637 C 3920.9556 3739.5175 3919.8867 3738.3358 3918.666 3737.2168 C 3917.4656 3736.0978 3916.1753 3735.1185 3914.7969 3734.2793 C 3913.4185 3733.4401 3911.9509 3732.7411 3910.3945 3732.1816 C 3908.8381 3731.6222 3907.1934 3731.2016 3905.459 3730.9219 C 3903.7246 3730.6421 3901.9007 3730.5039 3899.9883 3730.5039 C 3897.7503 3730.5039 3895.6597 3730.6449 3893.7168 3730.9297 C 3891.7738 3731.2145 3889.98 3731.6432 3888.332 3732.2129 C 3886.6841 3732.7826 3885.183 3733.4932 3883.8301 3734.3477 C 3882.4771 3735.2021 3881.2708 3736.2005 3880.2129 3737.3398 C 3879.155 3738.4588 3878.1387 3739.7111 3877.1621 3741.0996 C 3876.1856 3742.4882 3875.2487 3744.0118 3874.3535 3745.6699 C 3873.4583 3747.328 3872.6048 3749.1211 3871.791 3751.0488 C 3870.9772 3752.9765 3870.2031 3755.0391 3869.4707 3757.2363 C 3868.779 3759.5353 3867.9336 3761.5472 3866.9316 3763.2715 C 3865.9296 3764.9957 3864.7712 3766.4325 3863.459 3767.582 C 3862.1467 3768.7315 3860.6791 3769.5932 3859.0566 3770.168 C 3857.4341 3770.7427 3855.6574 3771.0312 3853.7246 3771.0312 C 3852.5853 3771.0312 3851.4884 3770.9308 3850.4355 3770.7324 C 3849.3827 3770.5341 3848.3726 3770.2366 3847.4062 3769.8398 C 3846.4399 3769.4431 3845.5186 3768.9467 3844.6387 3768.3516 C 3843.7588 3767.7565 3842.9204 3767.063 3842.127 3766.2695 C 3841.3538 3765.4557 3840.6775 3764.6275 3840.0977 3763.7832 C 3839.5178 3762.9389 3839.035 3762.078 3838.6484 3761.2031 C 3838.2619 3760.3283 3837.9726 3759.4386 3837.7793 3758.5332 C 3837.586 3757.6278 3837.4883 3756.7074 3837.4883 3755.7715 C 3837.4883 3753.8387 3837.6448 3751.9 3837.9551 3749.957 C 3838.2653 3748.0141 3838.7291 3746.0664 3839.3496 3744.1133 C 3839.9701 3742.1602 3840.7469 3740.2016 3841.6777 3738.2383 C 3842.6085 3736.275 3843.6945 3734.3075 3844.9355 3732.334 C 3846.1766 3730.3402 3847.5601 3728.4322 3849.0859 3726.6113 C 3850.6118 3724.7904 3852.2791 3723.0562 3854.0898 3721.4082 C 3855.9006 3719.7603 3857.8537 3718.1996 3859.9492 3716.7246 C 3862.0448 3715.2496 3864.2837 3713.8607 3866.6641 3712.5586 C 3869.0444 3711.2565 3871.5228 3710.1172 3874.1016 3709.1406 C 3876.6803 3708.1641 3879.3596 3707.3503 3882.1367 3706.6992 C 3884.9138 3706.0482 3887.7902 3705.5599 3890.7656 3705.2344 C 3893.7411 3704.9089 3896.8144 3704.7461 3899.9883 3704.7461 z M 3897.0586 3853.0625 C 3898.3403 3853.0625 3899.5719 3853.1719 3900.752 3853.3906 C 3901.932 3853.6093 3903.0604 3853.9356 3904.1387 3854.373 C 3905.217 3854.8105 3906.2461 3855.3575 3907.2227 3856.0137 C 3908.1992 3856.6698 3909.1232 3857.4357 3909.998 3858.3105 C 3910.8729 3859.1854 3911.6388 3860.1113 3912.2949 3861.0879 C 3912.951 3862.0645 3913.4981 3863.0916 3913.9355 3864.1699 C 3914.373 3865.2482 3914.7012 3866.3766 3914.9199 3867.5566 C 3915.1386 3868.7367 3915.248 3869.9683 3915.248 3871.25 C 3915.248 3872.6742 3915.1332 3874.0214 3914.9043 3875.293 C 3914.6754 3876.5645 3914.3328 3877.7599 3913.875 3878.8789 C 3913.4172 3879.9979 3912.8449 3881.0414 3912.1582 3882.0078 C 3911.4716 3882.9742 3910.6694 3883.8639 3909.7539 3884.6777 C 3908.8384 3885.4915 3907.8871 3886.2041 3906.9004 3886.8145 C 3905.9137 3887.4248 3904.8919 3887.9329 3903.834 3888.3398 C 3902.776 3888.7467 3901.6819 3889.0524 3900.5527 3889.2559 C 3899.4236 3889.4593 3898.259 3889.5605 3897.0586 3889.5605 C 3895.8175 3889.5605 3894.6159 3889.462 3893.4512 3889.2637 C 3892.2864 3889.0653 3891.1588 3888.7678 3890.0703 3888.3711 C 3888.9819 3887.9744 3887.9321 3887.4779 3886.9199 3886.8828 C 3885.9078 3886.2877 3884.9339 3885.5942 3883.998 3884.8008 C 3883.0825 3883.987 3882.2804 3883.0926 3881.5938 3882.1211 C 3880.9071 3881.1496 3880.3347 3880.0999 3879.877 3878.9707 C 3879.4192 3877.8416 3879.0765 3876.6345 3878.8477 3875.3477 C 3878.6188 3874.0608 3878.5039 3872.6945 3878.5039 3871.25 C 3878.5039 3869.9683 3878.616 3868.7367 3878.8398 3867.5566 C 3879.0636 3866.3766 3879.4001 3865.2482 3879.8477 3864.1699 C 3880.2952 3863.0916 3880.854 3862.0645 3881.5254 3861.0879 C 3882.1968 3860.1113 3882.9798 3859.1854 3883.875 3858.3105 C 3884.7702 3857.4357 3885.716 3856.6698 3886.7129 3856.0137 C 3887.7098 3855.3575 3888.7588 3854.8105 3889.8574 3854.373 C 3890.9561 3853.9356 3892.1043 3853.6093 3893.3047 3853.3906 C 3894.505 3853.1719 3895.7565 3853.0625 3897.0586 3853.0625 z "
         style="opacity:1;fill:#ffffff;fill-opacity:1;stroke:none;stroke-width:0;stroke-miterlimit:4;stroke-dasharray:none;stroke-opacity:1" />
      <path
         transform="translate(0,-3043.6379)"
         id="path7069"
         d="M 3948.084 3723.7461 C 3949.5554 3725.4122 3950.8986 3727.1766 3952.1133 3729.0391 C 3953.3543 3730.9108 3954.4403 3732.8223 3955.3711 3734.7754 C 3956.3019 3736.7285 3957.0767 3738.7233 3957.6973 3740.7578 C 3958.3178 3742.7923 3958.7834 3744.8665 3959.0938 3746.9824 C 3959.4039 3749.0983 3959.5586 3751.2559 3959.5586 3753.4531 C 3959.5586 3755.1825 3959.471 3756.858 3959.293 3758.4805 C 3959.115 3760.103 3958.8463 3761.6718 3958.4902 3763.1875 C 3958.1342 3764.7032 3957.6904 3766.1653 3957.1562 3767.5742 C 3956.6222 3768.9831 3955.9992 3770.3385 3955.2871 3771.6406 C 3953.9036 3774.2448 3952.3773 3776.6753 3950.709 3778.9336 C 3949.0407 3781.1919 3947.2305 3783.279 3945.2773 3785.1914 C 3941.4525 3788.9349 3934.5352 3795.2826 3924.5254 3804.2344 C 3921.7585 3806.7572 3919.5195 3808.9941 3917.8105 3810.9473 C 3916.1829 3812.819 3914.9622 3814.5697 3914.1484 3816.1973 C 3913.3346 3817.7435 3912.6836 3819.3294 3912.1953 3820.957 C 3911.7884 3822.5033 3911.1374 3825.2702 3910.2422 3829.2578 C 3909.8556 3831.3737 3909.2634 3833.2256 3908.4648 3834.8125 C 3907.6663 3836.3994 3906.6617 3837.7214 3905.4512 3838.7793 C 3904.2406 3839.8372 3902.8237 3840.6312 3901.2012 3841.1602 C 3899.5787 3841.6891 3897.7513 3841.9531 3895.7168 3841.9531 C 3894.6588 3841.9531 3893.6406 3841.8663 3892.6641 3841.6934 C 3891.6875 3841.5204 3890.7526 3841.2619 3889.8574 3840.916 C 3888.9622 3840.5701 3888.1068 3840.1379 3887.293 3839.6191 C 3887.2335 3839.5813 3887.1781 3839.5349 3887.1191 3839.4961 C 3887.6503 3840.3474 3888.2682 3841.1165 3888.9746 3841.8027 C 3889.707 3842.4945 3890.4792 3843.1003 3891.293 3843.6191 C 3892.1068 3844.1379 3892.9622 3844.5701 3893.8574 3844.916 C 3894.7526 3845.2619 3895.6875 3845.5204 3896.6641 3845.6934 C 3897.6406 3845.8663 3898.6588 3845.9531 3899.7168 3845.9531 C 3901.7513 3845.9531 3903.5787 3845.6891 3905.2012 3845.1602 C 3906.8237 3844.6312 3908.2406 3843.8372 3909.4512 3842.7793 C 3910.6617 3841.7214 3911.6663 3840.3994 3912.4648 3838.8125 C 3913.2634 3837.2256 3913.8556 3835.3737 3914.2422 3833.2578 C 3915.1374 3829.2702 3915.7884 3826.5033 3916.1953 3824.957 C 3916.6836 3823.3294 3917.3346 3821.7435 3918.1484 3820.1973 C 3918.9622 3818.5697 3920.1829 3816.819 3921.8105 3814.9473 C 3923.5195 3812.9941 3925.7585 3810.7572 3928.5254 3808.2344 C 3938.5352 3799.2826 3945.4525 3792.9349 3949.2773 3789.1914 C 3951.2305 3787.279 3953.0407 3785.1919 3954.709 3782.9336 C 3956.3773 3780.6753 3957.9036 3778.2448 3959.2871 3775.6406 C 3959.9992 3774.3385 3960.6223 3772.9831 3961.1562 3771.5742 C 3961.6903 3770.1653 3962.1342 3768.7032 3962.4902 3767.1875 C 3962.8463 3765.6718 3963.115 3764.103 3963.293 3762.4805 C 3963.471 3760.858 3963.5586 3759.1825 3963.5586 3757.4531 C 3963.5586 3755.2559 3963.4039 3753.0983 3963.0938 3750.9824 C 3962.7834 3748.8665 3962.3178 3746.7923 3961.6973 3744.7578 C 3961.0767 3742.7233 3960.3019 3740.7285 3959.3711 3738.7754 C 3958.4403 3736.8223 3957.3543 3734.9108 3956.1133 3733.0391 C 3954.8926 3731.1673 3953.5426 3729.3941 3952.0625 3727.7207 C 3950.8284 3726.3254 3949.4986 3725.0035 3948.084 3723.7461 z M 3899.9883 3730.5039 C 3897.7503 3730.5039 3895.6597 3730.6449 3893.7168 3730.9297 C 3891.7738 3731.2145 3889.98 3731.6432 3888.332 3732.2129 C 3886.6841 3732.7826 3885.183 3733.4932 3883.8301 3734.3477 C 3882.4771 3735.2021 3881.2708 3736.2005 3880.2129 3737.3398 C 3879.155 3738.4588 3878.1387 3739.7111 3877.1621 3741.0996 C 3876.1856 3742.4882 3875.2487 3744.0118 3874.3535 3745.6699 C 3873.4583 3747.328 3872.6048 3749.1211 3871.791 3751.0488 C 3870.9772 3752.9765 3870.2031 3755.0391 3869.4707 3757.2363 C 3868.779 3759.5353 3867.9336 3761.5472 3866.9316 3763.2715 C 3865.9296 3764.9957 3864.7712 3766.4325 3863.459 3767.582 C 3862.1467 3768.7315 3860.6791 3769.5932 3859.0566 3770.168 C 3857.4341 3770.7427 3855.6574 3771.0313 3853.7246 3771.0312 C 3852.5853 3771.0312 3851.4884 3770.9308 3850.4355 3770.7324 C 3849.3827 3770.5341 3848.3727 3770.2366 3847.4062 3769.8398 C 3846.4399 3769.4431 3845.5186 3768.9467 3844.6387 3768.3516 C 3844.5495 3768.2913 3844.4653 3768.2186 3844.377 3768.1562 C 3844.895 3768.871 3845.4687 3769.5767 3846.127 3770.2695 C 3846.9204 3771.063 3847.7588 3771.7565 3848.6387 3772.3516 C 3849.5186 3772.9467 3850.44 3773.4431 3851.4062 3773.8398 C 3852.3726 3774.2366 3853.3827 3774.5341 3854.4355 3774.7324 C 3855.4884 3774.9308 3856.5853 3775.0313 3857.7246 3775.0312 C 3859.6574 3775.0312 3861.4341 3774.7427 3863.0566 3774.168 C 3864.6791 3773.5932 3866.1467 3772.7315 3867.459 3771.582 C 3868.7712 3770.4325 3869.9296 3768.9957 3870.9316 3767.2715 C 3871.9336 3765.5472 3872.779 3763.5353 3873.4707 3761.2363 C 3874.2031 3759.0391 3874.9772 3756.9765 3875.791 3755.0488 C 3876.6048 3753.1211 3877.4583 3751.328 3878.3535 3749.6699 C 3879.2487 3748.0118 3880.1856 3746.4882 3881.1621 3745.0996 C 3882.1387 3743.7111 3883.155 3742.4588 3884.2129 3741.3398 C 3885.2708 3740.2005 3886.4771 3739.2021 3887.8301 3738.3477 C 3889.183 3737.4932 3890.6841 3736.7826 3892.332 3736.2129 C 3893.98 3735.6432 3895.7738 3735.2145 3897.7168 3734.9297 C 3899.6597 3734.6449 3901.7503 3734.5039 3903.9883 3734.5039 C 3905.9007 3734.5039 3907.7246 3734.6421 3909.459 3734.9219 C 3911.1934 3735.2016 3912.8381 3735.6222 3914.3945 3736.1816 C 3915.9509 3736.7411 3917.4185 3737.4401 3918.7969 3738.2793 C 3919.6812 3738.8177 3920.5246 3739.4206 3921.3359 3740.0742 C 3920.5451 3739.0807 3919.6584 3738.1265 3918.666 3737.2168 C 3917.4656 3736.0978 3916.1753 3735.1185 3914.7969 3734.2793 C 3913.4185 3733.4401 3911.9509 3732.7411 3910.3945 3732.1816 C 3908.8381 3731.6222 3907.1934 3731.2016 3905.459 3730.9219 C 3903.7246 3730.6421 3901.9007 3730.5039 3899.9883 3730.5039 z "
         style="opacity:1;fill:#000000;fill-opacity:1;stroke:none;stroke-width:0;stroke-miterlimit:4;stroke-dasharray:none;stroke-opacity:1" />
      <text
         xml:space="preserve"
         style="font-style:normal;font-variant:normal;font-weight:normal;font-stretch:normal;font-size:65.21874905px;line-height:125%;font-family:'Arial Rounded MT Bold';-inkscape-font-specification:'Arial Rounded MT Bold, Normal';text-align:start;letter-spacing:0px;word-spacing:0px;writing-mode:lr;text-anchor:start;fill:#000000;fill-opacity:1;stroke:none;stroke-width:3;stroke-linecap:butt;stroke-linejoin:miter;stroke-miterlimit:4;stroke-dasharray:none;stroke-opacity:1;"
         x="3730.7361"
         y="563.47961"
         id="text6792"
         sodipodi:linespacing="125%"><tspan
           id="tspan6835"
           sodipodi:role="line">?</tspan></text>
      <text
         xml:space="preserve"
         style="font-style:normal;font-variant:normal;font-weight:normal;font-stretch:normal;font-size:65.21874905px;line-height:125%;font-family:'Arial Rounded MT Bold';-inkscape-font-specification:'Arial Rounded MT Bold, Normal';text-align:start;letter-spacing:0px;word-spacing:0px;writing-mode:lr;text-anchor:start;fill:#ffffff;fill-opacity:1;stroke:#000000;stroke-width:0.78262186;stroke-linecap:butt;stroke-linejoin:miter;stroke-miterlimit:4;stroke-dasharray:none;stroke-opacity:1;"
         x="3730.0012"
         y="562.5863"
         id="text6796"
         sodipodi:linespacing="125%"><tspan
           id="tspan6833"
           sodipodi:role="line">?</tspan></text>
      <text
         xml:space="preserve"
         style="font-style:normal;font-variant:normal;font-weight:normal;font-stretch:normal;font-size:65.21874905px;line-height:125%;font-family:'Arial Rounded MT Bold';-inkscape-font-specification:'Arial Rounded MT Bold, Normal';text-align:start;letter-spacing:0px;word-spacing:0px;writing-mode:lr;text-anchor:start;fill:#000000;fill-opacity:1;stroke:none;stroke-width:3;stroke-linecap:butt;stroke-linejoin:miter;stroke-miterlimit:4;stroke-dasharray:none;stroke-opacity:1;"
         x="-4051.6636"
         y="-956.12488"
         id="text6800"
         sodipodi:linespacing="125%"
         transform="scale(-1,-1)"><tspan
           id="tspan6837"
           sodipodi:role="line">?</tspan></text>
      <text
         xml:space="preserve"
         style="font-style:normal;font-variant:normal;font-weight:normal;font-stretch:normal;font-size:65.21874905px;line-height:125%;font-family:'Arial Rounded MT Bold';-inkscape-font-specification:'Arial Rounded MT Bold, Normal';text-align:start;letter-spacing:0px;word-spacing:0px;writing-mode:lr;text-anchor:start;fill:#ffffff;fill-opacity:1;stroke:#000000;stroke-width:0.78262186;stroke-linecap:butt;stroke-linejoin:miter;stroke-miterlimit:4;stroke-dasharray:none;stroke-opacity:1;"
         x="-4052.3987"
         y="-957.01819"
         id="text6804"
         sodipodi:linespacing="125%"
         transform="scale(-1,-1)"><tspan
           id="tspan6839"
           sodipodi:role="line">?</tspan></text>
      <path
         id="path7058"
         transform="translate(0,-3043.6379)"
         d="M 3911.834 3860.4707 C 3911.986 3860.677 3912.1531 3860.8768 3912.2949 3861.0879 C 3912.951 3862.0645 3913.4981 3863.0916 3913.9355 3864.1699 C 3914.373 3865.2482 3914.7012 3866.3766 3914.9199 3867.5566 C 3915.1386 3868.7367 3915.248 3869.9683 3915.248 3871.25 C 3915.248 3872.6742 3915.1332 3874.0214 3914.9043 3875.293 C 3914.6754 3876.5645 3914.3328 3877.7599 3913.875 3878.8789 C 3913.4172 3879.9979 3912.8449 3881.0414 3912.1582 3882.0078 C 3911.4716 3882.9742 3910.6694 3883.8639 3909.7539 3884.6777 C 3908.8384 3885.4915 3907.8871 3886.2041 3906.9004 3886.8145 C 3905.9137 3887.4248 3904.8919 3887.9329 3903.834 3888.3398 C 3902.776 3888.7467 3901.6819 3889.0524 3900.5527 3889.2559 C 3899.4236 3889.4593 3898.259 3889.5605 3897.0586 3889.5605 C 3895.8175 3889.5605 3894.6159 3889.462 3893.4512 3889.2637 C 3892.2864 3889.0653 3891.1588 3888.7678 3890.0703 3888.3711 C 3888.9819 3887.9744 3887.9321 3887.4779 3886.9199 3886.8828 C 3886.4304 3886.595 3885.9502 3886.2813 3885.4785 3885.9473 C 3885.5178 3886.0045 3885.5537 3886.0644 3885.5938 3886.1211 C 3886.2803 3887.0926 3887.0825 3887.987 3887.998 3888.8008 C 3888.9339 3889.5942 3889.9078 3890.2877 3890.9199 3890.8828 C 3891.9321 3891.4779 3892.9819 3891.9744 3894.0703 3892.3711 C 3895.1588 3892.7678 3896.2864 3893.0653 3897.4512 3893.2637 C 3898.6159 3893.462 3899.8175 3893.5605 3901.0586 3893.5605 C 3902.259 3893.5605 3903.4236 3893.4593 3904.5527 3893.2559 C 3905.6819 3893.0524 3906.776 3892.7467 3907.834 3892.3398 C 3908.8919 3891.9329 3909.9137 3891.4248 3910.9004 3890.8145 C 3911.8871 3890.2041 3912.8384 3889.4915 3913.7539 3888.6777 C 3914.6694 3887.8639 3915.4716 3886.9742 3916.1582 3886.0078 C 3916.8449 3885.0414 3917.4172 3883.9979 3917.875 3882.8789 C 3918.3328 3881.7599 3918.6754 3880.5645 3918.9043 3879.293 C 3919.1332 3878.0214 3919.248 3876.6742 3919.248 3875.25 C 3919.248 3873.9683 3919.1386 3872.7367 3918.9199 3871.5566 C 3918.7012 3870.3766 3918.373 3869.2482 3917.9355 3868.1699 C 3917.4981 3867.0916 3916.951 3866.0645 3916.2949 3865.0879 C 3915.6388 3864.1113 3914.8729 3863.1854 3913.998 3862.3105 C 3913.3108 3861.6233 3912.5836 3861.0231 3911.834 3860.4707 z "
         style="opacity:1;fill:#000000;fill-opacity:1;stroke:none;stroke-width:0;stroke-miterlimit:4;stroke-dasharray:none;stroke-opacity:1" />
    </g>
    <g
       id="g5123"
       transform="translate(409.60001,0)">
      <rect
         style="opacity:1;fill:#ffffff;fill-opacity:1;stroke:none;stroke-width:0;stroke-miterlimit:4;stroke-dasharray:none;stroke-opacity:1"
         id="rect5125"
         width="409.60001"
         height="585.12"
         x="0"
         y="-3043.478"
         ry="25.600006"
         rx="25.600006" />
      <rect
         style="opacity:1;fill:#ffcc00;fill-opacity:1;stroke:none;stroke-width:0;stroke-miterlimit:4;stroke-dasharray:none;stroke-opacity:1"
         id="rect5127"
         width="358.39999"
         height="511.98004"
         x="25.6"
         y="-3006.908"
         rx="25.6"
         ry="25.6" />
      <ellipse
         style="opacity:1;fill:#ffffff;fill-opacity:1;stroke:none;stroke-width:0;stroke-miterlimit:4;stroke-dasharray:none;stroke-opacity:1"
         id="ellipse5129"
         transform="matrix(0.70710678,0.70710678,-0.70710678,0.70710678,0,0)"
         cy="-2090.0083"
         cx="-1800.3772"
         rx="142.22751"
         ry="230.149" />
      <text
         xml:space="preserve"
         style="font-style:normal;font-variant:normal;font-weight:normal;font-stretch:normal;font-size:250px;line-height:125%;font-family:'Britannic Bold';-inkscape-font-specification:'Britannic Bold, Normal';text-align:start;letter-spacing:0px;word-spacing:0px;writing-mode:lr-tb;text-anchor:start;fill:#000000;fill-opacity:1;stroke:none;stroke-width:3;stroke-linecap:butt;stroke-linejoin:miter;stroke-miterlimit:4;stroke-dasharray:none;stroke-opacity:1"
         x="142.92033"
         y="-2664.1807"
         id="text5131"
         sodipodi:linespacing="125%"><tspan
           sodipodi:role="line"
           id="tspan5133"
           x="142.92033"
           y="-2664.1807">0</tspan></text>
      <text
         xml:space="preserve"
         style="font-style:normal;font-variant:normal;font-weight:normal;font-stretch:normal;font-size:250px;line-height:125%;font-family:'Britannic Bold';-inkscape-font-specification:'Britannic Bold, Normal';text-align:start;letter-spacing:0px;word-spacing:0px;writing-mode:lr-tb;text-anchor:start;fill:#ffcc00;fill-opacity:1;stroke:#000000;stroke-width:3;stroke-linecap:butt;stroke-linejoin:miter;stroke-miterlimit:4;stroke-dasharray:none;stroke-opacity:1;"
         x="140.10284"
         y="-2667.605"
         id="text5135"
         sodipodi:linespacing="125%"><tspan
           sodipodi:role="line"
           id="tspan5137"
           x="140.10284"
           y="-2667.605">0</tspan></text>
      <text
         xml:space="preserve"
         style="font-style:normal;font-variant:normal;font-weight:normal;font-stretch:normal;font-size:65.21875px;line-height:125%;font-family:'Britannic Bold';-inkscape-font-specification:'Britannic Bold, Normal';text-align:start;letter-spacing:0px;word-spacing:0px;writing-mode:lr-tb;text-anchor:start;fill:#000000;fill-opacity:1;stroke:none;stroke-width:3;stroke-linecap:butt;stroke-linejoin:miter;stroke-miterlimit:4;stroke-dasharray:none;stroke-opacity:1"
         x="44.336266"
         y="-2947.2405"
         id="text5139"
         sodipodi:linespacing="125%"><tspan
           sodipodi:role="line"
           id="tspan5141"
           x="44.336266"
           y="-2947.2405">0</tspan></text>
      <text
         xml:space="preserve"
         style="font-style:normal;font-variant:normal;font-weight:normal;font-stretch:normal;font-size:65.21875px;line-height:125%;font-family:'Britannic Bold';-inkscape-font-specification:'Britannic Bold, Normal';text-align:start;letter-spacing:0px;word-spacing:0px;writing-mode:lr-tb;text-anchor:start;fill:#ffffff;fill-opacity:1;stroke:#000000;stroke-width:0.78262186;stroke-linecap:butt;stroke-linejoin:miter;stroke-miterlimit:4;stroke-dasharray:none;stroke-opacity:1"
         x="43.601254"
         y="-2948.1338"
         id="text5143"
         sodipodi:linespacing="125%"><tspan
           sodipodi:role="line"
           id="tspan5145"
           x="43.601254"
           y="-2948.1338">0</tspan></text>
      <text
         xml:space="preserve"
         style="font-style:normal;font-variant:normal;font-weight:normal;font-stretch:normal;font-size:65.21875px;line-height:125%;font-family:'Britannic Bold';-inkscape-font-specification:'Britannic Bold, Normal';text-align:start;letter-spacing:0px;word-spacing:0px;writing-mode:lr-tb;text-anchor:start;fill:#000000;fill-opacity:1;stroke:none;stroke-width:3;stroke-linecap:butt;stroke-linejoin:miter;stroke-miterlimit:4;stroke-dasharray:none;stroke-opacity:1"
         x="-365.26373"
         y="2554.5952"
         id="text5147"
         sodipodi:linespacing="125%"
         transform="scale(-1,-1)"><tspan
           sodipodi:role="line"
           id="tspan5149"
           x="-365.26373"
           y="2554.5952">0</tspan></text>
      <text
         xml:space="preserve"
         style="font-style:normal;font-variant:normal;font-weight:normal;font-stretch:normal;font-size:65.21875px;line-height:125%;font-family:'Britannic Bold';-inkscape-font-specification:'Britannic Bold, Normal';text-align:start;letter-spacing:0px;word-spacing:0px;writing-mode:lr-tb;text-anchor:start;fill:#ffffff;fill-opacity:1;stroke:#000000;stroke-width:0.78262186;stroke-linecap:butt;stroke-linejoin:miter;stroke-miterlimit:4;stroke-dasharray:none;stroke-opacity:1"
         x="-365.99872"
         y="2553.7019"
         id="text5151"
         sodipodi:linespacing="125%"
         transform="scale(-1,-1)"><tspan
           sodipodi:role="line"
           id="tspan5153"
           x="-365.99872"
           y="2553.7019">0</tspan></text>
    </g>
    <g
       transform="translate(819.20002,0)"
       id="g5155">
      <rect
         rx="25.600006"
         ry="25.600006"
         y="-3043.478"
         x="0"
         height="585.12"
         width="409.60001"
         id="rect5157"
         style="opacity:1;fill:#ffffff;fill-opacity:1;stroke:none;stroke-width:0;stroke-miterlimit:4;stroke-dasharray:none;stroke-opacity:1" />
      <rect
         ry="25.6"
         rx="25.6"
         y="-3006.908"
         x="25.6"
         height="511.98004"
         width="358.39999"
         id="rect5159"
         style="opacity:1;fill:#2a7fff;fill-opacity:1;stroke:none;stroke-width:0;stroke-miterlimit:4;stroke-dasharray:none;stroke-opacity:1" />
      <ellipse
         ry="230.149"
         rx="142.22751"
         cx="-1800.3772"
         cy="-2090.0083"
         transform="matrix(0.70710678,0.70710678,-0.70710678,0.70710678,0,0)"
         id="ellipse5161"
         style="opacity:1;fill:#ffffff;fill-opacity:1;stroke:none;stroke-width:0;stroke-miterlimit:4;stroke-dasharray:none;stroke-opacity:1" />
      <text
         sodipodi:linespacing="125%"
         id="text5163"
         y="-2664.1807"
         x="142.92033"
         style="font-style:normal;font-variant:normal;font-weight:normal;font-stretch:normal;font-size:250px;line-height:125%;font-family:'Britannic Bold';-inkscape-font-specification:'Britannic Bold, Normal';text-align:start;letter-spacing:0px;word-spacing:0px;writing-mode:lr-tb;text-anchor:start;fill:#000000;fill-opacity:1;stroke:none;stroke-width:3;stroke-linecap:butt;stroke-linejoin:miter;stroke-miterlimit:4;stroke-dasharray:none;stroke-opacity:1"
         xml:space="preserve"><tspan
           y="-2664.1807"
           x="142.92033"
           id="tspan5165"
           sodipodi:role="line">0</tspan></text>
      <text
         sodipodi:linespacing="125%"
         id="text5167"
         y="-2667.605"
         x="140.10284"
         style="font-style:normal;font-variant:normal;font-weight:normal;font-stretch:normal;font-size:250px;line-height:125%;font-family:'Britannic Bold';-inkscape-font-specification:'Britannic Bold, Normal';text-align:start;letter-spacing:0px;word-spacing:0px;writing-mode:lr-tb;text-anchor:start;fill:#2a7fff;fill-opacity:1;stroke:#000000;stroke-width:3;stroke-linecap:butt;stroke-linejoin:miter;stroke-miterlimit:4;stroke-dasharray:none;stroke-opacity:1;"
         xml:space="preserve"><tspan
           y="-2667.605"
           x="140.10284"
           id="tspan5169"
           sodipodi:role="line">0</tspan></text>
      <text
         sodipodi:linespacing="125%"
         id="text5171"
         y="-2947.2405"
         x="44.336266"
         style="font-style:normal;font-variant:normal;font-weight:normal;font-stretch:normal;font-size:65.21875px;line-height:125%;font-family:'Britannic Bold';-inkscape-font-specification:'Britannic Bold, Normal';text-align:start;letter-spacing:0px;word-spacing:0px;writing-mode:lr-tb;text-anchor:start;fill:#000000;fill-opacity:1;stroke:none;stroke-width:3;stroke-linecap:butt;stroke-linejoin:miter;stroke-miterlimit:4;stroke-dasharray:none;stroke-opacity:1"
         xml:space="preserve"><tspan
           y="-2947.2405"
           x="44.336266"
           id="tspan5173"
           sodipodi:role="line">0</tspan></text>
      <text
         sodipodi:linespacing="125%"
         id="text5175"
         y="-2948.1338"
         x="43.601254"
         style="font-style:normal;font-variant:normal;font-weight:normal;font-stretch:normal;font-size:65.21875px;line-height:125%;font-family:'Britannic Bold';-inkscape-font-specification:'Britannic Bold, Normal';text-align:start;letter-spacing:0px;word-spacing:0px;writing-mode:lr-tb;text-anchor:start;fill:#ffffff;fill-opacity:1;stroke:#000000;stroke-width:0.78262186;stroke-linecap:butt;stroke-linejoin:miter;stroke-miterlimit:4;stroke-dasharray:none;stroke-opacity:1"
         xml:space="preserve"><tspan
           y="-2948.1338"
           x="43.601254"
           id="tspan5177"
           sodipodi:role="line">0</tspan></text>
      <text
         transform="scale(-1,-1)"
         sodipodi:linespacing="125%"
         id="text5179"
         y="2554.5952"
         x="-365.26373"
         style="font-style:normal;font-variant:normal;font-weight:normal;font-stretch:normal;font-size:65.21875px;line-height:125%;font-family:'Britannic Bold';-inkscape-font-specification:'Britannic Bold, Normal';text-align:start;letter-spacing:0px;word-spacing:0px;writing-mode:lr-tb;text-anchor:start;fill:#000000;fill-opacity:1;stroke:none;stroke-width:3;stroke-linecap:butt;stroke-linejoin:miter;stroke-miterlimit:4;stroke-dasharray:none;stroke-opacity:1"
         xml:space="preserve"><tspan
           y="2554.5952"
           x="-365.26373"
           id="tspan5181"
           sodipodi:role="line">0</tspan></text>
      <text
         transform="scale(-1,-1)"
         sodipodi:linespacing="125%"
         id="text5183"
         y="2553.7019"
         x="-365.99872"
         style="font-style:normal;font-variant:normal;font-weight:normal;font-stretch:normal;font-size:65.21875px;line-height:125%;font-family:'Britannic Bold';-inkscape-font-specification:'Britannic Bold, Normal';text-align:start;letter-spacing:0px;word-spacing:0px;writing-mode:lr-tb;text-anchor:start;fill:#ffffff;fill-opacity:1;stroke:#000000;stroke-width:0.78262186;stroke-linecap:butt;stroke-linejoin:miter;stroke-miterlimit:4;stroke-dasharray:none;stroke-opacity:1"
         xml:space="preserve"><tspan
           y="2553.7019"
           x="-365.99872"
           id="tspan5185"
           sodipodi:role="line">0</tspan></text>
    </g>
    <g
       id="g5187"
       transform="translate(1228.8,0)">
      <rect
         style="opacity:1;fill:#ffffff;fill-opacity:1;stroke:none;stroke-width:0;stroke-miterlimit:4;stroke-dasharray:none;stroke-opacity:1"
         id="rect5189"
         width="409.60001"
         height="585.12"
         x="0"
         y="-3043.478"
         ry="25.600006"
         rx="25.600006" />
      <rect
         style="opacity:1;fill:#2ca05a;fill-opacity:1;stroke:none;stroke-width:0;stroke-miterlimit:4;stroke-dasharray:none;stroke-opacity:1"
         id="rect5191"
         width="358.39999"
         height="511.98004"
         x="25.6"
         y="-3006.908"
         rx="25.6"
         ry="25.6" />
      <ellipse
         style="opacity:1;fill:#ffffff;fill-opacity:1;stroke:none;stroke-width:0;stroke-miterlimit:4;stroke-dasharray:none;stroke-opacity:1"
         id="ellipse5193"
         transform="matrix(0.70710678,0.70710678,-0.70710678,0.70710678,0,0)"
         cy="-2090.0083"
         cx="-1800.3772"
         rx="142.22751"
         ry="230.149" />
      <text
         xml:space="preserve"
         style="font-style:normal;font-variant:normal;font-weight:normal;font-stretch:normal;font-size:250px;line-height:125%;font-family:'Britannic Bold';-inkscape-font-specification:'Britannic Bold, Normal';text-align:start;letter-spacing:0px;word-spacing:0px;writing-mode:lr-tb;text-anchor:start;fill:#000000;fill-opacity:1;stroke:none;stroke-width:3;stroke-linecap:butt;stroke-linejoin:miter;stroke-miterlimit:4;stroke-dasharray:none;stroke-opacity:1"
         x="142.92033"
         y="-2664.1807"
         id="text5195"
         sodipodi:linespacing="125%"><tspan
           sodipodi:role="line"
           id="tspan5197"
           x="142.92033"
           y="-2664.1807">0</tspan></text>
      <text
         xml:space="preserve"
         style="font-style:normal;font-variant:normal;font-weight:normal;font-stretch:normal;font-size:250px;line-height:125%;font-family:'Britannic Bold';-inkscape-font-specification:'Britannic Bold, Normal';text-align:start;letter-spacing:0px;word-spacing:0px;writing-mode:lr-tb;text-anchor:start;fill:#2ca05a;fill-opacity:1;stroke:#000000;stroke-width:3;stroke-linecap:butt;stroke-linejoin:miter;stroke-miterlimit:4;stroke-dasharray:none;stroke-opacity:1;"
         x="140.10284"
         y="-2667.605"
         id="text5199"
         sodipodi:linespacing="125%"><tspan
           sodipodi:role="line"
           id="tspan5201"
           x="140.10284"
           y="-2667.605">0</tspan></text>
      <text
         xml:space="preserve"
         style="font-style:normal;font-variant:normal;font-weight:normal;font-stretch:normal;font-size:65.21875px;line-height:125%;font-family:'Britannic Bold';-inkscape-font-specification:'Britannic Bold, Normal';text-align:start;letter-spacing:0px;word-spacing:0px;writing-mode:lr-tb;text-anchor:start;fill:#000000;fill-opacity:1;stroke:none;stroke-width:3;stroke-linecap:butt;stroke-linejoin:miter;stroke-miterlimit:4;stroke-dasharray:none;stroke-opacity:1"
         x="44.336266"
         y="-2947.2405"
         id="text5203"
         sodipodi:linespacing="125%"><tspan
           sodipodi:role="line"
           id="tspan5205"
           x="44.336266"
           y="-2947.2405">0</tspan></text>
      <text
         xml:space="preserve"
         style="font-style:normal;font-variant:normal;font-weight:normal;font-stretch:normal;font-size:65.21875px;line-height:125%;font-family:'Britannic Bold';-inkscape-font-specification:'Britannic Bold, Normal';text-align:start;letter-spacing:0px;word-spacing:0px;writing-mode:lr-tb;text-anchor:start;fill:#ffffff;fill-opacity:1;stroke:#000000;stroke-width:0.78262186;stroke-linecap:butt;stroke-linejoin:miter;stroke-miterlimit:4;stroke-dasharray:none;stroke-opacity:1"
         x="43.601254"
         y="-2948.1338"
         id="text5207"
         sodipodi:linespacing="125%"><tspan
           sodipodi:role="line"
           id="tspan5209"
           x="43.601254"
           y="-2948.1338">0</tspan></text>
      <text
         xml:space="preserve"
         style="font-style:normal;font-variant:normal;font-weight:normal;font-stretch:normal;font-size:65.21875px;line-height:125%;font-family:'Britannic Bold';-inkscape-font-specification:'Britannic Bold, Normal';text-align:start;letter-spacing:0px;word-spacing:0px;writing-mode:lr-tb;text-anchor:start;fill:#000000;fill-opacity:1;stroke:none;stroke-width:3;stroke-linecap:butt;stroke-linejoin:miter;stroke-miterlimit:4;stroke-dasharray:none;stroke-opacity:1"
         x="-365.26373"
         y="2554.5952"
         id="text5211"
         sodipodi:linespacing="125%"
         transform="scale(-1,-1)"><tspan
           sodipodi:role="line"
           id="tspan5213"
           x="-365.26373"
           y="2554.5952">0</tspan></text>
      <text
         xml:space="preserve"
         style="font-style:normal;font-variant:normal;font-weight:normal;font-stretch:normal;font-size:65.21875px;line-height:125%;font-family:'Britannic Bold';-inkscape-font-specification:'Britannic Bold, Normal';text-align:start;letter-spacing:0px;word-spacing:0px;writing-mode:lr-tb;text-anchor:start;fill:#ffffff;fill-opacity:1;stroke:#000000;stroke-width:0.78262186;stroke-linecap:butt;stroke-linejoin:miter;stroke-miterlimit:4;stroke-dasharray:none;stroke-opacity:1"
         x="-365.99872"
         y="2553.7019"
         id="text5215"
         sodipodi:linespacing="125%"
         transform="scale(-1,-1)"><tspan
           sodipodi:role="line"
           id="tspan5217"
           x="-365.99872"
           y="2553.7019">0</tspan></text>
    </g>
  </g>
</svg>
