<?xml version="1.0" encoding="UTF-8" standalone="no"?>
<svg
   xmlns:dc="http://purl.org/dc/elements/1.1/"
   xmlns:cc="http://creativecommons.org/ns#"
   xmlns:rdf="http://www.w3.org/1999/02/22-rdf-syntax-ns#"
   xmlns:svg="http://www.w3.org/2000/svg"
   xmlns="http://www.w3.org/2000/svg"
   xmlns:sodipodi="http://sodipodi.sourceforge.net/DTD/sodipodi-0.dtd"
   xmlns:inkscape="http://www.inkscape.org/namespaces/inkscape"
   width="2861.0117"
   height="2566.1736"
   id="svg2"
   version="1.1"
   inkscape:version="0.48.2 r9819"
   sodipodi:docname="hexhex4.svg">
  <sodipodi:namedview
     pagecolor="#ffffff"
     bordercolor="#666666"
     borderopacity="1"
     objecttolerance="10"
     gridtolerance="10"
     guidetolerance="10"
     inkscape:pageopacity="0"
     inkscape:pageshadow="2"
     inkscape:window-width="1366"
     inkscape:window-height="720"
     id="namedview89"
     showgrid="false"
     inkscape:zoom="0.18393144"
     inkscape:cx="1430.5059"
     inkscape:cy="1283.0868"
     inkscape:window-x="0"
     inkscape:window-y="0"
     inkscape:window-maximized="1"
     inkscape:current-layer="layer1" />
  <title
     id="title4">honeycomb</title>
  <defs
     id="defs6">
    <filter
       height="1.31"
       width="1.49"
       y="-0.15"
       x="-0.21"
       color-interpolation-filters="sRGB"
       id="filter4124">
      <feGaussianBlur
         stdDeviation="17.172463"
         id="feGaussianBlur4126" />
    </filter>
  </defs>
  <metadata
     id="metadata7">image/svg+xml<rdf:RDF>
  <cc:Work
     rdf:about="">
    <dc:format>image/svg+xml</dc:format>
    <dc:type
       rdf:resource="http://purl.org/dc/dcmitype/StillImage" />
    <dc:title>honeycomb</dc:title>
  </cc:Work>
</rdf:RDF>
</metadata>
  <g
     id="layer1">
    <path
       stroke-miterlimit="4"
       d="m 426.8447,708.44891 0,-229.85556 199.06045,-114.92715 199.06049,114.92715 0,229.85556 L 625.90515,823.37573 426.8447,708.44891 z"
       id="path4595"
       inkscape:connector-curvature="0"
       style="opacity:0.98999999;fill:#ff7f00;stroke:#000000;stroke-width:20;stroke-miterlimit:4" />
    <path
       d="m 761.50147,596.53143 c 0,82.20502 -62.49836,148.84546 -139.59394,148.84546 -77.09564,0 -139.59399,-66.64044 -139.59399,-148.84546 0,-82.20507 62.49835,-148.84546 139.59399,-148.84546 77.09558,0 139.59394,66.64039 139.59394,148.84546 z"
       id="path4597"
       inkscape:connector-curvature="0"
       style="opacity:0.98999999;fill:#ff7f00;filter:url(#filter4124)" />
    <g
       id="use4703"
       style="fill:#ff7f00;stroke:#0000e8">
      <path
         stroke-miterlimit="4"
         d="m 426.8447,708.44891 0,-229.85556 199.06045,-114.92715 199.06049,114.92715 0,229.85556 L 625.90515,823.37573 426.8447,708.44891 z"
         id="path3142"
         inkscape:connector-curvature="0"
         style="opacity:0.98999999;fill:#ff7f00;stroke:#000000;stroke-width:20;stroke-miterlimit:4" />
      <path
         d="m 761.50147,596.53143 c 0,82.20502 -62.49836,148.84546 -139.59394,148.84546 -77.09564,0 -139.59399,-66.64044 -139.59399,-148.84546 0,-82.20507 62.49835,-148.84546 139.59399,-148.84546 77.09558,0 139.59394,66.64039 139.59394,148.84546 z"
         id="path3144"
         inkscape:connector-curvature="0"
         style="opacity:0.98999999;fill:#ff7f00;filter:url(#filter4124)" />
    </g>
    <g
       id="use4705"
       style="fill:#ff7f00;stroke:#0000e8"
       transform="translate(199.05975,344.78296)">
      <path
         stroke-miterlimit="4"
         d="m 426.8447,708.44891 0,-229.85556 199.06045,-114.92715 199.06049,114.92715 0,229.85556 L 625.90515,823.37573 426.8447,708.44891 z"
         id="path3148"
         inkscape:connector-curvature="0"
         style="opacity:0.98999999;fill:#ff7f00;stroke:#000000;stroke-width:20;stroke-miterlimit:4" />
      <path
         d="m 761.50147,596.53143 c 0,82.20502 -62.49836,148.84546 -139.59394,148.84546 -77.09564,0 -139.59399,-66.64044 -139.59399,-148.84546 0,-82.20507 62.49835,-148.84546 139.59399,-148.84546 77.09558,0 139.59394,66.64039 139.59394,148.84546 z"
         id="path3150"
         inkscape:connector-curvature="0"
         style="opacity:0.98999999;fill:#ff7f00;filter:url(#filter4124)" />
    </g>
    <path
       stroke-miterlimit="4"
       id="path4721"
       d="m 824.96509,708.44891 0,-229.85556 199.06041,-114.92715 199.0606,114.92715 0,229.85556 -199.0606,114.92682 -199.06041,-114.92682 z"
       inkscape:connector-curvature="0"
       style="opacity:0.98999999;fill:#ff7f00;stroke:#000000;stroke-width:20;stroke-miterlimit:4" />
    <path
       id="path4723"
       d="m 1159.6219,596.53143 c 0,82.20502 -62.4984,148.84546 -139.5939,148.84546 -77.09569,0 -139.59404,-66.64044 -139.59404,-148.84546 0,-82.20507 62.49835,-148.84546 139.59404,-148.84546 77.0955,0 139.5939,66.64039 139.5939,148.84546 z"
       inkscape:connector-curvature="0"
       style="opacity:0.98999999;fill:#ff7f00;filter:url(#filter4124)" />
    <g
       id="use4725"
       style="fill:#ff7f00;stroke:#0000e8"
       transform="translate(398.121,1.8999999e-5)">
      <path
         stroke-miterlimit="4"
         d="m 426.8447,708.44891 0,-229.85556 199.06045,-114.92715 199.06049,114.92715 0,229.85556 L 625.90515,823.37573 426.8447,708.44891 z"
         id="path3154"
         inkscape:connector-curvature="0"
         style="opacity:0.98999999;fill:#ff7f00;stroke:#000000;stroke-width:20;stroke-miterlimit:4" />
      <path
         d="m 761.50147,596.53143 c 0,82.20502 -62.49836,148.84546 -139.59394,148.84546 -77.09564,0 -139.59399,-66.64044 -139.59399,-148.84546 0,-82.20507 62.49835,-148.84546 139.59399,-148.84546 77.09558,0 139.59394,66.64039 139.59394,148.84546 z"
         id="path3156"
         inkscape:connector-curvature="0"
         style="opacity:0.98999999;fill:#ff7f00;filter:url(#filter4124)" />
    </g>
    <g
       id="use4727"
       style="fill:#ff7f00;stroke:#0000e8"
       transform="translate(597.18103,344.78296)">
      <path
         stroke-miterlimit="4"
         d="m 426.8447,708.44891 0,-229.85556 199.06045,-114.92715 199.06049,114.92715 0,229.85556 L 625.90515,823.37573 426.8447,708.44891 z"
         id="path3160"
         inkscape:connector-curvature="0"
         style="opacity:0.98999999;fill:#ff7f00;stroke:#000000;stroke-width:20;stroke-miterlimit:4" />
      <path
         d="m 761.50147,596.53143 c 0,82.20502 -62.49836,148.84546 -139.59394,148.84546 -77.09564,0 -139.59399,-66.64044 -139.59399,-148.84546 0,-82.20507 62.49835,-148.84546 139.59399,-148.84546 77.09558,0 139.59394,66.64039 139.59394,148.84546 z"
         id="path3162"
         inkscape:connector-curvature="0"
         style="opacity:0.98999999;fill:#ff7f00;filter:url(#filter4124)" />
    </g>
    <g
       id="use4729"
       style="fill:#ff7f00;stroke:#0000e8"
       transform="translate(-3.9999999e-5,689.565)">
      <path
         stroke-miterlimit="4"
         d="m 426.8447,708.44891 0,-229.85556 199.06045,-114.92715 199.06049,114.92715 0,229.85556 L 625.90515,823.37573 426.8447,708.44891 z"
         id="path3166"
         inkscape:connector-curvature="0"
         style="opacity:0.98999999;fill:#ff7f00;stroke:#000000;stroke-width:20;stroke-miterlimit:4" />
      <path
         d="m 761.50147,596.53143 c 0,82.20502 -62.49836,148.84546 -139.59394,148.84546 -77.09564,0 -139.59399,-66.64044 -139.59399,-148.84546 0,-82.20507 62.49835,-148.84546 139.59399,-148.84546 77.09558,0 139.59394,66.64039 139.59394,148.84546 z"
         id="path3168"
         inkscape:connector-curvature="0"
         style="opacity:0.98999999;fill:#ff7f00;filter:url(#filter4124)" />
    </g>
    <g
       id="use4731"
       style="fill:#ff7f00;stroke:#0000e8"
       transform="translate(398.121,689.565)">
      <path
         stroke-miterlimit="4"
         d="m 426.8447,708.44891 0,-229.85556 199.06045,-114.92715 199.06049,114.92715 0,229.85556 L 625.90515,823.37573 426.8447,708.44891 z"
         id="path3172"
         inkscape:connector-curvature="0"
         style="opacity:0.98999999;fill:#ff7f00;stroke:#000000;stroke-width:20;stroke-miterlimit:4" />
      <path
         d="m 761.50147,596.53143 c 0,82.20502 -62.49836,148.84546 -139.59394,148.84546 -77.09564,0 -139.59399,-66.64044 -139.59399,-148.84546 0,-82.20507 62.49835,-148.84546 139.59399,-148.84546 77.09558,0 139.59394,66.64039 139.59394,148.84546 z"
         id="path3174"
         inkscape:connector-curvature="0"
         style="opacity:0.98999999;fill:#ff7f00;filter:url(#filter4124)" />
    </g>
    <path
       stroke-miterlimit="4"
       id="path4735"
       d="m 1223.0857,708.44891 0,-229.85556 199.0605,-114.92715 199.0605,114.92715 0,229.85556 -199.0605,114.92682 -199.0605,-114.92682 z"
       inkscape:connector-curvature="0"
       style="opacity:0.98999999;fill:#ff7f00;stroke:#000000;stroke-width:20;stroke-miterlimit:4" />
    <path
       id="path4737"
       d="m 1557.7426,596.53143 c 0,82.20502 -62.4983,148.84546 -139.594,148.84546 -77.0956,0 -139.594,-66.64044 -139.594,-148.84546 0,-82.20507 62.4984,-148.84546 139.594,-148.84546 77.0957,0 139.594,66.64039 139.594,148.84546 z"
       inkscape:connector-curvature="0"
       style="opacity:0.98999999;fill:#ff7f00;filter:url(#filter4124)" />
    <g
       id="use4739"
       style="fill:#ff7f00;stroke:#0000e8"
       transform="translate(796.24115,3.7999998e-5)">
      <path
         stroke-miterlimit="4"
         d="m 426.8447,708.44891 0,-229.85556 199.06045,-114.92715 199.06049,114.92715 0,229.85556 L 625.90515,823.37573 426.8447,708.44891 z"
         id="path3178"
         inkscape:connector-curvature="0"
         style="opacity:0.98999999;fill:#ff7f00;stroke:#000000;stroke-width:20;stroke-miterlimit:4" />
      <path
         d="m 761.50147,596.53143 c 0,82.20502 -62.49836,148.84546 -139.59394,148.84546 -77.09564,0 -139.59399,-66.64044 -139.59399,-148.84546 0,-82.20507 62.49835,-148.84546 139.59399,-148.84546 77.09558,0 139.59394,66.64039 139.59394,148.84546 z"
         id="path3180"
         inkscape:connector-curvature="0"
         style="opacity:0.98999999;fill:#ff7f00;filter:url(#filter4124)" />
    </g>
    <g
       id="use4741"
       style="fill:#ff7f00;stroke:#0000e8"
       transform="translate(995.3009,344.78296)">
      <path
         stroke-miterlimit="4"
         d="m 426.8447,708.44891 0,-229.85556 199.06045,-114.92715 199.06049,114.92715 0,229.85556 L 625.90515,823.37573 426.8447,708.44891 z"
         id="path3184"
         inkscape:connector-curvature="0"
         style="opacity:0.98999999;fill:#ff7f00;stroke:#000000;stroke-width:20;stroke-miterlimit:4" />
      <path
         d="m 761.50147,596.53143 c 0,82.20502 -62.49836,148.84546 -139.59394,148.84546 -77.09564,0 -139.59399,-66.64044 -139.59399,-148.84546 0,-82.20507 62.49835,-148.84546 139.59399,-148.84546 77.09558,0 139.59394,66.64039 139.59394,148.84546 z"
         id="path3186"
         inkscape:connector-curvature="0"
         style="opacity:0.98999999;fill:#ff7f00;filter:url(#filter4124)" />
    </g>
    <path
       stroke-miterlimit="4"
       d="m 1621.2067,708.44891 0,-229.85556 199.0604,-114.92715 199.0605,114.92715 0,229.85556 -199.0605,114.92682 -199.0604,-114.92682 z"
       id="path4745"
       inkscape:connector-curvature="0"
       style="opacity:0.98999999;fill:#ff7f00;stroke:#000000;stroke-width:20;stroke-miterlimit:4" />
    <path
       d="m 1955.8635,596.53143 c 0,82.20502 -62.4984,148.84546 -139.5941,148.84546 -77.0955,0 -139.5939,-66.64044 -139.5939,-148.84546 0,-82.20507 62.4985,-148.84546 139.5939,-148.84546 77.0957,0 139.5941,66.64039 139.5941,148.84546 z"
       id="path4747"
       inkscape:connector-curvature="0"
       style="opacity:0.98999999;fill:#ff7f00;filter:url(#filter4124)" />
    <g
       id="use4749"
       style="fill:#ff7f00;stroke:#0000e8"
       transform="translate(1194.36,5.7000001e-5)">
      <path
         stroke-miterlimit="4"
         d="m 426.8447,708.44891 0,-229.85556 199.06045,-114.92715 199.06049,114.92715 0,229.85556 L 625.90515,823.37573 426.8447,708.44891 z"
         id="path3190"
         inkscape:connector-curvature="0"
         style="opacity:0.98999999;fill:#ff7f00;stroke:#000000;stroke-width:20;stroke-miterlimit:4" />
      <path
         d="m 761.50147,596.53143 c 0,82.20502 -62.49836,148.84546 -139.59394,148.84546 -77.09564,0 -139.59399,-66.64044 -139.59399,-148.84546 0,-82.20507 62.49835,-148.84546 139.59399,-148.84546 77.09558,0 139.59394,66.64039 139.59394,148.84546 z"
         id="path3192"
         inkscape:connector-curvature="0"
         style="opacity:0.98999999;fill:#ff7f00;filter:url(#filter4124)" />
    </g>
    <g
       id="use4751"
       style="fill:#ff7f00;stroke:#0000e8"
       transform="translate(1393.42,344.78296)">
      <path
         stroke-miterlimit="4"
         d="m 426.8447,708.44891 0,-229.85556 199.06045,-114.92715 199.06049,114.92715 0,229.85556 L 625.90515,823.37573 426.8447,708.44891 z"
         id="path3196"
         inkscape:connector-curvature="0"
         style="opacity:0.98999999;fill:#ff7f00;stroke:#000000;stroke-width:20;stroke-miterlimit:4" />
      <path
         d="m 761.50147,596.53143 c 0,82.20502 -62.49836,148.84546 -139.59394,148.84546 -77.09564,0 -139.59399,-66.64044 -139.59399,-148.84546 0,-82.20507 62.49835,-148.84546 139.59399,-148.84546 77.09558,0 139.59394,66.64039 139.59394,148.84546 z"
         id="path3198"
         inkscape:connector-curvature="0"
         style="opacity:0.98999999;fill:#ff7f00;filter:url(#filter4124)" />
    </g>
    <g
       id="use4753"
       style="fill:#ff7f00;stroke:#0000e8"
       transform="translate(796.24115,689.565)">
      <path
         stroke-miterlimit="4"
         d="m 426.8447,708.44891 0,-229.85556 199.06045,-114.92715 199.06049,114.92715 0,229.85556 L 625.90515,823.37573 426.8447,708.44891 z"
         id="path3202"
         inkscape:connector-curvature="0"
         style="opacity:0.98999999;fill:#ff7f00;stroke:#000000;stroke-width:20;stroke-miterlimit:4" />
      <path
         d="m 761.50147,596.53143 c 0,82.20502 -62.49836,148.84546 -139.59394,148.84546 -77.09564,0 -139.59399,-66.64044 -139.59399,-148.84546 0,-82.20507 62.49835,-148.84546 139.59399,-148.84546 77.09558,0 139.59394,66.64039 139.59394,148.84546 z"
         id="path3204"
         inkscape:connector-curvature="0"
         style="opacity:0.98999999;fill:#ff7f00;filter:url(#filter4124)" />
    </g>
    <g
       id="use4755"
       style="fill:#ff7f00;stroke:#0000e8"
       transform="translate(1194.36,689.565)">
      <path
         stroke-miterlimit="4"
         d="m 426.8447,708.44891 0,-229.85556 199.06045,-114.92715 199.06049,114.92715 0,229.85556 L 625.90515,823.37573 426.8447,708.44891 z"
         id="path3208"
         inkscape:connector-curvature="0"
         style="opacity:0.98999999;fill:#ff7f00;stroke:#000000;stroke-width:20;stroke-miterlimit:4" />
      <path
         d="m 761.50147,596.53143 c 0,82.20502 -62.49836,148.84546 -139.59394,148.84546 -77.09564,0 -139.59399,-66.64044 -139.59399,-148.84546 0,-82.20507 62.49835,-148.84546 139.59399,-148.84546 77.09558,0 139.59394,66.64039 139.59394,148.84546 z"
         id="path3210"
         inkscape:connector-curvature="0"
         style="opacity:0.98999999;fill:#ff7f00;filter:url(#filter4124)" />
    </g>
    <path
       stroke-miterlimit="4"
       id="path4759"
       d="m 227.78366,1742.7981 0,-229.8557 199.06049,-114.9271 199.06045,114.9271 0,229.8557 -199.06045,114.9268 -199.06049,-114.9268 z"
       inkscape:connector-curvature="0"
       style="opacity:0.98999999;fill:#ff7f00;stroke:#000000;stroke-width:20;stroke-miterlimit:4" />
    <path
       id="path4761"
       d="m 562.44049,1630.8805 c 0,82.2051 -62.49835,148.8456 -139.59396,148.8456 -77.09565,0 -139.59397,-66.6405 -139.59397,-148.8456 0,-82.2051 62.49832,-148.8455 139.59397,-148.8455 77.09561,0 139.59396,66.6404 139.59396,148.8455 z"
       inkscape:connector-curvature="0"
       style="opacity:0.98999999;fill:#ff7f00;filter:url(#filter4124)" />
    <g
       id="use4763"
       style="fill:#ff7f00;stroke:#0000e8"
       transform="translate(-199.05975,1034.35)">
      <path
         stroke-miterlimit="4"
         d="m 426.8447,708.44891 0,-229.85556 199.06045,-114.92715 199.06049,114.92715 0,229.85556 L 625.90515,823.37573 426.8447,708.44891 z"
         id="path3214"
         inkscape:connector-curvature="0"
         style="opacity:0.98999999;fill:#ff7f00;stroke:#000000;stroke-width:20;stroke-miterlimit:4" />
      <path
         d="m 761.50147,596.53143 c 0,82.20502 -62.49836,148.84546 -139.59394,148.84546 -77.09564,0 -139.59399,-66.64044 -139.59399,-148.84546 0,-82.20507 62.49835,-148.84546 139.59399,-148.84546 77.09558,0 139.59394,66.64039 139.59394,148.84546 z"
         id="path3216"
         inkscape:connector-curvature="0"
         style="opacity:0.98999999;fill:#ff7f00;filter:url(#filter4124)" />
    </g>
    <path
       stroke-miterlimit="4"
       d="m 625.90472,1742.7981 0,-229.8557 199.06049,-114.9271 199.06039,114.9271 0,229.8557 -199.06039,114.9268 -199.06049,-114.9268 z"
       id="path4769"
       inkscape:connector-curvature="0"
       style="opacity:0.98999999;fill:#ff7f00;stroke:#000000;stroke-width:20;stroke-miterlimit:4" />
    <path
       d="m 960.56146,1630.8805 c 0,82.2051 -62.49835,148.8456 -139.59393,148.8456 -77.09564,0 -139.594,-66.6405 -139.594,-148.8456 0,-82.2051 62.49836,-148.8455 139.594,-148.8455 77.09558,0 139.59393,66.6404 139.59393,148.8455 z"
       id="path4771"
       inkscape:connector-curvature="0"
       style="opacity:0.98999999;fill:#ff7f00;filter:url(#filter4124)" />
    <g
       id="use4773"
       style="fill:#ff7f00;stroke:#0000e8"
       transform="translate(199.05975,1034.35)">
      <path
         stroke-miterlimit="4"
         d="m 426.8447,708.44891 0,-229.85556 199.06045,-114.92715 199.06049,114.92715 0,229.85556 L 625.90515,823.37573 426.8447,708.44891 z"
         id="path3220"
         inkscape:connector-curvature="0"
         style="opacity:0.98999999;fill:#ff7f00;stroke:#000000;stroke-width:20;stroke-miterlimit:4" />
      <path
         d="m 761.50147,596.53143 c 0,82.20502 -62.49836,148.84546 -139.59394,148.84546 -77.09564,0 -139.59399,-66.64044 -139.59399,-148.84546 0,-82.20507 62.49835,-148.84546 139.59399,-148.84546 77.09558,0 139.59394,66.64039 139.59394,148.84546 z"
         id="path3222"
         inkscape:connector-curvature="0"
         style="opacity:0.98999999;fill:#ff7f00;filter:url(#filter4124)" />
    </g>
    <path
       stroke-miterlimit="4"
       d="m 1024.0255,1742.7981 0,-229.8557 199.0606,-114.9271 199.0604,114.9271 0,229.8557 -199.0604,114.9268 -199.0606,-114.9268 z"
       id="path4783"
       inkscape:connector-curvature="0"
       style="opacity:0.98999999;fill:#ff7f00;stroke:#000000;stroke-width:20;stroke-miterlimit:4" />
    <path
       d="m 1358.6824,1630.8805 c 0,82.2051 -62.4983,148.8456 -139.594,148.8456 -77.0956,0 -139.594,-66.6405 -139.594,-148.8456 0,-82.2051 62.4984,-148.8455 139.594,-148.8455 77.0957,0 139.594,66.6404 139.594,148.8455 z"
       id="path4785"
       inkscape:connector-curvature="0"
       style="opacity:0.98999999;fill:#ff7f00;filter:url(#filter4124)" />
    <g
       id="use4787"
       style="fill:#ff7f00;stroke:#0000e8"
       transform="translate(597.18103,1034.35)">
      <path
         stroke-miterlimit="4"
         d="m 426.8447,708.44891 0,-229.85556 199.06045,-114.92715 199.06049,114.92715 0,229.85556 L 625.90515,823.37573 426.8447,708.44891 z"
         id="path3226"
         inkscape:connector-curvature="0"
         style="opacity:0.98999999;fill:#ff7f00;stroke:#000000;stroke-width:20;stroke-miterlimit:4" />
      <path
         d="m 761.50147,596.53143 c 0,82.20502 -62.49836,148.84546 -139.59394,148.84546 -77.09564,0 -139.59399,-66.64044 -139.59399,-148.84546 0,-82.20507 62.49835,-148.84546 139.59399,-148.84546 77.09558,0 139.59394,66.64039 139.59394,148.84546 z"
         id="path3228"
         inkscape:connector-curvature="0"
         style="opacity:0.98999999;fill:#ff7f00;filter:url(#filter4124)" />
    </g>
    <path
       stroke-miterlimit="4"
       id="path4793"
       d="m 1422.1458,1742.7981 0,-229.8557 199.0604,-114.9271 199.0605,114.9271 0,229.8557 -199.0605,114.9268 -199.0604,-114.9268 z"
       inkscape:connector-curvature="0"
       style="opacity:0.98999999;fill:#ff7f00;stroke:#000000;stroke-width:20;stroke-miterlimit:4" />
    <path
       id="path4795"
       d="m 1756.8025,1630.8805 c 0,82.2051 -62.4983,148.8456 -139.5939,148.8456 -77.0957,0 -139.594,-66.6405 -139.594,-148.8456 0,-82.2051 62.4983,-148.8455 139.594,-148.8455 77.0956,0 139.5939,66.6404 139.5939,148.8455 z"
       inkscape:connector-curvature="0"
       style="opacity:0.98999999;fill:#ff7f00;filter:url(#filter4124)" />
    <g
       id="use4797"
       style="fill:#ff7f00;stroke:#0000e8"
       transform="translate(995.3009,1034.35)">
      <path
         stroke-miterlimit="4"
         d="m 426.8447,708.44891 0,-229.85556 199.06045,-114.92715 199.06049,114.92715 0,229.85556 L 625.90515,823.37573 426.8447,708.44891 z"
         id="path3232"
         inkscape:connector-curvature="0"
         style="opacity:0.98999999;fill:#ff7f00;stroke:#000000;stroke-width:20;stroke-miterlimit:4" />
      <path
         d="m 761.50147,596.53143 c 0,82.20502 -62.49836,148.84546 -139.59394,148.84546 -77.09564,0 -139.59399,-66.64044 -139.59399,-148.84546 0,-82.20507 62.49835,-148.84546 139.59399,-148.84546 77.09558,0 139.59394,66.64039 139.59394,148.84546 z"
         id="path3234"
         inkscape:connector-curvature="0"
         style="opacity:0.98999999;fill:#ff7f00;filter:url(#filter4124)" />
    </g>
    <g
       id="use4799"
       style="fill:#ff7f00;stroke:#0000e8"
       transform="translate(-199.05975,344.78296)">
      <path
         stroke-miterlimit="4"
         d="m 426.8447,708.44891 0,-229.85556 199.06045,-114.92715 199.06049,114.92715 0,229.85556 L 625.90515,823.37573 426.8447,708.44891 z"
         id="path3238"
         inkscape:connector-curvature="0"
         style="opacity:0.98999999;fill:#ff7f00;stroke:#000000;stroke-width:20;stroke-miterlimit:4" />
      <path
         d="m 761.50147,596.53143 c 0,82.20502 -62.49836,148.84546 -139.59394,148.84546 -77.09564,0 -139.59399,-66.64044 -139.59399,-148.84546 0,-82.20507 62.49835,-148.84546 139.59399,-148.84546 77.09558,0 139.59394,66.64039 139.59394,148.84546 z"
         id="path3240"
         inkscape:connector-curvature="0"
         style="opacity:0.98999999;fill:#ff7f00;filter:url(#filter4124)" />
    </g>
    <g
       id="use4803"
       style="fill:#ff7f00;stroke:#0000e8"
       transform="translate(-398.121,689.565)">
      <path
         stroke-miterlimit="4"
         d="m 426.8447,708.44891 0,-229.85556 199.06045,-114.92715 199.06049,114.92715 0,229.85556 L 625.90515,823.37573 426.8447,708.44891 z"
         id="path3244"
         inkscape:connector-curvature="0"
         style="opacity:0.98999999;fill:#ff7f00;stroke:#000000;stroke-width:20;stroke-miterlimit:4" />
      <path
         d="m 761.50147,596.53143 c 0,82.20502 -62.49836,148.84546 -139.59394,148.84546 -77.09564,0 -139.59399,-66.64044 -139.59399,-148.84546 0,-82.20507 62.49835,-148.84546 139.59399,-148.84546 77.09558,0 139.59394,66.64039 139.59394,148.84546 z"
         id="path3246"
         inkscape:connector-curvature="0"
         style="opacity:0.98999999;fill:#ff7f00;filter:url(#filter4124)" />
    </g>
    <g
       id="use4805"
       style="fill:#ff7f00;stroke:#0000e8"
       transform="translate(-8.0999998e-5,1379.13)">
      <path
         stroke-miterlimit="4"
         d="m 426.8447,708.44891 0,-229.85556 199.06045,-114.92715 199.06049,114.92715 0,229.85556 L 625.90515,823.37573 426.8447,708.44891 z"
         id="path3250"
         inkscape:connector-curvature="0"
         style="opacity:0.98999999;fill:#ff7f00;stroke:#000000;stroke-width:20;stroke-miterlimit:4" />
      <path
         d="m 761.50147,596.53143 c 0,82.20502 -62.49836,148.84546 -139.59394,148.84546 -77.09564,0 -139.59399,-66.64044 -139.59399,-148.84546 0,-82.20507 62.49835,-148.84546 139.59399,-148.84546 77.09558,0 139.59394,66.64039 139.59394,148.84546 z"
         id="path3252"
         inkscape:connector-curvature="0"
         style="opacity:0.98999999;fill:#ff7f00;filter:url(#filter4124)" />
    </g>
    <g
       id="use4807"
       style="fill:#ff7f00;stroke:#0000e8"
       transform="translate(398.121,1379.13)">
      <path
         stroke-miterlimit="4"
         d="m 426.8447,708.44891 0,-229.85556 199.06045,-114.92715 199.06049,114.92715 0,229.85556 L 625.90515,823.37573 426.8447,708.44891 z"
         id="path3256"
         inkscape:connector-curvature="0"
         style="opacity:0.98999999;fill:#ff7f00;stroke:#000000;stroke-width:20;stroke-miterlimit:4" />
      <path
         d="m 761.50147,596.53143 c 0,82.20502 -62.49836,148.84546 -139.59394,148.84546 -77.09564,0 -139.59399,-66.64044 -139.59399,-148.84546 0,-82.20507 62.49835,-148.84546 139.59399,-148.84546 77.09558,0 139.59394,66.64039 139.59394,148.84546 z"
         id="path3258"
         inkscape:connector-curvature="0"
         style="opacity:0.98999999;fill:#ff7f00;filter:url(#filter4124)" />
    </g>
    <g
       id="use4809"
       style="fill:#ff7f00;stroke:#0000e8"
       transform="translate(796.24115,1379.13)">
      <path
         stroke-miterlimit="4"
         d="m 426.8447,708.44891 0,-229.85556 199.06045,-114.92715 199.06049,114.92715 0,229.85556 L 625.90515,823.37573 426.8447,708.44891 z"
         id="path3262"
         inkscape:connector-curvature="0"
         style="opacity:0.98999999;fill:#ff7f00;stroke:#000000;stroke-width:20;stroke-miterlimit:4" />
      <path
         d="m 761.50147,596.53143 c 0,82.20502 -62.49836,148.84546 -139.59394,148.84546 -77.09564,0 -139.59399,-66.64044 -139.59399,-148.84546 0,-82.20507 62.49835,-148.84546 139.59399,-148.84546 77.09558,0 139.59394,66.64039 139.59394,148.84546 z"
         id="path3264"
         inkscape:connector-curvature="0"
         style="opacity:0.98999999;fill:#ff7f00;filter:url(#filter4124)" />
    </g>
    <g
       id="use4811"
       style="fill:#ff7f00;stroke:#0000e8"
       transform="translate(1194.36,1379.13)">
      <path
         stroke-miterlimit="4"
         d="m 426.8447,708.44891 0,-229.85556 199.06045,-114.92715 199.06049,114.92715 0,229.85556 L 625.90515,823.37573 426.8447,708.44891 z"
         id="path3268"
         inkscape:connector-curvature="0"
         style="opacity:0.98999999;fill:#ff7f00;stroke:#000000;stroke-width:20;stroke-miterlimit:4" />
      <path
         d="m 761.50147,596.53143 c 0,82.20502 -62.49836,148.84546 -139.59394,148.84546 -77.09564,0 -139.59399,-66.64044 -139.59399,-148.84546 0,-82.20507 62.49835,-148.84546 139.59399,-148.84546 77.09558,0 139.59394,66.64039 139.59394,148.84546 z"
         id="path3270"
         inkscape:connector-curvature="0"
         style="opacity:0.98999999;fill:#ff7f00;filter:url(#filter4124)" />
    </g>
    <path
       stroke-miterlimit="4"
       id="path4815"
       d="m 625.90472,2432.3579 0,-229.8552 199.06049,-114.9273 199.06039,114.9273 0,229.8552 -199.06039,114.927 -199.06049,-114.927 z"
       inkscape:connector-curvature="0"
       style="opacity:0.98999999;fill:#ff7f00;stroke:#000000;stroke-width:20;stroke-miterlimit:4" />
    <path
       id="path4817"
       d="m 960.56146,2320.4407 c 0,82.2048 -62.49835,148.8452 -139.59393,148.8452 -77.09564,0 -139.594,-66.6404 -139.594,-148.8452 0,-82.2051 62.49836,-148.8455 139.594,-148.8455 77.09558,0 139.59393,66.6404 139.59393,148.8455 z"
       inkscape:connector-curvature="0"
       style="opacity:0.98999999;fill:#ff7f00;filter:url(#filter4124)" />
    <g
       id="use4819"
       style="fill:#ff7f00;stroke:#0000e8"
       transform="translate(199.05975,1723.91)">
      <path
         stroke-miterlimit="4"
         d="m 426.8447,708.44891 0,-229.85556 199.06045,-114.92715 199.06049,114.92715 0,229.85556 L 625.90515,823.37573 426.8447,708.44891 z"
         id="path3274"
         inkscape:connector-curvature="0"
         style="opacity:0.98999999;fill:#ff7f00;stroke:#000000;stroke-width:20;stroke-miterlimit:4" />
      <path
         d="m 761.50147,596.53143 c 0,82.20502 -62.49836,148.84546 -139.59394,148.84546 -77.09564,0 -139.59399,-66.64044 -139.59399,-148.84546 0,-82.20507 62.49835,-148.84546 139.59399,-148.84546 77.09558,0 139.59394,66.64039 139.59394,148.84546 z"
         id="path3276"
         inkscape:connector-curvature="0"
         style="opacity:0.98999999;fill:#ff7f00;filter:url(#filter4124)" />
    </g>
    <path
       stroke-miterlimit="4"
       id="path4823"
       d="m 1024.0255,2432.3579 0,-229.8552 199.0606,-114.9273 199.0604,114.9273 0,229.8552 -199.0604,114.927 -199.0606,-114.927 z"
       inkscape:connector-curvature="0"
       style="opacity:0.98999999;fill:#ff7f00;stroke:#000000;stroke-width:20;stroke-miterlimit:4" />
    <path
       id="path4825"
       d="m 1358.6824,2320.4407 c 0,82.2048 -62.4983,148.8452 -139.594,148.8452 -77.0956,0 -139.594,-66.6404 -139.594,-148.8452 0,-82.2051 62.4984,-148.8455 139.594,-148.8455 77.0957,0 139.594,66.6404 139.594,148.8455 z"
       inkscape:connector-curvature="0"
       style="opacity:0.98999999;fill:#ff7f00;filter:url(#filter4124)" />
    <g
       id="use4827"
       style="fill:#ff7f00;stroke:#0000e8"
       transform="translate(597.18103,1723.91)">
      <path
         stroke-miterlimit="4"
         d="m 426.8447,708.44891 0,-229.85556 199.06045,-114.92715 199.06049,114.92715 0,229.85556 L 625.90515,823.37573 426.8447,708.44891 z"
         id="path3280"
         inkscape:connector-curvature="0"
         style="opacity:0.98999999;fill:#ff7f00;stroke:#000000;stroke-width:20;stroke-miterlimit:4" />
      <path
         d="m 761.50147,596.53143 c 0,82.20502 -62.49836,148.84546 -139.59394,148.84546 -77.09564,0 -139.59399,-66.64044 -139.59399,-148.84546 0,-82.20507 62.49835,-148.84546 139.59399,-148.84546 77.09558,0 139.59394,66.64039 139.59394,148.84546 z"
         id="path3282"
         inkscape:connector-curvature="0"
         style="opacity:0.98999999;fill:#ff7f00;filter:url(#filter4124)" />
    </g>
    <path
       stroke-miterlimit="4"
       d="m 1422.1458,2432.3579 0,-229.8552 199.0604,-114.9273 199.0605,114.9273 0,229.8552 -199.0605,114.927 -199.0604,-114.927 z"
       id="path4831"
       inkscape:connector-curvature="0"
       style="opacity:0.98999999;fill:#ff7f00;stroke:#000000;stroke-width:20;stroke-miterlimit:4" />
    <path
       d="m 1756.8025,2320.4407 c 0,82.2048 -62.4983,148.8452 -139.5939,148.8452 -77.0957,0 -139.594,-66.6404 -139.594,-148.8452 0,-82.2051 62.4983,-148.8455 139.594,-148.8455 77.0956,0 139.5939,66.6404 139.5939,148.8455 z"
       id="path4833"
       inkscape:connector-curvature="0"
       style="opacity:0.98999999;fill:#ff7f00;filter:url(#filter4124)" />
    <g
       id="use4835"
       style="fill:#ff7f00;stroke:#0000e8"
       transform="translate(995.3009,1723.91)">
      <path
         stroke-miterlimit="4"
         d="m 426.8447,708.44891 0,-229.85556 199.06045,-114.92715 199.06049,114.92715 0,229.85556 L 625.90515,823.37573 426.8447,708.44891 z"
         id="path3286"
         inkscape:connector-curvature="0"
         style="opacity:0.98999999;fill:#ff7f00;stroke:#000000;stroke-width:20;stroke-miterlimit:4" />
      <path
         d="m 761.50147,596.53143 c 0,82.20502 -62.49836,148.84546 -139.59394,148.84546 -77.09564,0 -139.59399,-66.64044 -139.59399,-148.84546 0,-82.20507 62.49835,-148.84546 139.59399,-148.84546 77.09558,0 139.59394,66.64039 139.59394,148.84546 z"
         id="path3288"
         inkscape:connector-curvature="0"
         style="opacity:0.98999999;fill:#ff7f00;filter:url(#filter4124)" />
    </g>
    <g
       id="use4837"
       style="fill:#ff7f00;stroke:#0000e8"
       transform="translate(199.05975,-344.78296)">
      <path
         stroke-miterlimit="4"
         d="m 426.8447,708.44891 0,-229.85556 199.06045,-114.92715 199.06049,114.92715 0,229.85556 L 625.90515,823.37573 426.8447,708.44891 z"
         id="path3292"
         inkscape:connector-curvature="0"
         style="opacity:0.98999999;fill:#ff7f00;stroke:#000000;stroke-width:20;stroke-miterlimit:4" />
      <path
         d="m 761.50147,596.53143 c 0,82.20502 -62.49836,148.84546 -139.59394,148.84546 -77.09564,0 -139.59399,-66.64044 -139.59399,-148.84546 0,-82.20507 62.49835,-148.84546 139.59399,-148.84546 77.09558,0 139.59394,66.64039 139.59394,148.84546 z"
         id="path3294"
         inkscape:connector-curvature="0"
         style="opacity:0.98999999;fill:#ff7f00;filter:url(#filter4124)" />
    </g>
    <g
       id="use4847"
       style="fill:#ff7f00;stroke:#0000e8"
       transform="translate(597.18103,-344.78296)">
      <path
         stroke-miterlimit="4"
         d="m 426.8447,708.44891 0,-229.85556 199.06045,-114.92715 199.06049,114.92715 0,229.85556 L 625.90515,823.37573 426.8447,708.44891 z"
         id="path3298"
         inkscape:connector-curvature="0"
         style="opacity:0.98999999;fill:#ff7f00;stroke:#000000;stroke-width:20;stroke-miterlimit:4" />
      <path
         d="m 761.50147,596.53143 c 0,82.20502 -62.49836,148.84546 -139.59394,148.84546 -77.09564,0 -139.59399,-66.64044 -139.59399,-148.84546 0,-82.20507 62.49835,-148.84546 139.59399,-148.84546 77.09558,0 139.59394,66.64039 139.59394,148.84546 z"
         id="path3300"
         inkscape:connector-curvature="0"
         style="opacity:0.98999999;fill:#ff7f00;filter:url(#filter4124)" />
    </g>
    <g
       id="use4857"
       style="fill:#ff7f00;stroke:#0000e8"
       transform="translate(995.3009,-344.78296)">
      <path
         stroke-miterlimit="4"
         d="m 426.8447,708.44891 0,-229.85556 199.06045,-114.92715 199.06049,114.92715 0,229.85556 L 625.90515,823.37573 426.8447,708.44891 z"
         id="path3304"
         inkscape:connector-curvature="0"
         style="opacity:0.98999999;fill:#ff7f00;stroke:#000000;stroke-width:20;stroke-miterlimit:4" />
      <path
         d="m 761.50147,596.53143 c 0,82.20502 -62.49836,148.84546 -139.59394,148.84546 -77.09564,0 -139.59399,-66.64044 -139.59399,-148.84546 0,-82.20507 62.49835,-148.84546 139.59399,-148.84546 77.09558,0 139.59394,66.64039 139.59394,148.84546 z"
         id="path3306"
         inkscape:connector-curvature="0"
         style="opacity:0.98999999;fill:#ff7f00;filter:url(#filter4124)" />
    </g>
    <g
       id="use4867"
       style="fill:#ff7f00;stroke:#0000e8"
       transform="translate(1393.42,-344.78201)">
      <path
         stroke-miterlimit="4"
         d="m 426.8447,708.44891 0,-229.85556 199.06045,-114.92715 199.06049,114.92715 0,229.85556 L 625.90515,823.37573 426.8447,708.44891 z"
         id="path3310"
         inkscape:connector-curvature="0"
         style="opacity:0.98999999;fill:#ff7f00;stroke:#000000;stroke-width:20;stroke-miterlimit:4" />
      <path
         d="m 761.50147,596.53143 c 0,82.20502 -62.49836,148.84546 -139.59394,148.84546 -77.09564,0 -139.59399,-66.64044 -139.59399,-148.84546 0,-82.20507 62.49835,-148.84546 139.59399,-148.84546 77.09558,0 139.59394,66.64039 139.59394,148.84546 z"
         id="path3312"
         inkscape:connector-curvature="0"
         style="opacity:0.98999999;fill:#ff7f00;filter:url(#filter4124)" />
    </g>
    <g
       id="use4869"
       style="fill:#ff7f00;stroke:#0000e8"
       transform="translate(1393.42,1723.91)">
      <path
         stroke-miterlimit="4"
         d="m 426.8447,708.44891 0,-229.85556 199.06045,-114.92715 199.06049,114.92715 0,229.85556 L 625.90515,823.37573 426.8447,708.44891 z"
         id="path3316"
         inkscape:connector-curvature="0"
         style="opacity:0.98999999;fill:#ff7f00;stroke:#000000;stroke-width:20;stroke-miterlimit:4" />
      <path
         d="m 761.50147,596.53143 c 0,82.20502 -62.49836,148.84546 -139.59394,148.84546 -77.09564,0 -139.59399,-66.64044 -139.59399,-148.84546 0,-82.20507 62.49835,-148.84546 139.59399,-148.84546 77.09558,0 139.59394,66.64039 139.59394,148.84546 z"
         id="path3318"
         inkscape:connector-curvature="0"
         style="opacity:0.98999999;fill:#ff7f00;filter:url(#filter4124)" />
    </g>
    <path
       stroke-miterlimit="4"
       d="m 2019.3307,2087.5779 0,-229.8555 199.0604,-114.9271 199.0606,114.9271 0,229.8555 -199.0606,114.9267 -199.0604,-114.9267 z"
       id="path4873"
       inkscape:connector-curvature="0"
       style="opacity:0.98999999;fill:#ff7f00;stroke:#000000;stroke-width:20;stroke-miterlimit:4" />
    <path
       d="m 2353.9875,1975.6605 c 0,82.205 -62.4982,148.8454 -139.5939,148.8454 -77.0957,0 -139.594,-66.6404 -139.594,-148.8454 0,-82.2051 62.4983,-148.8456 139.594,-148.8456 77.0957,0 139.5939,66.6405 139.5939,148.8456 z"
       id="path4875"
       inkscape:connector-curvature="0"
       style="opacity:0.98999999;fill:#ff7f00;filter:url(#filter4124)" />
    <g
       id="use4877"
       style="fill:#ff7f00;stroke:#0000e8"
       transform="translate(1592.4801,1379.13)">
      <path
         stroke-miterlimit="4"
         d="m 426.8447,708.44891 0,-229.85556 199.06045,-114.92715 199.06049,114.92715 0,229.85556 L 625.90515,823.37573 426.8447,708.44891 z"
         id="path3322"
         inkscape:connector-curvature="0"
         style="opacity:0.98999999;fill:#ff7f00;stroke:#000000;stroke-width:20;stroke-miterlimit:4" />
      <path
         d="m 761.50147,596.53143 c 0,82.20502 -62.49836,148.84546 -139.59394,148.84546 -77.09564,0 -139.59399,-66.64044 -139.59399,-148.84546 0,-82.20507 62.49835,-148.84546 139.59399,-148.84546 77.09558,0 139.59394,66.64039 139.59394,148.84546 z"
         id="path3324"
         inkscape:connector-curvature="0"
         style="opacity:0.98999999;fill:#ff7f00;filter:url(#filter4124)" />
    </g>
    <g
       id="use4931"
       style="fill:#ff7f00;stroke:#0000e8"
       transform="translate(1393.42,1034.35)">
      <path
         stroke-miterlimit="4"
         d="m 426.8447,708.44891 0,-229.85556 199.06045,-114.92715 199.06049,114.92715 0,229.85556 L 625.90515,823.37573 426.8447,708.44891 z"
         id="path3328"
         inkscape:connector-curvature="0"
         style="opacity:0.98999999;fill:#ff7f00;stroke:#000000;stroke-width:20;stroke-miterlimit:4" />
      <path
         d="m 761.50147,596.53143 c 0,82.20502 -62.49836,148.84546 -139.59394,148.84546 -77.09564,0 -139.59399,-66.64044 -139.59399,-148.84546 0,-82.20507 62.49835,-148.84546 139.59399,-148.84546 77.09558,0 139.59394,66.64039 139.59394,148.84546 z"
         id="path3330"
         inkscape:connector-curvature="0"
         style="opacity:0.98999999;fill:#ff7f00;filter:url(#filter4124)" />
    </g>
    <g
       id="use4933"
       style="fill:#ff7f00;stroke:#0000e8"
       transform="translate(1791.5402,1034.35)">
      <path
         stroke-miterlimit="4"
         d="m 426.8447,708.44891 0,-229.85556 199.06045,-114.92715 199.06049,114.92715 0,229.85556 L 625.90515,823.37573 426.8447,708.44891 z"
         id="path3334"
         inkscape:connector-curvature="0"
         style="opacity:0.98999999;fill:#ff7f00;stroke:#000000;stroke-width:20;stroke-miterlimit:4" />
      <path
         d="m 761.50147,596.53143 c 0,82.20502 -62.49836,148.84546 -139.59394,148.84546 -77.09564,0 -139.59399,-66.64044 -139.59399,-148.84546 0,-82.20507 62.49835,-148.84546 139.59399,-148.84546 77.09558,0 139.59394,66.64039 139.59394,148.84546 z"
         id="path3336"
         inkscape:connector-curvature="0"
         style="opacity:0.98999999;fill:#ff7f00;filter:url(#filter4124)" />
    </g>
    <g
       id="use4937"
       style="fill:#ff7f00;stroke:#0000e8"
       transform="translate(1592.4801,689.565)">
      <path
         stroke-miterlimit="4"
         d="m 426.8447,708.44891 0,-229.85556 199.06045,-114.92715 199.06049,114.92715 0,229.85556 L 625.90515,823.37573 426.8447,708.44891 z"
         id="path3340"
         inkscape:connector-curvature="0"
         style="opacity:0.98999999;fill:#ff7f00;stroke:#000000;stroke-width:20;stroke-miterlimit:4" />
      <path
         d="m 761.50147,596.53143 c 0,82.20502 -62.49836,148.84546 -139.59394,148.84546 -77.09564,0 -139.59399,-66.64044 -139.59399,-148.84546 0,-82.20507 62.49835,-148.84546 139.59399,-148.84546 77.09558,0 139.59394,66.64039 139.59394,148.84546 z"
         id="path3342"
         inkscape:connector-curvature="0"
         style="opacity:0.98999999;fill:#ff7f00;filter:url(#filter4124)" />
    </g>
    <g
       id="use4939"
       style="fill:#ff7f00;stroke:#0000e8"
       transform="translate(1592.4801,7.8999998e-5)">
      <path
         stroke-miterlimit="4"
         d="m 426.8447,708.44891 0,-229.85556 199.06045,-114.92715 199.06049,114.92715 0,229.85556 L 625.90515,823.37573 426.8447,708.44891 z"
         id="path3346"
         inkscape:connector-curvature="0"
         style="opacity:0.98999999;fill:#ff7f00;stroke:#000000;stroke-width:20;stroke-miterlimit:4" />
      <path
         d="m 761.50147,596.53143 c 0,82.20502 -62.49836,148.84546 -139.59394,148.84546 -77.09564,0 -139.59399,-66.64044 -139.59399,-148.84546 0,-82.20507 62.49835,-148.84546 139.59399,-148.84546 77.09558,0 139.59394,66.64039 139.59394,148.84546 z"
         id="path3348"
         inkscape:connector-curvature="0"
         style="opacity:0.98999999;fill:#ff7f00;filter:url(#filter4124)" />
    </g>
    <g
       id="use4943"
       style="fill:#ff7f00;stroke:#0000e8"
       transform="translate(1791.5402,344.78296)">
      <path
         stroke-miterlimit="4"
         d="m 426.8447,708.44891 0,-229.85556 199.06045,-114.92715 199.06049,114.92715 0,229.85556 L 625.90515,823.37573 426.8447,708.44891 z"
         id="path3352"
         inkscape:connector-curvature="0"
         style="opacity:0.98999999;fill:#ff7f00;stroke:#000000;stroke-width:20;stroke-miterlimit:4" />
      <path
         d="m 761.50147,596.53143 c 0,82.20502 -62.49836,148.84546 -139.59394,148.84546 -77.09564,0 -139.59399,-66.64044 -139.59399,-148.84546 0,-82.20507 62.49835,-148.84546 139.59399,-148.84546 77.09558,0 139.59394,66.64039 139.59394,148.84546 z"
         id="path3354"
         inkscape:connector-curvature="0"
         style="opacity:0.98999999;fill:#ff7f00;filter:url(#filter4124)" />
    </g>
    <g
       id="use4953"
       style="fill:#ff7f00;stroke:#0000e8"
       transform="translate(1990.6,689.565)">
      <path
         stroke-miterlimit="4"
         d="m 426.8447,708.44891 0,-229.85556 199.06045,-114.92715 199.06049,114.92715 0,229.85556 L 625.90515,823.37573 426.8447,708.44891 z"
         id="path3358"
         inkscape:connector-curvature="0"
         style="opacity:0.98999999;fill:#ff7f00;stroke:#000000;stroke-width:20;stroke-miterlimit:4" />
      <path
         d="m 761.50147,596.53143 c 0,82.20502 -62.49836,148.84546 -139.59394,148.84546 -77.09564,0 -139.59399,-66.64044 -139.59399,-148.84546 0,-82.20507 62.49835,-148.84546 139.59399,-148.84546 77.09558,0 139.59394,66.64039 139.59394,148.84546 z"
         id="path3360"
         inkscape:connector-curvature="0"
         style="opacity:0.98999999;fill:#ff7f00;filter:url(#filter4124)" />
    </g>
  </g>
</svg>
