<?xml version="1.0" encoding="UTF-8" standalone="no"?>
<svg
   xmlns:dc="http://purl.org/dc/elements/1.1/"
   xmlns:cc="http://creativecommons.org/ns#"
   xmlns:rdf="http://www.w3.org/1999/02/22-rdf-syntax-ns#"
   xmlns:svg="http://www.w3.org/2000/svg"
   xmlns="http://www.w3.org/2000/svg"
   xmlns:sodipodi="http://sodipodi.sourceforge.net/DTD/sodipodi-0.dtd"
   xmlns:inkscape="http://www.inkscape.org/namespaces/inkscape"
   width="2861.0117"
   height="2566.1736"
   id="svg2"
   version="1.1"
   inkscape:version="0.48.2 r9819"
   sodipodi:docname="board-large.svg">
  <sodipodi:namedview
     pagecolor="#ffffff"
     bordercolor="#666666"
     borderopacity="1"
     objecttolerance="10"
     gridtolerance="10"
     guidetolerance="10"
     inkscape:pageopacity="0"
     inkscape:pageshadow="2"
     inkscape:window-width="1366"
     inkscape:window-height="720"
     id="namedview89"
     showgrid="false"
     inkscape:zoom="0.73572576"
     inkscape:cx="629.93586"
     inkscape:cy="2424.8166"
     inkscape:window-x="0"
     inkscape:window-y="0"
     inkscape:window-maximized="1"
     inkscape:current-layer="layer1" />
  <title
     id="title4">honeycomb</title>
  <defs
     id="defs6">
    <filter
       height="1.31"
       width="1.49"
       y="-0.15"
       x="-0.21"
       color-interpolation-filters="sRGB"
       id="filter4124">
      <feGaussianBlur
         stdDeviation="17.172463"
         id="feGaussianBlur4126" />
    </filter>
  </defs>
  <metadata
     id="metadata7">image/svg+xml<rdf:RDF>
  <cc:Work
     rdf:about="">
    <dc:format>image/svg+xml</dc:format>
    <dc:type
       rdf:resource="http://purl.org/dc/dcmitype/StillImage" />
    <dc:title>honeycomb</dc:title>
  </cc:Work>
</rdf:RDF>
</metadata>
  <g
     id="layer1">
    <path
       stroke-miterlimit="4"
       d="m 426.8447,708.44891 0,-229.85556 199.06045,-114.92715 199.06049,114.92715 0,229.85556 L 625.90515,823.37573 426.8447,708.44891 z"
       id="path4595"
       inkscape:connector-curvature="0"
       style="opacity:0.98999999000000005;fill:none;stroke:#000000;stroke-width:20;stroke-miterlimit:4" />
    <path
       d="m 761.50147,596.53143 c 0,82.20502 -62.49836,148.84546 -139.59394,148.84546 -77.09564,0 -139.59399,-66.64044 -139.59399,-148.84546 0,-82.20507 62.49835,-148.84546 139.59399,-148.84546 77.09558,0 139.59394,66.64039 139.59394,148.84546 z"
       id="path4597"
       inkscape:connector-curvature="0"
       style="opacity:0.98999999000000005;fill:none;filter:url(#filter4124)" />
    <path
       style="opacity:0.98999999;fill:none;stroke:#000000;stroke-width:20;stroke-miterlimit:4"
       inkscape:connector-curvature="0"
       id="path3142"
       d="m 426.8447,708.44891 0,-229.85556 199.06045,-114.92715 199.06049,114.92715 0,229.85556 L 625.90515,823.37573 426.8447,708.44891 z"
       stroke-miterlimit="4" />
    <path
       style="opacity:0.98999999;fill:none;stroke:#0000e8;filter:url(#filter4124)"
       inkscape:connector-curvature="0"
       id="path3144"
       d="m 761.50147,596.53143 c 0,82.20502 -62.49836,148.84546 -139.59394,148.84546 -77.09564,0 -139.59399,-66.64044 -139.59399,-148.84546 0,-82.20507 62.49835,-148.84546 139.59399,-148.84546 77.09558,0 139.59394,66.64039 139.59394,148.84546 z" />
    <path
       style="opacity:0.98999999;fill:none;stroke:#000000;stroke-width:20;stroke-miterlimit:4"
       inkscape:connector-curvature="0"
       id="path3148"
       d="m 625.90445,1053.2319 0,-229.85559 199.06045,-114.92715 199.0605,114.92715 0,229.85559 -199.0605,114.9268 -199.06045,-114.9268 z"
       stroke-miterlimit="4" />
    <path
       style="opacity:0.98999999;fill:none;stroke:#0000e8;filter:url(#filter4124)"
       inkscape:connector-curvature="0"
       id="path3150"
       d="m 960.56122,941.31439 c 0,82.20501 -62.49836,148.84551 -139.59394,148.84551 -77.09564,0 -139.59399,-66.6405 -139.59399,-148.84551 0,-82.20507 62.49835,-148.84546 139.59399,-148.84546 77.09558,0 139.59394,66.64039 139.59394,148.84546 z" />
    <path
       stroke-miterlimit="4"
       id="path4721"
       d="m 824.96509,708.44891 0,-229.85556 199.06041,-114.92715 199.0606,114.92715 0,229.85556 -199.0606,114.92682 -199.06041,-114.92682 z"
       inkscape:connector-curvature="0"
       style="opacity:0.98999999000000005;fill:none;stroke:#000000;stroke-width:20;stroke-miterlimit:4" />
    <path
       id="path4723"
       d="m 1159.6219,596.53143 c 0,82.20502 -62.4984,148.84546 -139.5939,148.84546 -77.09569,0 -139.59404,-66.64044 -139.59404,-148.84546 0,-82.20507 62.49835,-148.84546 139.59404,-148.84546 77.0955,0 139.5939,66.64039 139.5939,148.84546 z"
       inkscape:connector-curvature="0"
       style="opacity:0.98999999000000005;fill:none;filter:url(#filter4124)" />
    <path
       style="opacity:0.98999999;fill:none;stroke:#000000;stroke-width:20;stroke-miterlimit:4"
       inkscape:connector-curvature="0"
       id="path3154"
       d="m 824.9657,708.44893 0,-229.85556 199.0605,-114.92715 199.0604,114.92715 0,229.85556 -199.0604,114.92682 -199.0605,-114.92682 z"
       stroke-miterlimit="4" />
    <path
       style="opacity:0.98999999;fill:none;stroke:#0000e8;filter:url(#filter4124)"
       inkscape:connector-curvature="0"
       id="path3156"
       d="m 1159.6225,596.53145 c 0,82.20502 -62.4984,148.84546 -139.594,148.84546 -77.09561,0 -139.59396,-66.64044 -139.59396,-148.84546 0,-82.20507 62.49835,-148.84546 139.59396,-148.84546 77.0956,0 139.594,66.64039 139.594,148.84546 z" />
    <path
       style="opacity:0.98999999;fill:none;stroke:#000000;stroke-width:20;stroke-miterlimit:4"
       inkscape:connector-curvature="0"
       id="path3160"
       d="m 1024.0257,1053.2319 0,-229.85559 199.0605,-114.92715 199.0605,114.92715 0,229.85559 -199.0605,114.9268 -199.0605,-114.9268 z"
       stroke-miterlimit="4" />
    <path
       style="opacity:0.98999999;fill:none;stroke:#0000e8;filter:url(#filter4124)"
       inkscape:connector-curvature="0"
       id="path3162"
       d="m 1358.6825,941.31439 c 0,82.20501 -62.4984,148.84551 -139.5939,148.84551 -77.0957,0 -139.594,-66.6405 -139.594,-148.84551 0,-82.20507 62.4983,-148.84546 139.594,-148.84546 77.0955,0 139.5939,66.64039 139.5939,148.84546 z" />
    <path
       style="opacity:0.98999999;fill:none;stroke:#000000;stroke-width:20;stroke-miterlimit:4"
       inkscape:connector-curvature="0"
       id="path3166"
       d="m 426.84466,1398.0139 0,-229.8555 199.06045,-114.9272 199.06049,114.9272 0,229.8555 -199.06049,114.9268 -199.06045,-114.9268 z"
       stroke-miterlimit="4" />
    <path
       style="opacity:0.98999999;fill:none;stroke:#0000e8;filter:url(#filter4124)"
       inkscape:connector-curvature="0"
       id="path3168"
       d="m 761.50143,1286.0964 c 0,82.2051 -62.49836,148.8455 -139.59394,148.8455 -77.09564,0 -139.59399,-66.6404 -139.59399,-148.8455 0,-82.205 62.49835,-148.8454 139.59399,-148.8454 77.09558,0 139.59394,66.6404 139.59394,148.8454 z" />
    <path
       style="opacity:0.98999999;fill:none;stroke:#000000;stroke-width:20;stroke-miterlimit:4"
       inkscape:connector-curvature="0"
       id="path3172"
       d="m 824.9657,1398.0139 0,-229.8555 199.0605,-114.9272 199.0604,114.9272 0,229.8555 -199.0604,114.9268 -199.0605,-114.9268 z"
       stroke-miterlimit="4" />
    <path
       style="opacity:0.98999999;fill:none;stroke:#0000e8;filter:url(#filter4124)"
       inkscape:connector-curvature="0"
       id="path3174"
       d="m 1159.6225,1286.0964 c 0,82.2051 -62.4984,148.8455 -139.594,148.8455 -77.09561,0 -139.59396,-66.6404 -139.59396,-148.8455 0,-82.205 62.49835,-148.8454 139.59396,-148.8454 77.0956,0 139.594,66.6404 139.594,148.8454 z" />
    <path
       stroke-miterlimit="4"
       id="path4735"
       d="m 1223.0857,708.44891 0,-229.85556 199.0605,-114.92715 199.0605,114.92715 0,229.85556 -199.0605,114.92682 -199.0605,-114.92682 z"
       inkscape:connector-curvature="0"
       style="opacity:0.98999999000000005;fill:none;stroke:#000000;stroke-width:20;stroke-miterlimit:4" />
    <path
       id="path4737"
       d="m 1557.7426,596.53143 c 0,82.20502 -62.4983,148.84546 -139.594,148.84546 -77.0956,0 -139.594,-66.64044 -139.594,-148.84546 0,-82.20507 62.4984,-148.84546 139.594,-148.84546 77.0957,0 139.594,66.64039 139.594,148.84546 z"
       inkscape:connector-curvature="0"
       style="opacity:0.98999999000000005;fill:none;filter:url(#filter4124)" />
    <path
       style="opacity:0.98999999;fill:none;stroke:#000000;stroke-width:20;stroke-miterlimit:4"
       inkscape:connector-curvature="0"
       id="path3178"
       d="m 1223.0859,708.44895 0,-229.85556 199.0604,-114.92715 199.0605,114.92715 0,229.85556 -199.0605,114.92682 -199.0604,-114.92682 z"
       stroke-miterlimit="4" />
    <path
       style="opacity:0.98999999;fill:none;stroke:#0000e8;filter:url(#filter4124)"
       inkscape:connector-curvature="0"
       id="path3180"
       d="m 1557.7426,596.53147 c 0,82.20502 -62.4983,148.84546 -139.5939,148.84546 -77.0957,0 -139.594,-66.64044 -139.594,-148.84546 0,-82.20507 62.4983,-148.84546 139.594,-148.84546 77.0956,0 139.5939,66.64039 139.5939,148.84546 z" />
    <path
       style="opacity:0.98999999;fill:none;stroke:#000000;stroke-width:20;stroke-miterlimit:4"
       inkscape:connector-curvature="0"
       id="path3184"
       d="m 1422.1456,1053.2319 0,-229.85559 199.0605,-114.92715 199.0604,114.92715 0,229.85559 -199.0604,114.9268 -199.0605,-114.9268 z"
       stroke-miterlimit="4" />
    <path
       style="opacity:0.98999999;fill:none;stroke:#0000e8;filter:url(#filter4124)"
       inkscape:connector-curvature="0"
       id="path3186"
       d="m 1756.8024,941.31439 c 0,82.20501 -62.4984,148.84551 -139.594,148.84551 -77.0956,0 -139.594,-66.6405 -139.594,-148.84551 0,-82.20507 62.4984,-148.84546 139.594,-148.84546 77.0956,0 139.594,66.64039 139.594,148.84546 z" />
    <path
       stroke-miterlimit="4"
       d="m 1621.2067,708.44891 0,-229.85556 199.0604,-114.92715 199.0605,114.92715 0,229.85556 -199.0605,114.92682 -199.0604,-114.92682 z"
       id="path4745"
       inkscape:connector-curvature="0"
       style="opacity:0.98999999000000005;fill:none;stroke:#000000;stroke-width:20;stroke-miterlimit:4" />
    <path
       d="m 1955.8635,596.53143 c 0,82.20502 -62.4984,148.84546 -139.5941,148.84546 -77.0955,0 -139.5939,-66.64044 -139.5939,-148.84546 0,-82.20507 62.4985,-148.84546 139.5939,-148.84546 77.0957,0 139.5941,66.64039 139.5941,148.84546 z"
       id="path4747"
       inkscape:connector-curvature="0"
       style="opacity:0.98999999000000005;fill:none;filter:url(#filter4124)" />
    <path
       style="opacity:0.98999999;fill:none;stroke:#000000;stroke-width:20;stroke-miterlimit:4"
       inkscape:connector-curvature="0"
       id="path3190"
       d="m 1621.2047,708.44897 0,-229.85556 199.0605,-114.92715 199.0604,114.92715 0,229.85556 -199.0604,114.92682 -199.0605,-114.92682 z"
       stroke-miterlimit="4" />
    <path
       style="opacity:0.98999999;fill:none;stroke:#0000e8;filter:url(#filter4124)"
       inkscape:connector-curvature="0"
       id="path3192"
       d="m 1955.8615,596.53149 c 0,82.20502 -62.4984,148.84546 -139.594,148.84546 -77.0956,0 -139.594,-66.64044 -139.594,-148.84546 0,-82.20507 62.4984,-148.84546 139.594,-148.84546 77.0956,0 139.594,66.64039 139.594,148.84546 z" />
    <path
       style="opacity:0.98999999;fill:none;stroke:#000000;stroke-width:20;stroke-miterlimit:4"
       inkscape:connector-curvature="0"
       id="path3196"
       d="m 1820.2647,1053.2319 0,-229.85559 199.0605,-114.92715 199.0604,114.92715 0,229.85559 -199.0604,114.9268 -199.0605,-114.9268 z"
       stroke-miterlimit="4" />
    <path
       style="opacity:0.98999999;fill:none;stroke:#0000e8;filter:url(#filter4124)"
       inkscape:connector-curvature="0"
       id="path3198"
       d="m 2154.9215,941.31439 c 0,82.20501 -62.4984,148.84551 -139.594,148.84551 -77.0956,0 -139.594,-66.6405 -139.594,-148.84551 0,-82.20507 62.4984,-148.84546 139.594,-148.84546 77.0956,0 139.594,66.64039 139.594,148.84546 z" />
    <path
       style="opacity:0.98999999;fill:none;stroke:#000000;stroke-width:20;stroke-miterlimit:4"
       inkscape:connector-curvature="0"
       id="path3202"
       d="m 1223.0859,1398.0139 0,-229.8555 199.0604,-114.9272 199.0605,114.9272 0,229.8555 -199.0605,114.9268 -199.0604,-114.9268 z"
       stroke-miterlimit="4" />
    <path
       style="opacity:0.98999999;fill:none;stroke:#0000e8;filter:url(#filter4124)"
       inkscape:connector-curvature="0"
       id="path3204"
       d="m 1557.7426,1286.0964 c 0,82.2051 -62.4983,148.8455 -139.5939,148.8455 -77.0957,0 -139.594,-66.6404 -139.594,-148.8455 0,-82.205 62.4983,-148.8454 139.594,-148.8454 77.0956,0 139.5939,66.6404 139.5939,148.8454 z" />
    <path
       style="opacity:0.98999999;fill:none;stroke:#000000;stroke-width:20;stroke-miterlimit:4"
       inkscape:connector-curvature="0"
       id="path3208"
       d="m 1621.2047,1398.0139 0,-229.8555 199.0605,-114.9272 199.0604,114.9272 0,229.8555 -199.0604,114.9268 -199.0605,-114.9268 z"
       stroke-miterlimit="4" />
    <path
       style="opacity:0.98999999;fill:none;stroke:#0000e8;filter:url(#filter4124)"
       inkscape:connector-curvature="0"
       id="path3210"
       d="m 1955.8615,1286.0964 c 0,82.2051 -62.4984,148.8455 -139.594,148.8455 -77.0956,0 -139.594,-66.6404 -139.594,-148.8455 0,-82.205 62.4984,-148.8454 139.594,-148.8454 77.0956,0 139.594,66.6404 139.594,148.8454 z" />
    <path
       stroke-miterlimit="4"
       id="path4759"
       d="m 227.78366,1742.7981 0,-229.8557 199.06049,-114.9271 199.06045,114.9271 0,229.8557 -199.06045,114.9268 -199.06049,-114.9268 z"
       inkscape:connector-curvature="0"
       style="opacity:0.98999999000000005;fill:none;stroke:#000000;stroke-width:20;stroke-miterlimit:4" />
    <path
       id="path4761"
       d="m 562.44049,1630.8805 c 0,82.2051 -62.49835,148.8456 -139.59396,148.8456 -77.09565,0 -139.59397,-66.6405 -139.59397,-148.8456 0,-82.2051 62.49832,-148.8455 139.59397,-148.8455 77.09561,0 139.59396,66.6404 139.59396,148.8455 z"
       inkscape:connector-curvature="0"
       style="opacity:0.98999999000000005;fill:none;filter:url(#filter4124)" />
    <path
       style="opacity:0.98999999;fill:none;stroke:#000000;stroke-width:20;stroke-miterlimit:4"
       inkscape:connector-curvature="0"
       id="path3214"
       d="m 227.78495,1742.7989 0,-229.8555 199.06045,-114.9272 199.06049,114.9272 0,229.8555 -199.06049,114.9268 -199.06045,-114.9268 z"
       stroke-miterlimit="4" />
    <path
       style="opacity:0.98999999;fill:none;stroke:#0000e8;filter:url(#filter4124)"
       inkscape:connector-curvature="0"
       id="path3216"
       d="m 562.44172,1630.8814 c 0,82.205 -62.49836,148.8455 -139.59394,148.8455 -77.09564,0 -139.59399,-66.6405 -139.59399,-148.8455 0,-82.205 62.49835,-148.8454 139.59399,-148.8454 77.09558,0 139.59394,66.6404 139.59394,148.8454 z" />
    <path
       stroke-miterlimit="4"
       d="m 625.90472,1742.7981 0,-229.8557 199.06049,-114.9271 199.06039,114.9271 0,229.8557 -199.06039,114.9268 -199.06049,-114.9268 z"
       id="path4769"
       inkscape:connector-curvature="0"
       style="opacity:0.98999999000000005;fill:none;stroke:#000000;stroke-width:20;stroke-miterlimit:4" />
    <path
       d="m 960.56146,1630.8805 c 0,82.2051 -62.49835,148.8456 -139.59393,148.8456 -77.09564,0 -139.594,-66.6405 -139.594,-148.8456 0,-82.2051 62.49836,-148.8455 139.594,-148.8455 77.09558,0 139.59393,66.6404 139.59393,148.8455 z"
       id="path4771"
       inkscape:connector-curvature="0"
       style="opacity:0.98999999000000005;fill:none;filter:url(#filter4124)" />
    <path
       style="opacity:0.98999999;fill:none;stroke:#000000;stroke-width:20;stroke-miterlimit:4"
       inkscape:connector-curvature="0"
       id="path3220"
       d="m 625.90445,1742.7989 0,-229.8555 199.06045,-114.9272 199.0605,114.9272 0,229.8555 -199.0605,114.9268 -199.06045,-114.9268 z"
       stroke-miterlimit="4" />
    <path
       style="opacity:0.98999999;fill:none;stroke:#0000e8;filter:url(#filter4124)"
       inkscape:connector-curvature="0"
       id="path3222"
       d="m 960.56122,1630.8814 c 0,82.205 -62.49836,148.8455 -139.59394,148.8455 -77.09564,0 -139.59399,-66.6405 -139.59399,-148.8455 0,-82.205 62.49835,-148.8454 139.59399,-148.8454 77.09558,0 139.59394,66.6404 139.59394,148.8454 z" />
    <path
       stroke-miterlimit="4"
       d="m 1024.0255,1742.7981 0,-229.8557 199.0606,-114.9271 199.0604,114.9271 0,229.8557 -199.0604,114.9268 -199.0606,-114.9268 z"
       id="path4783"
       inkscape:connector-curvature="0"
       style="opacity:0.98999999000000005;fill:none;stroke:#000000;stroke-width:20;stroke-miterlimit:4" />
    <path
       d="m 1358.6824,1630.8805 c 0,82.2051 -62.4983,148.8456 -139.594,148.8456 -77.0956,0 -139.594,-66.6405 -139.594,-148.8456 0,-82.2051 62.4984,-148.8455 139.594,-148.8455 77.0957,0 139.594,66.6404 139.594,148.8455 z"
       id="path4785"
       inkscape:connector-curvature="0"
       style="opacity:0.98999999000000005;fill:none;filter:url(#filter4124)" />
    <path
       style="opacity:0.98999999;fill:none;stroke:#000000;stroke-width:20;stroke-miterlimit:4"
       inkscape:connector-curvature="0"
       id="path3226"
       d="m 1024.0257,1742.7989 0,-229.8555 199.0605,-114.9272 199.0605,114.9272 0,229.8555 -199.0605,114.9268 -199.0605,-114.9268 z"
       stroke-miterlimit="4" />
    <path
       style="opacity:0.98999999;fill:none;stroke:#0000e8;filter:url(#filter4124)"
       inkscape:connector-curvature="0"
       id="path3228"
       d="m 1358.6825,1630.8814 c 0,82.205 -62.4984,148.8455 -139.5939,148.8455 -77.0957,0 -139.594,-66.6405 -139.594,-148.8455 0,-82.205 62.4983,-148.8454 139.594,-148.8454 77.0955,0 139.5939,66.6404 139.5939,148.8454 z" />
    <path
       stroke-miterlimit="4"
       id="path4793"
       d="m 1422.1458,1742.7981 0,-229.8557 199.0604,-114.9271 199.0605,114.9271 0,229.8557 -199.0605,114.9268 -199.0604,-114.9268 z"
       inkscape:connector-curvature="0"
       style="opacity:0.98999999000000005;fill:none;stroke:#000000;stroke-width:20;stroke-miterlimit:4" />
    <path
       id="path4795"
       d="m 1756.8025,1630.8805 c 0,82.2051 -62.4983,148.8456 -139.5939,148.8456 -77.0957,0 -139.594,-66.6405 -139.594,-148.8456 0,-82.2051 62.4983,-148.8455 139.594,-148.8455 77.0956,0 139.5939,66.6404 139.5939,148.8455 z"
       inkscape:connector-curvature="0"
       style="opacity:0.98999999000000005;fill:none;filter:url(#filter4124)" />
    <path
       style="opacity:0.98999999;fill:none;stroke:#000000;stroke-width:20;stroke-miterlimit:4"
       inkscape:connector-curvature="0"
       id="path3232"
       d="m 1422.1456,1742.7989 0,-229.8555 199.0605,-114.9272 199.0604,114.9272 0,229.8555 -199.0604,114.9268 -199.0605,-114.9268 z"
       stroke-miterlimit="4" />
    <path
       style="opacity:0.98999999;fill:none;stroke:#0000e8;filter:url(#filter4124)"
       inkscape:connector-curvature="0"
       id="path3234"
       d="m 1756.8024,1630.8814 c 0,82.205 -62.4984,148.8455 -139.594,148.8455 -77.0956,0 -139.594,-66.6405 -139.594,-148.8455 0,-82.205 62.4984,-148.8454 139.594,-148.8454 77.0956,0 139.594,66.6404 139.594,148.8454 z" />
    <path
       style="opacity:0.98999999;fill:none;stroke:#000000;stroke-width:20;stroke-miterlimit:4"
       inkscape:connector-curvature="0"
       id="path3238"
       d="m 227.78495,1053.2319 0,-229.85559 199.06045,-114.92715 199.06049,114.92715 0,229.85559 -199.06049,114.9268 -199.06045,-114.9268 z"
       stroke-miterlimit="4" />
    <path
       style="opacity:0.98999999;fill:none;stroke:#0000e8;filter:url(#filter4124)"
       inkscape:connector-curvature="0"
       id="path3240"
       d="m 562.44172,941.31439 c 0,82.20501 -62.49836,148.84551 -139.59394,148.84551 -77.09564,0 -139.59399,-66.6405 -139.59399,-148.84551 0,-82.20507 62.49835,-148.84546 139.59399,-148.84546 77.09558,0 139.59394,66.64039 139.59394,148.84546 z" />
    <path
       style="opacity:0.98999999;fill:none;stroke:#000000;stroke-width:20;stroke-miterlimit:4"
       inkscape:connector-curvature="0"
       id="path3244"
       d="m 28.7237,1398.0139 0,-229.8555 199.06045,-114.9272 199.06049,114.9272 0,229.8555 L 227.78415,1512.9407 28.7237,1398.0139 z"
       stroke-miterlimit="4" />
    <path
       style="opacity:0.98999999;fill:none;stroke:#0000e8;filter:url(#filter4124)"
       inkscape:connector-curvature="0"
       id="path3246"
       d="m 363.38047,1286.0964 c 0,82.2051 -62.49836,148.8455 -139.59394,148.8455 -77.09564,0 -139.59399,-66.6404 -139.59399,-148.8455 0,-82.205 62.49835,-148.8454 139.59399,-148.8454 77.09558,0 139.59394,66.6404 139.59394,148.8454 z" />
    <path
       style="opacity:0.98999999;fill:none;stroke:#000000;stroke-width:20;stroke-miterlimit:4"
       inkscape:connector-curvature="0"
       id="path3250"
       d="m 426.84462,2087.5789 0,-229.8555 199.06045,-114.9272 199.06049,114.9272 0,229.8555 -199.06049,114.9268 -199.06045,-114.9268 z"
       stroke-miterlimit="4" />
    <path
       style="opacity:0.98999999;fill:none;stroke:#0000e8;filter:url(#filter4124)"
       inkscape:connector-curvature="0"
       id="path3252"
       d="m 761.50139,1975.6614 c 0,82.2051 -62.49836,148.8455 -139.59394,148.8455 -77.09564,0 -139.59399,-66.6404 -139.59399,-148.8455 0,-82.205 62.49835,-148.8454 139.59399,-148.8454 77.09558,0 139.59394,66.6404 139.59394,148.8454 z" />
    <path
       style="opacity:0.98999999;fill:none;stroke:#000000;stroke-width:20;stroke-miterlimit:4"
       inkscape:connector-curvature="0"
       id="path3256"
       d="m 824.9657,2087.5789 0,-229.8555 199.0605,-114.9272 199.0604,114.9272 0,229.8555 -199.0604,114.9268 -199.0605,-114.9268 z"
       stroke-miterlimit="4" />
    <path
       style="opacity:0.98999999;fill:none;stroke:#0000e8;filter:url(#filter4124)"
       inkscape:connector-curvature="0"
       id="path3258"
       d="m 1159.6225,1975.6614 c 0,82.2051 -62.4984,148.8455 -139.594,148.8455 -77.09561,0 -139.59396,-66.6404 -139.59396,-148.8455 0,-82.205 62.49835,-148.8454 139.59396,-148.8454 77.0956,0 139.594,66.6404 139.594,148.8454 z" />
    <path
       style="opacity:0.98999999;fill:none;stroke:#000000;stroke-width:20;stroke-miterlimit:4"
       inkscape:connector-curvature="0"
       id="path3262"
       d="m 1223.0859,2087.5789 0,-229.8555 199.0604,-114.9272 199.0605,114.9272 0,229.8555 -199.0605,114.9268 -199.0604,-114.9268 z"
       stroke-miterlimit="4" />
    <path
       style="opacity:0.98999999;fill:none;stroke:#0000e8;filter:url(#filter4124)"
       inkscape:connector-curvature="0"
       id="path3264"
       d="m 1557.7426,1975.6614 c 0,82.2051 -62.4983,148.8455 -139.5939,148.8455 -77.0957,0 -139.594,-66.6404 -139.594,-148.8455 0,-82.205 62.4983,-148.8454 139.594,-148.8454 77.0956,0 139.5939,66.6404 139.5939,148.8454 z" />
    <path
       style="opacity:0.98999999;fill:none;stroke:#000000;stroke-width:20;stroke-miterlimit:4"
       inkscape:connector-curvature="0"
       id="path3268"
       d="m 1621.2047,2087.5789 0,-229.8555 199.0605,-114.9272 199.0604,114.9272 0,229.8555 -199.0604,114.9268 -199.0605,-114.9268 z"
       stroke-miterlimit="4" />
    <path
       style="opacity:0.98999999;fill:none;stroke:#0000e8;filter:url(#filter4124)"
       inkscape:connector-curvature="0"
       id="path3270"
       d="m 1955.8615,1975.6614 c 0,82.2051 -62.4984,148.8455 -139.594,148.8455 -77.0956,0 -139.594,-66.6404 -139.594,-148.8455 0,-82.205 62.4984,-148.8454 139.594,-148.8454 77.0956,0 139.594,66.6404 139.594,148.8454 z" />
    <path
       stroke-miterlimit="4"
       id="path4815"
       d="m 625.90472,2432.3579 0,-229.8552 199.06049,-114.9273 199.06039,114.9273 0,229.8552 -199.06039,114.927 -199.06049,-114.927 z"
       inkscape:connector-curvature="0"
       style="opacity:0.98999999000000005;fill:none;stroke:#000000;stroke-width:20;stroke-miterlimit:4" />
    <path
       id="path4817"
       d="m 960.56146,2320.4407 c 0,82.2048 -62.49835,148.8452 -139.59393,148.8452 -77.09564,0 -139.594,-66.6404 -139.594,-148.8452 0,-82.2051 62.49836,-148.8455 139.594,-148.8455 77.09558,0 139.59393,66.6404 139.59393,148.8455 z"
       inkscape:connector-curvature="0"
       style="opacity:0.98999999000000005;fill:none;filter:url(#filter4124)" />
    <path
       style="opacity:0.98999999;fill:none;stroke:#000000;stroke-width:20;stroke-miterlimit:4"
       inkscape:connector-curvature="0"
       id="path3274"
       d="m 625.90445,2432.3589 0,-229.8555 199.06045,-114.9272 199.0605,114.9272 0,229.8555 -199.0605,114.9268 -199.06045,-114.9268 z"
       stroke-miterlimit="4" />
    <path
       style="opacity:0.98999999;fill:none;stroke:#0000e8;filter:url(#filter4124)"
       inkscape:connector-curvature="0"
       id="path3276"
       d="m 960.56122,2320.4414 c 0,82.2051 -62.49836,148.8455 -139.59394,148.8455 -77.09564,0 -139.59399,-66.6404 -139.59399,-148.8455 0,-82.205 62.49835,-148.8454 139.59399,-148.8454 77.09558,0 139.59394,66.6404 139.59394,148.8454 z" />
    <path
       stroke-miterlimit="4"
       id="path4823"
       d="m 1024.0255,2432.3579 0,-229.8552 199.0606,-114.9273 199.0604,114.9273 0,229.8552 -199.0604,114.927 -199.0606,-114.927 z"
       inkscape:connector-curvature="0"
       style="opacity:0.98999999000000005;fill:none;stroke:#000000;stroke-width:20;stroke-miterlimit:4" />
    <path
       id="path4825"
       d="m 1358.6824,2320.4407 c 0,82.2048 -62.4983,148.8452 -139.594,148.8452 -77.0956,0 -139.594,-66.6404 -139.594,-148.8452 0,-82.2051 62.4984,-148.8455 139.594,-148.8455 77.0957,0 139.594,66.6404 139.594,148.8455 z"
       inkscape:connector-curvature="0"
       style="opacity:0.98999999000000005;fill:none;filter:url(#filter4124)" />
    <path
       style="opacity:0.98999999;fill:none;stroke:#000000;stroke-width:20;stroke-miterlimit:4"
       inkscape:connector-curvature="0"
       id="path3280"
       d="m 1024.0257,2432.3589 0,-229.8555 199.0605,-114.9272 199.0605,114.9272 0,229.8555 -199.0605,114.9268 -199.0605,-114.9268 z"
       stroke-miterlimit="4" />
    <path
       style="opacity:0.98999999;fill:none;stroke:#0000e8;filter:url(#filter4124)"
       inkscape:connector-curvature="0"
       id="path3282"
       d="m 1358.6825,2320.4414 c 0,82.2051 -62.4984,148.8455 -139.5939,148.8455 -77.0957,0 -139.594,-66.6404 -139.594,-148.8455 0,-82.205 62.4983,-148.8454 139.594,-148.8454 77.0955,0 139.5939,66.6404 139.5939,148.8454 z" />
    <path
       stroke-miterlimit="4"
       d="m 1422.1458,2432.3579 0,-229.8552 199.0604,-114.9273 199.0605,114.9273 0,229.8552 -199.0605,114.927 -199.0604,-114.927 z"
       id="path4831"
       inkscape:connector-curvature="0"
       style="opacity:0.98999999000000005;fill:none;stroke:#000000;stroke-width:20;stroke-miterlimit:4" />
    <path
       d="m 1756.8025,2320.4407 c 0,82.2048 -62.4983,148.8452 -139.5939,148.8452 -77.0957,0 -139.594,-66.6404 -139.594,-148.8452 0,-82.2051 62.4983,-148.8455 139.594,-148.8455 77.0956,0 139.5939,66.6404 139.5939,148.8455 z"
       id="path4833"
       inkscape:connector-curvature="0"
       style="opacity:0.98999999000000005;fill:none;filter:url(#filter4124)" />
    <path
       style="opacity:0.98999999;fill:none;stroke:#000000;stroke-width:20;stroke-miterlimit:4"
       inkscape:connector-curvature="0"
       id="path3286"
       d="m 1422.1456,2432.3589 0,-229.8555 199.0605,-114.9272 199.0604,114.9272 0,229.8555 -199.0604,114.9268 -199.0605,-114.9268 z"
       stroke-miterlimit="4" />
    <path
       style="opacity:0.98999999;fill:none;stroke:#0000e8;filter:url(#filter4124)"
       inkscape:connector-curvature="0"
       id="path3288"
       d="m 1756.8024,2320.4414 c 0,82.2051 -62.4984,148.8455 -139.594,148.8455 -77.0956,0 -139.594,-66.6404 -139.594,-148.8455 0,-82.205 62.4984,-148.8454 139.594,-148.8454 77.0956,0 139.594,66.6404 139.594,148.8454 z" />
    <path
       style="opacity:0.98999999;fill:none;stroke:#000000;stroke-width:20;stroke-miterlimit:4"
       inkscape:connector-curvature="0"
       id="path3292"
       d="m 625.90445,363.66595 0,-229.85556 199.06045,-114.92715 199.0605,114.92715 0,229.85556 L 824.9649,478.59277 625.90445,363.66595 z"
       stroke-miterlimit="4" />
    <path
       style="opacity:0.98999999;fill:none;stroke:#0000e8;filter:url(#filter4124)"
       inkscape:connector-curvature="0"
       id="path3294"
       d="m 962.56122,251.74847 c 0,82.20502 -62.49836,148.84546 -139.59394,148.84546 -77.09564,0 -139.59399,-66.64044 -139.59399,-148.84546 0,-82.20507 62.49835,-148.84546 139.59399,-148.84546 77.09558,0 139.59394,66.64039 139.59394,148.84546 z" />
    <path
       style="opacity:0.98999999;fill:none;stroke:#000000;stroke-width:20;stroke-miterlimit:4"
       inkscape:connector-curvature="0"
       id="path3298"
       d="m 1024.0257,363.66595 0,-229.85556 199.0605,-114.92715 199.0605,114.92715 0,229.85556 -199.0605,114.92682 -199.0605,-114.92682 z"
       stroke-miterlimit="4" />
    <path
       style="opacity:0.98999999;fill:none;stroke:#0000e8;filter:url(#filter4124)"
       inkscape:connector-curvature="0"
       id="path3300"
       d="m 1358.6825,251.74847 c 0,82.20502 -62.4984,148.84546 -139.5939,148.84546 -77.0957,0 -139.594,-66.64044 -139.594,-148.84546 0,-82.20507 62.4983,-148.84546 139.594,-148.84546 77.0955,0 139.5939,66.64039 139.5939,148.84546 z" />
    <path
       style="opacity:0.98999999;fill:none;stroke:#000000;stroke-width:20;stroke-miterlimit:4"
       inkscape:connector-curvature="0"
       id="path3304"
       d="m 1422.1456,363.66595 0,-229.85556 199.0605,-114.92715 199.0604,114.92715 0,229.85556 -199.0604,114.92682 -199.0605,-114.92682 z"
       stroke-miterlimit="4" />
    <path
       style="opacity:0.98999999;fill:none;stroke:#0000e8;filter:url(#filter4124)"
       inkscape:connector-curvature="0"
       id="path3306"
       d="m 1756.8024,251.74847 c 0,82.20502 -62.4984,148.84546 -139.594,148.84546 -77.0956,0 -139.594,-66.64044 -139.594,-148.84546 0,-82.20507 62.4984,-148.84546 139.594,-148.84546 77.0956,0 139.594,66.64039 139.594,148.84546 z" />
    <path
       style="opacity:0.98999999;fill:none;stroke:#000000;stroke-width:20;stroke-miterlimit:4"
       inkscape:connector-curvature="0"
       id="path3310"
       d="m 1820.2647,363.6669 0,-229.85556 199.0605,-114.92715 199.0604,114.92715 0,229.85556 -199.0604,114.92682 -199.0605,-114.92682 z"
       stroke-miterlimit="4" />
    <path
       style="opacity:0.98999999;fill:none;stroke:#0000e8;filter:url(#filter4124)"
       inkscape:connector-curvature="0"
       id="path3312"
       d="m 2154.9215,251.74942 c 0,82.20502 -62.4984,148.84546 -139.594,148.84546 -77.0956,0 -139.594,-66.64044 -139.594,-148.84546 0,-82.20507 62.4984,-148.84546 139.594,-148.84546 77.0956,0 139.594,66.64039 139.594,148.84546 z" />
    <path
       style="opacity:0.98999999;fill:none;stroke:#000000;stroke-width:20;stroke-miterlimit:4"
       inkscape:connector-curvature="0"
       id="path3316"
       d="m 1820.2647,2432.3589 0,-229.8555 199.0605,-114.9272 199.0604,114.9272 0,229.8555 -199.0604,114.9268 -199.0605,-114.9268 z"
       stroke-miterlimit="4" />
    <path
       style="opacity:0.98999999;fill:none;stroke:#0000e8;filter:url(#filter4124)"
       inkscape:connector-curvature="0"
       id="path3318"
       d="m 2154.9215,2320.4414 c 0,82.2051 -62.4984,148.8455 -139.594,148.8455 -77.0956,0 -139.594,-66.6404 -139.594,-148.8455 0,-82.205 62.4984,-148.8454 139.594,-148.8454 77.0956,0 139.594,66.6404 139.594,148.8454 z" />
    <path
       stroke-miterlimit="4"
       d="m 2019.3307,2087.5779 0,-229.8555 199.0604,-114.9271 199.0606,114.9271 0,229.8555 -199.0606,114.9267 -199.0604,-114.9267 z"
       id="path4873"
       inkscape:connector-curvature="0"
       style="opacity:0.98999999000000005;fill:none;stroke:#000000;stroke-width:20;stroke-miterlimit:4" />
    <path
       d="m 2353.9875,1975.6605 c 0,82.205 -62.4982,148.8454 -139.5939,148.8454 -77.0957,0 -139.594,-66.6404 -139.594,-148.8454 0,-82.2051 62.4983,-148.8456 139.594,-148.8456 77.0957,0 139.5939,66.6405 139.5939,148.8456 z"
       id="path4875"
       inkscape:connector-curvature="0"
       style="opacity:0.98999999000000005;fill:none;filter:url(#filter4124)" />
    <path
       style="opacity:0.98999999;fill:none;stroke:#000000;stroke-width:20;stroke-miterlimit:4"
       inkscape:connector-curvature="0"
       id="path3322"
       d="m 2019.3248,2087.5789 0,-229.8555 199.0605,-114.9272 199.0604,114.9272 0,229.8555 -199.0604,114.9268 -199.0605,-114.9268 z"
       stroke-miterlimit="4" />
    <path
       style="opacity:0.98999999;fill:none;stroke:#0000e8;filter:url(#filter4124)"
       inkscape:connector-curvature="0"
       id="path3324"
       d="m 2353.9816,1975.6614 c 0,82.2051 -62.4984,148.8455 -139.594,148.8455 -77.0956,0 -139.594,-66.6404 -139.594,-148.8455 0,-82.205 62.4984,-148.8454 139.594,-148.8454 77.0956,0 139.594,66.6404 139.594,148.8454 z" />
    <path
       style="opacity:0.98999999;fill:none;stroke:#000000;stroke-width:20;stroke-miterlimit:4"
       inkscape:connector-curvature="0"
       id="path3328"
       d="m 1820.2647,1742.7989 0,-229.8555 199.0605,-114.9272 199.0604,114.9272 0,229.8555 -199.0604,114.9268 -199.0605,-114.9268 z"
       stroke-miterlimit="4" />
    <path
       style="opacity:0.98999999;fill:none;stroke:#0000e8;filter:url(#filter4124)"
       inkscape:connector-curvature="0"
       id="path3330"
       d="m 2154.9215,1630.8814 c 0,82.205 -62.4984,148.8455 -139.594,148.8455 -77.0956,0 -139.594,-66.6405 -139.594,-148.8455 0,-82.205 62.4984,-148.8454 139.594,-148.8454 77.0956,0 139.594,66.6404 139.594,148.8454 z" />
    <path
       style="opacity:0.98999999;fill:none;stroke:#000000;stroke-width:20;stroke-miterlimit:4"
       inkscape:connector-curvature="0"
       id="path3334"
       d="m 2218.3849,1742.7989 0,-229.8555 199.0605,-114.9272 199.0604,114.9272 0,229.8555 -199.0604,114.9268 -199.0605,-114.9268 z"
       stroke-miterlimit="4" />
    <path
       style="opacity:0.98999999;fill:none;stroke:#0000e8;filter:url(#filter4124)"
       inkscape:connector-curvature="0"
       id="path3336"
       d="m 2553.0417,1630.8814 c 0,82.205 -62.4984,148.8455 -139.594,148.8455 -77.0956,0 -139.594,-66.6405 -139.594,-148.8455 0,-82.205 62.4984,-148.8454 139.594,-148.8454 77.0956,0 139.594,66.6404 139.594,148.8454 z" />
    <path
       style="opacity:0.98999999;fill:none;stroke:#000000;stroke-width:20;stroke-miterlimit:4"
       inkscape:connector-curvature="0"
       id="path3340"
       d="m 2019.3248,1398.0139 0,-229.8555 199.0605,-114.9272 199.0604,114.9272 0,229.8555 -199.0604,114.9268 -199.0605,-114.9268 z"
       stroke-miterlimit="4" />
    <path
       style="opacity:0.98999999;fill:none;stroke:#0000e8;filter:url(#filter4124)"
       inkscape:connector-curvature="0"
       id="path3342"
       d="m 2353.9816,1286.0964 c 0,82.2051 -62.4984,148.8455 -139.594,148.8455 -77.0956,0 -139.594,-66.6404 -139.594,-148.8455 0,-82.205 62.4984,-148.8454 139.594,-148.8454 77.0956,0 139.594,66.6404 139.594,148.8454 z" />
    <path
       style="opacity:0.98999999;fill:none;stroke:#000000;stroke-width:20;stroke-miterlimit:4"
       inkscape:connector-curvature="0"
       id="path3346"
       d="m 2019.3248,708.44899 0,-229.85556 199.0605,-114.92715 199.0604,114.92715 0,229.85556 -199.0604,114.92682 -199.0605,-114.92682 z"
       stroke-miterlimit="4" />
    <path
       style="opacity:0.98999999;fill:none;stroke:#0000e8;filter:url(#filter4124)"
       inkscape:connector-curvature="0"
       id="path3348"
       d="m 2353.9816,596.53151 c 0,82.20502 -62.4984,148.84546 -139.594,148.84546 -77.0956,0 -139.594,-66.64044 -139.594,-148.84546 0,-82.20507 62.4984,-148.84546 139.594,-148.84546 77.0956,0 139.594,66.64039 139.594,148.84546 z" />
    <path
       style="opacity:0.98999999;fill:none;stroke:#000000;stroke-width:20;stroke-miterlimit:4"
       inkscape:connector-curvature="0"
       id="path3352"
       d="m 2218.3849,1053.2319 0,-229.85559 199.0605,-114.92715 199.0604,114.92715 0,229.85559 -199.0604,114.9268 -199.0605,-114.9268 z"
       stroke-miterlimit="4" />
    <path
       style="opacity:0.98999999;fill:none;stroke:#0000e8;filter:url(#filter4124)"
       inkscape:connector-curvature="0"
       id="path3354"
       d="m 2553.0417,941.31439 c 0,82.20501 -62.4984,148.84551 -139.594,148.84551 -77.0956,0 -139.594,-66.6405 -139.594,-148.84551 0,-82.20507 62.4984,-148.84546 139.594,-148.84546 77.0956,0 139.594,66.64039 139.594,148.84546 z" />
    <path
       style="opacity:0.98999999;fill:none;stroke:#000000;stroke-width:20;stroke-miterlimit:4"
       inkscape:connector-curvature="0"
       id="path3358"
       d="m 2417.4447,1398.0139 0,-229.8555 199.0605,-114.9272 199.0604,114.9272 0,229.8555 -199.0604,114.9268 -199.0605,-114.9268 z"
       stroke-miterlimit="4" />
    <path
       style="opacity:0.98999999;fill:none;stroke:#0000e8;filter:url(#filter4124)"
       inkscape:connector-curvature="0"
       id="path3360"
       d="m 2752.1015,1286.0964 c 0,82.2051 -62.4984,148.8455 -139.594,148.8455 -77.0956,0 -139.594,-66.6404 -139.594,-148.8455 0,-82.205 62.4984,-148.8454 139.594,-148.8454 77.0956,0 139.594,66.6404 139.594,148.8454 z" />
    <path
       style="fill:none;stroke:#000000;stroke-width:16.56086922000000072;stroke-linecap:square;stroke-linejoin:miter;stroke-miterlimit:4;stroke-opacity:1;stroke-dasharray:none;marker-start:none"
       d="m 825.67647,38.620865 0,176.281515"
       id="path3970"
       inkscape:connector-curvature="0" />
    <path
       stroke-miterlimit="4"
       d="m 795.12635,264.3054 0,-33.12999 28.69137,-16.5649 28.69137,16.5649 0,33.12999 -28.69137,16.56485 -28.69137,-16.56485 z"
       id="path4152"
       inkscape:connector-curvature="0"
       style="opacity:0.98999999;fill:#000000;fill-opacity:1;stroke:#000000;stroke-width:5.1977334;stroke-linejoin:bevel;stroke-miterlimit:4;stroke-dasharray:none" />
    <path
       inkscape:connector-curvature="0"
       id="path4154"
       d="m 825.67647,281.8813 0,177.58236"
       style="fill:none;stroke:#000000;stroke-width:16.68307877;stroke-linecap:round;stroke-linejoin:miter;stroke-miterlimit:4;stroke-opacity:1;stroke-dasharray:none;marker-start:none" />
    <path
       inkscape:connector-curvature="0"
       id="path4156"
       d="m 639.96738,143.21454 152.66426,88.14075"
       style="fill:none;stroke:#000000;stroke-width:16.56086922000000072;stroke-linecap:square;stroke-linejoin:miter;stroke-miterlimit:4;stroke-opacity:1;stroke-dasharray:none;marker-start:none" />
    <path
       inkscape:connector-curvature="0"
       id="path4158"
       d="M 1007.3856,141.85535 854.7213,229.9961"
       style="fill:none;stroke:#000000;stroke-width:16.56086922000000072;stroke-linecap:square;stroke-linejoin:miter;stroke-miterlimit:4;stroke-opacity:1;stroke-dasharray:none;marker-start:none" />
  </g>
</svg>
