<?xml version="1.0" encoding="UTF-8"?>
<!DOCTYPE svg PUBLIC "-//W3C//DTD SVG 1.1//EN" "http://www.w3.org/Graphics/SVG/1.1/DTD/svg11.dtd">
<svg xmlns="http://www.w3.org/2000/svg" width="280" height="280">
   <rect x="0" y="0" width="280" height="280" fill="#e8e8e8"/>
   <rect x="5" y="5" width="50" height="50" fill="black"/>
   <rect x="6" y="6" width="48" height="48" fill="white"/>
   <rect x="60" y="5" width="50" height="50" fill="black"/>
   <rect x="61" y="6" width="48" height="48" fill="white"/>
   <rect x="115" y="5" width="50" height="50" fill="black"/>
   <rect x="116" y="6" width="48" height="48" fill="white"/>
   <rect x="170" y="5" width="50" height="50" fill="black"/>
   <rect x="171" y="6" width="48" height="48" fill="white"/>
   <rect x="225" y="5" width="50" height="50" fill="black"/>
   <rect x="226" y="6" width="48" height="48" fill="white"/>
   <rect x="5" y="60" width="50" height="50" fill="black"/>
   <rect x="6" y="61" width="48" height="48" fill="white"/>
   <rect x="60" y="60" width="50" height="50" fill="black"/>
   <rect x="61" y="61" width="48" height="48" fill="white"/>
   <rect x="115" y="60" width="50" height="50" fill="black"/>
   <rect x="116" y="61" width="48" height="48" fill="white"/>
   <rect x="170" y="60" width="50" height="50" fill="black"/>
   <rect x="171" y="61" width="48" height="48" fill="white"/>
   <rect x="225" y="60" width="50" height="50" fill="black"/>
   <rect x="226" y="61" width="48" height="48" fill="white"/>
   <rect x="5" y="115" width="50" height="50" fill="black"/>
   <rect x="6" y="116" width="48" height="48" fill="white"/>
   <rect x="60" y="115" width="50" height="50" fill="black"/>
   <rect x="61" y="116" width="48" height="48" fill="white"/>
   <rect x="115" y="115" width="50" height="50" fill="black"/>
   <rect x="116" y="116" width="48" height="48" fill="white"/>
   <rect x="170" y="115" width="50" height="50" fill="black"/>
   <rect x="171" y="116" width="48" height="48" fill="white"/>
   <rect x="225" y="115" width="50" height="50" fill="black"/>
   <rect x="226" y="116" width="48" height="48" fill="white"/>
   <rect x="5" y="170" width="50" height="50" fill="black"/>
   <rect x="6" y="171" width="48" height="48" fill="white"/>
   <rect x="60" y="170" width="50" height="50" fill="black"/>
   <rect x="61" y="171" width="48" height="48" fill="white"/>
   <rect x="115" y="170" width="50" height="50" fill="black"/>
   <rect x="116" y="171" width="48" height="48" fill="white"/>
   <rect x="170" y="170" width="50" height="50" fill="black"/>
   <rect x="171" y="171" width="48" height="48" fill="white"/>
   <rect x="225" y="170" width="50" height="50" fill="black"/>
   <rect x="226" y="171" width="48" height="48" fill="white"/>
   <rect x="5" y="225" width="50" height="50" fill="black"/>
   <rect x="6" y="226" width="48" height="48" fill="white"/>
   <rect x="60" y="225" width="50" height="50" fill="black"/>
   <rect x="61" y="226" width="48" height="48" fill="white"/>
   <rect x="115" y="225" width="50" height="50" fill="black"/>
   <rect x="116" y="226" width="48" height="48" fill="white"/>
   <rect x="170" y="225" width="50" height="50" fill="black"/>
   <rect x="171" y="226" width="48" height="48" fill="white"/>
   <rect x="225" y="225" width="50" height="50" fill="black"/>
   <rect x="226" y="226" width="48" height="48" fill="white"/>
</svg>
