<?xml version="1.0" encoding="UTF-8" ?>
<!DOCTYPE svg PUBLIC "-//W3C//DTD SVG 1.1//EN" "http://www.w3.org/Graphics/SVG/1.1/DTD/svg11.dtd">
<svg width="150pt" height="401pt" viewBox="0 0 150 401" version="1.1" xmlns="http://www.w3.org/2000/svg">
<g id="#0000ffff">
<path fill="#0000ff" opacity="1.00" d=" M 68.60 6.89 C 71.32 5.64 72.78 1.47 76.16 2.42 C 78.23 4.15 80.00 6.23 82.22 7.77 C 84.77 9.63 86.77 12.16 89.43 13.88 L 89.62 14.11 C 91.96 15.94 93.94 18.20 96.40 19.89 L 96.61 20.11 C 98.97 21.94 100.95 24.21 103.41 25.90 L 103.62 26.12 C 106.35 28.22 108.56 30.93 111.49 32.78 C 113.78 34.80 115.84 37.11 118.44 38.77 C 127.60 46.97 137.04 54.86 146.36 62.86 L 146.70 64.50 C 132.58 64.24 118.46 64.56 104.35 64.34 C 104.56 120.23 104.38 176.13 104.44 232.02 C 104.38 266.90 104.55 301.78 104.35 336.66 C 118.45 336.44 132.55 336.76 146.64 336.49 L 146.53 338.33 C 146.17 338.51 145.46 338.85 145.11 339.02 C 143.01 341.04 140.87 343.02 138.63 344.89 L 138.41 345.12 C 135.74 346.83 133.79 349.42 131.19 351.23 C 128.69 353.03 126.69 355.42 124.20 357.24 C 121.69 359.03 119.68 361.41 117.21 363.25 C 110.28 369.25 103.20 375.08 96.41 381.24 C 91.29 385.23 86.57 389.70 81.59 393.87 L 81.41 394.10 C 78.68 395.35 77.22 399.54 73.84 398.57 C 71.76 396.85 70.01 394.76 67.77 393.23 C 65.21 391.38 63.24 388.83 60.57 387.13 L 60.39 386.90 C 58.04 385.06 56.05 382.80 53.59 381.10 L 53.39 380.88 C 51.04 379.06 49.05 376.81 46.61 375.10 L 46.37 374.87 C 41.44 370.66 36.67 366.23 31.57 362.24 C 29.24 360.25 27.20 357.89 24.59 356.24 C 17.74 350.05 10.65 344.13 3.64 338.14 L 3.30 336.50 C 17.42 336.76 31.54 336.44 45.66 336.66 C 45.54 245.89 45.53 155.12 45.67 64.34 C 31.56 64.55 17.46 64.24 3.36 64.51 L 3.47 62.64 C 3.82 62.47 4.53 62.13 4.88 61.97 C 7.00 59.96 9.13 57.97 11.38 56.11 L 11.58 55.89 C 14.25 54.17 16.21 51.61 18.79 49.77 C 21.31 48.00 23.30 45.60 25.78 43.78 C 35.02 35.75 44.46 27.94 53.59 19.77 C 58.70 15.78 63.43 11.31 68.40 7.14 L 68.60 6.89 Z" />
</g>
</svg>
