<?xml version="1.0" encoding="UTF-8" standalone="no"?>
<!-- Created with Inkscape (http://www.inkscape.org/) -->

<svg
   xmlns:dc="http://purl.org/dc/elements/1.1/"
   xmlns:cc="http://creativecommons.org/ns#"
   xmlns:rdf="http://www.w3.org/1999/02/22-rdf-syntax-ns#"
   xmlns:svg="http://www.w3.org/2000/svg"
   xmlns="http://www.w3.org/2000/svg"
   xmlns:sodipodi="http://sodipodi.sourceforge.net/DTD/sodipodi-0.dtd"
   xmlns:inkscape="http://www.inkscape.org/namespaces/inkscape"
   width="36"
   height="36"
   id="svg2"
   version="1.1"
   inkscape:version="0.47pre4 r22446"
   sodipodi:docname="die5.svg">
  <defs
     id="defs4">
    <inkscape:perspective
       sodipodi:type="inkscape:persp3d"
       inkscape:vp_x="0 : 526.18109 : 1"
       inkscape:vp_y="0 : 1000 : 0"
       inkscape:vp_z="744.09448 : 526.18109 : 1"
       inkscape:persp3d-origin="372.04724 : 350.78739 : 1"
       id="perspective10" />
  </defs>
  <sodipodi:namedview
     id="base"
     pagecolor="#ffffff"
     bordercolor="#666666"
     borderopacity="1.0"
     inkscape:pageopacity="0.0"
     inkscape:pageshadow="2"
     inkscape:zoom="3.959798"
     inkscape:cx="33.180056"
     inkscape:cy="0.2302661"
     inkscape:document-units="px"
     inkscape:current-layer="layer1"
     showgrid="true"
     units="in"
     inkscape:window-width="1280"
     inkscape:window-height="726"
     inkscape:window-x="0"
     inkscape:window-y="25"
     inkscape:window-maximized="1">
    <inkscape:grid
       type="xygrid"
       id="grid2816"
       empspacing="5"
       visible="true"
       enabled="true"
       snapvisiblegridlinesonly="true" />
  </sodipodi:namedview>
  <metadata
     id="metadata7">
    <rdf:RDF>
      <cc:Work
         rdf:about="">
        <dc:format>image/svg+xml</dc:format>
        <dc:type
           rdf:resource="http://purl.org/dc/dcmitype/StillImage" />
        <dc:title></dc:title>
      </cc:Work>
    </rdf:RDF>
  </metadata>
  <g
     inkscape:label="Layer 1"
     inkscape:groupmode="layer"
     id="layer1"
     transform="translate(-4.5,-966.85975)">
    <rect
       style="fill:#ff0000;fill-opacity:1;fill-rule:evenodd;stroke:#000000;stroke-width:1px;stroke-linecap:butt;stroke-linejoin:miter;stroke-opacity:1"
       id="rect2838"
       width="35"
       height="35"
       x="5"
       y="5"
       transform="translate(0,962.35975)" />
    <path
       sodipodi:type="arc"
       style="fill:#000000;fill-opacity:1;fill-rule:evenodd;stroke:#000000;stroke-width:1px;stroke-linecap:butt;stroke-linejoin:miter;stroke-opacity:1"
       id="path2822"
       sodipodi:cx="12.5"
       sodipodi:cy="12.5"
       sodipodi:rx="2.5"
       sodipodi:ry="2.5"
       d="M 15,12.5 C 15,13.880712 13.880712,15 12.5,15 11.119288,15 10,13.880712 10,12.5 10,11.119288 11.119288,10 12.5,10 c 1.380712,0 2.5,1.119288 2.5,2.5 z"
       transform="translate(0,962.35975)" />
    <path
       sodipodi:type="arc"
       style="fill:#000000;fill-opacity:1;fill-rule:evenodd;stroke:#000000;stroke-width:1px;stroke-linecap:butt;stroke-linejoin:miter;stroke-opacity:1"
       id="path2826"
       sodipodi:cx="32.5"
       sodipodi:cy="12.5"
       sodipodi:rx="2.5"
       sodipodi:ry="2.5"
       d="M 35,12.5 C 35,13.880712 33.880712,15 32.5,15 31.119288,15 30,13.880712 30,12.5 30,11.119288 31.119288,10 32.5,10 c 1.380712,0 2.5,1.119288 2.5,2.5 z"
       transform="translate(0,962.35975)" />
    <path
       sodipodi:type="arc"
       style="fill:#000000;fill-opacity:1;fill-rule:evenodd;stroke:#000000;stroke-width:1px;stroke-linecap:butt;stroke-linejoin:miter;stroke-opacity:1"
       id="path2828"
       sodipodi:cx="12.5"
       sodipodi:cy="32.5"
       sodipodi:rx="2.5"
       sodipodi:ry="2.5"
       d="M 15,32.5 C 15,33.880712 13.880712,35 12.5,35 11.119288,35 10,33.880712 10,32.5 10,31.119288 11.119288,30 12.5,30 c 1.380712,0 2.5,1.119288 2.5,2.5 z"
       transform="translate(0,962.35975)" />
    <path
       sodipodi:type="arc"
       style="fill:#000000;fill-opacity:1;fill-rule:evenodd;stroke:#000000;stroke-width:1px;stroke-linecap:butt;stroke-linejoin:miter;stroke-opacity:1"
       id="path2832"
       sodipodi:cx="32.5"
       sodipodi:cy="32.5"
       sodipodi:rx="2.5"
       sodipodi:ry="2.5"
       d="M 35,32.5 C 35,33.880712 33.880712,35 32.5,35 31.119288,35 30,33.880712 30,32.5 30,31.119288 31.119288,30 32.5,30 c 1.380712,0 2.5,1.119288 2.5,2.5 z"
       transform="translate(0,962.35975)" />
  </g>
</svg>
