<?xml version="1.0" encoding="UTF-8" standalone="no"?>
<!-- Created with Inkscape (http://www.inkscape.org/) -->

<svg
   xmlns:dc="http://purl.org/dc/elements/1.1/"
   xmlns:cc="http://creativecommons.org/ns#"
   xmlns:rdf="http://www.w3.org/1999/02/22-rdf-syntax-ns#"
   xmlns:svg="http://www.w3.org/2000/svg"
   xmlns="http://www.w3.org/2000/svg"
   xmlns:sodipodi="http://sodipodi.sourceforge.net/DTD/sodipodi-0.dtd"
   xmlns:inkscape="http://www.inkscape.org/namespaces/inkscape"
   width="103.71875"
   height="133.5"
   id="svg19067"
   version="1.1"
   inkscape:version="0.48.2 r9819"
   sodipodi:docname="5c.svg">
  <defs
     id="defs19069" />
  <sodipodi:namedview
     id="base"
     pagecolor="#ffffff"
     bordercolor="#666666"
     borderopacity="1.0"
     inkscape:pageopacity="0.0"
     inkscape:pageshadow="2"
     inkscape:zoom="3.959798"
     inkscape:cx="85.107109"
     inkscape:cy="52.044001"
     inkscape:document-units="px"
     inkscape:current-layer="g19082"
     showgrid="false"
     width="50px"
     fit-margin-top="0"
     fit-margin-left="0"
     fit-margin-right="0"
     fit-margin-bottom="0"
     inkscape:window-width="1366"
     inkscape:window-height="720"
     inkscape:window-x="0"
     inkscape:window-y="0"
     inkscape:window-maximized="1" />
  <metadata
     id="metadata19072">
    <rdf:RDF>
      <cc:Work
         rdf:about="">
        <dc:format>image/svg+xml</dc:format>
        <dc:type
           rdf:resource="http://purl.org/dc/dcmitype/StillImage" />
        <dc:title></dc:title>
      </cc:Work>
    </rdf:RDF>
  </metadata>
  <g
     inkscape:label="Layer 1"
     inkscape:groupmode="layer"
     id="layer1"
     transform="translate(-253.84555,-299.89925)">
    <g
       transform="translate(-3453.8732,-2448.9445)"
       style="display:inline"
       id="g19082">
      <rect
         ry="23.487064"
         rx="19.030001"
         y="2771.7659"
         x="3724.0168"
         height="96.529518"
         width="68.590027"
         id="rect44078-1"
         style="fill:#a2a2a2;fill-opacity:0.58490571;stroke:#000000;stroke-width:0.30000001;stroke-miterlimit:4;stroke-opacity:1;stroke-dasharray:none;display:inline" />
      <rect
         ry="23.487064"
         rx="19.030001"
         y="2770.7529"
         x="3725.283"
         height="90.365707"
         width="67.574951"
         id="rect44080-1"
         style="fill:#ffffff;fill-opacity:1;stroke:#000000;stroke-width:0.30000001;stroke-miterlimit:4;stroke-opacity:1;stroke-dasharray:none;display:inline" />
      <path
         inkscape:connector-curvature="0"
         id="path44116-8"
         d="m 3759.071,2805.7791 c -5.308,0 -9.6243,4.5447 -9.6243,10.157 0,5.6123 4.3163,10.157 9.6243,10.157 5.3078,0 9.6239,-4.5447 9.6239,-10.157 0,-5.6123 -4.3161,-10.157 -9.6239,-10.157 z m 0,5.1521 c 2.6222,0 4.7423,2.2321 4.7423,5.0049 0,2.7728 -2.1201,5.0784 -4.7423,5.0784 -2.6224,0 -4.7423,-2.3056 -4.7423,-5.0784 0,-2.7728 2.1199,-5.0049 4.7423,-5.0049 z"
         style="fill:#d40000;fill-opacity:1;stroke:none;display:inline" />
      <path
         transform="matrix(0.06952926,0,0,0.07351668,3718.2816,2785.7455)"
         d="m 612.15247,410.66278 a 25.506351,25.506351 0 1 1 -51.0127,0 25.506351,25.506351 0 1 1 51.0127,0 z"
         sodipodi:ry="25.506351"
         sodipodi:rx="25.506351"
         sodipodi:cy="410.66278"
         sodipodi:cx="586.64612"
         id="path44118-5"
         style="fill:#d40000;fill-opacity:1;stroke:none;display:inline"
         sodipodi:type="arc" />
      <path
         inkscape:connector-curvature="0"
         id="path44120-7"
         d="m 3759.0362,2792.2365 c -12.3853,0 -22.3866,10.604 -22.3866,23.6996 0,13.0956 10.0013,23.6996 22.3866,23.6996 12.3851,0 22.4558,-10.604 22.4558,-23.6996 0,-13.0956 -10.0707,-23.6996 -22.4558,-23.6996 z m 0,8.4641 c 7.9615,0 14.436,6.8169 14.436,15.2355 0,8.4186 -6.4745,15.2353 -14.436,15.2353 -7.9619,0 -14.4362,-6.8167 -14.4362,-15.2353 0,-8.4186 6.4743,-15.2355 14.4362,-15.2355 z"
         style="fill:#d40000;fill-opacity:1;stroke:none;display:inline" />
    </g>
  </g>
</svg>
