<?xml version="1.0" encoding="UTF-8" standalone="no"?>
<!-- Created with Inkscape (http://www.inkscape.org/) -->

<svg
   xmlns:dc="http://purl.org/dc/elements/1.1/"
   xmlns:cc="http://creativecommons.org/ns#"
   xmlns:rdf="http://www.w3.org/1999/02/22-rdf-syntax-ns#"
   xmlns:svg="http://www.w3.org/2000/svg"
   xmlns="http://www.w3.org/2000/svg"
   xmlns:sodipodi="http://sodipodi.sourceforge.net/DTD/sodipodi-0.dtd"
   xmlns:inkscape="http://www.inkscape.org/namespaces/inkscape"
   width="103.71875"
   height="133.5"
   id="svg19067"
   version="1.1"
   inkscape:version="0.48.2 r9819"
   sodipodi:docname="5c.svg">
  <defs
     id="defs19069" />
  <sodipodi:namedview
     id="base"
     pagecolor="#ffffff"
     bordercolor="#666666"
     borderopacity="1.0"
     inkscape:pageopacity="0.0"
     inkscape:pageshadow="2"
     inkscape:zoom="3.959798"
     inkscape:cx="85.107109"
     inkscape:cy="52.044001"
     inkscape:document-units="px"
     inkscape:current-layer="g19082"
     showgrid="false"
     width="50px"
     fit-margin-top="0"
     fit-margin-left="0"
     fit-margin-right="0"
     fit-margin-bottom="0"
     inkscape:window-width="1366"
     inkscape:window-height="720"
     inkscape:window-x="0"
     inkscape:window-y="0"
     inkscape:window-maximized="1" />
  <metadata
     id="metadata19072">
    <rdf:RDF>
      <cc:Work
         rdf:about="">
        <dc:format>image/svg+xml</dc:format>
        <dc:type
           rdf:resource="http://purl.org/dc/dcmitype/StillImage" />
        <dc:title></dc:title>
      </cc:Work>
    </rdf:RDF>
  </metadata>
  <g
     inkscape:label="Layer 1"
     inkscape:groupmode="layer"
     id="layer1"
     transform="translate(-253.84555,-299.89925)">
    <g
       transform="translate(-3453.8732,-2448.9445)"
       style="display:inline"
       id="g19082">
      <rect
         ry="23.487064"
         rx="19.030001"
         y="2771.7659"
         x="3724.0168"
         height="96.529518"
         width="68.590027"
         id="rect44078-1"
         style="fill:#a2a2a2;fill-opacity:0.58490571;stroke:#000000;stroke-width:0.30000001;stroke-miterlimit:4;stroke-opacity:1;stroke-dasharray:none;display:inline" />
      <rect
         ry="23.487064"
         rx="19.030001"
         y="2770.7529"
         x="3725.283"
         height="90.365707"
         width="67.574951"
         id="rect44080-1"
         style="fill:#ffffff;fill-opacity:1;stroke:#000000;stroke-width:0.30000001;stroke-miterlimit:4;stroke-opacity:1;stroke-dasharray:none;display:inline" />
      <path
         style="fill:#d40000;fill-opacity:1;stroke:none;display:inline"
         d="m 3758.5164,2789.5418 c -2.9763,0 -5.3966,2.3435 -5.3966,5.2376 0,2.8941 2.4203,5.2375 5.3966,5.2375 2.9763,0 5.3964,-2.3434 5.3964,-5.2375 0,-2.8941 -2.4201,-5.2376 -5.3964,-5.2376 z m 0,2.6568 c 1.4704,0 2.6592,1.1511 2.6592,2.5808 0,1.4298 -1.1888,2.6188 -2.6592,2.6188 -1.4705,0 -2.6591,-1.189 -2.6591,-2.6188 0,-1.4297 1.1886,-2.5808 2.6591,-2.5808 z"
         id="path44084-5"
         inkscape:connector-curvature="0" />
      <path
         sodipodi:type="arc"
         style="fill:#d40000;fill-opacity:1;stroke:none;display:inline"
         id="path44086-2"
         sodipodi:cx="586.64612"
         sodipodi:cy="410.66278"
         sodipodi:rx="25.506351"
         sodipodi:ry="25.506351"
         d="m 612.15247,410.66278 a 25.506351,25.506351 0 1 1 -51.0127,0 25.506351,25.506351 0 1 1 51.0127,0 z"
         transform="matrix(0.03898701,0,0,0.03790952,3735.6447,2779.2113)" />
      <path
         style="fill:#d40000;fill-opacity:1;stroke:none;display:inline"
         d="m 3758.4969,2782.5585 c -6.9448,0 -12.5528,5.4681 -12.5528,12.2209 0,6.7528 5.608,12.2209 12.5528,12.2209 6.9447,0 12.5916,-5.4681 12.5916,-12.2209 0,-6.7528 -5.6469,-12.2209 -12.5916,-12.2209 z m 0,4.3646 c 4.4642,0 8.0947,3.5152 8.0947,7.8563 0,4.3411 -3.6305,7.8563 -8.0947,7.8563 -4.4645,0 -8.0948,-3.5152 -8.0948,-7.8563 0,-4.3411 3.6303,-7.8563 8.0948,-7.8563 z"
         id="path44088-7"
         inkscape:connector-curvature="0" />
      <path
         style="fill:#d40000;fill-opacity:1;stroke:none;display:inline"
         d="m 3758.5164,2833.7345 c -2.9763,0 -5.3966,2.3434 -5.3966,5.2375 0,2.8941 2.4203,5.2376 5.3966,5.2376 2.9763,0 5.3964,-2.3435 5.3964,-5.2376 0,-2.8941 -2.4201,-5.2375 -5.3964,-5.2375 z m 0,2.6567 c 1.4704,0 2.6592,1.151 2.6592,2.5808 0,1.4297 -1.1888,2.6187 -2.6592,2.6187 -1.4705,0 -2.6591,-1.189 -2.6591,-2.6187 0,-1.4298 1.1886,-2.5808 2.6591,-2.5808 z"
         id="path44108-2"
         inkscape:connector-curvature="0" />
      <path
         sodipodi:type="arc"
         style="fill:#d40000;fill-opacity:1;stroke:none;display:inline"
         id="path44110-1"
         sodipodi:cx="586.64612"
         sodipodi:cy="410.66278"
         sodipodi:rx="25.506351"
         sodipodi:ry="25.506351"
         d="m 612.15247,410.66278 a 25.506351,25.506351 0 1 1 -51.0127,0 25.506351,25.506351 0 1 1 51.0127,0 z"
         transform="matrix(0.03898701,0,0,0.03790952,3735.6447,2823.404)" />
      <path
         style="fill:#d40000;fill-opacity:1;stroke:none;display:inline"
         d="m 3758.4969,2826.7511 c -6.9448,0 -12.5528,5.4681 -12.5528,12.2209 0,6.7528 5.608,12.2209 12.5528,12.2209 6.9447,0 12.5916,-5.4681 12.5916,-12.2209 0,-6.7528 -5.6469,-12.2209 -12.5916,-12.2209 z m 0,4.3646 c 4.4642,0 8.0947,3.5152 8.0947,7.8563 0,4.3411 -3.6305,7.8563 -8.0947,7.8563 -4.4645,0 -8.0948,-3.5152 -8.0948,-7.8563 0,-4.3411 3.6303,-7.8563 8.0948,-7.8563 z"
         id="path44112-6"
         inkscape:connector-curvature="0" />
    </g>
  </g>
</svg>
