<?xml version="1.0" encoding="UTF-8" standalone="no"?>
<!-- Created with Inkscape (http://www.inkscape.org/) -->

<svg
   xmlns:dc="http://purl.org/dc/elements/1.1/"
   xmlns:cc="http://creativecommons.org/ns#"
   xmlns:rdf="http://www.w3.org/1999/02/22-rdf-syntax-ns#"
   xmlns:svg="http://www.w3.org/2000/svg"
   xmlns="http://www.w3.org/2000/svg"
   xmlns:sodipodi="http://sodipodi.sourceforge.net/DTD/sodipodi-0.dtd"
   xmlns:inkscape="http://www.inkscape.org/namespaces/inkscape"
   width="103.71875"
   height="133.5"
   id="svg19067"
   version="1.1"
   inkscape:version="0.48.2 r9819"
   sodipodi:docname="1c.svg">
  <defs
     id="defs19069" />
  <sodipodi:namedview
     id="base"
     pagecolor="#ffffff"
     bordercolor="#666666"
     borderopacity="1.0"
     inkscape:pageopacity="0.0"
     inkscape:pageshadow="2"
     inkscape:zoom="3.959798"
     inkscape:cx="85.107109"
     inkscape:cy="52.044001"
     inkscape:document-units="px"
     inkscape:current-layer="g19082"
     showgrid="false"
     width="50px"
     fit-margin-top="0"
     fit-margin-left="0"
     fit-margin-right="0"
     fit-margin-bottom="0"
     inkscape:window-width="1366"
     inkscape:window-height="720"
     inkscape:window-x="0"
     inkscape:window-y="0"
     inkscape:window-maximized="1" />
  <metadata
     id="metadata19072">
    <rdf:RDF>
      <cc:Work
         rdf:about="">
        <dc:format>image/svg+xml</dc:format>
        <dc:type
           rdf:resource="http://purl.org/dc/dcmitype/StillImage" />
        <dc:title></dc:title>
      </cc:Work>
    </rdf:RDF>
  </metadata>
  <g
     inkscape:label="Layer 1"
     inkscape:groupmode="layer"
     id="layer1"
     transform="translate(-253.84555,-299.89925)">
    <g
       transform="translate(-3453.8732,-2448.9445)"
       style="display:inline"
       id="g19082">
      <rect
         ry="23.487064"
         rx="19.030001"
         y="2771.7659"
         x="3724.0168"
         height="96.529518"
         width="68.590027"
         id="rect44078-1"
         style="fill:#a2a2a2;fill-opacity:0.58490571;stroke:#000000;stroke-width:0.30000001;stroke-miterlimit:4;stroke-opacity:1;stroke-dasharray:none;display:inline" />
      <rect
         ry="23.487064"
         rx="19.030001"
         y="2770.7529"
         x="3725.283"
         height="90.365707"
         width="67.574951"
         id="rect44080-1"
         style="fill:#ffffff;fill-opacity:1;stroke:#000000;stroke-width:0.30000001;stroke-miterlimit:4;stroke-opacity:1;stroke-dasharray:none;display:inline" />
      <path
         style="fill:#d40000;fill-opacity:1;stroke:none;display:inline"
         d="m 3744.6268,2793.1067 c -2.3785,0 -4.3126,1.9296 -4.3126,4.3125 0,2.383 1.9341,4.3125 4.3126,4.3125 2.3784,0 4.3124,-1.9295 4.3124,-4.3125 0,-2.3829 -1.934,-4.3125 -4.3124,-4.3125 z m 0,2.1875 c 1.175,0 2.125,0.9478 2.125,2.125 0,1.1773 -0.95,2.1563 -2.125,2.1563 -1.1751,0 -2.125,-0.979 -2.125,-2.1563 0,-1.1772 0.9499,-2.125 2.125,-2.125 z"
         id="path44084-5"
         inkscape:connector-curvature="0" />
      <path
         sodipodi:type="arc"
         style="fill:#d40000;fill-opacity:1;stroke:none;display:inline"
         id="path44086-2"
         sodipodi:cx="586.64612"
         sodipodi:cy="410.66278"
         sodipodi:rx="25.506351"
         sodipodi:ry="25.506351"
         d="m 612.15247,410.66278 a 25.506351,25.506351 0 1 1 -51.0127,0 25.506351,25.506351 0 1 1 51.0127,0 z"
         transform="matrix(0.03115567,0,0,0.03121415,3726.3493,2784.6007)" />
      <path
         style="fill:#d40000;fill-opacity:1;stroke:none;display:inline"
         d="m 3744.6112,2787.3567 c -5.5498,0 -10.0313,4.5024 -10.0313,10.0625 0,5.5602 4.4815,10.0625 10.0313,10.0625 5.5497,0 10.0623,-4.5023 10.0623,-10.0625 0,-5.5601 -4.5126,-10.0625 -10.0623,-10.0625 z m 0,3.5938 c 3.5675,0 6.4687,2.8943 6.4687,6.4687 0,3.5744 -2.9012,6.4688 -6.4687,6.4688 -3.5677,0 -6.4688,-2.8944 -6.4688,-6.4688 0,-3.5744 2.9011,-6.4687 6.4688,-6.4687 z"
         id="path44088-7"
         inkscape:connector-curvature="0" />
      <path
         style="fill:#d40000;fill-opacity:1;stroke:none;display:inline"
         d="m 3773.8702,2829.4943 c -2.3785,0 -4.3126,1.9295 -4.3126,4.3125 0,2.3829 1.9341,4.3125 4.3126,4.3125 2.3784,0 4.3124,-1.9296 4.3124,-4.3125 0,-2.383 -1.934,-4.3125 -4.3124,-4.3125 z m 0,2.1875 c 1.175,0 2.125,0.9477 2.125,2.125 0,1.1772 -0.95,2.1562 -2.125,2.1562 -1.1751,0 -2.125,-0.979 -2.125,-2.1562 0,-1.1773 0.9499,-2.125 2.125,-2.125 z"
         id="path44092-6"
         inkscape:connector-curvature="0" />
      <path
         sodipodi:type="arc"
         style="fill:#d40000;fill-opacity:1;stroke:none;display:inline"
         id="path44094-1"
         sodipodi:cx="586.64612"
         sodipodi:cy="410.66278"
         sodipodi:rx="25.506351"
         sodipodi:ry="25.506351"
         d="m 612.15247,410.66278 a 25.506351,25.506351 0 1 1 -51.0127,0 25.506351,25.506351 0 1 1 51.0127,0 z"
         transform="matrix(0.03115567,0,0,0.03121415,3755.5927,2820.9883)" />
      <path
         style="fill:#d40000;fill-opacity:1;stroke:none;display:inline"
         d="m 3773.8546,2823.7443 c -5.5498,0 -10.0313,4.5023 -10.0313,10.0625 0,5.5601 4.4815,10.0625 10.0313,10.0625 5.5497,0 10.0623,-4.5024 10.0623,-10.0625 0,-5.5602 -4.5126,-10.0625 -10.0623,-10.0625 z m 0,3.5937 c 3.5675,0 6.4687,2.8944 6.4687,6.4688 0,3.5744 -2.9012,6.4687 -6.4687,6.4687 -3.5677,0 -6.4688,-2.8943 -6.4688,-6.4687 0,-3.5744 2.9011,-6.4688 6.4688,-6.4688 z"
         id="path44096-4"
         inkscape:connector-curvature="0" />
      <path
         style="fill:#d40000;fill-opacity:1;stroke:none;display:inline"
         d="m 3773.8702,2793.1067 c -2.3785,0 -4.3126,1.9296 -4.3126,4.3125 0,2.383 1.9341,4.3125 4.3126,4.3125 2.3784,0 4.3124,-1.9295 4.3124,-4.3125 0,-2.3829 -1.934,-4.3125 -4.3124,-4.3125 z m 0,2.1875 c 1.175,0 2.125,0.9478 2.125,2.125 0,1.1773 -0.95,2.1563 -2.125,2.1563 -1.1751,0 -2.125,-0.979 -2.125,-2.1563 0,-1.1772 0.9499,-2.125 2.125,-2.125 z"
         id="path44100-2"
         inkscape:connector-curvature="0" />
      <path
         sodipodi:type="arc"
         style="fill:#d40000;fill-opacity:1;stroke:none;display:inline"
         id="path44102-3"
         sodipodi:cx="586.64612"
         sodipodi:cy="410.66278"
         sodipodi:rx="25.506351"
         sodipodi:ry="25.506351"
         d="m 612.15247,410.66278 a 25.506351,25.506351 0 1 1 -51.0127,0 25.506351,25.506351 0 1 1 51.0127,0 z"
         transform="matrix(0.03115567,0,0,0.03121415,3755.5927,2784.6007)" />
      <path
         style="fill:#d40000;fill-opacity:1;stroke:none;display:inline"
         d="m 3773.8546,2787.3567 c -5.5498,0 -10.0313,4.5024 -10.0313,10.0625 0,5.5602 4.4815,10.0625 10.0313,10.0625 5.5497,0 10.0623,-4.5023 10.0623,-10.0625 0,-5.5601 -4.5126,-10.0625 -10.0623,-10.0625 z m 0,3.5938 c 3.5675,0 6.4687,2.8943 6.4687,6.4687 0,3.5744 -2.9012,6.4688 -6.4687,6.4688 -3.5677,0 -6.4688,-2.8944 -6.4688,-6.4688 0,-3.5744 2.9011,-6.4687 6.4688,-6.4687 z"
         id="path44104-2"
         inkscape:connector-curvature="0" />
      <path
         style="fill:#d40000;fill-opacity:1;stroke:none;display:inline"
         d="m 3744.6268,2829.4943 c -2.3785,0 -4.3126,1.9295 -4.3126,4.3125 0,2.3829 1.9341,4.3125 4.3126,4.3125 2.3784,0 4.3124,-1.9296 4.3124,-4.3125 0,-2.383 -1.934,-4.3125 -4.3124,-4.3125 z m 0,2.1875 c 1.175,0 2.125,0.9477 2.125,2.125 0,1.1772 -0.95,2.1562 -2.125,2.1562 -1.1751,0 -2.125,-0.979 -2.125,-2.1562 0,-1.1773 0.9499,-2.125 2.125,-2.125 z"
         id="path44108-2"
         inkscape:connector-curvature="0" />
      <path
         sodipodi:type="arc"
         style="fill:#d40000;fill-opacity:1;stroke:none;display:inline"
         id="path44110-1"
         sodipodi:cx="586.64612"
         sodipodi:cy="410.66278"
         sodipodi:rx="25.506351"
         sodipodi:ry="25.506351"
         d="m 612.15247,410.66278 a 25.506351,25.506351 0 1 1 -51.0127,0 25.506351,25.506351 0 1 1 51.0127,0 z"
         transform="matrix(0.03115567,0,0,0.03121415,3726.3493,2820.9883)" />
      <path
         style="fill:#d40000;fill-opacity:1;stroke:none;display:inline"
         d="m 3744.6112,2823.7443 c -5.5498,0 -10.0313,4.5023 -10.0313,10.0625 0,5.5601 4.4815,10.0625 10.0313,10.0625 5.5497,0 10.0623,-4.5024 10.0623,-10.0625 0,-5.5602 -4.5126,-10.0625 -10.0623,-10.0625 z m 0,3.5937 c 3.5675,0 6.4687,2.8944 6.4687,6.4688 0,3.5744 -2.9012,6.4687 -6.4687,6.4687 -3.5677,0 -6.4688,-2.8943 -6.4688,-6.4687 0,-3.5744 2.9011,-6.4688 6.4688,-6.4688 z"
         id="path44112-6"
         inkscape:connector-curvature="0" />
      <path
         inkscape:connector-curvature="0"
         id="path44116-8"
         d="m 3759.0709,2811.6236 c -2.3785,0 -4.3126,1.9296 -4.3126,4.3125 0,2.3829 1.9341,4.3125 4.3126,4.3125 2.3784,0 4.3124,-1.9296 4.3124,-4.3125 0,-2.3829 -1.934,-4.3125 -4.3124,-4.3125 z m 0,2.1875 c 1.175,0 2.125,0.9477 2.125,2.125 0,1.1773 -0.95,2.1562 -2.125,2.1562 -1.1751,0 -2.125,-0.9789 -2.125,-2.1562 0,-1.1773 0.9499,-2.125 2.125,-2.125 z"
         style="fill:#d40000;fill-opacity:1;stroke:none;display:inline" />
      <path
         transform="matrix(0.03115567,0,0,0.03121415,3740.7934,2803.1176)"
         d="m 612.15247,410.66278 a 25.506351,25.506351 0 1 1 -51.0127,0 25.506351,25.506351 0 1 1 51.0127,0 z"
         sodipodi:ry="25.506351"
         sodipodi:rx="25.506351"
         sodipodi:cy="410.66278"
         sodipodi:cx="586.64612"
         id="path44118-5"
         style="fill:#d40000;fill-opacity:1;stroke:none;display:inline"
         sodipodi:type="arc" />
      <path
         inkscape:connector-curvature="0"
         id="path44120-7"
         d="m 3759.0553,2805.8736 c -5.5498,0 -10.0313,4.5023 -10.0313,10.0625 0,5.5602 4.4815,10.0625 10.0313,10.0625 5.5497,0 10.0623,-4.5023 10.0623,-10.0625 0,-5.5602 -4.5126,-10.0625 -10.0623,-10.0625 z m 0,3.5937 c 3.5675,0 6.4687,2.8944 6.4687,6.4688 0,3.5744 -2.9012,6.4687 -6.4687,6.4687 -3.5677,0 -6.4688,-2.8943 -6.4688,-6.4687 0,-3.5744 2.9011,-6.4688 6.4688,-6.4688 z"
         style="fill:#d40000;fill-opacity:1;stroke:none;display:inline" />
    </g>
  </g>
</svg>
