<?xml version="1.0" encoding="UTF-8" standalone="no"?>
<!-- Created with Inkscape (http://www.inkscape.org/) -->

<svg
   xmlns:dc="http://purl.org/dc/elements/1.1/"
   xmlns:cc="http://creativecommons.org/ns#"
   xmlns:rdf="http://www.w3.org/1999/02/22-rdf-syntax-ns#"
   xmlns:svg="http://www.w3.org/2000/svg"
   xmlns="http://www.w3.org/2000/svg"
   xmlns:sodipodi="http://sodipodi.sourceforge.net/DTD/sodipodi-0.dtd"
   xmlns:inkscape="http://www.inkscape.org/namespaces/inkscape"
   width="103.71875"
   height="133.5"
   id="svg19067"
   version="1.1"
   inkscape:version="0.48.2 r9819"
   sodipodi:docname="4c.svg">
  <defs
     id="defs19069" />
  <sodipodi:namedview
     id="base"
     pagecolor="#ffffff"
     bordercolor="#666666"
     borderopacity="1.0"
     inkscape:pageopacity="0.0"
     inkscape:pageshadow="2"
     inkscape:zoom="3.959798"
     inkscape:cx="85.107109"
     inkscape:cy="52.044001"
     inkscape:document-units="px"
     inkscape:current-layer="g19082"
     showgrid="false"
     width="50px"
     fit-margin-top="0"
     fit-margin-left="0"
     fit-margin-right="0"
     fit-margin-bottom="0"
     inkscape:window-width="1366"
     inkscape:window-height="720"
     inkscape:window-x="0"
     inkscape:window-y="0"
     inkscape:window-maximized="1" />
  <metadata
     id="metadata19072">
    <rdf:RDF>
      <cc:Work
         rdf:about="">
        <dc:format>image/svg+xml</dc:format>
        <dc:type
           rdf:resource="http://purl.org/dc/dcmitype/StillImage" />
        <dc:title></dc:title>
      </cc:Work>
    </rdf:RDF>
  </metadata>
  <g
     inkscape:label="Layer 1"
     inkscape:groupmode="layer"
     id="layer1"
     transform="translate(-253.84555,-299.89925)">
    <g
       transform="translate(-3453.8732,-2448.9445)"
       style="display:inline"
       id="g19082">
      <rect
         ry="23.487064"
         rx="19.030001"
         y="2771.7659"
         x="3724.0168"
         height="96.529518"
         width="68.590027"
         id="rect44078-1"
         style="fill:#a2a2a2;fill-opacity:0.58490571;stroke:#000000;stroke-width:0.30000001;stroke-miterlimit:4;stroke-opacity:1;stroke-dasharray:none;display:inline" />
      <rect
         ry="23.487064"
         rx="19.030001"
         y="2770.7529"
         x="3725.283"
         height="90.365707"
         width="67.574951"
         id="rect44080-1"
         style="fill:#ffffff;fill-opacity:1;stroke:#000000;stroke-width:0.30000001;stroke-miterlimit:4;stroke-opacity:1;stroke-dasharray:none;display:inline" />
      <path
         style="fill:#d40000;fill-opacity:1;stroke:none;display:inline"
         d="m 3742.5164,2787.9786 c -2.2589,0 -4.0958,1.7916 -4.0958,4.0042 0,2.2125 1.8369,4.0041 4.0958,4.0041 2.2589,0 4.0956,-1.7916 4.0956,-4.0041 0,-2.2126 -1.8367,-4.0042 -4.0956,-4.0042 z m 0,2.0311 c 1.1159,0 2.0182,0.88 2.0182,1.9731 0,1.0931 -0.9023,2.0021 -2.0182,2.0021 -1.1161,0 -2.0182,-0.909 -2.0182,-2.0021 0,-1.0931 0.9021,-1.9731 2.0182,-1.9731 z"
         id="path44084-5"
         inkscape:connector-curvature="0" />
      <path
         sodipodi:type="arc"
         style="fill:#d40000;fill-opacity:1;stroke:none;display:inline"
         id="path44086-2"
         sodipodi:cx="586.64612"
         sodipodi:cy="410.66278"
         sodipodi:rx="25.506351"
         sodipodi:ry="25.506351"
         d="m 612.15247,410.66278 a 25.506351,25.506351 0 1 1 -51.0127,0 25.506351,25.506351 0 1 1 51.0127,0 z"
         transform="matrix(0.02958941,0,0,0.02898236,3725.1578,2780.0807)" />
      <path
         style="fill:#d40000;fill-opacity:1;stroke:none;display:inline"
         d="m 3742.5016,2782.6397 c -5.2708,0 -9.527,4.1805 -9.527,9.3431 0,5.1626 4.2562,9.343 9.527,9.343 5.2707,0 9.5564,-4.1804 9.5564,-9.343 0,-5.1626 -4.2857,-9.3431 -9.5564,-9.3431 z m 0,3.3368 c 3.3881,0 6.1435,2.6874 6.1435,6.0063 0,3.3188 -2.7554,6.0062 -6.1435,6.0062 -3.3884,0 -6.1436,-2.6874 -6.1436,-6.0062 0,-3.3189 2.7552,-6.0063 6.1436,-6.0063 z"
         id="path44088-7"
         inkscape:connector-curvature="0" />
      <path
         style="fill:#d40000;fill-opacity:1;stroke:none;display:inline"
         d="m 3742.5164,2837.7645 c -2.2589,0 -4.0958,1.7916 -4.0958,4.0041 0,2.2126 1.8369,4.0042 4.0958,4.0042 2.2589,0 4.0956,-1.7916 4.0956,-4.0042 0,-2.2125 -1.8367,-4.0041 -4.0956,-4.0041 z m 0,2.0311 c 1.1159,0 2.0182,0.8799 2.0182,1.973 0,1.0931 -0.9023,2.0021 -2.0182,2.0021 -1.1161,0 -2.0182,-0.909 -2.0182,-2.0021 0,-1.0931 0.9021,-1.973 2.0182,-1.973 z"
         id="path44108-2"
         inkscape:connector-curvature="0" />
      <path
         sodipodi:type="arc"
         style="fill:#d40000;fill-opacity:1;stroke:none;display:inline"
         id="path44110-1"
         sodipodi:cx="586.64612"
         sodipodi:cy="410.66278"
         sodipodi:rx="25.506351"
         sodipodi:ry="25.506351"
         d="m 612.15247,410.66278 a 25.506351,25.506351 0 1 1 -51.0127,0 25.506351,25.506351 0 1 1 51.0127,0 z"
         transform="matrix(0.02958941,0,0,0.02898236,3725.1578,2829.8667)" />
      <path
         style="fill:#d40000;fill-opacity:1;stroke:none;display:inline"
         d="m 3742.5016,2832.4256 c -5.2708,0 -9.527,4.1804 -9.527,9.343 0,5.1626 4.2562,9.3431 9.527,9.3431 5.2707,0 9.5564,-4.1805 9.5564,-9.3431 0,-5.1626 -4.2857,-9.343 -9.5564,-9.343 z m 0,3.3368 c 3.3881,0 6.1435,2.6874 6.1435,6.0062 0,3.3189 -2.7554,6.0063 -6.1435,6.0063 -3.3884,0 -6.1436,-2.6874 -6.1436,-6.0063 0,-3.3188 2.7552,-6.0062 6.1436,-6.0062 z"
         id="path44112-6"
         inkscape:connector-curvature="0" />
      <path
         inkscape:connector-curvature="0"
         id="path3044"
         d="m 3774.5164,2787.9786 c -2.2589,0 -4.0958,1.7916 -4.0958,4.0042 0,2.2125 1.8369,4.0041 4.0958,4.0041 2.2589,0 4.0956,-1.7916 4.0956,-4.0041 0,-2.2126 -1.8367,-4.0042 -4.0956,-4.0042 z m 0,2.0311 c 1.1159,0 2.0182,0.88 2.0182,1.9731 0,1.0931 -0.9023,2.0021 -2.0182,2.0021 -1.1161,0 -2.0182,-0.909 -2.0182,-2.0021 0,-1.0931 0.9021,-1.9731 2.0182,-1.9731 z"
         style="fill:#d40000;fill-opacity:1;stroke:none;display:inline" />
      <path
         transform="matrix(0.02958941,0,0,0.02898236,3757.1578,2780.0807)"
         d="m 612.15247,410.66278 a 25.506351,25.506351 0 1 1 -51.0127,0 25.506351,25.506351 0 1 1 51.0127,0 z"
         sodipodi:ry="25.506351"
         sodipodi:rx="25.506351"
         sodipodi:cy="410.66278"
         sodipodi:cx="586.64612"
         id="path3046"
         style="fill:#d40000;fill-opacity:1;stroke:none;display:inline"
         sodipodi:type="arc" />
      <path
         inkscape:connector-curvature="0"
         id="path3048"
         d="m 3774.5016,2782.6397 c -5.2708,0 -9.527,4.1805 -9.527,9.3431 0,5.1626 4.2562,9.343 9.527,9.343 5.2707,0 9.5564,-4.1804 9.5564,-9.343 0,-5.1626 -4.2857,-9.3431 -9.5564,-9.3431 z m 0,3.3368 c 3.3881,0 6.1435,2.6874 6.1435,6.0063 0,3.3188 -2.7554,6.0062 -6.1435,6.0062 -3.3884,0 -6.1436,-2.6874 -6.1436,-6.0062 0,-3.3189 2.7552,-6.0063 6.1436,-6.0063 z"
         style="fill:#d40000;fill-opacity:1;stroke:none;display:inline" />
      <path
         inkscape:connector-curvature="0"
         id="path3050"
         d="m 3774.5164,2837.7645 c -2.2589,0 -4.0958,1.7916 -4.0958,4.0041 0,2.2126 1.8369,4.0042 4.0958,4.0042 2.2589,0 4.0956,-1.7916 4.0956,-4.0042 0,-2.2125 -1.8367,-4.0041 -4.0956,-4.0041 z m 0,2.0311 c 1.1159,0 2.0182,0.8799 2.0182,1.973 0,1.0931 -0.9023,2.0021 -2.0182,2.0021 -1.1161,0 -2.0182,-0.909 -2.0182,-2.0021 0,-1.0931 0.9021,-1.973 2.0182,-1.973 z"
         style="fill:#d40000;fill-opacity:1;stroke:none;display:inline" />
      <path
         transform="matrix(0.02958941,0,0,0.02898236,3757.1578,2829.8667)"
         d="m 612.15247,410.66278 a 25.506351,25.506351 0 1 1 -51.0127,0 25.506351,25.506351 0 1 1 51.0127,0 z"
         sodipodi:ry="25.506351"
         sodipodi:rx="25.506351"
         sodipodi:cy="410.66278"
         sodipodi:cx="586.64612"
         id="path3052"
         style="fill:#d40000;fill-opacity:1;stroke:none;display:inline"
         sodipodi:type="arc" />
      <path
         inkscape:connector-curvature="0"
         id="path3054"
         d="m 3774.5016,2832.4256 c -5.2708,0 -9.527,4.1804 -9.527,9.343 0,5.1626 4.2562,9.3431 9.527,9.3431 5.2707,0 9.5564,-4.1805 9.5564,-9.3431 0,-5.1626 -4.2857,-9.343 -9.5564,-9.343 z m 0,3.3368 c 3.3881,0 6.1435,2.6874 6.1435,6.0062 0,3.3189 -2.7554,6.0063 -6.1435,6.0063 -3.3884,0 -6.1436,-2.6874 -6.1436,-6.0063 0,-3.3188 2.7552,-6.0062 6.1436,-6.0062 z"
         style="fill:#d40000;fill-opacity:1;stroke:none;display:inline" />
      <path
         inkscape:connector-curvature="0"
         id="path3075"
         d="m 3742.4263,2812.7273 c -2.2589,0 -4.0958,1.7916 -4.0958,4.0042 0,2.2125 1.8369,4.0041 4.0958,4.0041 2.2589,0 4.0956,-1.7916 4.0956,-4.0041 0,-2.2126 -1.8367,-4.0042 -4.0956,-4.0042 z m 0,2.0311 c 1.1159,0 2.0182,0.88 2.0182,1.9731 0,1.0931 -0.9023,2.0021 -2.0182,2.0021 -1.1161,0 -2.0182,-0.909 -2.0182,-2.0021 0,-1.0931 0.9021,-1.9731 2.0182,-1.9731 z"
         style="fill:#d40000;fill-opacity:1;stroke:none;display:inline" />
      <path
         transform="matrix(0.02958941,0,0,0.02898236,3725.0677,2804.8294)"
         d="m 612.15247,410.66278 a 25.506351,25.506351 0 1 1 -51.0127,0 25.506351,25.506351 0 1 1 51.0127,0 z"
         sodipodi:ry="25.506351"
         sodipodi:rx="25.506351"
         sodipodi:cy="410.66278"
         sodipodi:cx="586.64612"
         id="path3077"
         style="fill:#d40000;fill-opacity:1;stroke:none;display:inline"
         sodipodi:type="arc" />
      <path
         inkscape:connector-curvature="0"
         id="path3079"
         d="m 3742.4115,2807.3884 c -5.2708,0 -9.527,4.1805 -9.527,9.3431 0,5.1626 4.2562,9.343 9.527,9.343 5.2707,0 9.5564,-4.1804 9.5564,-9.343 0,-5.1626 -4.2857,-9.3431 -9.5564,-9.3431 z m 0,3.3368 c 3.3881,0 6.1435,2.6874 6.1435,6.0063 0,3.3188 -2.7554,6.0062 -6.1435,6.0062 -3.3884,0 -6.1436,-2.6874 -6.1436,-6.0062 0,-3.3189 2.7552,-6.0063 6.1436,-6.0063 z"
         style="fill:#d40000;fill-opacity:1;stroke:none;display:inline" />
      <path
         style="fill:#d40000;fill-opacity:1;stroke:none;display:inline"
         d="m 3774.4263,2812.7273 c -2.2589,0 -4.0958,1.7916 -4.0958,4.0042 0,2.2125 1.8369,4.0041 4.0958,4.0041 2.2589,0 4.0956,-1.7916 4.0956,-4.0041 0,-2.2126 -1.8367,-4.0042 -4.0956,-4.0042 z m 0,2.0311 c 1.1159,0 2.0182,0.88 2.0182,1.9731 0,1.0931 -0.9023,2.0021 -2.0182,2.0021 -1.1161,0 -2.0182,-0.909 -2.0182,-2.0021 0,-1.0931 0.9021,-1.9731 2.0182,-1.9731 z"
         id="path3100"
         inkscape:connector-curvature="0" />
      <path
         sodipodi:type="arc"
         style="fill:#d40000;fill-opacity:1;stroke:none;display:inline"
         id="path3102"
         sodipodi:cx="586.64612"
         sodipodi:cy="410.66278"
         sodipodi:rx="25.506351"
         sodipodi:ry="25.506351"
         d="m 612.15247,410.66278 a 25.506351,25.506351 0 1 1 -51.0127,0 25.506351,25.506351 0 1 1 51.0127,0 z"
         transform="matrix(0.02958941,0,0,0.02898236,3757.0677,2804.8294)" />
      <path
         style="fill:#d40000;fill-opacity:1;stroke:none;display:inline"
         d="m 3774.4115,2807.3884 c -5.2708,0 -9.527,4.1805 -9.527,9.3431 0,5.1626 4.2562,9.343 9.527,9.343 5.2707,0 9.5564,-4.1804 9.5564,-9.343 0,-5.1626 -4.2857,-9.3431 -9.5564,-9.3431 z m 0,3.3368 c 3.3881,0 6.1435,2.6874 6.1435,6.0063 0,3.3188 -2.7554,6.0062 -6.1435,6.0062 -3.3884,0 -6.1436,-2.6874 -6.1436,-6.0062 0,-3.3189 2.7552,-6.0063 6.1436,-6.0063 z"
         id="path3104"
         inkscape:connector-curvature="0" />
    </g>
  </g>
</svg>
