<?xml version="1.0" encoding="UTF-8" standalone="no"?>
<!-- Created with Inkscape (http://www.inkscape.org/) -->

<svg
   xmlns:dc="http://purl.org/dc/elements/1.1/"
   xmlns:cc="http://creativecommons.org/ns#"
   xmlns:rdf="http://www.w3.org/1999/02/22-rdf-syntax-ns#"
   xmlns:svg="http://www.w3.org/2000/svg"
   xmlns="http://www.w3.org/2000/svg"
   xmlns:sodipodi="http://sodipodi.sourceforge.net/DTD/sodipodi-0.dtd"
   xmlns:inkscape="http://www.inkscape.org/namespaces/inkscape"
   width="103.71875"
   height="133.5"
   id="svg19067"
   version="1.1"
   inkscape:version="0.48.2 r9819"
   sodipodi:docname="6c.svg">
  <defs
     id="defs19069" />
  <sodipodi:namedview
     id="base"
     pagecolor="#ffffff"
     bordercolor="#666666"
     borderopacity="1.0"
     inkscape:pageopacity="0.0"
     inkscape:pageshadow="2"
     inkscape:zoom="3.959798"
     inkscape:cx="85.107109"
     inkscape:cy="52.044001"
     inkscape:document-units="px"
     inkscape:current-layer="g19082"
     showgrid="false"
     width="50px"
     fit-margin-top="0"
     fit-margin-left="0"
     fit-margin-right="0"
     fit-margin-bottom="0"
     inkscape:window-width="1366"
     inkscape:window-height="720"
     inkscape:window-x="0"
     inkscape:window-y="0"
     inkscape:window-maximized="1" />
  <metadata
     id="metadata19072">
    <rdf:RDF>
      <cc:Work
         rdf:about="">
        <dc:format>image/svg+xml</dc:format>
        <dc:type
           rdf:resource="http://purl.org/dc/dcmitype/StillImage" />
        <dc:title></dc:title>
      </cc:Work>
    </rdf:RDF>
  </metadata>
  <g
     inkscape:label="Layer 1"
     inkscape:groupmode="layer"
     id="layer1"
     transform="translate(-253.84555,-299.89925)">
    <g
       transform="translate(-3453.8732,-2448.9445)"
       style="display:inline"
       id="g19082">
      <rect
         ry="23.487064"
         rx="19.030001"
         y="2771.7659"
         x="3724.0168"
         height="96.529518"
         width="68.590027"
         id="rect44078-1"
         style="fill:#a2a2a2;fill-opacity:0.58490571;stroke:#000000;stroke-width:0.30000001;stroke-miterlimit:4;stroke-opacity:1;stroke-dasharray:none;display:inline" />
      <rect
         ry="23.487064"
         rx="19.030001"
         y="2770.7529"
         x="3725.283"
         height="90.365707"
         width="67.574951"
         id="rect44080-1"
         style="fill:#ffffff;fill-opacity:1;stroke:#000000;stroke-width:0.30000001;stroke-miterlimit:4;stroke-opacity:1;stroke-dasharray:none;display:inline" />
      <path
         style="fill:#d40000;fill-opacity:1;stroke:none;display:inline"
         d="m 3738.4061,2791.3891 c -1.9914,0 -3.6107,1.5802 -3.6107,3.5316 0,1.9514 1.6193,3.5315 3.6107,3.5315 1.9913,0 3.6105,-1.5801 3.6105,-3.5315 0,-1.9514 -1.6192,-3.5316 -3.6105,-3.5316 z m 0,1.7914 c 0.9837,0 1.7791,0.7761 1.7791,1.7402 0,0.9641 -0.7954,1.7658 -1.7791,1.7658 -0.9839,0 -1.7792,-0.8017 -1.7792,-1.7658 0,-0.9641 0.7953,-1.7402 1.7792,-1.7402 z"
         id="path44084-5"
         inkscape:connector-curvature="0" />
      <path
         sodipodi:type="arc"
         style="fill:#d40000;fill-opacity:1;stroke:none;display:inline"
         id="path44086-2"
         sodipodi:cx="586.64612"
         sodipodi:cy="410.66278"
         sodipodi:rx="25.506351"
         sodipodi:ry="25.506351"
         d="m 612.15247,410.66278 a 25.506351,25.506351 0 1 1 -51.0127,0 25.506351,25.506351 0 1 1 51.0127,0 z"
         transform="matrix(0.02608488,0,0,0.0255618,3723.1034,2784.4233)" />
      <path
         style="fill:#d40000;fill-opacity:1;stroke:none;display:inline"
         d="m 3738.393,2786.6803 c -4.6465,0 -8.3986,3.6871 -8.3986,8.2404 0,4.5533 3.7521,8.2403 8.3986,8.2403 4.6465,0 8.4246,-3.687 8.4246,-8.2403 0,-4.5533 -3.7781,-8.2404 -8.4246,-8.2404 z m 0,2.943 c 2.9868,0 5.4159,2.3702 5.4159,5.2974 0,2.9271 -2.4291,5.2974 -5.4159,5.2974 -2.9871,0 -5.4159,-2.3703 -5.4159,-5.2974 0,-2.9272 2.4288,-5.2974 5.4159,-5.2974 z"
         id="path44088-7"
         inkscape:connector-curvature="0" />
      <path
         style="fill:#d40000;fill-opacity:1;stroke:none;display:inline"
         d="m 3738.4061,2835.2992 c -1.9914,0 -3.6107,1.5801 -3.6107,3.5315 0,1.9514 1.6193,3.5316 3.6107,3.5316 1.9913,0 3.6105,-1.5802 3.6105,-3.5316 0,-1.9514 -1.6192,-3.5315 -3.6105,-3.5315 z m 0,1.7913 c 0.9837,0 1.7791,0.7761 1.7791,1.7402 0,0.9641 -0.7954,1.7658 -1.7791,1.7658 -0.9839,0 -1.7792,-0.8017 -1.7792,-1.7658 0,-0.9641 0.7953,-1.7402 1.7792,-1.7402 z"
         id="path44108-2"
         inkscape:connector-curvature="0" />
      <path
         sodipodi:type="arc"
         style="fill:#d40000;fill-opacity:1;stroke:none;display:inline"
         id="path44110-1"
         sodipodi:cx="586.64612"
         sodipodi:cy="410.66278"
         sodipodi:rx="25.506351"
         sodipodi:ry="25.506351"
         d="m 612.15247,410.66278 a 25.506351,25.506351 0 1 1 -51.0127,0 25.506351,25.506351 0 1 1 51.0127,0 z"
         transform="matrix(0.02608488,0,0,0.0255618,3723.1034,2828.3335)" />
      <path
         style="fill:#d40000;fill-opacity:1;stroke:none;display:inline"
         d="m 3738.393,2830.5904 c -4.6465,0 -8.3986,3.687 -8.3986,8.2403 0,4.5533 3.7521,8.2404 8.3986,8.2404 4.6465,0 8.4246,-3.6871 8.4246,-8.2404 0,-4.5533 -3.7781,-8.2403 -8.4246,-8.2403 z m 0,2.9429 c 2.9868,0 5.4159,2.3703 5.4159,5.2974 0,2.9272 -2.4291,5.2974 -5.4159,5.2974 -2.9871,0 -5.4159,-2.3702 -5.4159,-5.2974 0,-2.9271 2.4288,-5.2974 5.4159,-5.2974 z"
         id="path44112-6"
         inkscape:connector-curvature="0" />
      <path
         inkscape:connector-curvature="0"
         id="path3044"
         d="m 3778.616,2791.3891 c -1.9913,0 -3.6107,1.5802 -3.6107,3.5316 0,1.9514 1.6194,3.5315 3.6107,3.5315 1.9914,0 3.6106,-1.5801 3.6106,-3.5315 0,-1.9514 -1.6192,-3.5316 -3.6106,-3.5316 z m 0,1.7914 c 0.9838,0 1.7792,0.7761 1.7792,1.7402 0,0.9641 -0.7954,1.7658 -1.7792,1.7658 -0.9839,0 -1.7791,-0.8017 -1.7791,-1.7658 0,-0.9641 0.7952,-1.7402 1.7791,-1.7402 z"
         style="fill:#d40000;fill-opacity:1;stroke:none;display:inline" />
      <path
         transform="matrix(0.02608488,0,0,0.0255618,3763.3134,2784.4233)"
         d="m 612.15247,410.66278 a 25.506351,25.506351 0 1 1 -51.0127,0 25.506351,25.506351 0 1 1 51.0127,0 z"
         sodipodi:ry="25.506351"
         sodipodi:rx="25.506351"
         sodipodi:cy="410.66278"
         sodipodi:cx="586.64612"
         id="path3046"
         style="fill:#d40000;fill-opacity:1;stroke:none;display:inline"
         sodipodi:type="arc" />
      <path
         inkscape:connector-curvature="0"
         id="path3048"
         d="m 3778.603,2786.6803 c -4.6465,0 -8.3986,3.6871 -8.3986,8.2404 0,4.5533 3.7521,8.2403 8.3986,8.2403 4.6464,0 8.4245,-3.687 8.4245,-8.2403 0,-4.5533 -3.7781,-8.2404 -8.4245,-8.2404 z m 0,2.943 c 2.9868,0 5.4159,2.3702 5.4159,5.2974 0,2.9271 -2.4291,5.2974 -5.4159,5.2974 -2.9871,0 -5.416,-2.3703 -5.416,-5.2974 0,-2.9272 2.4289,-5.2974 5.416,-5.2974 z"
         style="fill:#d40000;fill-opacity:1;stroke:none;display:inline" />
      <path
         inkscape:connector-curvature="0"
         id="path3050"
         d="m 3778.616,2835.2992 c -1.9913,0 -3.6107,1.5801 -3.6107,3.5315 0,1.9514 1.6194,3.5316 3.6107,3.5316 1.9914,0 3.6106,-1.5802 3.6106,-3.5316 0,-1.9514 -1.6192,-3.5315 -3.6106,-3.5315 z m 0,1.7913 c 0.9838,0 1.7792,0.7761 1.7792,1.7402 0,0.9641 -0.7954,1.7658 -1.7792,1.7658 -0.9839,0 -1.7791,-0.8017 -1.7791,-1.7658 0,-0.9641 0.7952,-1.7402 1.7791,-1.7402 z"
         style="fill:#d40000;fill-opacity:1;stroke:none;display:inline" />
      <path
         transform="matrix(0.02608488,0,0,0.0255618,3763.3134,2828.3335)"
         d="m 612.15247,410.66278 a 25.506351,25.506351 0 1 1 -51.0127,0 25.506351,25.506351 0 1 1 51.0127,0 z"
         sodipodi:ry="25.506351"
         sodipodi:rx="25.506351"
         sodipodi:cy="410.66278"
         sodipodi:cx="586.64612"
         id="path3052"
         style="fill:#d40000;fill-opacity:1;stroke:none;display:inline"
         sodipodi:type="arc" />
      <path
         inkscape:connector-curvature="0"
         id="path3054"
         d="m 3778.603,2830.5904 c -4.6465,0 -8.3986,3.687 -8.3986,8.2403 0,4.5533 3.7521,8.2404 8.3986,8.2404 4.6464,0 8.4245,-3.6871 8.4245,-8.2404 0,-4.5533 -3.7781,-8.2403 -8.4245,-8.2403 z m 0,2.9429 c 2.9868,0 5.4159,2.3703 5.4159,5.2974 0,2.9272 -2.4291,5.2974 -5.4159,5.2974 -2.9871,0 -5.416,-2.3702 -5.416,-5.2974 0,-2.9271 2.4289,-5.2974 5.416,-5.2974 z"
         style="fill:#d40000;fill-opacity:1;stroke:none;display:inline" />
      <path
         inkscape:connector-curvature="0"
         id="path3075"
         d="m 3738.3266,2813.2169 c -1.9913,0 -3.6107,1.5802 -3.6107,3.5316 0,1.9514 1.6194,3.5315 3.6107,3.5315 1.9914,0 3.6106,-1.5801 3.6106,-3.5315 0,-1.9514 -1.6192,-3.5316 -3.6106,-3.5316 z m 0,1.7914 c 0.9838,0 1.7792,0.7761 1.7792,1.7402 0,0.9641 -0.7954,1.7658 -1.7792,1.7658 -0.9839,0 -1.7791,-0.8017 -1.7791,-1.7658 0,-0.9641 0.7952,-1.7402 1.7791,-1.7402 z"
         style="fill:#d40000;fill-opacity:1;stroke:none;display:inline" />
      <path
         transform="matrix(0.02608488,0,0,0.0255618,3723.024,2806.2511)"
         d="m 612.15247,410.66278 a 25.506351,25.506351 0 1 1 -51.0127,0 25.506351,25.506351 0 1 1 51.0127,0 z"
         sodipodi:ry="25.506351"
         sodipodi:rx="25.506351"
         sodipodi:cy="410.66278"
         sodipodi:cx="586.64612"
         id="path3077"
         style="fill:#d40000;fill-opacity:1;stroke:none;display:inline"
         sodipodi:type="arc" />
      <path
         inkscape:connector-curvature="0"
         id="path3079"
         d="m 3738.3136,2808.5081 c -4.6465,0 -8.3986,3.6871 -8.3986,8.2404 0,4.5533 3.7521,8.2403 8.3986,8.2403 4.6464,0 8.4245,-3.687 8.4245,-8.2403 0,-4.5533 -3.7781,-8.2404 -8.4245,-8.2404 z m 0,2.943 c 2.9868,0 5.4159,2.3702 5.4159,5.2974 0,2.9271 -2.4291,5.2974 -5.4159,5.2974 -2.9871,0 -5.416,-2.3703 -5.416,-5.2974 0,-2.9272 2.4289,-5.2974 5.416,-5.2974 z"
         style="fill:#d40000;fill-opacity:1;stroke:none;display:inline" />
      <path
         style="fill:#d40000;fill-opacity:1;stroke:none;display:inline"
         d="m 3778.5366,2813.2169 c -1.9914,0 -3.6107,1.5802 -3.6107,3.5316 0,1.9514 1.6193,3.5315 3.6107,3.5315 1.9914,0 3.6105,-1.5801 3.6105,-3.5315 0,-1.9514 -1.6191,-3.5316 -3.6105,-3.5316 z m 0,1.7914 c 0.9837,0 1.7792,0.7761 1.7792,1.7402 0,0.9641 -0.7955,1.7658 -1.7792,1.7658 -0.9839,0 -1.7792,-0.8017 -1.7792,-1.7658 0,-0.9641 0.7953,-1.7402 1.7792,-1.7402 z"
         id="path3100"
         inkscape:connector-curvature="0" />
      <path
         sodipodi:type="arc"
         style="fill:#d40000;fill-opacity:1;stroke:none;display:inline"
         id="path3102"
         sodipodi:cx="586.64612"
         sodipodi:cy="410.66278"
         sodipodi:rx="25.506351"
         sodipodi:ry="25.506351"
         d="m 612.15247,410.66278 a 25.506351,25.506351 0 1 1 -51.0127,0 25.506351,25.506351 0 1 1 51.0127,0 z"
         transform="matrix(0.02608488,0,0,0.0255618,3763.2339,2806.2511)" />
      <path
         style="fill:#d40000;fill-opacity:1;stroke:none;display:inline"
         d="m 3778.5236,2808.5081 c -4.6466,0 -8.3987,3.6871 -8.3987,8.2404 0,4.5533 3.7521,8.2403 8.3987,8.2403 4.6464,0 8.4245,-3.687 8.4245,-8.2403 0,-4.5533 -3.7781,-8.2404 -8.4245,-8.2404 z m 0,2.943 c 2.9868,0 5.4158,2.3702 5.4158,5.2974 0,2.9271 -2.429,5.2974 -5.4158,5.2974 -2.9871,0 -5.416,-2.3703 -5.416,-5.2974 0,-2.9272 2.4289,-5.2974 5.416,-5.2974 z"
         id="path3104"
         inkscape:connector-curvature="0" />
      <path
         style="fill:#d40000;fill-opacity:1;stroke:none;display:inline"
         d="m 3758.616,2791.3891 c -1.9913,0 -3.6107,1.5802 -3.6107,3.5316 0,1.9514 1.6194,3.5315 3.6107,3.5315 1.9914,0 3.6106,-1.5801 3.6106,-3.5315 0,-1.9514 -1.6192,-3.5316 -3.6106,-3.5316 z m 0,1.7914 c 0.9838,0 1.7792,0.7761 1.7792,1.7402 0,0.9641 -0.7954,1.7658 -1.7792,1.7658 -0.9839,0 -1.7791,-0.8017 -1.7791,-1.7658 0,-0.9641 0.7952,-1.7402 1.7791,-1.7402 z"
         id="path3003"
         inkscape:connector-curvature="0" />
      <path
         sodipodi:type="arc"
         style="fill:#d40000;fill-opacity:1;stroke:none;display:inline"
         id="path3005"
         sodipodi:cx="586.64612"
         sodipodi:cy="410.66278"
         sodipodi:rx="25.506351"
         sodipodi:ry="25.506351"
         d="m 612.15247,410.66278 a 25.506351,25.506351 0 1 1 -51.0127,0 25.506351,25.506351 0 1 1 51.0127,0 z"
         transform="matrix(0.02608488,0,0,0.0255618,3743.3134,2784.4233)" />
      <path
         style="fill:#d40000;fill-opacity:1;stroke:none;display:inline"
         d="m 3758.603,2786.6803 c -4.6465,0 -8.3986,3.6871 -8.3986,8.2404 0,4.5533 3.7521,8.2403 8.3986,8.2403 4.6464,0 8.4245,-3.687 8.4245,-8.2403 0,-4.5533 -3.7781,-8.2404 -8.4245,-8.2404 z m 0,2.943 c 2.9868,0 5.4159,2.3702 5.4159,5.2974 0,2.9271 -2.4291,5.2974 -5.4159,5.2974 -2.9871,0 -5.416,-2.3703 -5.416,-5.2974 0,-2.9272 2.4289,-5.2974 5.416,-5.2974 z"
         id="path3007"
         inkscape:connector-curvature="0" />
      <path
         style="fill:#d40000;fill-opacity:1;stroke:none;display:inline"
         d="m 3758.616,2835.2992 c -1.9913,0 -3.6107,1.5801 -3.6107,3.5315 0,1.9514 1.6194,3.5316 3.6107,3.5316 1.9914,0 3.6106,-1.5802 3.6106,-3.5316 0,-1.9514 -1.6192,-3.5315 -3.6106,-3.5315 z m 0,1.7913 c 0.9838,0 1.7792,0.7761 1.7792,1.7402 0,0.9641 -0.7954,1.7658 -1.7792,1.7658 -0.9839,0 -1.7791,-0.8017 -1.7791,-1.7658 0,-0.9641 0.7952,-1.7402 1.7791,-1.7402 z"
         id="path3009"
         inkscape:connector-curvature="0" />
      <path
         sodipodi:type="arc"
         style="fill:#d40000;fill-opacity:1;stroke:none;display:inline"
         id="path3011"
         sodipodi:cx="586.64612"
         sodipodi:cy="410.66278"
         sodipodi:rx="25.506351"
         sodipodi:ry="25.506351"
         d="m 612.15247,410.66278 a 25.506351,25.506351 0 1 1 -51.0127,0 25.506351,25.506351 0 1 1 51.0127,0 z"
         transform="matrix(0.02608488,0,0,0.0255618,3743.3134,2828.3335)" />
      <path
         style="fill:#d40000;fill-opacity:1;stroke:none;display:inline"
         d="m 3758.603,2830.5904 c -4.6465,0 -8.3986,3.687 -8.3986,8.2403 0,4.5533 3.7521,8.2404 8.3986,8.2404 4.6464,0 8.4245,-3.6871 8.4245,-8.2404 0,-4.5533 -3.7781,-8.2403 -8.4245,-8.2403 z m 0,2.9429 c 2.9868,0 5.4159,2.3703 5.4159,5.2974 0,2.9272 -2.4291,5.2974 -5.4159,5.2974 -2.9871,0 -5.416,-2.3702 -5.416,-5.2974 0,-2.9271 2.4289,-5.2974 5.416,-5.2974 z"
         id="path3013"
         inkscape:connector-curvature="0" />
      <path
         inkscape:connector-curvature="0"
         id="path3015"
         d="m 3758.5366,2813.2169 c -1.9914,0 -3.6107,1.5802 -3.6107,3.5316 0,1.9514 1.6193,3.5315 3.6107,3.5315 1.9914,0 3.6105,-1.5801 3.6105,-3.5315 0,-1.9514 -1.6191,-3.5316 -3.6105,-3.5316 z m 0,1.7914 c 0.9837,0 1.7792,0.7761 1.7792,1.7402 0,0.9641 -0.7955,1.7658 -1.7792,1.7658 -0.9839,0 -1.7792,-0.8017 -1.7792,-1.7658 0,-0.9641 0.7953,-1.7402 1.7792,-1.7402 z"
         style="fill:#d40000;fill-opacity:1;stroke:none;display:inline" />
      <path
         transform="matrix(0.02608488,0,0,0.0255618,3743.2339,2806.2511)"
         d="m 612.15247,410.66278 a 25.506351,25.506351 0 1 1 -51.0127,0 25.506351,25.506351 0 1 1 51.0127,0 z"
         sodipodi:ry="25.506351"
         sodipodi:rx="25.506351"
         sodipodi:cy="410.66278"
         sodipodi:cx="586.64612"
         id="path3017"
         style="fill:#d40000;fill-opacity:1;stroke:none;display:inline"
         sodipodi:type="arc" />
      <path
         inkscape:connector-curvature="0"
         id="path3019"
         d="m 3758.5236,2808.5081 c -4.6466,0 -8.3987,3.6871 -8.3987,8.2404 0,4.5533 3.7521,8.2403 8.3987,8.2403 4.6464,0 8.4245,-3.687 8.4245,-8.2403 0,-4.5533 -3.7781,-8.2404 -8.4245,-8.2404 z m 0,2.943 c 2.9868,0 5.4158,2.3702 5.4158,5.2974 0,2.9271 -2.429,5.2974 -5.4158,5.2974 -2.9871,0 -5.416,-2.3703 -5.416,-5.2974 0,-2.9272 2.4289,-5.2974 5.416,-5.2974 z"
         style="fill:#d40000;fill-opacity:1;stroke:none;display:inline" />
    </g>
  </g>
</svg>
